G04 #@! TF.GenerationSoftware,KiCad,Pcbnew,(5.0.0)*
G04 #@! TF.CreationDate,2020-06-15T19:05:26-06:00*
G04 #@! TF.ProjectId,bmp,626D702E6B696361645F706362000000,rev?*
G04 #@! TF.SameCoordinates,Original*
G04 #@! TF.FileFunction,Legend,Bot*
G04 #@! TF.FilePolarity,Positive*
%FSLAX46Y46*%
G04 Gerber Fmt 4.6, Leading zero omitted, Abs format (unit mm)*
G04 Created by KiCad (PCBNEW (5.0.0)) date 06/15/20 19:05:26*
%MOMM*%
%LPD*%
G01*
G04 APERTURE LIST*
%ADD10C,0.200000*%
%ADD11C,0.150000*%
%ADD12C,0.300000*%
%ADD13C,0.120000*%
%ADD14C,0.010000*%
G04 APERTURE END LIST*
D10*
X63911238Y-29773571D02*
X63768380Y-29821190D01*
X63720761Y-29868809D01*
X63673142Y-29964047D01*
X63673142Y-30106904D01*
X63720761Y-30202142D01*
X63768380Y-30249761D01*
X63863619Y-30297380D01*
X64244571Y-30297380D01*
X64244571Y-29297380D01*
X63911238Y-29297380D01*
X63816000Y-29345000D01*
X63768380Y-29392619D01*
X63720761Y-29487857D01*
X63720761Y-29583095D01*
X63768380Y-29678333D01*
X63816000Y-29725952D01*
X63911238Y-29773571D01*
X64244571Y-29773571D01*
X63101714Y-30297380D02*
X63196952Y-30249761D01*
X63244571Y-30154523D01*
X63244571Y-29297380D01*
X62292190Y-30297380D02*
X62292190Y-29773571D01*
X62339809Y-29678333D01*
X62435047Y-29630714D01*
X62625523Y-29630714D01*
X62720761Y-29678333D01*
X62292190Y-30249761D02*
X62387428Y-30297380D01*
X62625523Y-30297380D01*
X62720761Y-30249761D01*
X62768380Y-30154523D01*
X62768380Y-30059285D01*
X62720761Y-29964047D01*
X62625523Y-29916428D01*
X62387428Y-29916428D01*
X62292190Y-29868809D01*
X61387428Y-30249761D02*
X61482666Y-30297380D01*
X61673142Y-30297380D01*
X61768380Y-30249761D01*
X61816000Y-30202142D01*
X61863619Y-30106904D01*
X61863619Y-29821190D01*
X61816000Y-29725952D01*
X61768380Y-29678333D01*
X61673142Y-29630714D01*
X61482666Y-29630714D01*
X61387428Y-29678333D01*
X60958857Y-30297380D02*
X60958857Y-29297380D01*
X60863619Y-29916428D02*
X60577904Y-30297380D01*
X60577904Y-29630714D02*
X60958857Y-30011666D01*
X60149333Y-30297380D02*
X60149333Y-29630714D01*
X60149333Y-29725952D02*
X60101714Y-29678333D01*
X60006476Y-29630714D01*
X59863619Y-29630714D01*
X59768380Y-29678333D01*
X59720761Y-29773571D01*
X59720761Y-30297380D01*
X59720761Y-29773571D02*
X59673142Y-29678333D01*
X59577904Y-29630714D01*
X59435047Y-29630714D01*
X59339809Y-29678333D01*
X59292190Y-29773571D01*
X59292190Y-30297380D01*
X58387428Y-30297380D02*
X58387428Y-29773571D01*
X58435047Y-29678333D01*
X58530285Y-29630714D01*
X58720761Y-29630714D01*
X58816000Y-29678333D01*
X58387428Y-30249761D02*
X58482666Y-30297380D01*
X58720761Y-30297380D01*
X58816000Y-30249761D01*
X58863619Y-30154523D01*
X58863619Y-30059285D01*
X58816000Y-29964047D01*
X58720761Y-29916428D01*
X58482666Y-29916428D01*
X58387428Y-29868809D01*
X57482666Y-29630714D02*
X57482666Y-30440238D01*
X57530285Y-30535476D01*
X57577904Y-30583095D01*
X57673142Y-30630714D01*
X57816000Y-30630714D01*
X57911238Y-30583095D01*
X57482666Y-30249761D02*
X57577904Y-30297380D01*
X57768380Y-30297380D01*
X57863619Y-30249761D01*
X57911238Y-30202142D01*
X57958857Y-30106904D01*
X57958857Y-29821190D01*
X57911238Y-29725952D01*
X57863619Y-29678333D01*
X57768380Y-29630714D01*
X57577904Y-29630714D01*
X57482666Y-29678333D01*
X57006476Y-30297380D02*
X57006476Y-29630714D01*
X57006476Y-29297380D02*
X57054095Y-29345000D01*
X57006476Y-29392619D01*
X56958857Y-29345000D01*
X57006476Y-29297380D01*
X57006476Y-29392619D01*
X56101714Y-30249761D02*
X56196952Y-30297380D01*
X56387428Y-30297380D01*
X56482666Y-30249761D01*
X56530285Y-30202142D01*
X56577904Y-30106904D01*
X56577904Y-29821190D01*
X56530285Y-29725952D01*
X56482666Y-29678333D01*
X56387428Y-29630714D01*
X56196952Y-29630714D01*
X56101714Y-29678333D01*
X54911238Y-30297380D02*
X54911238Y-29297380D01*
X54530285Y-29297380D01*
X54435047Y-29345000D01*
X54387428Y-29392619D01*
X54339809Y-29487857D01*
X54339809Y-29630714D01*
X54387428Y-29725952D01*
X54435047Y-29773571D01*
X54530285Y-29821190D01*
X54911238Y-29821190D01*
X53911238Y-30297380D02*
X53911238Y-29630714D01*
X53911238Y-29821190D02*
X53863619Y-29725952D01*
X53816000Y-29678333D01*
X53720761Y-29630714D01*
X53625523Y-29630714D01*
X53149333Y-30297380D02*
X53244571Y-30249761D01*
X53292190Y-30202142D01*
X53339809Y-30106904D01*
X53339809Y-29821190D01*
X53292190Y-29725952D01*
X53244571Y-29678333D01*
X53149333Y-29630714D01*
X53006476Y-29630714D01*
X52911238Y-29678333D01*
X52863619Y-29725952D01*
X52816000Y-29821190D01*
X52816000Y-30106904D01*
X52863619Y-30202142D01*
X52911238Y-30249761D01*
X53006476Y-30297380D01*
X53149333Y-30297380D01*
X52387428Y-30297380D02*
X52387428Y-29297380D01*
X52387428Y-29678333D02*
X52292190Y-29630714D01*
X52101714Y-29630714D01*
X52006476Y-29678333D01*
X51958857Y-29725952D01*
X51911238Y-29821190D01*
X51911238Y-30106904D01*
X51958857Y-30202142D01*
X52006476Y-30249761D01*
X52101714Y-30297380D01*
X52292190Y-30297380D01*
X52387428Y-30249761D01*
X51101714Y-30249761D02*
X51196952Y-30297380D01*
X51387428Y-30297380D01*
X51482666Y-30249761D01*
X51530285Y-30154523D01*
X51530285Y-29773571D01*
X51482666Y-29678333D01*
X51387428Y-29630714D01*
X51196952Y-29630714D01*
X51101714Y-29678333D01*
X51054095Y-29773571D01*
X51054095Y-29868809D01*
X51530285Y-29964047D01*
X50006476Y-29297380D02*
X49673142Y-30297380D01*
X49339809Y-29297380D01*
X48482666Y-30297380D02*
X49054095Y-30297380D01*
X48768380Y-30297380D02*
X48768380Y-29297380D01*
X48863619Y-29440238D01*
X48958857Y-29535476D01*
X49054095Y-29583095D01*
X46720761Y-30202142D02*
X46768380Y-30249761D01*
X46911238Y-30297380D01*
X47006476Y-30297380D01*
X47149333Y-30249761D01*
X47244571Y-30154523D01*
X47292190Y-30059285D01*
X47339809Y-29868809D01*
X47339809Y-29725952D01*
X47292190Y-29535476D01*
X47244571Y-29440238D01*
X47149333Y-29345000D01*
X47006476Y-29297380D01*
X46911238Y-29297380D01*
X46768380Y-29345000D01*
X46720761Y-29392619D01*
X46149333Y-30297380D02*
X46244571Y-30249761D01*
X46292190Y-30202142D01*
X46339809Y-30106904D01*
X46339809Y-29821190D01*
X46292190Y-29725952D01*
X46244571Y-29678333D01*
X46149333Y-29630714D01*
X46006476Y-29630714D01*
X45911238Y-29678333D01*
X45863619Y-29725952D01*
X45816000Y-29821190D01*
X45816000Y-30106904D01*
X45863619Y-30202142D01*
X45911238Y-30249761D01*
X46006476Y-30297380D01*
X46149333Y-30297380D01*
X45387428Y-30297380D02*
X45387428Y-29630714D01*
X45387428Y-29725952D02*
X45339809Y-29678333D01*
X45244571Y-29630714D01*
X45101714Y-29630714D01*
X45006476Y-29678333D01*
X44958857Y-29773571D01*
X44958857Y-30297380D01*
X44958857Y-29773571D02*
X44911238Y-29678333D01*
X44816000Y-29630714D01*
X44673142Y-29630714D01*
X44577904Y-29678333D01*
X44530285Y-29773571D01*
X44530285Y-30297380D01*
X44054095Y-29630714D02*
X44054095Y-30630714D01*
X44054095Y-29678333D02*
X43958857Y-29630714D01*
X43768380Y-29630714D01*
X43673142Y-29678333D01*
X43625523Y-29725952D01*
X43577904Y-29821190D01*
X43577904Y-30106904D01*
X43625523Y-30202142D01*
X43673142Y-30249761D01*
X43768380Y-30297380D01*
X43958857Y-30297380D01*
X44054095Y-30249761D01*
X42720761Y-30297380D02*
X42720761Y-29773571D01*
X42768380Y-29678333D01*
X42863619Y-29630714D01*
X43054095Y-29630714D01*
X43149333Y-29678333D01*
X42720761Y-30249761D02*
X42816000Y-30297380D01*
X43054095Y-30297380D01*
X43149333Y-30249761D01*
X43196952Y-30154523D01*
X43196952Y-30059285D01*
X43149333Y-29964047D01*
X43054095Y-29916428D01*
X42816000Y-29916428D01*
X42720761Y-29868809D01*
X42387428Y-29630714D02*
X42006476Y-29630714D01*
X42244571Y-29297380D02*
X42244571Y-30154523D01*
X42196952Y-30249761D01*
X42101714Y-30297380D01*
X42006476Y-30297380D01*
X41673142Y-30297380D02*
X41673142Y-29630714D01*
X41673142Y-29297380D02*
X41720761Y-29345000D01*
X41673142Y-29392619D01*
X41625523Y-29345000D01*
X41673142Y-29297380D01*
X41673142Y-29392619D01*
X41196952Y-30297380D02*
X41196952Y-29297380D01*
X41196952Y-29678333D02*
X41101714Y-29630714D01*
X40911238Y-29630714D01*
X40816000Y-29678333D01*
X40768380Y-29725952D01*
X40720761Y-29821190D01*
X40720761Y-30106904D01*
X40768380Y-30202142D01*
X40816000Y-30249761D01*
X40911238Y-30297380D01*
X41101714Y-30297380D01*
X41196952Y-30249761D01*
X40149333Y-30297380D02*
X40244571Y-30249761D01*
X40292190Y-30154523D01*
X40292190Y-29297380D01*
X39387428Y-30249761D02*
X39482666Y-30297380D01*
X39673142Y-30297380D01*
X39768380Y-30249761D01*
X39816000Y-30154523D01*
X39816000Y-29773571D01*
X39768380Y-29678333D01*
X39673142Y-29630714D01*
X39482666Y-29630714D01*
X39387428Y-29678333D01*
X39339809Y-29773571D01*
X39339809Y-29868809D01*
X39816000Y-29964047D01*
D11*
X36256261Y-37553380D02*
X35684833Y-37553380D01*
X35970547Y-38553380D02*
X35970547Y-37553380D01*
X35351500Y-38553380D02*
X35351500Y-37553380D01*
X35018166Y-38267666D01*
X34684833Y-37553380D01*
X34684833Y-38553380D01*
X34256261Y-38505761D02*
X34113404Y-38553380D01*
X33875309Y-38553380D01*
X33780071Y-38505761D01*
X33732452Y-38458142D01*
X33684833Y-38362904D01*
X33684833Y-38267666D01*
X33732452Y-38172428D01*
X33780071Y-38124809D01*
X33875309Y-38077190D01*
X34065785Y-38029571D01*
X34161023Y-37981952D01*
X34208642Y-37934333D01*
X34256261Y-37839095D01*
X34256261Y-37743857D01*
X34208642Y-37648619D01*
X34161023Y-37601000D01*
X34065785Y-37553380D01*
X33827690Y-37553380D01*
X33684833Y-37601000D01*
X32494357Y-38029571D02*
X31732452Y-38029571D01*
X31732452Y-38315285D02*
X32494357Y-38315285D01*
X30541976Y-38505761D02*
X30399119Y-38553380D01*
X30161023Y-38553380D01*
X30065785Y-38505761D01*
X30018166Y-38458142D01*
X29970547Y-38362904D01*
X29970547Y-38267666D01*
X30018166Y-38172428D01*
X30065785Y-38124809D01*
X30161023Y-38077190D01*
X30351500Y-38029571D01*
X30446738Y-37981952D01*
X30494357Y-37934333D01*
X30541976Y-37839095D01*
X30541976Y-37743857D01*
X30494357Y-37648619D01*
X30446738Y-37601000D01*
X30351500Y-37553380D01*
X30113404Y-37553380D01*
X29970547Y-37601000D01*
X29637214Y-37553380D02*
X29399119Y-38553380D01*
X29208642Y-37839095D01*
X29018166Y-38553380D01*
X28780071Y-37553380D01*
X28399119Y-38553380D02*
X28399119Y-37553380D01*
X28161023Y-37553380D01*
X28018166Y-37601000D01*
X27922928Y-37696238D01*
X27875309Y-37791476D01*
X27827690Y-37981952D01*
X27827690Y-38124809D01*
X27875309Y-38315285D01*
X27922928Y-38410523D01*
X28018166Y-38505761D01*
X28161023Y-38553380D01*
X28399119Y-38553380D01*
X27399119Y-38553380D02*
X27399119Y-37553380D01*
X26732452Y-37553380D02*
X26541976Y-37553380D01*
X26446738Y-37601000D01*
X26351500Y-37696238D01*
X26303880Y-37886714D01*
X26303880Y-38220047D01*
X26351500Y-38410523D01*
X26446738Y-38505761D01*
X26541976Y-38553380D01*
X26732452Y-38553380D01*
X26827690Y-38505761D01*
X26922928Y-38410523D01*
X26970547Y-38220047D01*
X26970547Y-37886714D01*
X26922928Y-37696238D01*
X26827690Y-37601000D01*
X26732452Y-37553380D01*
X36256261Y-39203380D02*
X35684833Y-39203380D01*
X35970547Y-40203380D02*
X35970547Y-39203380D01*
X34780071Y-40108142D02*
X34827690Y-40155761D01*
X34970547Y-40203380D01*
X35065785Y-40203380D01*
X35208642Y-40155761D01*
X35303880Y-40060523D01*
X35351500Y-39965285D01*
X35399119Y-39774809D01*
X35399119Y-39631952D01*
X35351500Y-39441476D01*
X35303880Y-39346238D01*
X35208642Y-39251000D01*
X35065785Y-39203380D01*
X34970547Y-39203380D01*
X34827690Y-39251000D01*
X34780071Y-39298619D01*
X34351500Y-40203380D02*
X34351500Y-39203380D01*
X33780071Y-40203380D02*
X34208642Y-39631952D01*
X33780071Y-39203380D02*
X34351500Y-39774809D01*
X32589595Y-39679571D02*
X31827690Y-39679571D01*
X31827690Y-39965285D02*
X32589595Y-39965285D01*
X30637214Y-40155761D02*
X30494357Y-40203380D01*
X30256261Y-40203380D01*
X30161023Y-40155761D01*
X30113404Y-40108142D01*
X30065785Y-40012904D01*
X30065785Y-39917666D01*
X30113404Y-39822428D01*
X30161023Y-39774809D01*
X30256261Y-39727190D01*
X30446738Y-39679571D01*
X30541976Y-39631952D01*
X30589595Y-39584333D01*
X30637214Y-39489095D01*
X30637214Y-39393857D01*
X30589595Y-39298619D01*
X30541976Y-39251000D01*
X30446738Y-39203380D01*
X30208642Y-39203380D01*
X30065785Y-39251000D01*
X29732452Y-39203380D02*
X29494357Y-40203380D01*
X29303880Y-39489095D01*
X29113404Y-40203380D01*
X28875309Y-39203380D01*
X28494357Y-40203380D02*
X28494357Y-39203380D01*
X28256261Y-39203380D01*
X28113404Y-39251000D01*
X28018166Y-39346238D01*
X27970547Y-39441476D01*
X27922928Y-39631952D01*
X27922928Y-39774809D01*
X27970547Y-39965285D01*
X28018166Y-40060523D01*
X28113404Y-40155761D01*
X28256261Y-40203380D01*
X28494357Y-40203380D01*
X26922928Y-40108142D02*
X26970547Y-40155761D01*
X27113404Y-40203380D01*
X27208642Y-40203380D01*
X27351500Y-40155761D01*
X27446738Y-40060523D01*
X27494357Y-39965285D01*
X27541976Y-39774809D01*
X27541976Y-39631952D01*
X27494357Y-39441476D01*
X27446738Y-39346238D01*
X27351500Y-39251000D01*
X27208642Y-39203380D01*
X27113404Y-39203380D01*
X26970547Y-39251000D01*
X26922928Y-39298619D01*
X26494357Y-40203380D02*
X26494357Y-39203380D01*
X25922928Y-40203380D02*
X26351500Y-39631952D01*
X25922928Y-39203380D02*
X26494357Y-39774809D01*
X36256261Y-40853380D02*
X35684833Y-40853380D01*
X35970547Y-41853380D02*
X35970547Y-40853380D01*
X35351500Y-41853380D02*
X35351500Y-40853380D01*
X35113404Y-40853380D01*
X34970547Y-40901000D01*
X34875309Y-40996238D01*
X34827690Y-41091476D01*
X34780071Y-41281952D01*
X34780071Y-41424809D01*
X34827690Y-41615285D01*
X34875309Y-41710523D01*
X34970547Y-41805761D01*
X35113404Y-41853380D01*
X35351500Y-41853380D01*
X34161023Y-40853380D02*
X33970547Y-40853380D01*
X33875309Y-40901000D01*
X33780071Y-40996238D01*
X33732452Y-41186714D01*
X33732452Y-41520047D01*
X33780071Y-41710523D01*
X33875309Y-41805761D01*
X33970547Y-41853380D01*
X34161023Y-41853380D01*
X34256261Y-41805761D01*
X34351500Y-41710523D01*
X34399119Y-41520047D01*
X34399119Y-41186714D01*
X34351500Y-40996238D01*
X34256261Y-40901000D01*
X34161023Y-40853380D01*
X32541976Y-41329571D02*
X31780071Y-41329571D01*
X31780071Y-41615285D02*
X32541976Y-41615285D01*
X30589595Y-41805761D02*
X30446738Y-41853380D01*
X30208642Y-41853380D01*
X30113404Y-41805761D01*
X30065785Y-41758142D01*
X30018166Y-41662904D01*
X30018166Y-41567666D01*
X30065785Y-41472428D01*
X30113404Y-41424809D01*
X30208642Y-41377190D01*
X30399119Y-41329571D01*
X30494357Y-41281952D01*
X30541976Y-41234333D01*
X30589595Y-41139095D01*
X30589595Y-41043857D01*
X30541976Y-40948619D01*
X30494357Y-40901000D01*
X30399119Y-40853380D01*
X30161023Y-40853380D01*
X30018166Y-40901000D01*
X29684833Y-40853380D02*
X29446738Y-41853380D01*
X29256261Y-41139095D01*
X29065785Y-41853380D01*
X28827690Y-40853380D01*
X28256261Y-40853380D02*
X28065785Y-40853380D01*
X27970547Y-40901000D01*
X27875309Y-40996238D01*
X27827690Y-41186714D01*
X27827690Y-41520047D01*
X27875309Y-41710523D01*
X27970547Y-41805761D01*
X28065785Y-41853380D01*
X28256261Y-41853380D01*
X28351500Y-41805761D01*
X28446738Y-41710523D01*
X28494357Y-41520047D01*
X28494357Y-41186714D01*
X28446738Y-40996238D01*
X28351500Y-40901000D01*
X28256261Y-40853380D01*
X65847261Y-31712380D02*
X65275833Y-31712380D01*
X65561547Y-32712380D02*
X65561547Y-31712380D01*
X64942500Y-32712380D02*
X64942500Y-31712380D01*
X64561547Y-31712380D01*
X64466309Y-31760000D01*
X64418690Y-31807619D01*
X64371071Y-31902857D01*
X64371071Y-32045714D01*
X64418690Y-32140952D01*
X64466309Y-32188571D01*
X64561547Y-32236190D01*
X64942500Y-32236190D01*
X64037738Y-31712380D02*
X63799642Y-32712380D01*
X63609166Y-31998095D01*
X63418690Y-32712380D01*
X63180595Y-31712380D01*
X62228214Y-32712380D02*
X62561547Y-32236190D01*
X62799642Y-32712380D02*
X62799642Y-31712380D01*
X62418690Y-31712380D01*
X62323452Y-31760000D01*
X62275833Y-31807619D01*
X62228214Y-31902857D01*
X62228214Y-32045714D01*
X62275833Y-32140952D01*
X62323452Y-32188571D01*
X62418690Y-32236190D01*
X62799642Y-32236190D01*
X65180595Y-33410000D02*
X65275833Y-33362380D01*
X65418690Y-33362380D01*
X65561547Y-33410000D01*
X65656785Y-33505238D01*
X65704404Y-33600476D01*
X65752023Y-33790952D01*
X65752023Y-33933809D01*
X65704404Y-34124285D01*
X65656785Y-34219523D01*
X65561547Y-34314761D01*
X65418690Y-34362380D01*
X65323452Y-34362380D01*
X65180595Y-34314761D01*
X65132976Y-34267142D01*
X65132976Y-33933809D01*
X65323452Y-33933809D01*
X64704404Y-34362380D02*
X64704404Y-33362380D01*
X64132976Y-34362380D01*
X64132976Y-33362380D01*
X63656785Y-34362380D02*
X63656785Y-33362380D01*
X63418690Y-33362380D01*
X63275833Y-33410000D01*
X63180595Y-33505238D01*
X63132976Y-33600476D01*
X63085357Y-33790952D01*
X63085357Y-33933809D01*
X63132976Y-34124285D01*
X63180595Y-34219523D01*
X63275833Y-34314761D01*
X63418690Y-34362380D01*
X63656785Y-34362380D01*
X65180595Y-35060000D02*
X65275833Y-35012380D01*
X65418690Y-35012380D01*
X65561547Y-35060000D01*
X65656785Y-35155238D01*
X65704404Y-35250476D01*
X65752023Y-35440952D01*
X65752023Y-35583809D01*
X65704404Y-35774285D01*
X65656785Y-35869523D01*
X65561547Y-35964761D01*
X65418690Y-36012380D01*
X65323452Y-36012380D01*
X65180595Y-35964761D01*
X65132976Y-35917142D01*
X65132976Y-35583809D01*
X65323452Y-35583809D01*
X64704404Y-36012380D02*
X64704404Y-35012380D01*
X64132976Y-36012380D01*
X64132976Y-35012380D01*
X63656785Y-36012380D02*
X63656785Y-35012380D01*
X63418690Y-35012380D01*
X63275833Y-35060000D01*
X63180595Y-35155238D01*
X63132976Y-35250476D01*
X63085357Y-35440952D01*
X63085357Y-35583809D01*
X63132976Y-35774285D01*
X63180595Y-35869523D01*
X63275833Y-35964761D01*
X63418690Y-36012380D01*
X63656785Y-36012380D01*
X65704404Y-37662380D02*
X65704404Y-36662380D01*
X65132976Y-37662380D01*
X65132976Y-36662380D01*
X64085357Y-37567142D02*
X64132976Y-37614761D01*
X64275833Y-37662380D01*
X64371071Y-37662380D01*
X64513928Y-37614761D01*
X64609166Y-37519523D01*
X64656785Y-37424285D01*
X64704404Y-37233809D01*
X64704404Y-37090952D01*
X64656785Y-36900476D01*
X64609166Y-36805238D01*
X64513928Y-36710000D01*
X64371071Y-36662380D01*
X64275833Y-36662380D01*
X64132976Y-36710000D01*
X64085357Y-36757619D01*
X65180595Y-38360000D02*
X65275833Y-38312380D01*
X65418690Y-38312380D01*
X65561547Y-38360000D01*
X65656785Y-38455238D01*
X65704404Y-38550476D01*
X65752023Y-38740952D01*
X65752023Y-38883809D01*
X65704404Y-39074285D01*
X65656785Y-39169523D01*
X65561547Y-39264761D01*
X65418690Y-39312380D01*
X65323452Y-39312380D01*
X65180595Y-39264761D01*
X65132976Y-39217142D01*
X65132976Y-38883809D01*
X65323452Y-38883809D01*
X64704404Y-39312380D02*
X64704404Y-38312380D01*
X64132976Y-39312380D01*
X64132976Y-38312380D01*
X63656785Y-39312380D02*
X63656785Y-38312380D01*
X63418690Y-38312380D01*
X63275833Y-38360000D01*
X63180595Y-38455238D01*
X63132976Y-38550476D01*
X63085357Y-38740952D01*
X63085357Y-38883809D01*
X63132976Y-39074285D01*
X63180595Y-39169523D01*
X63275833Y-39264761D01*
X63418690Y-39312380D01*
X63656785Y-39312380D01*
X69530261Y-31712380D02*
X68958833Y-31712380D01*
X69244547Y-32712380D02*
X69244547Y-31712380D01*
X68625500Y-32712380D02*
X68625500Y-31712380D01*
X68292166Y-32426666D01*
X67958833Y-31712380D01*
X67958833Y-32712380D01*
X67530261Y-32664761D02*
X67387404Y-32712380D01*
X67149309Y-32712380D01*
X67054071Y-32664761D01*
X67006452Y-32617142D01*
X66958833Y-32521904D01*
X66958833Y-32426666D01*
X67006452Y-32331428D01*
X67054071Y-32283809D01*
X67149309Y-32236190D01*
X67339785Y-32188571D01*
X67435023Y-32140952D01*
X67482642Y-32093333D01*
X67530261Y-31998095D01*
X67530261Y-31902857D01*
X67482642Y-31807619D01*
X67435023Y-31760000D01*
X67339785Y-31712380D01*
X67101690Y-31712380D01*
X66958833Y-31760000D01*
X69530261Y-33362380D02*
X68958833Y-33362380D01*
X69244547Y-34362380D02*
X69244547Y-33362380D01*
X68054071Y-34267142D02*
X68101690Y-34314761D01*
X68244547Y-34362380D01*
X68339785Y-34362380D01*
X68482642Y-34314761D01*
X68577880Y-34219523D01*
X68625500Y-34124285D01*
X68673119Y-33933809D01*
X68673119Y-33790952D01*
X68625500Y-33600476D01*
X68577880Y-33505238D01*
X68482642Y-33410000D01*
X68339785Y-33362380D01*
X68244547Y-33362380D01*
X68101690Y-33410000D01*
X68054071Y-33457619D01*
X67625500Y-34362380D02*
X67625500Y-33362380D01*
X67054071Y-34362380D02*
X67482642Y-33790952D01*
X67054071Y-33362380D02*
X67625500Y-33933809D01*
X69530261Y-35012380D02*
X68958833Y-35012380D01*
X69244547Y-36012380D02*
X69244547Y-35012380D01*
X68625500Y-36012380D02*
X68625500Y-35012380D01*
X68387404Y-35012380D01*
X68244547Y-35060000D01*
X68149309Y-35155238D01*
X68101690Y-35250476D01*
X68054071Y-35440952D01*
X68054071Y-35583809D01*
X68101690Y-35774285D01*
X68149309Y-35869523D01*
X68244547Y-35964761D01*
X68387404Y-36012380D01*
X68625500Y-36012380D01*
X67435023Y-35012380D02*
X67244547Y-35012380D01*
X67149309Y-35060000D01*
X67054071Y-35155238D01*
X67006452Y-35345714D01*
X67006452Y-35679047D01*
X67054071Y-35869523D01*
X67149309Y-35964761D01*
X67244547Y-36012380D01*
X67435023Y-36012380D01*
X67530261Y-35964761D01*
X67625500Y-35869523D01*
X67673119Y-35679047D01*
X67673119Y-35345714D01*
X67625500Y-35155238D01*
X67530261Y-35060000D01*
X67435023Y-35012380D01*
X69530261Y-36662380D02*
X68958833Y-36662380D01*
X69244547Y-37662380D02*
X69244547Y-36662380D01*
X68625500Y-37662380D02*
X68625500Y-36662380D01*
X68387404Y-36662380D01*
X68244547Y-36710000D01*
X68149309Y-36805238D01*
X68101690Y-36900476D01*
X68054071Y-37090952D01*
X68054071Y-37233809D01*
X68101690Y-37424285D01*
X68149309Y-37519523D01*
X68244547Y-37614761D01*
X68387404Y-37662380D01*
X68625500Y-37662380D01*
X67625500Y-37662380D02*
X67625500Y-36662380D01*
X68815976Y-39312380D02*
X69149309Y-38836190D01*
X69387404Y-39312380D02*
X69387404Y-38312380D01*
X69006452Y-38312380D01*
X68911214Y-38360000D01*
X68863595Y-38407619D01*
X68815976Y-38502857D01*
X68815976Y-38645714D01*
X68863595Y-38740952D01*
X68911214Y-38788571D01*
X69006452Y-38836190D01*
X69387404Y-38836190D01*
X68435023Y-39264761D02*
X68292166Y-39312380D01*
X68054071Y-39312380D01*
X67958833Y-39264761D01*
X67911214Y-39217142D01*
X67863595Y-39121904D01*
X67863595Y-39026666D01*
X67911214Y-38931428D01*
X67958833Y-38883809D01*
X68054071Y-38836190D01*
X68244547Y-38788571D01*
X68339785Y-38740952D01*
X68387404Y-38693333D01*
X68435023Y-38598095D01*
X68435023Y-38502857D01*
X68387404Y-38407619D01*
X68339785Y-38360000D01*
X68244547Y-38312380D01*
X68006452Y-38312380D01*
X67863595Y-38360000D01*
X67577880Y-38312380D02*
X67006452Y-38312380D01*
X67292166Y-39312380D02*
X67292166Y-38312380D01*
D12*
X71176857Y-26983571D02*
X71176857Y-27983571D01*
X71176857Y-27126428D02*
X71105428Y-27055000D01*
X70962571Y-26983571D01*
X70748285Y-26983571D01*
X70605428Y-27055000D01*
X70534000Y-27197857D01*
X70534000Y-27983571D01*
X68962571Y-27983571D02*
X69462571Y-27269285D01*
X69819714Y-27983571D02*
X69819714Y-26483571D01*
X69248285Y-26483571D01*
X69105428Y-26555000D01*
X69034000Y-26626428D01*
X68962571Y-26769285D01*
X68962571Y-26983571D01*
X69034000Y-27126428D01*
X69105428Y-27197857D01*
X69248285Y-27269285D01*
X69819714Y-27269285D01*
X67819714Y-27197857D02*
X68319714Y-27197857D01*
X68319714Y-27983571D02*
X68319714Y-26483571D01*
X67605428Y-26483571D01*
X66319714Y-26483571D02*
X67034000Y-26483571D01*
X67105428Y-27197857D01*
X67034000Y-27126428D01*
X66891142Y-27055000D01*
X66534000Y-27055000D01*
X66391142Y-27126428D01*
X66319714Y-27197857D01*
X66248285Y-27340714D01*
X66248285Y-27697857D01*
X66319714Y-27840714D01*
X66391142Y-27912142D01*
X66534000Y-27983571D01*
X66891142Y-27983571D01*
X67034000Y-27912142D01*
X67105428Y-27840714D01*
X65676857Y-26626428D02*
X65605428Y-26555000D01*
X65462571Y-26483571D01*
X65105428Y-26483571D01*
X64962571Y-26555000D01*
X64891142Y-26626428D01*
X64819714Y-26769285D01*
X64819714Y-26912142D01*
X64891142Y-27126428D01*
X65748285Y-27983571D01*
X64819714Y-27983571D01*
X62248285Y-26555000D02*
X62391142Y-26483571D01*
X62605428Y-26483571D01*
X62819714Y-26555000D01*
X62962571Y-26697857D01*
X63034000Y-26840714D01*
X63105428Y-27126428D01*
X63105428Y-27340714D01*
X63034000Y-27626428D01*
X62962571Y-27769285D01*
X62819714Y-27912142D01*
X62605428Y-27983571D01*
X62462571Y-27983571D01*
X62248285Y-27912142D01*
X62176857Y-27840714D01*
X62176857Y-27340714D01*
X62462571Y-27340714D01*
X61534000Y-27983571D02*
X61534000Y-26483571D01*
X61176857Y-26483571D01*
X60962571Y-26555000D01*
X60819714Y-26697857D01*
X60748285Y-26840714D01*
X60676857Y-27126428D01*
X60676857Y-27340714D01*
X60748285Y-27626428D01*
X60819714Y-27769285D01*
X60962571Y-27912142D01*
X61176857Y-27983571D01*
X61534000Y-27983571D01*
X59534000Y-27197857D02*
X59319714Y-27269285D01*
X59248285Y-27340714D01*
X59176857Y-27483571D01*
X59176857Y-27697857D01*
X59248285Y-27840714D01*
X59319714Y-27912142D01*
X59462571Y-27983571D01*
X60034000Y-27983571D01*
X60034000Y-26483571D01*
X59534000Y-26483571D01*
X59391142Y-26555000D01*
X59319714Y-26626428D01*
X59248285Y-26769285D01*
X59248285Y-26912142D01*
X59319714Y-27055000D01*
X59391142Y-27126428D01*
X59534000Y-27197857D01*
X60034000Y-27197857D01*
X57391142Y-27983571D02*
X57391142Y-26483571D01*
X57034000Y-26483571D01*
X56819714Y-26555000D01*
X56676857Y-26697857D01*
X56605428Y-26840714D01*
X56534000Y-27126428D01*
X56534000Y-27340714D01*
X56605428Y-27626428D01*
X56676857Y-27769285D01*
X56819714Y-27912142D01*
X57034000Y-27983571D01*
X57391142Y-27983571D01*
X55319714Y-27912142D02*
X55462571Y-27983571D01*
X55748285Y-27983571D01*
X55891142Y-27912142D01*
X55962571Y-27769285D01*
X55962571Y-27197857D01*
X55891142Y-27055000D01*
X55748285Y-26983571D01*
X55462571Y-26983571D01*
X55319714Y-27055000D01*
X55248285Y-27197857D01*
X55248285Y-27340714D01*
X55962571Y-27483571D01*
X54605428Y-27983571D02*
X54605428Y-26483571D01*
X54605428Y-27055000D02*
X54462571Y-26983571D01*
X54176857Y-26983571D01*
X54034000Y-27055000D01*
X53962571Y-27126428D01*
X53891142Y-27269285D01*
X53891142Y-27697857D01*
X53962571Y-27840714D01*
X54034000Y-27912142D01*
X54176857Y-27983571D01*
X54462571Y-27983571D01*
X54605428Y-27912142D01*
X52605428Y-26983571D02*
X52605428Y-27983571D01*
X53248285Y-26983571D02*
X53248285Y-27769285D01*
X53176857Y-27912142D01*
X53034000Y-27983571D01*
X52819714Y-27983571D01*
X52676857Y-27912142D01*
X52605428Y-27840714D01*
X51248285Y-26983571D02*
X51248285Y-28197857D01*
X51319714Y-28340714D01*
X51391142Y-28412142D01*
X51534000Y-28483571D01*
X51748285Y-28483571D01*
X51891142Y-28412142D01*
X51248285Y-27912142D02*
X51391142Y-27983571D01*
X51676857Y-27983571D01*
X51819714Y-27912142D01*
X51891142Y-27840714D01*
X51962571Y-27697857D01*
X51962571Y-27269285D01*
X51891142Y-27126428D01*
X51819714Y-27055000D01*
X51676857Y-26983571D01*
X51391142Y-26983571D01*
X51248285Y-27055000D01*
X49891142Y-26983571D02*
X49891142Y-28197857D01*
X49962571Y-28340714D01*
X50034000Y-28412142D01*
X50176857Y-28483571D01*
X50391142Y-28483571D01*
X50534000Y-28412142D01*
X49891142Y-27912142D02*
X50034000Y-27983571D01*
X50319714Y-27983571D01*
X50462571Y-27912142D01*
X50534000Y-27840714D01*
X50605428Y-27697857D01*
X50605428Y-27269285D01*
X50534000Y-27126428D01*
X50462571Y-27055000D01*
X50319714Y-26983571D01*
X50034000Y-26983571D01*
X49891142Y-27055000D01*
X48605428Y-27912142D02*
X48748285Y-27983571D01*
X49034000Y-27983571D01*
X49176857Y-27912142D01*
X49248285Y-27769285D01*
X49248285Y-27197857D01*
X49176857Y-27055000D01*
X49034000Y-26983571D01*
X48748285Y-26983571D01*
X48605428Y-27055000D01*
X48534000Y-27197857D01*
X48534000Y-27340714D01*
X49248285Y-27483571D01*
X47891142Y-27983571D02*
X47891142Y-26983571D01*
X47891142Y-27269285D02*
X47819714Y-27126428D01*
X47748285Y-27055000D01*
X47605428Y-26983571D01*
X47462571Y-26983571D01*
X45819714Y-27412142D02*
X44676857Y-27412142D01*
X42891142Y-26626428D02*
X42819714Y-26555000D01*
X42676857Y-26483571D01*
X42319714Y-26483571D01*
X42176857Y-26555000D01*
X42105428Y-26626428D01*
X42034000Y-26769285D01*
X42034000Y-26912142D01*
X42105428Y-27126428D01*
X42962571Y-27983571D01*
X42034000Y-27983571D01*
X41105428Y-26483571D02*
X40962571Y-26483571D01*
X40819714Y-26555000D01*
X40748285Y-26626428D01*
X40676857Y-26769285D01*
X40605428Y-27055000D01*
X40605428Y-27412142D01*
X40676857Y-27697857D01*
X40748285Y-27840714D01*
X40819714Y-27912142D01*
X40962571Y-27983571D01*
X41105428Y-27983571D01*
X41248285Y-27912142D01*
X41319714Y-27840714D01*
X41391142Y-27697857D01*
X41462571Y-27412142D01*
X41462571Y-27055000D01*
X41391142Y-26769285D01*
X41319714Y-26626428D01*
X41248285Y-26555000D01*
X41105428Y-26483571D01*
X40034000Y-26626428D02*
X39962571Y-26555000D01*
X39819714Y-26483571D01*
X39462571Y-26483571D01*
X39319714Y-26555000D01*
X39248285Y-26626428D01*
X39176857Y-26769285D01*
X39176857Y-26912142D01*
X39248285Y-27126428D01*
X40105428Y-27983571D01*
X39176857Y-27983571D01*
X38248285Y-26483571D02*
X38105428Y-26483571D01*
X37962571Y-26555000D01*
X37891142Y-26626428D01*
X37819714Y-26769285D01*
X37748285Y-27055000D01*
X37748285Y-27412142D01*
X37819714Y-27697857D01*
X37891142Y-27840714D01*
X37962571Y-27912142D01*
X38105428Y-27983571D01*
X38248285Y-27983571D01*
X38391142Y-27912142D01*
X38462571Y-27840714D01*
X38534000Y-27697857D01*
X38605428Y-27412142D01*
X38605428Y-27055000D01*
X38534000Y-26769285D01*
X38462571Y-26626428D01*
X38391142Y-26555000D01*
X38248285Y-26483571D01*
X37105428Y-27412142D02*
X35962571Y-27412142D01*
X34962571Y-26483571D02*
X34819714Y-26483571D01*
X34676857Y-26555000D01*
X34605428Y-26626428D01*
X34534000Y-26769285D01*
X34462571Y-27055000D01*
X34462571Y-27412142D01*
X34534000Y-27697857D01*
X34605428Y-27840714D01*
X34676857Y-27912142D01*
X34819714Y-27983571D01*
X34962571Y-27983571D01*
X35105428Y-27912142D01*
X35176857Y-27840714D01*
X35248285Y-27697857D01*
X35319714Y-27412142D01*
X35319714Y-27055000D01*
X35248285Y-26769285D01*
X35176857Y-26626428D01*
X35105428Y-26555000D01*
X34962571Y-26483571D01*
X33176857Y-26483571D02*
X33462571Y-26483571D01*
X33605428Y-26555000D01*
X33676857Y-26626428D01*
X33819714Y-26840714D01*
X33891142Y-27126428D01*
X33891142Y-27697857D01*
X33819714Y-27840714D01*
X33748285Y-27912142D01*
X33605428Y-27983571D01*
X33319714Y-27983571D01*
X33176857Y-27912142D01*
X33105428Y-27840714D01*
X33034000Y-27697857D01*
X33034000Y-27340714D01*
X33105428Y-27197857D01*
X33176857Y-27126428D01*
X33319714Y-27055000D01*
X33605428Y-27055000D01*
X33748285Y-27126428D01*
X33819714Y-27197857D01*
X33891142Y-27340714D01*
X32391142Y-27412142D02*
X31248285Y-27412142D01*
X29748285Y-27983571D02*
X30605428Y-27983571D01*
X30176857Y-27983571D02*
X30176857Y-26483571D01*
X30319714Y-26697857D01*
X30462571Y-26840714D01*
X30605428Y-26912142D01*
X28391142Y-26483571D02*
X29105428Y-26483571D01*
X29176857Y-27197857D01*
X29105428Y-27126428D01*
X28962571Y-27055000D01*
X28605428Y-27055000D01*
X28462571Y-27126428D01*
X28391142Y-27197857D01*
X28319714Y-27340714D01*
X28319714Y-27697857D01*
X28391142Y-27840714D01*
X28462571Y-27912142D01*
X28605428Y-27983571D01*
X28962571Y-27983571D01*
X29105428Y-27912142D01*
X29176857Y-27840714D01*
D11*
X68046619Y-44892261D02*
X68046619Y-44320833D01*
X67046619Y-44606547D02*
X68046619Y-44606547D01*
X67046619Y-43987500D02*
X68046619Y-43987500D01*
X68046619Y-43606547D01*
X67999000Y-43511309D01*
X67951380Y-43463690D01*
X67856142Y-43416071D01*
X67713285Y-43416071D01*
X67618047Y-43463690D01*
X67570428Y-43511309D01*
X67522809Y-43606547D01*
X67522809Y-43987500D01*
X68046619Y-43082738D02*
X67046619Y-42844642D01*
X67760904Y-42654166D01*
X67046619Y-42463690D01*
X68046619Y-42225595D01*
X67046619Y-41273214D02*
X67522809Y-41606547D01*
X67046619Y-41844642D02*
X68046619Y-41844642D01*
X68046619Y-41463690D01*
X67999000Y-41368452D01*
X67951380Y-41320833D01*
X67856142Y-41273214D01*
X67713285Y-41273214D01*
X67618047Y-41320833D01*
X67570428Y-41368452D01*
X67522809Y-41463690D01*
X67522809Y-41844642D01*
X66349000Y-44225595D02*
X66396619Y-44320833D01*
X66396619Y-44463690D01*
X66349000Y-44606547D01*
X66253761Y-44701785D01*
X66158523Y-44749404D01*
X65968047Y-44797023D01*
X65825190Y-44797023D01*
X65634714Y-44749404D01*
X65539476Y-44701785D01*
X65444238Y-44606547D01*
X65396619Y-44463690D01*
X65396619Y-44368452D01*
X65444238Y-44225595D01*
X65491857Y-44177976D01*
X65825190Y-44177976D01*
X65825190Y-44368452D01*
X65396619Y-43749404D02*
X66396619Y-43749404D01*
X65396619Y-43177976D01*
X66396619Y-43177976D01*
X65396619Y-42701785D02*
X66396619Y-42701785D01*
X66396619Y-42463690D01*
X66349000Y-42320833D01*
X66253761Y-42225595D01*
X66158523Y-42177976D01*
X65968047Y-42130357D01*
X65825190Y-42130357D01*
X65634714Y-42177976D01*
X65539476Y-42225595D01*
X65444238Y-42320833D01*
X65396619Y-42463690D01*
X65396619Y-42701785D01*
X64746619Y-44892261D02*
X64746619Y-44320833D01*
X63746619Y-44606547D02*
X64746619Y-44606547D01*
X63841857Y-43416071D02*
X63794238Y-43463690D01*
X63746619Y-43606547D01*
X63746619Y-43701785D01*
X63794238Y-43844642D01*
X63889476Y-43939880D01*
X63984714Y-43987500D01*
X64175190Y-44035119D01*
X64318047Y-44035119D01*
X64508523Y-43987500D01*
X64603761Y-43939880D01*
X64699000Y-43844642D01*
X64746619Y-43701785D01*
X64746619Y-43606547D01*
X64699000Y-43463690D01*
X64651380Y-43416071D01*
X63746619Y-42987500D02*
X64746619Y-42987500D01*
X63746619Y-42416071D02*
X64318047Y-42844642D01*
X64746619Y-42416071D02*
X64175190Y-42987500D01*
X63096619Y-44892261D02*
X63096619Y-44320833D01*
X62096619Y-44606547D02*
X63096619Y-44606547D01*
X62096619Y-43987500D02*
X63096619Y-43987500D01*
X62382333Y-43654166D01*
X63096619Y-43320833D01*
X62096619Y-43320833D01*
X62144238Y-42892261D02*
X62096619Y-42749404D01*
X62096619Y-42511309D01*
X62144238Y-42416071D01*
X62191857Y-42368452D01*
X62287095Y-42320833D01*
X62382333Y-42320833D01*
X62477571Y-42368452D01*
X62525190Y-42416071D01*
X62572809Y-42511309D01*
X62620428Y-42701785D01*
X62668047Y-42797023D01*
X62715666Y-42844642D01*
X62810904Y-42892261D01*
X62906142Y-42892261D01*
X63001380Y-42844642D01*
X63049000Y-42797023D01*
X63096619Y-42701785D01*
X63096619Y-42463690D01*
X63049000Y-42320833D01*
X35697619Y-41985261D02*
X35697619Y-42613833D01*
X36797619Y-42299547D02*
X35697619Y-42299547D01*
X35697619Y-42875738D02*
X36797619Y-43609071D01*
X35697619Y-43609071D02*
X36797619Y-42875738D01*
X36797619Y-44028119D02*
X35697619Y-44028119D01*
X35697619Y-44290023D01*
X35750000Y-44447166D01*
X35854761Y-44551928D01*
X35959523Y-44604309D01*
X36169047Y-44656690D01*
X36326190Y-44656690D01*
X36535714Y-44604309D01*
X36640476Y-44551928D01*
X36745238Y-44447166D01*
X36797619Y-44290023D01*
X36797619Y-44028119D01*
X38597619Y-42770976D02*
X38073809Y-42404309D01*
X38597619Y-42142404D02*
X37497619Y-42142404D01*
X37497619Y-42561452D01*
X37550000Y-42666214D01*
X37602380Y-42718595D01*
X37707142Y-42770976D01*
X37864285Y-42770976D01*
X37969047Y-42718595D01*
X38021428Y-42666214D01*
X38073809Y-42561452D01*
X38073809Y-42142404D01*
X37497619Y-43137642D02*
X38597619Y-43870976D01*
X37497619Y-43870976D02*
X38597619Y-43137642D01*
X38597619Y-44290023D02*
X37497619Y-44290023D01*
X37497619Y-44551928D01*
X37550000Y-44709071D01*
X37654761Y-44813833D01*
X37759523Y-44866214D01*
X37969047Y-44918595D01*
X38126190Y-44918595D01*
X38335714Y-44866214D01*
X38440476Y-44813833D01*
X38545238Y-44709071D01*
X38597619Y-44551928D01*
X38597619Y-44290023D01*
X39350000Y-42718595D02*
X39297619Y-42613833D01*
X39297619Y-42456690D01*
X39350000Y-42299547D01*
X39454761Y-42194785D01*
X39559523Y-42142404D01*
X39769047Y-42090023D01*
X39926190Y-42090023D01*
X40135714Y-42142404D01*
X40240476Y-42194785D01*
X40345238Y-42299547D01*
X40397619Y-42456690D01*
X40397619Y-42561452D01*
X40345238Y-42718595D01*
X40292857Y-42770976D01*
X39926190Y-42770976D01*
X39926190Y-42561452D01*
X40397619Y-43242404D02*
X39297619Y-43242404D01*
X40397619Y-43870976D01*
X39297619Y-43870976D01*
X40397619Y-44394785D02*
X39297619Y-44394785D01*
X39297619Y-44656690D01*
X39350000Y-44813833D01*
X39454761Y-44918595D01*
X39559523Y-44970976D01*
X39769047Y-45023357D01*
X39926190Y-45023357D01*
X40135714Y-44970976D01*
X40240476Y-44918595D01*
X40345238Y-44813833D01*
X40397619Y-44656690D01*
X40397619Y-44394785D01*
D13*
G04 #@! TO.C,J2*
X43815000Y-44450000D02*
X43815000Y-45085000D01*
X44450000Y-44450000D02*
X43815000Y-44450000D01*
D14*
G04 #@! TO.C,G\002A\002A\002A*
G36*
X55116682Y-34439017D02*
X55092712Y-34465726D01*
X55055434Y-34507964D01*
X55006478Y-34563865D01*
X54947470Y-34631566D01*
X54880039Y-34709203D01*
X54805813Y-34794911D01*
X54726420Y-34886826D01*
X54723618Y-34890075D01*
X54643146Y-34983345D01*
X54567067Y-35071480D01*
X54497127Y-35152460D01*
X54435073Y-35224266D01*
X54382652Y-35284878D01*
X54341608Y-35332276D01*
X54313688Y-35364439D01*
X54300731Y-35379246D01*
X54274956Y-35408043D01*
X54691903Y-35817396D01*
X54777284Y-35901085D01*
X54857250Y-35979202D01*
X54929955Y-36049963D01*
X54993552Y-36111583D01*
X55046193Y-36162275D01*
X55086033Y-36200256D01*
X55111224Y-36223739D01*
X55119775Y-36230983D01*
X55121589Y-36219330D01*
X55123305Y-36184254D01*
X55124902Y-36127730D01*
X55126355Y-36051735D01*
X55127639Y-35958244D01*
X55128730Y-35849234D01*
X55129605Y-35726681D01*
X55130240Y-35592561D01*
X55130611Y-35448850D01*
X55130700Y-35332458D01*
X55130632Y-35183560D01*
X55130435Y-35042323D01*
X55130119Y-34910764D01*
X55129697Y-34790899D01*
X55129179Y-34684746D01*
X55128577Y-34594320D01*
X55127901Y-34521639D01*
X55127163Y-34468720D01*
X55126373Y-34437578D01*
X55125716Y-34429700D01*
X55116682Y-34439017D01*
X55116682Y-34439017D01*
G37*
X55116682Y-34439017D02*
X55092712Y-34465726D01*
X55055434Y-34507964D01*
X55006478Y-34563865D01*
X54947470Y-34631566D01*
X54880039Y-34709203D01*
X54805813Y-34794911D01*
X54726420Y-34886826D01*
X54723618Y-34890075D01*
X54643146Y-34983345D01*
X54567067Y-35071480D01*
X54497127Y-35152460D01*
X54435073Y-35224266D01*
X54382652Y-35284878D01*
X54341608Y-35332276D01*
X54313688Y-35364439D01*
X54300731Y-35379246D01*
X54274956Y-35408043D01*
X54691903Y-35817396D01*
X54777284Y-35901085D01*
X54857250Y-35979202D01*
X54929955Y-36049963D01*
X54993552Y-36111583D01*
X55046193Y-36162275D01*
X55086033Y-36200256D01*
X55111224Y-36223739D01*
X55119775Y-36230983D01*
X55121589Y-36219330D01*
X55123305Y-36184254D01*
X55124902Y-36127730D01*
X55126355Y-36051735D01*
X55127639Y-35958244D01*
X55128730Y-35849234D01*
X55129605Y-35726681D01*
X55130240Y-35592561D01*
X55130611Y-35448850D01*
X55130700Y-35332458D01*
X55130632Y-35183560D01*
X55130435Y-35042323D01*
X55130119Y-34910764D01*
X55129697Y-34790899D01*
X55129179Y-34684746D01*
X55128577Y-34594320D01*
X55127901Y-34521639D01*
X55127163Y-34468720D01*
X55126373Y-34437578D01*
X55125716Y-34429700D01*
X55116682Y-34439017D01*
G36*
X54699735Y-37933172D02*
X54270139Y-38369595D01*
X54669963Y-38853922D01*
X54749853Y-38950589D01*
X54825648Y-39042094D01*
X54895654Y-39126406D01*
X54958174Y-39201491D01*
X55011513Y-39265316D01*
X55053975Y-39315850D01*
X55083865Y-39351059D01*
X55099486Y-39368911D01*
X55100244Y-39369711D01*
X55130700Y-39401172D01*
X55129332Y-37496750D01*
X54699735Y-37933172D01*
X54699735Y-37933172D01*
G37*
X54699735Y-37933172D02*
X54270139Y-38369595D01*
X54669963Y-38853922D01*
X54749853Y-38950589D01*
X54825648Y-39042094D01*
X54895654Y-39126406D01*
X54958174Y-39201491D01*
X55011513Y-39265316D01*
X55053975Y-39315850D01*
X55083865Y-39351059D01*
X55099486Y-39368911D01*
X55100244Y-39369711D01*
X55130700Y-39401172D01*
X55129332Y-37496750D01*
X54699735Y-37933172D01*
G36*
X56301188Y-31877155D02*
X56117432Y-31877230D01*
X55955688Y-31877393D01*
X55814262Y-31877674D01*
X55691460Y-31878103D01*
X55585587Y-31878713D01*
X55494950Y-31879533D01*
X55417855Y-31880593D01*
X55352608Y-31881926D01*
X55297514Y-31883561D01*
X55250880Y-31885529D01*
X55211012Y-31887861D01*
X55176215Y-31890588D01*
X55144796Y-31893740D01*
X55115060Y-31897348D01*
X55085314Y-31901442D01*
X55073550Y-31903147D01*
X54802841Y-31955183D01*
X54541189Y-32030407D01*
X54289784Y-32128118D01*
X54049811Y-32247614D01*
X53822460Y-32388192D01*
X53608916Y-32549150D01*
X53410367Y-32729786D01*
X53228001Y-32929397D01*
X53131485Y-33051750D01*
X53062455Y-33146125D01*
X53005388Y-33229334D01*
X52955413Y-33309232D01*
X52907663Y-33393674D01*
X52857267Y-33490517D01*
X52847544Y-33509864D01*
X52743923Y-33740164D01*
X52660648Y-33975218D01*
X52599717Y-34209351D01*
X52597149Y-34221624D01*
X52590159Y-34255511D01*
X52583761Y-34287328D01*
X52577931Y-34318281D01*
X52572642Y-34349573D01*
X52567868Y-34382410D01*
X52563582Y-34417997D01*
X52559758Y-34457538D01*
X52556369Y-34502239D01*
X52553391Y-34553304D01*
X52550795Y-34611937D01*
X52548556Y-34679345D01*
X52546648Y-34756731D01*
X52545044Y-34845300D01*
X52543718Y-34946258D01*
X52542643Y-35060809D01*
X52541794Y-35190158D01*
X52541145Y-35335510D01*
X52540667Y-35498069D01*
X52540337Y-35679041D01*
X52540126Y-35879630D01*
X52540010Y-36101042D01*
X52539961Y-36344480D01*
X52539953Y-36611150D01*
X52539959Y-36841892D01*
X52539974Y-37122426D01*
X52540014Y-37378747D01*
X52540089Y-37612046D01*
X52540213Y-37823510D01*
X52540396Y-38014327D01*
X52540653Y-38185686D01*
X52540993Y-38338775D01*
X52541431Y-38474782D01*
X52541977Y-38594896D01*
X52542645Y-38700305D01*
X52543446Y-38792198D01*
X52544392Y-38871763D01*
X52545495Y-38940188D01*
X52546769Y-38998661D01*
X52548224Y-39048372D01*
X52549873Y-39090507D01*
X52551728Y-39126257D01*
X52553802Y-39156808D01*
X52556105Y-39183349D01*
X52558652Y-39207070D01*
X52561453Y-39229157D01*
X52564521Y-39250799D01*
X52564600Y-39251334D01*
X52607733Y-39488572D01*
X52665778Y-39710509D01*
X52740768Y-39923734D01*
X52834731Y-40134839D01*
X52840285Y-40146104D01*
X52973723Y-40387644D01*
X53126294Y-40613067D01*
X53296859Y-40821560D01*
X53484278Y-41012309D01*
X53687410Y-41184497D01*
X53905115Y-41337312D01*
X54136254Y-41469939D01*
X54379686Y-41581563D01*
X54634271Y-41671369D01*
X54898869Y-41738543D01*
X55121826Y-41776078D01*
X55161505Y-41779505D01*
X55224258Y-41782615D01*
X55307848Y-41785406D01*
X55410040Y-41787879D01*
X55528597Y-41790034D01*
X55661285Y-41791872D01*
X55805867Y-41793392D01*
X55960107Y-41794595D01*
X56121770Y-41795481D01*
X56288620Y-41796050D01*
X56458420Y-41796303D01*
X56628936Y-41796238D01*
X56797932Y-41795858D01*
X56963171Y-41795161D01*
X57122417Y-41794148D01*
X57273436Y-41792819D01*
X57413990Y-41791175D01*
X57541845Y-41789215D01*
X57654765Y-41786940D01*
X57750513Y-41784349D01*
X57826854Y-41781444D01*
X57881553Y-41778224D01*
X57905232Y-41775856D01*
X58171617Y-41727314D01*
X58431268Y-41655594D01*
X58682395Y-41561665D01*
X58923210Y-41446500D01*
X59151923Y-41311069D01*
X59366746Y-41156342D01*
X59565889Y-40983291D01*
X59747563Y-40792886D01*
X59774261Y-40761624D01*
X59944526Y-40540212D01*
X60091635Y-40308365D01*
X60215617Y-40066024D01*
X60285554Y-39890700D01*
X55664100Y-39890700D01*
X54819550Y-39888922D01*
X54197250Y-39133735D01*
X54098014Y-39013258D01*
X54003214Y-38898071D01*
X53914129Y-38789735D01*
X53832039Y-38689809D01*
X53758225Y-38599857D01*
X53693966Y-38521438D01*
X53640543Y-38456112D01*
X53599234Y-38405442D01*
X53571320Y-38370988D01*
X53558081Y-38354311D01*
X53557400Y-38353383D01*
X53555088Y-38347964D01*
X53555672Y-38340632D01*
X53560266Y-38330202D01*
X53569984Y-38315488D01*
X53585941Y-38295306D01*
X53609252Y-38268471D01*
X53641031Y-38233798D01*
X53682394Y-38190102D01*
X53734454Y-38136198D01*
X53798327Y-38070901D01*
X53875127Y-37993026D01*
X53965969Y-37901388D01*
X54071968Y-37794802D01*
X54194238Y-37672084D01*
X54265934Y-37600183D01*
X54992018Y-36872148D01*
X54366034Y-36257331D01*
X54257874Y-36151116D01*
X54152555Y-36047721D01*
X54051880Y-35948915D01*
X53957649Y-35856463D01*
X53871666Y-35772133D01*
X53795732Y-35697692D01*
X53731649Y-35634908D01*
X53681220Y-35585547D01*
X53646245Y-35551377D01*
X53635519Y-35540931D01*
X53530988Y-35439350D01*
X54908450Y-33846178D01*
X55664100Y-33845500D01*
X55664100Y-39890700D01*
X60285554Y-39890700D01*
X60316498Y-39813129D01*
X60394304Y-39549619D01*
X60449064Y-39275434D01*
X60452701Y-39251334D01*
X60455776Y-39229687D01*
X60458583Y-39207625D01*
X60461136Y-39183959D01*
X60463446Y-39157501D01*
X60465525Y-39127062D01*
X60467385Y-39091455D01*
X60469039Y-39049490D01*
X60470499Y-38999979D01*
X60471777Y-38941735D01*
X60472884Y-38873568D01*
X60473834Y-38794290D01*
X60474638Y-38702714D01*
X60475309Y-38597650D01*
X60475858Y-38477910D01*
X60476298Y-38342306D01*
X60476641Y-38189650D01*
X60476899Y-38018753D01*
X60477085Y-37828427D01*
X60477209Y-37617483D01*
X60477286Y-37384734D01*
X60477326Y-37128990D01*
X60477342Y-36849064D01*
X60477342Y-36841892D01*
X60477348Y-36555780D01*
X60477335Y-36293863D01*
X60477284Y-36093400D01*
X59118500Y-36093400D01*
X59118500Y-39725600D01*
X58585100Y-39725600D01*
X58585100Y-39166800D01*
X58584891Y-39050445D01*
X58584293Y-38942322D01*
X58583349Y-38844989D01*
X58582104Y-38761005D01*
X58580600Y-38692931D01*
X58578882Y-38643325D01*
X58576993Y-38614747D01*
X58575575Y-38608625D01*
X58565106Y-38617427D01*
X58538160Y-38642597D01*
X58496297Y-38682617D01*
X58441077Y-38735971D01*
X58374059Y-38801140D01*
X58296803Y-38876608D01*
X58210869Y-38960857D01*
X58117816Y-39052370D01*
X58019203Y-39149631D01*
X58000900Y-39167713D01*
X57435750Y-39726174D01*
X57248763Y-39532212D01*
X57193568Y-39474540D01*
X57145098Y-39423094D01*
X57105885Y-39380627D01*
X57078459Y-39349893D01*
X57065353Y-39333646D01*
X57064613Y-39331900D01*
X57074006Y-39321885D01*
X57099563Y-39296058D01*
X57139307Y-39256382D01*
X57191259Y-39204821D01*
X57253440Y-39143337D01*
X57323872Y-39073893D01*
X57400574Y-38998452D01*
X57416700Y-38982614D01*
X57513646Y-38887398D01*
X57623242Y-38779718D01*
X57740037Y-38664933D01*
X57858581Y-38548398D01*
X57973426Y-38435472D01*
X58079120Y-38331512D01*
X58125838Y-38285546D01*
X58485725Y-37931414D01*
X58157640Y-37599782D01*
X58070141Y-37511346D01*
X57969458Y-37409600D01*
X57860279Y-37299282D01*
X57747294Y-37185130D01*
X57635192Y-37071880D01*
X57528661Y-36964270D01*
X57448503Y-36883311D01*
X57367663Y-36801660D01*
X57292408Y-36725634D01*
X57224605Y-36657124D01*
X57166126Y-36598018D01*
X57118838Y-36550205D01*
X57084612Y-36515576D01*
X57065316Y-36496020D01*
X57061709Y-36492335D01*
X57068548Y-36481966D01*
X57090924Y-36456447D01*
X57126302Y-36418482D01*
X57172149Y-36370771D01*
X57225931Y-36316017D01*
X57245753Y-36296096D01*
X57435540Y-36105992D01*
X58010320Y-36680669D01*
X58585100Y-37255345D01*
X58585100Y-36093400D01*
X59118500Y-36093400D01*
X60477284Y-36093400D01*
X60477274Y-36054936D01*
X60477141Y-35837795D01*
X60476908Y-35641234D01*
X60476551Y-35464049D01*
X60476041Y-35305036D01*
X60475353Y-35162988D01*
X60474461Y-35036702D01*
X60473338Y-34924972D01*
X60471959Y-34826594D01*
X60470296Y-34740362D01*
X60468324Y-34665073D01*
X60466015Y-34599521D01*
X60463345Y-34542501D01*
X60460286Y-34492808D01*
X60456813Y-34449238D01*
X60452898Y-34410586D01*
X60448516Y-34375647D01*
X60443641Y-34343216D01*
X60438245Y-34312088D01*
X60432304Y-34281059D01*
X60425790Y-34248923D01*
X60420152Y-34221624D01*
X60360460Y-33987698D01*
X60278319Y-33752550D01*
X60175726Y-33521856D01*
X60169757Y-33509864D01*
X60118369Y-33409956D01*
X60070502Y-33323862D01*
X60021287Y-33243726D01*
X59965855Y-33161693D01*
X59899337Y-33069906D01*
X59885816Y-33051750D01*
X59713233Y-32841607D01*
X59523789Y-32650038D01*
X59318671Y-32477746D01*
X59099067Y-32325433D01*
X58866163Y-32193800D01*
X58621148Y-32083551D01*
X58365207Y-31995387D01*
X58099530Y-31930011D01*
X57943750Y-31903147D01*
X57913551Y-31898858D01*
X57884012Y-31895067D01*
X57853438Y-31891744D01*
X57820136Y-31888858D01*
X57782412Y-31886378D01*
X57738572Y-31884274D01*
X57686922Y-31882515D01*
X57625768Y-31881070D01*
X57553415Y-31879909D01*
X57468170Y-31879001D01*
X57368338Y-31878314D01*
X57252226Y-31877819D01*
X57118140Y-31877485D01*
X56964385Y-31877281D01*
X56789268Y-31877176D01*
X56591094Y-31877139D01*
X56508650Y-31877137D01*
X56301188Y-31877155D01*
X56301188Y-31877155D01*
G37*
X56301188Y-31877155D02*
X56117432Y-31877230D01*
X55955688Y-31877393D01*
X55814262Y-31877674D01*
X55691460Y-31878103D01*
X55585587Y-31878713D01*
X55494950Y-31879533D01*
X55417855Y-31880593D01*
X55352608Y-31881926D01*
X55297514Y-31883561D01*
X55250880Y-31885529D01*
X55211012Y-31887861D01*
X55176215Y-31890588D01*
X55144796Y-31893740D01*
X55115060Y-31897348D01*
X55085314Y-31901442D01*
X55073550Y-31903147D01*
X54802841Y-31955183D01*
X54541189Y-32030407D01*
X54289784Y-32128118D01*
X54049811Y-32247614D01*
X53822460Y-32388192D01*
X53608916Y-32549150D01*
X53410367Y-32729786D01*
X53228001Y-32929397D01*
X53131485Y-33051750D01*
X53062455Y-33146125D01*
X53005388Y-33229334D01*
X52955413Y-33309232D01*
X52907663Y-33393674D01*
X52857267Y-33490517D01*
X52847544Y-33509864D01*
X52743923Y-33740164D01*
X52660648Y-33975218D01*
X52599717Y-34209351D01*
X52597149Y-34221624D01*
X52590159Y-34255511D01*
X52583761Y-34287328D01*
X52577931Y-34318281D01*
X52572642Y-34349573D01*
X52567868Y-34382410D01*
X52563582Y-34417997D01*
X52559758Y-34457538D01*
X52556369Y-34502239D01*
X52553391Y-34553304D01*
X52550795Y-34611937D01*
X52548556Y-34679345D01*
X52546648Y-34756731D01*
X52545044Y-34845300D01*
X52543718Y-34946258D01*
X52542643Y-35060809D01*
X52541794Y-35190158D01*
X52541145Y-35335510D01*
X52540667Y-35498069D01*
X52540337Y-35679041D01*
X52540126Y-35879630D01*
X52540010Y-36101042D01*
X52539961Y-36344480D01*
X52539953Y-36611150D01*
X52539959Y-36841892D01*
X52539974Y-37122426D01*
X52540014Y-37378747D01*
X52540089Y-37612046D01*
X52540213Y-37823510D01*
X52540396Y-38014327D01*
X52540653Y-38185686D01*
X52540993Y-38338775D01*
X52541431Y-38474782D01*
X52541977Y-38594896D01*
X52542645Y-38700305D01*
X52543446Y-38792198D01*
X52544392Y-38871763D01*
X52545495Y-38940188D01*
X52546769Y-38998661D01*
X52548224Y-39048372D01*
X52549873Y-39090507D01*
X52551728Y-39126257D01*
X52553802Y-39156808D01*
X52556105Y-39183349D01*
X52558652Y-39207070D01*
X52561453Y-39229157D01*
X52564521Y-39250799D01*
X52564600Y-39251334D01*
X52607733Y-39488572D01*
X52665778Y-39710509D01*
X52740768Y-39923734D01*
X52834731Y-40134839D01*
X52840285Y-40146104D01*
X52973723Y-40387644D01*
X53126294Y-40613067D01*
X53296859Y-40821560D01*
X53484278Y-41012309D01*
X53687410Y-41184497D01*
X53905115Y-41337312D01*
X54136254Y-41469939D01*
X54379686Y-41581563D01*
X54634271Y-41671369D01*
X54898869Y-41738543D01*
X55121826Y-41776078D01*
X55161505Y-41779505D01*
X55224258Y-41782615D01*
X55307848Y-41785406D01*
X55410040Y-41787879D01*
X55528597Y-41790034D01*
X55661285Y-41791872D01*
X55805867Y-41793392D01*
X55960107Y-41794595D01*
X56121770Y-41795481D01*
X56288620Y-41796050D01*
X56458420Y-41796303D01*
X56628936Y-41796238D01*
X56797932Y-41795858D01*
X56963171Y-41795161D01*
X57122417Y-41794148D01*
X57273436Y-41792819D01*
X57413990Y-41791175D01*
X57541845Y-41789215D01*
X57654765Y-41786940D01*
X57750513Y-41784349D01*
X57826854Y-41781444D01*
X57881553Y-41778224D01*
X57905232Y-41775856D01*
X58171617Y-41727314D01*
X58431268Y-41655594D01*
X58682395Y-41561665D01*
X58923210Y-41446500D01*
X59151923Y-41311069D01*
X59366746Y-41156342D01*
X59565889Y-40983291D01*
X59747563Y-40792886D01*
X59774261Y-40761624D01*
X59944526Y-40540212D01*
X60091635Y-40308365D01*
X60215617Y-40066024D01*
X60285554Y-39890700D01*
X55664100Y-39890700D01*
X54819550Y-39888922D01*
X54197250Y-39133735D01*
X54098014Y-39013258D01*
X54003214Y-38898071D01*
X53914129Y-38789735D01*
X53832039Y-38689809D01*
X53758225Y-38599857D01*
X53693966Y-38521438D01*
X53640543Y-38456112D01*
X53599234Y-38405442D01*
X53571320Y-38370988D01*
X53558081Y-38354311D01*
X53557400Y-38353383D01*
X53555088Y-38347964D01*
X53555672Y-38340632D01*
X53560266Y-38330202D01*
X53569984Y-38315488D01*
X53585941Y-38295306D01*
X53609252Y-38268471D01*
X53641031Y-38233798D01*
X53682394Y-38190102D01*
X53734454Y-38136198D01*
X53798327Y-38070901D01*
X53875127Y-37993026D01*
X53965969Y-37901388D01*
X54071968Y-37794802D01*
X54194238Y-37672084D01*
X54265934Y-37600183D01*
X54992018Y-36872148D01*
X54366034Y-36257331D01*
X54257874Y-36151116D01*
X54152555Y-36047721D01*
X54051880Y-35948915D01*
X53957649Y-35856463D01*
X53871666Y-35772133D01*
X53795732Y-35697692D01*
X53731649Y-35634908D01*
X53681220Y-35585547D01*
X53646245Y-35551377D01*
X53635519Y-35540931D01*
X53530988Y-35439350D01*
X54908450Y-33846178D01*
X55664100Y-33845500D01*
X55664100Y-39890700D01*
X60285554Y-39890700D01*
X60316498Y-39813129D01*
X60394304Y-39549619D01*
X60449064Y-39275434D01*
X60452701Y-39251334D01*
X60455776Y-39229687D01*
X60458583Y-39207625D01*
X60461136Y-39183959D01*
X60463446Y-39157501D01*
X60465525Y-39127062D01*
X60467385Y-39091455D01*
X60469039Y-39049490D01*
X60470499Y-38999979D01*
X60471777Y-38941735D01*
X60472884Y-38873568D01*
X60473834Y-38794290D01*
X60474638Y-38702714D01*
X60475309Y-38597650D01*
X60475858Y-38477910D01*
X60476298Y-38342306D01*
X60476641Y-38189650D01*
X60476899Y-38018753D01*
X60477085Y-37828427D01*
X60477209Y-37617483D01*
X60477286Y-37384734D01*
X60477326Y-37128990D01*
X60477342Y-36849064D01*
X60477342Y-36841892D01*
X60477348Y-36555780D01*
X60477335Y-36293863D01*
X60477284Y-36093400D01*
X59118500Y-36093400D01*
X59118500Y-39725600D01*
X58585100Y-39725600D01*
X58585100Y-39166800D01*
X58584891Y-39050445D01*
X58584293Y-38942322D01*
X58583349Y-38844989D01*
X58582104Y-38761005D01*
X58580600Y-38692931D01*
X58578882Y-38643325D01*
X58576993Y-38614747D01*
X58575575Y-38608625D01*
X58565106Y-38617427D01*
X58538160Y-38642597D01*
X58496297Y-38682617D01*
X58441077Y-38735971D01*
X58374059Y-38801140D01*
X58296803Y-38876608D01*
X58210869Y-38960857D01*
X58117816Y-39052370D01*
X58019203Y-39149631D01*
X58000900Y-39167713D01*
X57435750Y-39726174D01*
X57248763Y-39532212D01*
X57193568Y-39474540D01*
X57145098Y-39423094D01*
X57105885Y-39380627D01*
X57078459Y-39349893D01*
X57065353Y-39333646D01*
X57064613Y-39331900D01*
X57074006Y-39321885D01*
X57099563Y-39296058D01*
X57139307Y-39256382D01*
X57191259Y-39204821D01*
X57253440Y-39143337D01*
X57323872Y-39073893D01*
X57400574Y-38998452D01*
X57416700Y-38982614D01*
X57513646Y-38887398D01*
X57623242Y-38779718D01*
X57740037Y-38664933D01*
X57858581Y-38548398D01*
X57973426Y-38435472D01*
X58079120Y-38331512D01*
X58125838Y-38285546D01*
X58485725Y-37931414D01*
X58157640Y-37599782D01*
X58070141Y-37511346D01*
X57969458Y-37409600D01*
X57860279Y-37299282D01*
X57747294Y-37185130D01*
X57635192Y-37071880D01*
X57528661Y-36964270D01*
X57448503Y-36883311D01*
X57367663Y-36801660D01*
X57292408Y-36725634D01*
X57224605Y-36657124D01*
X57166126Y-36598018D01*
X57118838Y-36550205D01*
X57084612Y-36515576D01*
X57065316Y-36496020D01*
X57061709Y-36492335D01*
X57068548Y-36481966D01*
X57090924Y-36456447D01*
X57126302Y-36418482D01*
X57172149Y-36370771D01*
X57225931Y-36316017D01*
X57245753Y-36296096D01*
X57435540Y-36105992D01*
X58010320Y-36680669D01*
X58585100Y-37255345D01*
X58585100Y-36093400D01*
X59118500Y-36093400D01*
X60477284Y-36093400D01*
X60477274Y-36054936D01*
X60477141Y-35837795D01*
X60476908Y-35641234D01*
X60476551Y-35464049D01*
X60476041Y-35305036D01*
X60475353Y-35162988D01*
X60474461Y-35036702D01*
X60473338Y-34924972D01*
X60471959Y-34826594D01*
X60470296Y-34740362D01*
X60468324Y-34665073D01*
X60466015Y-34599521D01*
X60463345Y-34542501D01*
X60460286Y-34492808D01*
X60456813Y-34449238D01*
X60452898Y-34410586D01*
X60448516Y-34375647D01*
X60443641Y-34343216D01*
X60438245Y-34312088D01*
X60432304Y-34281059D01*
X60425790Y-34248923D01*
X60420152Y-34221624D01*
X60360460Y-33987698D01*
X60278319Y-33752550D01*
X60175726Y-33521856D01*
X60169757Y-33509864D01*
X60118369Y-33409956D01*
X60070502Y-33323862D01*
X60021287Y-33243726D01*
X59965855Y-33161693D01*
X59899337Y-33069906D01*
X59885816Y-33051750D01*
X59713233Y-32841607D01*
X59523789Y-32650038D01*
X59318671Y-32477746D01*
X59099067Y-32325433D01*
X58866163Y-32193800D01*
X58621148Y-32083551D01*
X58365207Y-31995387D01*
X58099530Y-31930011D01*
X57943750Y-31903147D01*
X57913551Y-31898858D01*
X57884012Y-31895067D01*
X57853438Y-31891744D01*
X57820136Y-31888858D01*
X57782412Y-31886378D01*
X57738572Y-31884274D01*
X57686922Y-31882515D01*
X57625768Y-31881070D01*
X57553415Y-31879909D01*
X57468170Y-31879001D01*
X57368338Y-31878314D01*
X57252226Y-31877819D01*
X57118140Y-31877485D01*
X56964385Y-31877281D01*
X56789268Y-31877176D01*
X56591094Y-31877139D01*
X56508650Y-31877137D01*
X56301188Y-31877155D01*
G04 #@! TD*
M02*
