M48
;DRILL file {KiCad (5.0.0)} date 06/29/20 13:58:08
;FORMAT={-:-/ absolute / inch / decimal}
FMAT,2
INCH,TZ
T1C0.0157
T2C0.0236
T3C0.0394
%
G90
G05
M72
T1
X1.05Y-1.345
X1.05Y-1.46
X1.05Y-1.69
X1.1Y-1.1
X1.15Y-1.46
X1.15Y-1.69
X1.15Y-1.83
X1.155Y-1.345
X1.335Y-1.365
X1.3673Y-1.6927
X1.4948Y-1.1105
X1.4966Y-1.1993
X1.5079Y-1.1476
X1.53Y-1.41
X1.5348Y-1.5448
X1.5498Y-1.5048
X1.635Y-1.345
X1.7Y-1.425
X1.7009Y-1.7485
X1.7113Y-1.1999
X1.715Y-1.26
X1.7295Y-1.5372
X1.7507Y-1.2013
X1.7563Y-1.384
X1.765Y-1.48
X1.765Y-1.72
X1.79Y-1.2
X1.81Y-1.545
X1.8356Y-1.615
X1.8734Y-1.5865
X1.8973Y-1.2023
X1.905Y-1.485
X1.9825Y-1.2371
X2.04Y-1.6
X2.12Y-1.455
X2.1965Y-1.342
X2.2078Y-1.3797
X2.27Y-1.08
X2.275Y-1.306
X2.275Y-1.695
X2.335Y-1.04
X2.335Y-1.13
X2.345Y-1.68
X2.41Y-1.725
X2.455Y-1.325
X2.645Y-1.04
X2.76Y-1.67
X2.76Y-1.76
T3
X2.4Y-1.825
X2.5Y-1.825
X2.6Y-1.825
X2.7Y-1.825
X2.6Y-1.2
X2.6Y-1.3
X2.6Y-1.4
X2.6Y-1.5
X2.6Y-1.6
X2.7Y-1.2
X2.7Y-1.3
X2.7Y-1.4
X2.7Y-1.5
X2.7Y-1.6
X1.4Y-1.825
X1.5Y-1.825
X1.6Y-1.825
T2
X1.1142Y-1.4049G85X1.0906Y-1.4049
G05
X1.1142Y-1.7451G85X1.0906Y-1.7451
G05
X1.2886Y-1.4049G85X1.2453Y-1.4049
G05
X1.2886Y-1.7451G85X1.2453Y-1.7451
G05
T0
M30
