G04 #@! TF.GenerationSoftware,KiCad,Pcbnew,(5.0.0)*
G04 #@! TF.CreationDate,2020-06-15T19:05:26-06:00*
G04 #@! TF.ProjectId,bmp,626D702E6B696361645F706362000000,rev?*
G04 #@! TF.SameCoordinates,Original*
G04 #@! TF.FileFunction,Paste,Top*
G04 #@! TF.FilePolarity,Positive*
%FSLAX46Y46*%
G04 Gerber Fmt 4.6, Leading zero omitted, Abs format (unit mm)*
G04 Created by KiCad (PCBNEW (5.0.0)) date 06/15/20 19:05:26*
%MOMM*%
%LPD*%
G01*
G04 APERTURE LIST*
%ADD10C,0.100000*%
%ADD11C,0.875000*%
%ADD12R,1.450000X0.300000*%
%ADD13R,1.450000X0.600000*%
%ADD14R,1.200000X0.650000*%
%ADD15R,1.300000X0.250000*%
%ADD16R,0.250000X1.300000*%
%ADD17R,2.400000X2.000000*%
%ADD18R,0.800000X0.900000*%
%ADD19R,0.350000X1.500000*%
G04 APERTURE END LIST*
D10*
G04 #@! TO.C,C1*
G36*
X40245191Y-32546053D02*
X40266426Y-32549203D01*
X40287250Y-32554419D01*
X40307462Y-32561651D01*
X40326868Y-32570830D01*
X40345281Y-32581866D01*
X40362524Y-32594654D01*
X40378430Y-32609070D01*
X40392846Y-32624976D01*
X40405634Y-32642219D01*
X40416670Y-32660632D01*
X40425849Y-32680038D01*
X40433081Y-32700250D01*
X40438297Y-32721074D01*
X40441447Y-32742309D01*
X40442500Y-32763750D01*
X40442500Y-33276250D01*
X40441447Y-33297691D01*
X40438297Y-33318926D01*
X40433081Y-33339750D01*
X40425849Y-33359962D01*
X40416670Y-33379368D01*
X40405634Y-33397781D01*
X40392846Y-33415024D01*
X40378430Y-33430930D01*
X40362524Y-33445346D01*
X40345281Y-33458134D01*
X40326868Y-33469170D01*
X40307462Y-33478349D01*
X40287250Y-33485581D01*
X40266426Y-33490797D01*
X40245191Y-33493947D01*
X40223750Y-33495000D01*
X39786250Y-33495000D01*
X39764809Y-33493947D01*
X39743574Y-33490797D01*
X39722750Y-33485581D01*
X39702538Y-33478349D01*
X39683132Y-33469170D01*
X39664719Y-33458134D01*
X39647476Y-33445346D01*
X39631570Y-33430930D01*
X39617154Y-33415024D01*
X39604366Y-33397781D01*
X39593330Y-33379368D01*
X39584151Y-33359962D01*
X39576919Y-33339750D01*
X39571703Y-33318926D01*
X39568553Y-33297691D01*
X39567500Y-33276250D01*
X39567500Y-32763750D01*
X39568553Y-32742309D01*
X39571703Y-32721074D01*
X39576919Y-32700250D01*
X39584151Y-32680038D01*
X39593330Y-32660632D01*
X39604366Y-32642219D01*
X39617154Y-32624976D01*
X39631570Y-32609070D01*
X39647476Y-32594654D01*
X39664719Y-32581866D01*
X39683132Y-32570830D01*
X39702538Y-32561651D01*
X39722750Y-32554419D01*
X39743574Y-32549203D01*
X39764809Y-32546053D01*
X39786250Y-32545000D01*
X40223750Y-32545000D01*
X40245191Y-32546053D01*
X40245191Y-32546053D01*
G37*
D11*
X40005000Y-33020000D03*
D10*
G36*
X41820191Y-32546053D02*
X41841426Y-32549203D01*
X41862250Y-32554419D01*
X41882462Y-32561651D01*
X41901868Y-32570830D01*
X41920281Y-32581866D01*
X41937524Y-32594654D01*
X41953430Y-32609070D01*
X41967846Y-32624976D01*
X41980634Y-32642219D01*
X41991670Y-32660632D01*
X42000849Y-32680038D01*
X42008081Y-32700250D01*
X42013297Y-32721074D01*
X42016447Y-32742309D01*
X42017500Y-32763750D01*
X42017500Y-33276250D01*
X42016447Y-33297691D01*
X42013297Y-33318926D01*
X42008081Y-33339750D01*
X42000849Y-33359962D01*
X41991670Y-33379368D01*
X41980634Y-33397781D01*
X41967846Y-33415024D01*
X41953430Y-33430930D01*
X41937524Y-33445346D01*
X41920281Y-33458134D01*
X41901868Y-33469170D01*
X41882462Y-33478349D01*
X41862250Y-33485581D01*
X41841426Y-33490797D01*
X41820191Y-33493947D01*
X41798750Y-33495000D01*
X41361250Y-33495000D01*
X41339809Y-33493947D01*
X41318574Y-33490797D01*
X41297750Y-33485581D01*
X41277538Y-33478349D01*
X41258132Y-33469170D01*
X41239719Y-33458134D01*
X41222476Y-33445346D01*
X41206570Y-33430930D01*
X41192154Y-33415024D01*
X41179366Y-33397781D01*
X41168330Y-33379368D01*
X41159151Y-33359962D01*
X41151919Y-33339750D01*
X41146703Y-33318926D01*
X41143553Y-33297691D01*
X41142500Y-33276250D01*
X41142500Y-32763750D01*
X41143553Y-32742309D01*
X41146703Y-32721074D01*
X41151919Y-32700250D01*
X41159151Y-32680038D01*
X41168330Y-32660632D01*
X41179366Y-32642219D01*
X41192154Y-32624976D01*
X41206570Y-32609070D01*
X41222476Y-32594654D01*
X41239719Y-32581866D01*
X41258132Y-32570830D01*
X41277538Y-32561651D01*
X41297750Y-32554419D01*
X41318574Y-32549203D01*
X41339809Y-32546053D01*
X41361250Y-32545000D01*
X41798750Y-32545000D01*
X41820191Y-32546053D01*
X41820191Y-32546053D01*
G37*
D11*
X41580000Y-33020000D03*
G04 #@! TD*
D10*
G04 #@! TO.C,C2*
G36*
X41820191Y-30641053D02*
X41841426Y-30644203D01*
X41862250Y-30649419D01*
X41882462Y-30656651D01*
X41901868Y-30665830D01*
X41920281Y-30676866D01*
X41937524Y-30689654D01*
X41953430Y-30704070D01*
X41967846Y-30719976D01*
X41980634Y-30737219D01*
X41991670Y-30755632D01*
X42000849Y-30775038D01*
X42008081Y-30795250D01*
X42013297Y-30816074D01*
X42016447Y-30837309D01*
X42017500Y-30858750D01*
X42017500Y-31371250D01*
X42016447Y-31392691D01*
X42013297Y-31413926D01*
X42008081Y-31434750D01*
X42000849Y-31454962D01*
X41991670Y-31474368D01*
X41980634Y-31492781D01*
X41967846Y-31510024D01*
X41953430Y-31525930D01*
X41937524Y-31540346D01*
X41920281Y-31553134D01*
X41901868Y-31564170D01*
X41882462Y-31573349D01*
X41862250Y-31580581D01*
X41841426Y-31585797D01*
X41820191Y-31588947D01*
X41798750Y-31590000D01*
X41361250Y-31590000D01*
X41339809Y-31588947D01*
X41318574Y-31585797D01*
X41297750Y-31580581D01*
X41277538Y-31573349D01*
X41258132Y-31564170D01*
X41239719Y-31553134D01*
X41222476Y-31540346D01*
X41206570Y-31525930D01*
X41192154Y-31510024D01*
X41179366Y-31492781D01*
X41168330Y-31474368D01*
X41159151Y-31454962D01*
X41151919Y-31434750D01*
X41146703Y-31413926D01*
X41143553Y-31392691D01*
X41142500Y-31371250D01*
X41142500Y-30858750D01*
X41143553Y-30837309D01*
X41146703Y-30816074D01*
X41151919Y-30795250D01*
X41159151Y-30775038D01*
X41168330Y-30755632D01*
X41179366Y-30737219D01*
X41192154Y-30719976D01*
X41206570Y-30704070D01*
X41222476Y-30689654D01*
X41239719Y-30676866D01*
X41258132Y-30665830D01*
X41277538Y-30656651D01*
X41297750Y-30649419D01*
X41318574Y-30644203D01*
X41339809Y-30641053D01*
X41361250Y-30640000D01*
X41798750Y-30640000D01*
X41820191Y-30641053D01*
X41820191Y-30641053D01*
G37*
D11*
X41580000Y-31115000D03*
D10*
G36*
X40245191Y-30641053D02*
X40266426Y-30644203D01*
X40287250Y-30649419D01*
X40307462Y-30656651D01*
X40326868Y-30665830D01*
X40345281Y-30676866D01*
X40362524Y-30689654D01*
X40378430Y-30704070D01*
X40392846Y-30719976D01*
X40405634Y-30737219D01*
X40416670Y-30755632D01*
X40425849Y-30775038D01*
X40433081Y-30795250D01*
X40438297Y-30816074D01*
X40441447Y-30837309D01*
X40442500Y-30858750D01*
X40442500Y-31371250D01*
X40441447Y-31392691D01*
X40438297Y-31413926D01*
X40433081Y-31434750D01*
X40425849Y-31454962D01*
X40416670Y-31474368D01*
X40405634Y-31492781D01*
X40392846Y-31510024D01*
X40378430Y-31525930D01*
X40362524Y-31540346D01*
X40345281Y-31553134D01*
X40326868Y-31564170D01*
X40307462Y-31573349D01*
X40287250Y-31580581D01*
X40266426Y-31585797D01*
X40245191Y-31588947D01*
X40223750Y-31590000D01*
X39786250Y-31590000D01*
X39764809Y-31588947D01*
X39743574Y-31585797D01*
X39722750Y-31580581D01*
X39702538Y-31573349D01*
X39683132Y-31564170D01*
X39664719Y-31553134D01*
X39647476Y-31540346D01*
X39631570Y-31525930D01*
X39617154Y-31510024D01*
X39604366Y-31492781D01*
X39593330Y-31474368D01*
X39584151Y-31454962D01*
X39576919Y-31434750D01*
X39571703Y-31413926D01*
X39568553Y-31392691D01*
X39567500Y-31371250D01*
X39567500Y-30858750D01*
X39568553Y-30837309D01*
X39571703Y-30816074D01*
X39576919Y-30795250D01*
X39584151Y-30775038D01*
X39593330Y-30755632D01*
X39604366Y-30737219D01*
X39617154Y-30719976D01*
X39631570Y-30704070D01*
X39647476Y-30689654D01*
X39664719Y-30676866D01*
X39683132Y-30665830D01*
X39702538Y-30656651D01*
X39722750Y-30649419D01*
X39743574Y-30644203D01*
X39764809Y-30641053D01*
X39786250Y-30640000D01*
X40223750Y-30640000D01*
X40245191Y-30641053D01*
X40245191Y-30641053D01*
G37*
D11*
X40005000Y-31115000D03*
G04 #@! TD*
D10*
G04 #@! TO.C,C3*
G36*
X58330191Y-42071053D02*
X58351426Y-42074203D01*
X58372250Y-42079419D01*
X58392462Y-42086651D01*
X58411868Y-42095830D01*
X58430281Y-42106866D01*
X58447524Y-42119654D01*
X58463430Y-42134070D01*
X58477846Y-42149976D01*
X58490634Y-42167219D01*
X58501670Y-42185632D01*
X58510849Y-42205038D01*
X58518081Y-42225250D01*
X58523297Y-42246074D01*
X58526447Y-42267309D01*
X58527500Y-42288750D01*
X58527500Y-42801250D01*
X58526447Y-42822691D01*
X58523297Y-42843926D01*
X58518081Y-42864750D01*
X58510849Y-42884962D01*
X58501670Y-42904368D01*
X58490634Y-42922781D01*
X58477846Y-42940024D01*
X58463430Y-42955930D01*
X58447524Y-42970346D01*
X58430281Y-42983134D01*
X58411868Y-42994170D01*
X58392462Y-43003349D01*
X58372250Y-43010581D01*
X58351426Y-43015797D01*
X58330191Y-43018947D01*
X58308750Y-43020000D01*
X57871250Y-43020000D01*
X57849809Y-43018947D01*
X57828574Y-43015797D01*
X57807750Y-43010581D01*
X57787538Y-43003349D01*
X57768132Y-42994170D01*
X57749719Y-42983134D01*
X57732476Y-42970346D01*
X57716570Y-42955930D01*
X57702154Y-42940024D01*
X57689366Y-42922781D01*
X57678330Y-42904368D01*
X57669151Y-42884962D01*
X57661919Y-42864750D01*
X57656703Y-42843926D01*
X57653553Y-42822691D01*
X57652500Y-42801250D01*
X57652500Y-42288750D01*
X57653553Y-42267309D01*
X57656703Y-42246074D01*
X57661919Y-42225250D01*
X57669151Y-42205038D01*
X57678330Y-42185632D01*
X57689366Y-42167219D01*
X57702154Y-42149976D01*
X57716570Y-42134070D01*
X57732476Y-42119654D01*
X57749719Y-42106866D01*
X57768132Y-42095830D01*
X57787538Y-42086651D01*
X57807750Y-42079419D01*
X57828574Y-42074203D01*
X57849809Y-42071053D01*
X57871250Y-42070000D01*
X58308750Y-42070000D01*
X58330191Y-42071053D01*
X58330191Y-42071053D01*
G37*
D11*
X58090000Y-42545000D03*
D10*
G36*
X56755191Y-42071053D02*
X56776426Y-42074203D01*
X56797250Y-42079419D01*
X56817462Y-42086651D01*
X56836868Y-42095830D01*
X56855281Y-42106866D01*
X56872524Y-42119654D01*
X56888430Y-42134070D01*
X56902846Y-42149976D01*
X56915634Y-42167219D01*
X56926670Y-42185632D01*
X56935849Y-42205038D01*
X56943081Y-42225250D01*
X56948297Y-42246074D01*
X56951447Y-42267309D01*
X56952500Y-42288750D01*
X56952500Y-42801250D01*
X56951447Y-42822691D01*
X56948297Y-42843926D01*
X56943081Y-42864750D01*
X56935849Y-42884962D01*
X56926670Y-42904368D01*
X56915634Y-42922781D01*
X56902846Y-42940024D01*
X56888430Y-42955930D01*
X56872524Y-42970346D01*
X56855281Y-42983134D01*
X56836868Y-42994170D01*
X56817462Y-43003349D01*
X56797250Y-43010581D01*
X56776426Y-43015797D01*
X56755191Y-43018947D01*
X56733750Y-43020000D01*
X56296250Y-43020000D01*
X56274809Y-43018947D01*
X56253574Y-43015797D01*
X56232750Y-43010581D01*
X56212538Y-43003349D01*
X56193132Y-42994170D01*
X56174719Y-42983134D01*
X56157476Y-42970346D01*
X56141570Y-42955930D01*
X56127154Y-42940024D01*
X56114366Y-42922781D01*
X56103330Y-42904368D01*
X56094151Y-42884962D01*
X56086919Y-42864750D01*
X56081703Y-42843926D01*
X56078553Y-42822691D01*
X56077500Y-42801250D01*
X56077500Y-42288750D01*
X56078553Y-42267309D01*
X56081703Y-42246074D01*
X56086919Y-42225250D01*
X56094151Y-42205038D01*
X56103330Y-42185632D01*
X56114366Y-42167219D01*
X56127154Y-42149976D01*
X56141570Y-42134070D01*
X56157476Y-42119654D01*
X56174719Y-42106866D01*
X56193132Y-42095830D01*
X56212538Y-42086651D01*
X56232750Y-42079419D01*
X56253574Y-42074203D01*
X56274809Y-42071053D01*
X56296250Y-42070000D01*
X56733750Y-42070000D01*
X56755191Y-42071053D01*
X56755191Y-42071053D01*
G37*
D11*
X56515000Y-42545000D03*
G04 #@! TD*
D10*
G04 #@! TO.C,C4*
G36*
X56602691Y-33181053D02*
X56623926Y-33184203D01*
X56644750Y-33189419D01*
X56664962Y-33196651D01*
X56684368Y-33205830D01*
X56702781Y-33216866D01*
X56720024Y-33229654D01*
X56735930Y-33244070D01*
X56750346Y-33259976D01*
X56763134Y-33277219D01*
X56774170Y-33295632D01*
X56783349Y-33315038D01*
X56790581Y-33335250D01*
X56795797Y-33356074D01*
X56798947Y-33377309D01*
X56800000Y-33398750D01*
X56800000Y-33911250D01*
X56798947Y-33932691D01*
X56795797Y-33953926D01*
X56790581Y-33974750D01*
X56783349Y-33994962D01*
X56774170Y-34014368D01*
X56763134Y-34032781D01*
X56750346Y-34050024D01*
X56735930Y-34065930D01*
X56720024Y-34080346D01*
X56702781Y-34093134D01*
X56684368Y-34104170D01*
X56664962Y-34113349D01*
X56644750Y-34120581D01*
X56623926Y-34125797D01*
X56602691Y-34128947D01*
X56581250Y-34130000D01*
X56143750Y-34130000D01*
X56122309Y-34128947D01*
X56101074Y-34125797D01*
X56080250Y-34120581D01*
X56060038Y-34113349D01*
X56040632Y-34104170D01*
X56022219Y-34093134D01*
X56004976Y-34080346D01*
X55989070Y-34065930D01*
X55974654Y-34050024D01*
X55961866Y-34032781D01*
X55950830Y-34014368D01*
X55941651Y-33994962D01*
X55934419Y-33974750D01*
X55929203Y-33953926D01*
X55926053Y-33932691D01*
X55925000Y-33911250D01*
X55925000Y-33398750D01*
X55926053Y-33377309D01*
X55929203Y-33356074D01*
X55934419Y-33335250D01*
X55941651Y-33315038D01*
X55950830Y-33295632D01*
X55961866Y-33277219D01*
X55974654Y-33259976D01*
X55989070Y-33244070D01*
X56004976Y-33229654D01*
X56022219Y-33216866D01*
X56040632Y-33205830D01*
X56060038Y-33196651D01*
X56080250Y-33189419D01*
X56101074Y-33184203D01*
X56122309Y-33181053D01*
X56143750Y-33180000D01*
X56581250Y-33180000D01*
X56602691Y-33181053D01*
X56602691Y-33181053D01*
G37*
D11*
X56362500Y-33655000D03*
D10*
G36*
X58177691Y-33181053D02*
X58198926Y-33184203D01*
X58219750Y-33189419D01*
X58239962Y-33196651D01*
X58259368Y-33205830D01*
X58277781Y-33216866D01*
X58295024Y-33229654D01*
X58310930Y-33244070D01*
X58325346Y-33259976D01*
X58338134Y-33277219D01*
X58349170Y-33295632D01*
X58358349Y-33315038D01*
X58365581Y-33335250D01*
X58370797Y-33356074D01*
X58373947Y-33377309D01*
X58375000Y-33398750D01*
X58375000Y-33911250D01*
X58373947Y-33932691D01*
X58370797Y-33953926D01*
X58365581Y-33974750D01*
X58358349Y-33994962D01*
X58349170Y-34014368D01*
X58338134Y-34032781D01*
X58325346Y-34050024D01*
X58310930Y-34065930D01*
X58295024Y-34080346D01*
X58277781Y-34093134D01*
X58259368Y-34104170D01*
X58239962Y-34113349D01*
X58219750Y-34120581D01*
X58198926Y-34125797D01*
X58177691Y-34128947D01*
X58156250Y-34130000D01*
X57718750Y-34130000D01*
X57697309Y-34128947D01*
X57676074Y-34125797D01*
X57655250Y-34120581D01*
X57635038Y-34113349D01*
X57615632Y-34104170D01*
X57597219Y-34093134D01*
X57579976Y-34080346D01*
X57564070Y-34065930D01*
X57549654Y-34050024D01*
X57536866Y-34032781D01*
X57525830Y-34014368D01*
X57516651Y-33994962D01*
X57509419Y-33974750D01*
X57504203Y-33953926D01*
X57501053Y-33932691D01*
X57500000Y-33911250D01*
X57500000Y-33398750D01*
X57501053Y-33377309D01*
X57504203Y-33356074D01*
X57509419Y-33335250D01*
X57516651Y-33315038D01*
X57525830Y-33295632D01*
X57536866Y-33277219D01*
X57549654Y-33259976D01*
X57564070Y-33244070D01*
X57579976Y-33229654D01*
X57597219Y-33216866D01*
X57615632Y-33205830D01*
X57635038Y-33196651D01*
X57655250Y-33189419D01*
X57676074Y-33184203D01*
X57697309Y-33181053D01*
X57718750Y-33180000D01*
X58156250Y-33180000D01*
X58177691Y-33181053D01*
X58177691Y-33181053D01*
G37*
D11*
X57937500Y-33655000D03*
G04 #@! TD*
D10*
G04 #@! TO.C,D1*
G36*
X32472691Y-26831053D02*
X32493926Y-26834203D01*
X32514750Y-26839419D01*
X32534962Y-26846651D01*
X32554368Y-26855830D01*
X32572781Y-26866866D01*
X32590024Y-26879654D01*
X32605930Y-26894070D01*
X32620346Y-26909976D01*
X32633134Y-26927219D01*
X32644170Y-26945632D01*
X32653349Y-26965038D01*
X32660581Y-26985250D01*
X32665797Y-27006074D01*
X32668947Y-27027309D01*
X32670000Y-27048750D01*
X32670000Y-27561250D01*
X32668947Y-27582691D01*
X32665797Y-27603926D01*
X32660581Y-27624750D01*
X32653349Y-27644962D01*
X32644170Y-27664368D01*
X32633134Y-27682781D01*
X32620346Y-27700024D01*
X32605930Y-27715930D01*
X32590024Y-27730346D01*
X32572781Y-27743134D01*
X32554368Y-27754170D01*
X32534962Y-27763349D01*
X32514750Y-27770581D01*
X32493926Y-27775797D01*
X32472691Y-27778947D01*
X32451250Y-27780000D01*
X32013750Y-27780000D01*
X31992309Y-27778947D01*
X31971074Y-27775797D01*
X31950250Y-27770581D01*
X31930038Y-27763349D01*
X31910632Y-27754170D01*
X31892219Y-27743134D01*
X31874976Y-27730346D01*
X31859070Y-27715930D01*
X31844654Y-27700024D01*
X31831866Y-27682781D01*
X31820830Y-27664368D01*
X31811651Y-27644962D01*
X31804419Y-27624750D01*
X31799203Y-27603926D01*
X31796053Y-27582691D01*
X31795000Y-27561250D01*
X31795000Y-27048750D01*
X31796053Y-27027309D01*
X31799203Y-27006074D01*
X31804419Y-26985250D01*
X31811651Y-26965038D01*
X31820830Y-26945632D01*
X31831866Y-26927219D01*
X31844654Y-26909976D01*
X31859070Y-26894070D01*
X31874976Y-26879654D01*
X31892219Y-26866866D01*
X31910632Y-26855830D01*
X31930038Y-26846651D01*
X31950250Y-26839419D01*
X31971074Y-26834203D01*
X31992309Y-26831053D01*
X32013750Y-26830000D01*
X32451250Y-26830000D01*
X32472691Y-26831053D01*
X32472691Y-26831053D01*
G37*
D11*
X32232500Y-27305000D03*
D10*
G36*
X34047691Y-26831053D02*
X34068926Y-26834203D01*
X34089750Y-26839419D01*
X34109962Y-26846651D01*
X34129368Y-26855830D01*
X34147781Y-26866866D01*
X34165024Y-26879654D01*
X34180930Y-26894070D01*
X34195346Y-26909976D01*
X34208134Y-26927219D01*
X34219170Y-26945632D01*
X34228349Y-26965038D01*
X34235581Y-26985250D01*
X34240797Y-27006074D01*
X34243947Y-27027309D01*
X34245000Y-27048750D01*
X34245000Y-27561250D01*
X34243947Y-27582691D01*
X34240797Y-27603926D01*
X34235581Y-27624750D01*
X34228349Y-27644962D01*
X34219170Y-27664368D01*
X34208134Y-27682781D01*
X34195346Y-27700024D01*
X34180930Y-27715930D01*
X34165024Y-27730346D01*
X34147781Y-27743134D01*
X34129368Y-27754170D01*
X34109962Y-27763349D01*
X34089750Y-27770581D01*
X34068926Y-27775797D01*
X34047691Y-27778947D01*
X34026250Y-27780000D01*
X33588750Y-27780000D01*
X33567309Y-27778947D01*
X33546074Y-27775797D01*
X33525250Y-27770581D01*
X33505038Y-27763349D01*
X33485632Y-27754170D01*
X33467219Y-27743134D01*
X33449976Y-27730346D01*
X33434070Y-27715930D01*
X33419654Y-27700024D01*
X33406866Y-27682781D01*
X33395830Y-27664368D01*
X33386651Y-27644962D01*
X33379419Y-27624750D01*
X33374203Y-27603926D01*
X33371053Y-27582691D01*
X33370000Y-27561250D01*
X33370000Y-27048750D01*
X33371053Y-27027309D01*
X33374203Y-27006074D01*
X33379419Y-26985250D01*
X33386651Y-26965038D01*
X33395830Y-26945632D01*
X33406866Y-26927219D01*
X33419654Y-26909976D01*
X33434070Y-26894070D01*
X33449976Y-26879654D01*
X33467219Y-26866866D01*
X33485632Y-26855830D01*
X33505038Y-26846651D01*
X33525250Y-26839419D01*
X33546074Y-26834203D01*
X33567309Y-26831053D01*
X33588750Y-26830000D01*
X34026250Y-26830000D01*
X34047691Y-26831053D01*
X34047691Y-26831053D01*
G37*
D11*
X33807500Y-27305000D03*
G04 #@! TD*
D10*
G04 #@! TO.C,D2*
G36*
X34047691Y-32546053D02*
X34068926Y-32549203D01*
X34089750Y-32554419D01*
X34109962Y-32561651D01*
X34129368Y-32570830D01*
X34147781Y-32581866D01*
X34165024Y-32594654D01*
X34180930Y-32609070D01*
X34195346Y-32624976D01*
X34208134Y-32642219D01*
X34219170Y-32660632D01*
X34228349Y-32680038D01*
X34235581Y-32700250D01*
X34240797Y-32721074D01*
X34243947Y-32742309D01*
X34245000Y-32763750D01*
X34245000Y-33276250D01*
X34243947Y-33297691D01*
X34240797Y-33318926D01*
X34235581Y-33339750D01*
X34228349Y-33359962D01*
X34219170Y-33379368D01*
X34208134Y-33397781D01*
X34195346Y-33415024D01*
X34180930Y-33430930D01*
X34165024Y-33445346D01*
X34147781Y-33458134D01*
X34129368Y-33469170D01*
X34109962Y-33478349D01*
X34089750Y-33485581D01*
X34068926Y-33490797D01*
X34047691Y-33493947D01*
X34026250Y-33495000D01*
X33588750Y-33495000D01*
X33567309Y-33493947D01*
X33546074Y-33490797D01*
X33525250Y-33485581D01*
X33505038Y-33478349D01*
X33485632Y-33469170D01*
X33467219Y-33458134D01*
X33449976Y-33445346D01*
X33434070Y-33430930D01*
X33419654Y-33415024D01*
X33406866Y-33397781D01*
X33395830Y-33379368D01*
X33386651Y-33359962D01*
X33379419Y-33339750D01*
X33374203Y-33318926D01*
X33371053Y-33297691D01*
X33370000Y-33276250D01*
X33370000Y-32763750D01*
X33371053Y-32742309D01*
X33374203Y-32721074D01*
X33379419Y-32700250D01*
X33386651Y-32680038D01*
X33395830Y-32660632D01*
X33406866Y-32642219D01*
X33419654Y-32624976D01*
X33434070Y-32609070D01*
X33449976Y-32594654D01*
X33467219Y-32581866D01*
X33485632Y-32570830D01*
X33505038Y-32561651D01*
X33525250Y-32554419D01*
X33546074Y-32549203D01*
X33567309Y-32546053D01*
X33588750Y-32545000D01*
X34026250Y-32545000D01*
X34047691Y-32546053D01*
X34047691Y-32546053D01*
G37*
D11*
X33807500Y-33020000D03*
D10*
G36*
X32472691Y-32546053D02*
X32493926Y-32549203D01*
X32514750Y-32554419D01*
X32534962Y-32561651D01*
X32554368Y-32570830D01*
X32572781Y-32581866D01*
X32590024Y-32594654D01*
X32605930Y-32609070D01*
X32620346Y-32624976D01*
X32633134Y-32642219D01*
X32644170Y-32660632D01*
X32653349Y-32680038D01*
X32660581Y-32700250D01*
X32665797Y-32721074D01*
X32668947Y-32742309D01*
X32670000Y-32763750D01*
X32670000Y-33276250D01*
X32668947Y-33297691D01*
X32665797Y-33318926D01*
X32660581Y-33339750D01*
X32653349Y-33359962D01*
X32644170Y-33379368D01*
X32633134Y-33397781D01*
X32620346Y-33415024D01*
X32605930Y-33430930D01*
X32590024Y-33445346D01*
X32572781Y-33458134D01*
X32554368Y-33469170D01*
X32534962Y-33478349D01*
X32514750Y-33485581D01*
X32493926Y-33490797D01*
X32472691Y-33493947D01*
X32451250Y-33495000D01*
X32013750Y-33495000D01*
X31992309Y-33493947D01*
X31971074Y-33490797D01*
X31950250Y-33485581D01*
X31930038Y-33478349D01*
X31910632Y-33469170D01*
X31892219Y-33458134D01*
X31874976Y-33445346D01*
X31859070Y-33430930D01*
X31844654Y-33415024D01*
X31831866Y-33397781D01*
X31820830Y-33379368D01*
X31811651Y-33359962D01*
X31804419Y-33339750D01*
X31799203Y-33318926D01*
X31796053Y-33297691D01*
X31795000Y-33276250D01*
X31795000Y-32763750D01*
X31796053Y-32742309D01*
X31799203Y-32721074D01*
X31804419Y-32700250D01*
X31811651Y-32680038D01*
X31820830Y-32660632D01*
X31831866Y-32642219D01*
X31844654Y-32624976D01*
X31859070Y-32609070D01*
X31874976Y-32594654D01*
X31892219Y-32581866D01*
X31910632Y-32570830D01*
X31930038Y-32561651D01*
X31950250Y-32554419D01*
X31971074Y-32549203D01*
X31992309Y-32546053D01*
X32013750Y-32545000D01*
X32451250Y-32545000D01*
X32472691Y-32546053D01*
X32472691Y-32546053D01*
G37*
D11*
X32232500Y-33020000D03*
G04 #@! TD*
D10*
G04 #@! TO.C,D3*
G36*
X32472691Y-30641053D02*
X32493926Y-30644203D01*
X32514750Y-30649419D01*
X32534962Y-30656651D01*
X32554368Y-30665830D01*
X32572781Y-30676866D01*
X32590024Y-30689654D01*
X32605930Y-30704070D01*
X32620346Y-30719976D01*
X32633134Y-30737219D01*
X32644170Y-30755632D01*
X32653349Y-30775038D01*
X32660581Y-30795250D01*
X32665797Y-30816074D01*
X32668947Y-30837309D01*
X32670000Y-30858750D01*
X32670000Y-31371250D01*
X32668947Y-31392691D01*
X32665797Y-31413926D01*
X32660581Y-31434750D01*
X32653349Y-31454962D01*
X32644170Y-31474368D01*
X32633134Y-31492781D01*
X32620346Y-31510024D01*
X32605930Y-31525930D01*
X32590024Y-31540346D01*
X32572781Y-31553134D01*
X32554368Y-31564170D01*
X32534962Y-31573349D01*
X32514750Y-31580581D01*
X32493926Y-31585797D01*
X32472691Y-31588947D01*
X32451250Y-31590000D01*
X32013750Y-31590000D01*
X31992309Y-31588947D01*
X31971074Y-31585797D01*
X31950250Y-31580581D01*
X31930038Y-31573349D01*
X31910632Y-31564170D01*
X31892219Y-31553134D01*
X31874976Y-31540346D01*
X31859070Y-31525930D01*
X31844654Y-31510024D01*
X31831866Y-31492781D01*
X31820830Y-31474368D01*
X31811651Y-31454962D01*
X31804419Y-31434750D01*
X31799203Y-31413926D01*
X31796053Y-31392691D01*
X31795000Y-31371250D01*
X31795000Y-30858750D01*
X31796053Y-30837309D01*
X31799203Y-30816074D01*
X31804419Y-30795250D01*
X31811651Y-30775038D01*
X31820830Y-30755632D01*
X31831866Y-30737219D01*
X31844654Y-30719976D01*
X31859070Y-30704070D01*
X31874976Y-30689654D01*
X31892219Y-30676866D01*
X31910632Y-30665830D01*
X31930038Y-30656651D01*
X31950250Y-30649419D01*
X31971074Y-30644203D01*
X31992309Y-30641053D01*
X32013750Y-30640000D01*
X32451250Y-30640000D01*
X32472691Y-30641053D01*
X32472691Y-30641053D01*
G37*
D11*
X32232500Y-31115000D03*
D10*
G36*
X34047691Y-30641053D02*
X34068926Y-30644203D01*
X34089750Y-30649419D01*
X34109962Y-30656651D01*
X34129368Y-30665830D01*
X34147781Y-30676866D01*
X34165024Y-30689654D01*
X34180930Y-30704070D01*
X34195346Y-30719976D01*
X34208134Y-30737219D01*
X34219170Y-30755632D01*
X34228349Y-30775038D01*
X34235581Y-30795250D01*
X34240797Y-30816074D01*
X34243947Y-30837309D01*
X34245000Y-30858750D01*
X34245000Y-31371250D01*
X34243947Y-31392691D01*
X34240797Y-31413926D01*
X34235581Y-31434750D01*
X34228349Y-31454962D01*
X34219170Y-31474368D01*
X34208134Y-31492781D01*
X34195346Y-31510024D01*
X34180930Y-31525930D01*
X34165024Y-31540346D01*
X34147781Y-31553134D01*
X34129368Y-31564170D01*
X34109962Y-31573349D01*
X34089750Y-31580581D01*
X34068926Y-31585797D01*
X34047691Y-31588947D01*
X34026250Y-31590000D01*
X33588750Y-31590000D01*
X33567309Y-31588947D01*
X33546074Y-31585797D01*
X33525250Y-31580581D01*
X33505038Y-31573349D01*
X33485632Y-31564170D01*
X33467219Y-31553134D01*
X33449976Y-31540346D01*
X33434070Y-31525930D01*
X33419654Y-31510024D01*
X33406866Y-31492781D01*
X33395830Y-31474368D01*
X33386651Y-31454962D01*
X33379419Y-31434750D01*
X33374203Y-31413926D01*
X33371053Y-31392691D01*
X33370000Y-31371250D01*
X33370000Y-30858750D01*
X33371053Y-30837309D01*
X33374203Y-30816074D01*
X33379419Y-30795250D01*
X33386651Y-30775038D01*
X33395830Y-30755632D01*
X33406866Y-30737219D01*
X33419654Y-30719976D01*
X33434070Y-30704070D01*
X33449976Y-30689654D01*
X33467219Y-30676866D01*
X33485632Y-30665830D01*
X33505038Y-30656651D01*
X33525250Y-30649419D01*
X33546074Y-30644203D01*
X33567309Y-30641053D01*
X33588750Y-30640000D01*
X34026250Y-30640000D01*
X34047691Y-30641053D01*
X34047691Y-30641053D01*
G37*
D11*
X33807500Y-31115000D03*
G04 #@! TD*
D10*
G04 #@! TO.C,D4*
G36*
X34047691Y-28736053D02*
X34068926Y-28739203D01*
X34089750Y-28744419D01*
X34109962Y-28751651D01*
X34129368Y-28760830D01*
X34147781Y-28771866D01*
X34165024Y-28784654D01*
X34180930Y-28799070D01*
X34195346Y-28814976D01*
X34208134Y-28832219D01*
X34219170Y-28850632D01*
X34228349Y-28870038D01*
X34235581Y-28890250D01*
X34240797Y-28911074D01*
X34243947Y-28932309D01*
X34245000Y-28953750D01*
X34245000Y-29466250D01*
X34243947Y-29487691D01*
X34240797Y-29508926D01*
X34235581Y-29529750D01*
X34228349Y-29549962D01*
X34219170Y-29569368D01*
X34208134Y-29587781D01*
X34195346Y-29605024D01*
X34180930Y-29620930D01*
X34165024Y-29635346D01*
X34147781Y-29648134D01*
X34129368Y-29659170D01*
X34109962Y-29668349D01*
X34089750Y-29675581D01*
X34068926Y-29680797D01*
X34047691Y-29683947D01*
X34026250Y-29685000D01*
X33588750Y-29685000D01*
X33567309Y-29683947D01*
X33546074Y-29680797D01*
X33525250Y-29675581D01*
X33505038Y-29668349D01*
X33485632Y-29659170D01*
X33467219Y-29648134D01*
X33449976Y-29635346D01*
X33434070Y-29620930D01*
X33419654Y-29605024D01*
X33406866Y-29587781D01*
X33395830Y-29569368D01*
X33386651Y-29549962D01*
X33379419Y-29529750D01*
X33374203Y-29508926D01*
X33371053Y-29487691D01*
X33370000Y-29466250D01*
X33370000Y-28953750D01*
X33371053Y-28932309D01*
X33374203Y-28911074D01*
X33379419Y-28890250D01*
X33386651Y-28870038D01*
X33395830Y-28850632D01*
X33406866Y-28832219D01*
X33419654Y-28814976D01*
X33434070Y-28799070D01*
X33449976Y-28784654D01*
X33467219Y-28771866D01*
X33485632Y-28760830D01*
X33505038Y-28751651D01*
X33525250Y-28744419D01*
X33546074Y-28739203D01*
X33567309Y-28736053D01*
X33588750Y-28735000D01*
X34026250Y-28735000D01*
X34047691Y-28736053D01*
X34047691Y-28736053D01*
G37*
D11*
X33807500Y-29210000D03*
D10*
G36*
X32472691Y-28736053D02*
X32493926Y-28739203D01*
X32514750Y-28744419D01*
X32534962Y-28751651D01*
X32554368Y-28760830D01*
X32572781Y-28771866D01*
X32590024Y-28784654D01*
X32605930Y-28799070D01*
X32620346Y-28814976D01*
X32633134Y-28832219D01*
X32644170Y-28850632D01*
X32653349Y-28870038D01*
X32660581Y-28890250D01*
X32665797Y-28911074D01*
X32668947Y-28932309D01*
X32670000Y-28953750D01*
X32670000Y-29466250D01*
X32668947Y-29487691D01*
X32665797Y-29508926D01*
X32660581Y-29529750D01*
X32653349Y-29549962D01*
X32644170Y-29569368D01*
X32633134Y-29587781D01*
X32620346Y-29605024D01*
X32605930Y-29620930D01*
X32590024Y-29635346D01*
X32572781Y-29648134D01*
X32554368Y-29659170D01*
X32534962Y-29668349D01*
X32514750Y-29675581D01*
X32493926Y-29680797D01*
X32472691Y-29683947D01*
X32451250Y-29685000D01*
X32013750Y-29685000D01*
X31992309Y-29683947D01*
X31971074Y-29680797D01*
X31950250Y-29675581D01*
X31930038Y-29668349D01*
X31910632Y-29659170D01*
X31892219Y-29648134D01*
X31874976Y-29635346D01*
X31859070Y-29620930D01*
X31844654Y-29605024D01*
X31831866Y-29587781D01*
X31820830Y-29569368D01*
X31811651Y-29549962D01*
X31804419Y-29529750D01*
X31799203Y-29508926D01*
X31796053Y-29487691D01*
X31795000Y-29466250D01*
X31795000Y-28953750D01*
X31796053Y-28932309D01*
X31799203Y-28911074D01*
X31804419Y-28890250D01*
X31811651Y-28870038D01*
X31820830Y-28850632D01*
X31831866Y-28832219D01*
X31844654Y-28814976D01*
X31859070Y-28799070D01*
X31874976Y-28784654D01*
X31892219Y-28771866D01*
X31910632Y-28760830D01*
X31930038Y-28751651D01*
X31950250Y-28744419D01*
X31971074Y-28739203D01*
X31992309Y-28736053D01*
X32013750Y-28735000D01*
X32451250Y-28735000D01*
X32472691Y-28736053D01*
X32472691Y-28736053D01*
G37*
D11*
X32232500Y-29210000D03*
G04 #@! TD*
D12*
G04 #@! TO.C,J1*
X33095000Y-39755000D03*
X33095000Y-40255000D03*
X33095000Y-40755000D03*
X33095000Y-39255000D03*
X33095000Y-41255000D03*
X33095000Y-38755000D03*
X33095000Y-41755000D03*
X33095000Y-38255000D03*
D13*
X33095000Y-37555000D03*
X33095000Y-42455000D03*
X33095000Y-36780000D03*
X33095000Y-43230000D03*
G04 #@! TD*
D10*
G04 #@! TO.C,R1*
G36*
X38010191Y-34451053D02*
X38031426Y-34454203D01*
X38052250Y-34459419D01*
X38072462Y-34466651D01*
X38091868Y-34475830D01*
X38110281Y-34486866D01*
X38127524Y-34499654D01*
X38143430Y-34514070D01*
X38157846Y-34529976D01*
X38170634Y-34547219D01*
X38181670Y-34565632D01*
X38190849Y-34585038D01*
X38198081Y-34605250D01*
X38203297Y-34626074D01*
X38206447Y-34647309D01*
X38207500Y-34668750D01*
X38207500Y-35181250D01*
X38206447Y-35202691D01*
X38203297Y-35223926D01*
X38198081Y-35244750D01*
X38190849Y-35264962D01*
X38181670Y-35284368D01*
X38170634Y-35302781D01*
X38157846Y-35320024D01*
X38143430Y-35335930D01*
X38127524Y-35350346D01*
X38110281Y-35363134D01*
X38091868Y-35374170D01*
X38072462Y-35383349D01*
X38052250Y-35390581D01*
X38031426Y-35395797D01*
X38010191Y-35398947D01*
X37988750Y-35400000D01*
X37551250Y-35400000D01*
X37529809Y-35398947D01*
X37508574Y-35395797D01*
X37487750Y-35390581D01*
X37467538Y-35383349D01*
X37448132Y-35374170D01*
X37429719Y-35363134D01*
X37412476Y-35350346D01*
X37396570Y-35335930D01*
X37382154Y-35320024D01*
X37369366Y-35302781D01*
X37358330Y-35284368D01*
X37349151Y-35264962D01*
X37341919Y-35244750D01*
X37336703Y-35223926D01*
X37333553Y-35202691D01*
X37332500Y-35181250D01*
X37332500Y-34668750D01*
X37333553Y-34647309D01*
X37336703Y-34626074D01*
X37341919Y-34605250D01*
X37349151Y-34585038D01*
X37358330Y-34565632D01*
X37369366Y-34547219D01*
X37382154Y-34529976D01*
X37396570Y-34514070D01*
X37412476Y-34499654D01*
X37429719Y-34486866D01*
X37448132Y-34475830D01*
X37467538Y-34466651D01*
X37487750Y-34459419D01*
X37508574Y-34454203D01*
X37529809Y-34451053D01*
X37551250Y-34450000D01*
X37988750Y-34450000D01*
X38010191Y-34451053D01*
X38010191Y-34451053D01*
G37*
D11*
X37770000Y-34925000D03*
D10*
G36*
X36435191Y-34451053D02*
X36456426Y-34454203D01*
X36477250Y-34459419D01*
X36497462Y-34466651D01*
X36516868Y-34475830D01*
X36535281Y-34486866D01*
X36552524Y-34499654D01*
X36568430Y-34514070D01*
X36582846Y-34529976D01*
X36595634Y-34547219D01*
X36606670Y-34565632D01*
X36615849Y-34585038D01*
X36623081Y-34605250D01*
X36628297Y-34626074D01*
X36631447Y-34647309D01*
X36632500Y-34668750D01*
X36632500Y-35181250D01*
X36631447Y-35202691D01*
X36628297Y-35223926D01*
X36623081Y-35244750D01*
X36615849Y-35264962D01*
X36606670Y-35284368D01*
X36595634Y-35302781D01*
X36582846Y-35320024D01*
X36568430Y-35335930D01*
X36552524Y-35350346D01*
X36535281Y-35363134D01*
X36516868Y-35374170D01*
X36497462Y-35383349D01*
X36477250Y-35390581D01*
X36456426Y-35395797D01*
X36435191Y-35398947D01*
X36413750Y-35400000D01*
X35976250Y-35400000D01*
X35954809Y-35398947D01*
X35933574Y-35395797D01*
X35912750Y-35390581D01*
X35892538Y-35383349D01*
X35873132Y-35374170D01*
X35854719Y-35363134D01*
X35837476Y-35350346D01*
X35821570Y-35335930D01*
X35807154Y-35320024D01*
X35794366Y-35302781D01*
X35783330Y-35284368D01*
X35774151Y-35264962D01*
X35766919Y-35244750D01*
X35761703Y-35223926D01*
X35758553Y-35202691D01*
X35757500Y-35181250D01*
X35757500Y-34668750D01*
X35758553Y-34647309D01*
X35761703Y-34626074D01*
X35766919Y-34605250D01*
X35774151Y-34585038D01*
X35783330Y-34565632D01*
X35794366Y-34547219D01*
X35807154Y-34529976D01*
X35821570Y-34514070D01*
X35837476Y-34499654D01*
X35854719Y-34486866D01*
X35873132Y-34475830D01*
X35892538Y-34466651D01*
X35912750Y-34459419D01*
X35933574Y-34454203D01*
X35954809Y-34451053D01*
X35976250Y-34450000D01*
X36413750Y-34450000D01*
X36435191Y-34451053D01*
X36435191Y-34451053D01*
G37*
D11*
X36195000Y-34925000D03*
G04 #@! TD*
D10*
G04 #@! TO.C,R2*
G36*
X38010191Y-42071053D02*
X38031426Y-42074203D01*
X38052250Y-42079419D01*
X38072462Y-42086651D01*
X38091868Y-42095830D01*
X38110281Y-42106866D01*
X38127524Y-42119654D01*
X38143430Y-42134070D01*
X38157846Y-42149976D01*
X38170634Y-42167219D01*
X38181670Y-42185632D01*
X38190849Y-42205038D01*
X38198081Y-42225250D01*
X38203297Y-42246074D01*
X38206447Y-42267309D01*
X38207500Y-42288750D01*
X38207500Y-42801250D01*
X38206447Y-42822691D01*
X38203297Y-42843926D01*
X38198081Y-42864750D01*
X38190849Y-42884962D01*
X38181670Y-42904368D01*
X38170634Y-42922781D01*
X38157846Y-42940024D01*
X38143430Y-42955930D01*
X38127524Y-42970346D01*
X38110281Y-42983134D01*
X38091868Y-42994170D01*
X38072462Y-43003349D01*
X38052250Y-43010581D01*
X38031426Y-43015797D01*
X38010191Y-43018947D01*
X37988750Y-43020000D01*
X37551250Y-43020000D01*
X37529809Y-43018947D01*
X37508574Y-43015797D01*
X37487750Y-43010581D01*
X37467538Y-43003349D01*
X37448132Y-42994170D01*
X37429719Y-42983134D01*
X37412476Y-42970346D01*
X37396570Y-42955930D01*
X37382154Y-42940024D01*
X37369366Y-42922781D01*
X37358330Y-42904368D01*
X37349151Y-42884962D01*
X37341919Y-42864750D01*
X37336703Y-42843926D01*
X37333553Y-42822691D01*
X37332500Y-42801250D01*
X37332500Y-42288750D01*
X37333553Y-42267309D01*
X37336703Y-42246074D01*
X37341919Y-42225250D01*
X37349151Y-42205038D01*
X37358330Y-42185632D01*
X37369366Y-42167219D01*
X37382154Y-42149976D01*
X37396570Y-42134070D01*
X37412476Y-42119654D01*
X37429719Y-42106866D01*
X37448132Y-42095830D01*
X37467538Y-42086651D01*
X37487750Y-42079419D01*
X37508574Y-42074203D01*
X37529809Y-42071053D01*
X37551250Y-42070000D01*
X37988750Y-42070000D01*
X38010191Y-42071053D01*
X38010191Y-42071053D01*
G37*
D11*
X37770000Y-42545000D03*
D10*
G36*
X36435191Y-42071053D02*
X36456426Y-42074203D01*
X36477250Y-42079419D01*
X36497462Y-42086651D01*
X36516868Y-42095830D01*
X36535281Y-42106866D01*
X36552524Y-42119654D01*
X36568430Y-42134070D01*
X36582846Y-42149976D01*
X36595634Y-42167219D01*
X36606670Y-42185632D01*
X36615849Y-42205038D01*
X36623081Y-42225250D01*
X36628297Y-42246074D01*
X36631447Y-42267309D01*
X36632500Y-42288750D01*
X36632500Y-42801250D01*
X36631447Y-42822691D01*
X36628297Y-42843926D01*
X36623081Y-42864750D01*
X36615849Y-42884962D01*
X36606670Y-42904368D01*
X36595634Y-42922781D01*
X36582846Y-42940024D01*
X36568430Y-42955930D01*
X36552524Y-42970346D01*
X36535281Y-42983134D01*
X36516868Y-42994170D01*
X36497462Y-43003349D01*
X36477250Y-43010581D01*
X36456426Y-43015797D01*
X36435191Y-43018947D01*
X36413750Y-43020000D01*
X35976250Y-43020000D01*
X35954809Y-43018947D01*
X35933574Y-43015797D01*
X35912750Y-43010581D01*
X35892538Y-43003349D01*
X35873132Y-42994170D01*
X35854719Y-42983134D01*
X35837476Y-42970346D01*
X35821570Y-42955930D01*
X35807154Y-42940024D01*
X35794366Y-42922781D01*
X35783330Y-42904368D01*
X35774151Y-42884962D01*
X35766919Y-42864750D01*
X35761703Y-42843926D01*
X35758553Y-42822691D01*
X35757500Y-42801250D01*
X35757500Y-42288750D01*
X35758553Y-42267309D01*
X35761703Y-42246074D01*
X35766919Y-42225250D01*
X35774151Y-42205038D01*
X35783330Y-42185632D01*
X35794366Y-42167219D01*
X35807154Y-42149976D01*
X35821570Y-42134070D01*
X35837476Y-42119654D01*
X35854719Y-42106866D01*
X35873132Y-42095830D01*
X35892538Y-42086651D01*
X35912750Y-42079419D01*
X35933574Y-42074203D01*
X35954809Y-42071053D01*
X35976250Y-42070000D01*
X36413750Y-42070000D01*
X36435191Y-42071053D01*
X36435191Y-42071053D01*
G37*
D11*
X36195000Y-42545000D03*
G04 #@! TD*
D10*
G04 #@! TO.C,R3*
G36*
X36435191Y-38261053D02*
X36456426Y-38264203D01*
X36477250Y-38269419D01*
X36497462Y-38276651D01*
X36516868Y-38285830D01*
X36535281Y-38296866D01*
X36552524Y-38309654D01*
X36568430Y-38324070D01*
X36582846Y-38339976D01*
X36595634Y-38357219D01*
X36606670Y-38375632D01*
X36615849Y-38395038D01*
X36623081Y-38415250D01*
X36628297Y-38436074D01*
X36631447Y-38457309D01*
X36632500Y-38478750D01*
X36632500Y-38991250D01*
X36631447Y-39012691D01*
X36628297Y-39033926D01*
X36623081Y-39054750D01*
X36615849Y-39074962D01*
X36606670Y-39094368D01*
X36595634Y-39112781D01*
X36582846Y-39130024D01*
X36568430Y-39145930D01*
X36552524Y-39160346D01*
X36535281Y-39173134D01*
X36516868Y-39184170D01*
X36497462Y-39193349D01*
X36477250Y-39200581D01*
X36456426Y-39205797D01*
X36435191Y-39208947D01*
X36413750Y-39210000D01*
X35976250Y-39210000D01*
X35954809Y-39208947D01*
X35933574Y-39205797D01*
X35912750Y-39200581D01*
X35892538Y-39193349D01*
X35873132Y-39184170D01*
X35854719Y-39173134D01*
X35837476Y-39160346D01*
X35821570Y-39145930D01*
X35807154Y-39130024D01*
X35794366Y-39112781D01*
X35783330Y-39094368D01*
X35774151Y-39074962D01*
X35766919Y-39054750D01*
X35761703Y-39033926D01*
X35758553Y-39012691D01*
X35757500Y-38991250D01*
X35757500Y-38478750D01*
X35758553Y-38457309D01*
X35761703Y-38436074D01*
X35766919Y-38415250D01*
X35774151Y-38395038D01*
X35783330Y-38375632D01*
X35794366Y-38357219D01*
X35807154Y-38339976D01*
X35821570Y-38324070D01*
X35837476Y-38309654D01*
X35854719Y-38296866D01*
X35873132Y-38285830D01*
X35892538Y-38276651D01*
X35912750Y-38269419D01*
X35933574Y-38264203D01*
X35954809Y-38261053D01*
X35976250Y-38260000D01*
X36413750Y-38260000D01*
X36435191Y-38261053D01*
X36435191Y-38261053D01*
G37*
D11*
X36195000Y-38735000D03*
D10*
G36*
X38010191Y-38261053D02*
X38031426Y-38264203D01*
X38052250Y-38269419D01*
X38072462Y-38276651D01*
X38091868Y-38285830D01*
X38110281Y-38296866D01*
X38127524Y-38309654D01*
X38143430Y-38324070D01*
X38157846Y-38339976D01*
X38170634Y-38357219D01*
X38181670Y-38375632D01*
X38190849Y-38395038D01*
X38198081Y-38415250D01*
X38203297Y-38436074D01*
X38206447Y-38457309D01*
X38207500Y-38478750D01*
X38207500Y-38991250D01*
X38206447Y-39012691D01*
X38203297Y-39033926D01*
X38198081Y-39054750D01*
X38190849Y-39074962D01*
X38181670Y-39094368D01*
X38170634Y-39112781D01*
X38157846Y-39130024D01*
X38143430Y-39145930D01*
X38127524Y-39160346D01*
X38110281Y-39173134D01*
X38091868Y-39184170D01*
X38072462Y-39193349D01*
X38052250Y-39200581D01*
X38031426Y-39205797D01*
X38010191Y-39208947D01*
X37988750Y-39210000D01*
X37551250Y-39210000D01*
X37529809Y-39208947D01*
X37508574Y-39205797D01*
X37487750Y-39200581D01*
X37467538Y-39193349D01*
X37448132Y-39184170D01*
X37429719Y-39173134D01*
X37412476Y-39160346D01*
X37396570Y-39145930D01*
X37382154Y-39130024D01*
X37369366Y-39112781D01*
X37358330Y-39094368D01*
X37349151Y-39074962D01*
X37341919Y-39054750D01*
X37336703Y-39033926D01*
X37333553Y-39012691D01*
X37332500Y-38991250D01*
X37332500Y-38478750D01*
X37333553Y-38457309D01*
X37336703Y-38436074D01*
X37341919Y-38415250D01*
X37349151Y-38395038D01*
X37358330Y-38375632D01*
X37369366Y-38357219D01*
X37382154Y-38339976D01*
X37396570Y-38324070D01*
X37412476Y-38309654D01*
X37429719Y-38296866D01*
X37448132Y-38285830D01*
X37467538Y-38276651D01*
X37487750Y-38269419D01*
X37508574Y-38264203D01*
X37529809Y-38261053D01*
X37551250Y-38260000D01*
X37988750Y-38260000D01*
X38010191Y-38261053D01*
X38010191Y-38261053D01*
G37*
D11*
X37770000Y-38735000D03*
G04 #@! TD*
D10*
G04 #@! TO.C,R4*
G36*
X38010191Y-40166053D02*
X38031426Y-40169203D01*
X38052250Y-40174419D01*
X38072462Y-40181651D01*
X38091868Y-40190830D01*
X38110281Y-40201866D01*
X38127524Y-40214654D01*
X38143430Y-40229070D01*
X38157846Y-40244976D01*
X38170634Y-40262219D01*
X38181670Y-40280632D01*
X38190849Y-40300038D01*
X38198081Y-40320250D01*
X38203297Y-40341074D01*
X38206447Y-40362309D01*
X38207500Y-40383750D01*
X38207500Y-40896250D01*
X38206447Y-40917691D01*
X38203297Y-40938926D01*
X38198081Y-40959750D01*
X38190849Y-40979962D01*
X38181670Y-40999368D01*
X38170634Y-41017781D01*
X38157846Y-41035024D01*
X38143430Y-41050930D01*
X38127524Y-41065346D01*
X38110281Y-41078134D01*
X38091868Y-41089170D01*
X38072462Y-41098349D01*
X38052250Y-41105581D01*
X38031426Y-41110797D01*
X38010191Y-41113947D01*
X37988750Y-41115000D01*
X37551250Y-41115000D01*
X37529809Y-41113947D01*
X37508574Y-41110797D01*
X37487750Y-41105581D01*
X37467538Y-41098349D01*
X37448132Y-41089170D01*
X37429719Y-41078134D01*
X37412476Y-41065346D01*
X37396570Y-41050930D01*
X37382154Y-41035024D01*
X37369366Y-41017781D01*
X37358330Y-40999368D01*
X37349151Y-40979962D01*
X37341919Y-40959750D01*
X37336703Y-40938926D01*
X37333553Y-40917691D01*
X37332500Y-40896250D01*
X37332500Y-40383750D01*
X37333553Y-40362309D01*
X37336703Y-40341074D01*
X37341919Y-40320250D01*
X37349151Y-40300038D01*
X37358330Y-40280632D01*
X37369366Y-40262219D01*
X37382154Y-40244976D01*
X37396570Y-40229070D01*
X37412476Y-40214654D01*
X37429719Y-40201866D01*
X37448132Y-40190830D01*
X37467538Y-40181651D01*
X37487750Y-40174419D01*
X37508574Y-40169203D01*
X37529809Y-40166053D01*
X37551250Y-40165000D01*
X37988750Y-40165000D01*
X38010191Y-40166053D01*
X38010191Y-40166053D01*
G37*
D11*
X37770000Y-40640000D03*
D10*
G36*
X36435191Y-40166053D02*
X36456426Y-40169203D01*
X36477250Y-40174419D01*
X36497462Y-40181651D01*
X36516868Y-40190830D01*
X36535281Y-40201866D01*
X36552524Y-40214654D01*
X36568430Y-40229070D01*
X36582846Y-40244976D01*
X36595634Y-40262219D01*
X36606670Y-40280632D01*
X36615849Y-40300038D01*
X36623081Y-40320250D01*
X36628297Y-40341074D01*
X36631447Y-40362309D01*
X36632500Y-40383750D01*
X36632500Y-40896250D01*
X36631447Y-40917691D01*
X36628297Y-40938926D01*
X36623081Y-40959750D01*
X36615849Y-40979962D01*
X36606670Y-40999368D01*
X36595634Y-41017781D01*
X36582846Y-41035024D01*
X36568430Y-41050930D01*
X36552524Y-41065346D01*
X36535281Y-41078134D01*
X36516868Y-41089170D01*
X36497462Y-41098349D01*
X36477250Y-41105581D01*
X36456426Y-41110797D01*
X36435191Y-41113947D01*
X36413750Y-41115000D01*
X35976250Y-41115000D01*
X35954809Y-41113947D01*
X35933574Y-41110797D01*
X35912750Y-41105581D01*
X35892538Y-41098349D01*
X35873132Y-41089170D01*
X35854719Y-41078134D01*
X35837476Y-41065346D01*
X35821570Y-41050930D01*
X35807154Y-41035024D01*
X35794366Y-41017781D01*
X35783330Y-40999368D01*
X35774151Y-40979962D01*
X35766919Y-40959750D01*
X35761703Y-40938926D01*
X35758553Y-40917691D01*
X35757500Y-40896250D01*
X35757500Y-40383750D01*
X35758553Y-40362309D01*
X35761703Y-40341074D01*
X35766919Y-40320250D01*
X35774151Y-40300038D01*
X35783330Y-40280632D01*
X35794366Y-40262219D01*
X35807154Y-40244976D01*
X35821570Y-40229070D01*
X35837476Y-40214654D01*
X35854719Y-40201866D01*
X35873132Y-40190830D01*
X35892538Y-40181651D01*
X35912750Y-40174419D01*
X35933574Y-40169203D01*
X35954809Y-40166053D01*
X35976250Y-40165000D01*
X36413750Y-40165000D01*
X36435191Y-40166053D01*
X36435191Y-40166053D01*
G37*
D11*
X36195000Y-40640000D03*
G04 #@! TD*
D10*
G04 #@! TO.C,R5*
G36*
X36435191Y-36356053D02*
X36456426Y-36359203D01*
X36477250Y-36364419D01*
X36497462Y-36371651D01*
X36516868Y-36380830D01*
X36535281Y-36391866D01*
X36552524Y-36404654D01*
X36568430Y-36419070D01*
X36582846Y-36434976D01*
X36595634Y-36452219D01*
X36606670Y-36470632D01*
X36615849Y-36490038D01*
X36623081Y-36510250D01*
X36628297Y-36531074D01*
X36631447Y-36552309D01*
X36632500Y-36573750D01*
X36632500Y-37086250D01*
X36631447Y-37107691D01*
X36628297Y-37128926D01*
X36623081Y-37149750D01*
X36615849Y-37169962D01*
X36606670Y-37189368D01*
X36595634Y-37207781D01*
X36582846Y-37225024D01*
X36568430Y-37240930D01*
X36552524Y-37255346D01*
X36535281Y-37268134D01*
X36516868Y-37279170D01*
X36497462Y-37288349D01*
X36477250Y-37295581D01*
X36456426Y-37300797D01*
X36435191Y-37303947D01*
X36413750Y-37305000D01*
X35976250Y-37305000D01*
X35954809Y-37303947D01*
X35933574Y-37300797D01*
X35912750Y-37295581D01*
X35892538Y-37288349D01*
X35873132Y-37279170D01*
X35854719Y-37268134D01*
X35837476Y-37255346D01*
X35821570Y-37240930D01*
X35807154Y-37225024D01*
X35794366Y-37207781D01*
X35783330Y-37189368D01*
X35774151Y-37169962D01*
X35766919Y-37149750D01*
X35761703Y-37128926D01*
X35758553Y-37107691D01*
X35757500Y-37086250D01*
X35757500Y-36573750D01*
X35758553Y-36552309D01*
X35761703Y-36531074D01*
X35766919Y-36510250D01*
X35774151Y-36490038D01*
X35783330Y-36470632D01*
X35794366Y-36452219D01*
X35807154Y-36434976D01*
X35821570Y-36419070D01*
X35837476Y-36404654D01*
X35854719Y-36391866D01*
X35873132Y-36380830D01*
X35892538Y-36371651D01*
X35912750Y-36364419D01*
X35933574Y-36359203D01*
X35954809Y-36356053D01*
X35976250Y-36355000D01*
X36413750Y-36355000D01*
X36435191Y-36356053D01*
X36435191Y-36356053D01*
G37*
D11*
X36195000Y-36830000D03*
D10*
G36*
X38010191Y-36356053D02*
X38031426Y-36359203D01*
X38052250Y-36364419D01*
X38072462Y-36371651D01*
X38091868Y-36380830D01*
X38110281Y-36391866D01*
X38127524Y-36404654D01*
X38143430Y-36419070D01*
X38157846Y-36434976D01*
X38170634Y-36452219D01*
X38181670Y-36470632D01*
X38190849Y-36490038D01*
X38198081Y-36510250D01*
X38203297Y-36531074D01*
X38206447Y-36552309D01*
X38207500Y-36573750D01*
X38207500Y-37086250D01*
X38206447Y-37107691D01*
X38203297Y-37128926D01*
X38198081Y-37149750D01*
X38190849Y-37169962D01*
X38181670Y-37189368D01*
X38170634Y-37207781D01*
X38157846Y-37225024D01*
X38143430Y-37240930D01*
X38127524Y-37255346D01*
X38110281Y-37268134D01*
X38091868Y-37279170D01*
X38072462Y-37288349D01*
X38052250Y-37295581D01*
X38031426Y-37300797D01*
X38010191Y-37303947D01*
X37988750Y-37305000D01*
X37551250Y-37305000D01*
X37529809Y-37303947D01*
X37508574Y-37300797D01*
X37487750Y-37295581D01*
X37467538Y-37288349D01*
X37448132Y-37279170D01*
X37429719Y-37268134D01*
X37412476Y-37255346D01*
X37396570Y-37240930D01*
X37382154Y-37225024D01*
X37369366Y-37207781D01*
X37358330Y-37189368D01*
X37349151Y-37169962D01*
X37341919Y-37149750D01*
X37336703Y-37128926D01*
X37333553Y-37107691D01*
X37332500Y-37086250D01*
X37332500Y-36573750D01*
X37333553Y-36552309D01*
X37336703Y-36531074D01*
X37341919Y-36510250D01*
X37349151Y-36490038D01*
X37358330Y-36470632D01*
X37369366Y-36452219D01*
X37382154Y-36434976D01*
X37396570Y-36419070D01*
X37412476Y-36404654D01*
X37429719Y-36391866D01*
X37448132Y-36380830D01*
X37467538Y-36371651D01*
X37487750Y-36364419D01*
X37508574Y-36359203D01*
X37529809Y-36356053D01*
X37551250Y-36355000D01*
X37988750Y-36355000D01*
X38010191Y-36356053D01*
X38010191Y-36356053D01*
G37*
D11*
X37770000Y-36830000D03*
G04 #@! TD*
D10*
G04 #@! TO.C,R6*
G36*
X41820191Y-42071053D02*
X41841426Y-42074203D01*
X41862250Y-42079419D01*
X41882462Y-42086651D01*
X41901868Y-42095830D01*
X41920281Y-42106866D01*
X41937524Y-42119654D01*
X41953430Y-42134070D01*
X41967846Y-42149976D01*
X41980634Y-42167219D01*
X41991670Y-42185632D01*
X42000849Y-42205038D01*
X42008081Y-42225250D01*
X42013297Y-42246074D01*
X42016447Y-42267309D01*
X42017500Y-42288750D01*
X42017500Y-42801250D01*
X42016447Y-42822691D01*
X42013297Y-42843926D01*
X42008081Y-42864750D01*
X42000849Y-42884962D01*
X41991670Y-42904368D01*
X41980634Y-42922781D01*
X41967846Y-42940024D01*
X41953430Y-42955930D01*
X41937524Y-42970346D01*
X41920281Y-42983134D01*
X41901868Y-42994170D01*
X41882462Y-43003349D01*
X41862250Y-43010581D01*
X41841426Y-43015797D01*
X41820191Y-43018947D01*
X41798750Y-43020000D01*
X41361250Y-43020000D01*
X41339809Y-43018947D01*
X41318574Y-43015797D01*
X41297750Y-43010581D01*
X41277538Y-43003349D01*
X41258132Y-42994170D01*
X41239719Y-42983134D01*
X41222476Y-42970346D01*
X41206570Y-42955930D01*
X41192154Y-42940024D01*
X41179366Y-42922781D01*
X41168330Y-42904368D01*
X41159151Y-42884962D01*
X41151919Y-42864750D01*
X41146703Y-42843926D01*
X41143553Y-42822691D01*
X41142500Y-42801250D01*
X41142500Y-42288750D01*
X41143553Y-42267309D01*
X41146703Y-42246074D01*
X41151919Y-42225250D01*
X41159151Y-42205038D01*
X41168330Y-42185632D01*
X41179366Y-42167219D01*
X41192154Y-42149976D01*
X41206570Y-42134070D01*
X41222476Y-42119654D01*
X41239719Y-42106866D01*
X41258132Y-42095830D01*
X41277538Y-42086651D01*
X41297750Y-42079419D01*
X41318574Y-42074203D01*
X41339809Y-42071053D01*
X41361250Y-42070000D01*
X41798750Y-42070000D01*
X41820191Y-42071053D01*
X41820191Y-42071053D01*
G37*
D11*
X41580000Y-42545000D03*
D10*
G36*
X40245191Y-42071053D02*
X40266426Y-42074203D01*
X40287250Y-42079419D01*
X40307462Y-42086651D01*
X40326868Y-42095830D01*
X40345281Y-42106866D01*
X40362524Y-42119654D01*
X40378430Y-42134070D01*
X40392846Y-42149976D01*
X40405634Y-42167219D01*
X40416670Y-42185632D01*
X40425849Y-42205038D01*
X40433081Y-42225250D01*
X40438297Y-42246074D01*
X40441447Y-42267309D01*
X40442500Y-42288750D01*
X40442500Y-42801250D01*
X40441447Y-42822691D01*
X40438297Y-42843926D01*
X40433081Y-42864750D01*
X40425849Y-42884962D01*
X40416670Y-42904368D01*
X40405634Y-42922781D01*
X40392846Y-42940024D01*
X40378430Y-42955930D01*
X40362524Y-42970346D01*
X40345281Y-42983134D01*
X40326868Y-42994170D01*
X40307462Y-43003349D01*
X40287250Y-43010581D01*
X40266426Y-43015797D01*
X40245191Y-43018947D01*
X40223750Y-43020000D01*
X39786250Y-43020000D01*
X39764809Y-43018947D01*
X39743574Y-43015797D01*
X39722750Y-43010581D01*
X39702538Y-43003349D01*
X39683132Y-42994170D01*
X39664719Y-42983134D01*
X39647476Y-42970346D01*
X39631570Y-42955930D01*
X39617154Y-42940024D01*
X39604366Y-42922781D01*
X39593330Y-42904368D01*
X39584151Y-42884962D01*
X39576919Y-42864750D01*
X39571703Y-42843926D01*
X39568553Y-42822691D01*
X39567500Y-42801250D01*
X39567500Y-42288750D01*
X39568553Y-42267309D01*
X39571703Y-42246074D01*
X39576919Y-42225250D01*
X39584151Y-42205038D01*
X39593330Y-42185632D01*
X39604366Y-42167219D01*
X39617154Y-42149976D01*
X39631570Y-42134070D01*
X39647476Y-42119654D01*
X39664719Y-42106866D01*
X39683132Y-42095830D01*
X39702538Y-42086651D01*
X39722750Y-42079419D01*
X39743574Y-42074203D01*
X39764809Y-42071053D01*
X39786250Y-42070000D01*
X40223750Y-42070000D01*
X40245191Y-42071053D01*
X40245191Y-42071053D01*
G37*
D11*
X40005000Y-42545000D03*
G04 #@! TD*
D10*
G04 #@! TO.C,R7*
G36*
X38010191Y-26831053D02*
X38031426Y-26834203D01*
X38052250Y-26839419D01*
X38072462Y-26846651D01*
X38091868Y-26855830D01*
X38110281Y-26866866D01*
X38127524Y-26879654D01*
X38143430Y-26894070D01*
X38157846Y-26909976D01*
X38170634Y-26927219D01*
X38181670Y-26945632D01*
X38190849Y-26965038D01*
X38198081Y-26985250D01*
X38203297Y-27006074D01*
X38206447Y-27027309D01*
X38207500Y-27048750D01*
X38207500Y-27561250D01*
X38206447Y-27582691D01*
X38203297Y-27603926D01*
X38198081Y-27624750D01*
X38190849Y-27644962D01*
X38181670Y-27664368D01*
X38170634Y-27682781D01*
X38157846Y-27700024D01*
X38143430Y-27715930D01*
X38127524Y-27730346D01*
X38110281Y-27743134D01*
X38091868Y-27754170D01*
X38072462Y-27763349D01*
X38052250Y-27770581D01*
X38031426Y-27775797D01*
X38010191Y-27778947D01*
X37988750Y-27780000D01*
X37551250Y-27780000D01*
X37529809Y-27778947D01*
X37508574Y-27775797D01*
X37487750Y-27770581D01*
X37467538Y-27763349D01*
X37448132Y-27754170D01*
X37429719Y-27743134D01*
X37412476Y-27730346D01*
X37396570Y-27715930D01*
X37382154Y-27700024D01*
X37369366Y-27682781D01*
X37358330Y-27664368D01*
X37349151Y-27644962D01*
X37341919Y-27624750D01*
X37336703Y-27603926D01*
X37333553Y-27582691D01*
X37332500Y-27561250D01*
X37332500Y-27048750D01*
X37333553Y-27027309D01*
X37336703Y-27006074D01*
X37341919Y-26985250D01*
X37349151Y-26965038D01*
X37358330Y-26945632D01*
X37369366Y-26927219D01*
X37382154Y-26909976D01*
X37396570Y-26894070D01*
X37412476Y-26879654D01*
X37429719Y-26866866D01*
X37448132Y-26855830D01*
X37467538Y-26846651D01*
X37487750Y-26839419D01*
X37508574Y-26834203D01*
X37529809Y-26831053D01*
X37551250Y-26830000D01*
X37988750Y-26830000D01*
X38010191Y-26831053D01*
X38010191Y-26831053D01*
G37*
D11*
X37770000Y-27305000D03*
D10*
G36*
X36435191Y-26831053D02*
X36456426Y-26834203D01*
X36477250Y-26839419D01*
X36497462Y-26846651D01*
X36516868Y-26855830D01*
X36535281Y-26866866D01*
X36552524Y-26879654D01*
X36568430Y-26894070D01*
X36582846Y-26909976D01*
X36595634Y-26927219D01*
X36606670Y-26945632D01*
X36615849Y-26965038D01*
X36623081Y-26985250D01*
X36628297Y-27006074D01*
X36631447Y-27027309D01*
X36632500Y-27048750D01*
X36632500Y-27561250D01*
X36631447Y-27582691D01*
X36628297Y-27603926D01*
X36623081Y-27624750D01*
X36615849Y-27644962D01*
X36606670Y-27664368D01*
X36595634Y-27682781D01*
X36582846Y-27700024D01*
X36568430Y-27715930D01*
X36552524Y-27730346D01*
X36535281Y-27743134D01*
X36516868Y-27754170D01*
X36497462Y-27763349D01*
X36477250Y-27770581D01*
X36456426Y-27775797D01*
X36435191Y-27778947D01*
X36413750Y-27780000D01*
X35976250Y-27780000D01*
X35954809Y-27778947D01*
X35933574Y-27775797D01*
X35912750Y-27770581D01*
X35892538Y-27763349D01*
X35873132Y-27754170D01*
X35854719Y-27743134D01*
X35837476Y-27730346D01*
X35821570Y-27715930D01*
X35807154Y-27700024D01*
X35794366Y-27682781D01*
X35783330Y-27664368D01*
X35774151Y-27644962D01*
X35766919Y-27624750D01*
X35761703Y-27603926D01*
X35758553Y-27582691D01*
X35757500Y-27561250D01*
X35757500Y-27048750D01*
X35758553Y-27027309D01*
X35761703Y-27006074D01*
X35766919Y-26985250D01*
X35774151Y-26965038D01*
X35783330Y-26945632D01*
X35794366Y-26927219D01*
X35807154Y-26909976D01*
X35821570Y-26894070D01*
X35837476Y-26879654D01*
X35854719Y-26866866D01*
X35873132Y-26855830D01*
X35892538Y-26846651D01*
X35912750Y-26839419D01*
X35933574Y-26834203D01*
X35954809Y-26831053D01*
X35976250Y-26830000D01*
X36413750Y-26830000D01*
X36435191Y-26831053D01*
X36435191Y-26831053D01*
G37*
D11*
X36195000Y-27305000D03*
G04 #@! TD*
D10*
G04 #@! TO.C,R8*
G36*
X36435191Y-32546053D02*
X36456426Y-32549203D01*
X36477250Y-32554419D01*
X36497462Y-32561651D01*
X36516868Y-32570830D01*
X36535281Y-32581866D01*
X36552524Y-32594654D01*
X36568430Y-32609070D01*
X36582846Y-32624976D01*
X36595634Y-32642219D01*
X36606670Y-32660632D01*
X36615849Y-32680038D01*
X36623081Y-32700250D01*
X36628297Y-32721074D01*
X36631447Y-32742309D01*
X36632500Y-32763750D01*
X36632500Y-33276250D01*
X36631447Y-33297691D01*
X36628297Y-33318926D01*
X36623081Y-33339750D01*
X36615849Y-33359962D01*
X36606670Y-33379368D01*
X36595634Y-33397781D01*
X36582846Y-33415024D01*
X36568430Y-33430930D01*
X36552524Y-33445346D01*
X36535281Y-33458134D01*
X36516868Y-33469170D01*
X36497462Y-33478349D01*
X36477250Y-33485581D01*
X36456426Y-33490797D01*
X36435191Y-33493947D01*
X36413750Y-33495000D01*
X35976250Y-33495000D01*
X35954809Y-33493947D01*
X35933574Y-33490797D01*
X35912750Y-33485581D01*
X35892538Y-33478349D01*
X35873132Y-33469170D01*
X35854719Y-33458134D01*
X35837476Y-33445346D01*
X35821570Y-33430930D01*
X35807154Y-33415024D01*
X35794366Y-33397781D01*
X35783330Y-33379368D01*
X35774151Y-33359962D01*
X35766919Y-33339750D01*
X35761703Y-33318926D01*
X35758553Y-33297691D01*
X35757500Y-33276250D01*
X35757500Y-32763750D01*
X35758553Y-32742309D01*
X35761703Y-32721074D01*
X35766919Y-32700250D01*
X35774151Y-32680038D01*
X35783330Y-32660632D01*
X35794366Y-32642219D01*
X35807154Y-32624976D01*
X35821570Y-32609070D01*
X35837476Y-32594654D01*
X35854719Y-32581866D01*
X35873132Y-32570830D01*
X35892538Y-32561651D01*
X35912750Y-32554419D01*
X35933574Y-32549203D01*
X35954809Y-32546053D01*
X35976250Y-32545000D01*
X36413750Y-32545000D01*
X36435191Y-32546053D01*
X36435191Y-32546053D01*
G37*
D11*
X36195000Y-33020000D03*
D10*
G36*
X38010191Y-32546053D02*
X38031426Y-32549203D01*
X38052250Y-32554419D01*
X38072462Y-32561651D01*
X38091868Y-32570830D01*
X38110281Y-32581866D01*
X38127524Y-32594654D01*
X38143430Y-32609070D01*
X38157846Y-32624976D01*
X38170634Y-32642219D01*
X38181670Y-32660632D01*
X38190849Y-32680038D01*
X38198081Y-32700250D01*
X38203297Y-32721074D01*
X38206447Y-32742309D01*
X38207500Y-32763750D01*
X38207500Y-33276250D01*
X38206447Y-33297691D01*
X38203297Y-33318926D01*
X38198081Y-33339750D01*
X38190849Y-33359962D01*
X38181670Y-33379368D01*
X38170634Y-33397781D01*
X38157846Y-33415024D01*
X38143430Y-33430930D01*
X38127524Y-33445346D01*
X38110281Y-33458134D01*
X38091868Y-33469170D01*
X38072462Y-33478349D01*
X38052250Y-33485581D01*
X38031426Y-33490797D01*
X38010191Y-33493947D01*
X37988750Y-33495000D01*
X37551250Y-33495000D01*
X37529809Y-33493947D01*
X37508574Y-33490797D01*
X37487750Y-33485581D01*
X37467538Y-33478349D01*
X37448132Y-33469170D01*
X37429719Y-33458134D01*
X37412476Y-33445346D01*
X37396570Y-33430930D01*
X37382154Y-33415024D01*
X37369366Y-33397781D01*
X37358330Y-33379368D01*
X37349151Y-33359962D01*
X37341919Y-33339750D01*
X37336703Y-33318926D01*
X37333553Y-33297691D01*
X37332500Y-33276250D01*
X37332500Y-32763750D01*
X37333553Y-32742309D01*
X37336703Y-32721074D01*
X37341919Y-32700250D01*
X37349151Y-32680038D01*
X37358330Y-32660632D01*
X37369366Y-32642219D01*
X37382154Y-32624976D01*
X37396570Y-32609070D01*
X37412476Y-32594654D01*
X37429719Y-32581866D01*
X37448132Y-32570830D01*
X37467538Y-32561651D01*
X37487750Y-32554419D01*
X37508574Y-32549203D01*
X37529809Y-32546053D01*
X37551250Y-32545000D01*
X37988750Y-32545000D01*
X38010191Y-32546053D01*
X38010191Y-32546053D01*
G37*
D11*
X37770000Y-33020000D03*
G04 #@! TD*
D10*
G04 #@! TO.C,R9*
G36*
X38010191Y-30641053D02*
X38031426Y-30644203D01*
X38052250Y-30649419D01*
X38072462Y-30656651D01*
X38091868Y-30665830D01*
X38110281Y-30676866D01*
X38127524Y-30689654D01*
X38143430Y-30704070D01*
X38157846Y-30719976D01*
X38170634Y-30737219D01*
X38181670Y-30755632D01*
X38190849Y-30775038D01*
X38198081Y-30795250D01*
X38203297Y-30816074D01*
X38206447Y-30837309D01*
X38207500Y-30858750D01*
X38207500Y-31371250D01*
X38206447Y-31392691D01*
X38203297Y-31413926D01*
X38198081Y-31434750D01*
X38190849Y-31454962D01*
X38181670Y-31474368D01*
X38170634Y-31492781D01*
X38157846Y-31510024D01*
X38143430Y-31525930D01*
X38127524Y-31540346D01*
X38110281Y-31553134D01*
X38091868Y-31564170D01*
X38072462Y-31573349D01*
X38052250Y-31580581D01*
X38031426Y-31585797D01*
X38010191Y-31588947D01*
X37988750Y-31590000D01*
X37551250Y-31590000D01*
X37529809Y-31588947D01*
X37508574Y-31585797D01*
X37487750Y-31580581D01*
X37467538Y-31573349D01*
X37448132Y-31564170D01*
X37429719Y-31553134D01*
X37412476Y-31540346D01*
X37396570Y-31525930D01*
X37382154Y-31510024D01*
X37369366Y-31492781D01*
X37358330Y-31474368D01*
X37349151Y-31454962D01*
X37341919Y-31434750D01*
X37336703Y-31413926D01*
X37333553Y-31392691D01*
X37332500Y-31371250D01*
X37332500Y-30858750D01*
X37333553Y-30837309D01*
X37336703Y-30816074D01*
X37341919Y-30795250D01*
X37349151Y-30775038D01*
X37358330Y-30755632D01*
X37369366Y-30737219D01*
X37382154Y-30719976D01*
X37396570Y-30704070D01*
X37412476Y-30689654D01*
X37429719Y-30676866D01*
X37448132Y-30665830D01*
X37467538Y-30656651D01*
X37487750Y-30649419D01*
X37508574Y-30644203D01*
X37529809Y-30641053D01*
X37551250Y-30640000D01*
X37988750Y-30640000D01*
X38010191Y-30641053D01*
X38010191Y-30641053D01*
G37*
D11*
X37770000Y-31115000D03*
D10*
G36*
X36435191Y-30641053D02*
X36456426Y-30644203D01*
X36477250Y-30649419D01*
X36497462Y-30656651D01*
X36516868Y-30665830D01*
X36535281Y-30676866D01*
X36552524Y-30689654D01*
X36568430Y-30704070D01*
X36582846Y-30719976D01*
X36595634Y-30737219D01*
X36606670Y-30755632D01*
X36615849Y-30775038D01*
X36623081Y-30795250D01*
X36628297Y-30816074D01*
X36631447Y-30837309D01*
X36632500Y-30858750D01*
X36632500Y-31371250D01*
X36631447Y-31392691D01*
X36628297Y-31413926D01*
X36623081Y-31434750D01*
X36615849Y-31454962D01*
X36606670Y-31474368D01*
X36595634Y-31492781D01*
X36582846Y-31510024D01*
X36568430Y-31525930D01*
X36552524Y-31540346D01*
X36535281Y-31553134D01*
X36516868Y-31564170D01*
X36497462Y-31573349D01*
X36477250Y-31580581D01*
X36456426Y-31585797D01*
X36435191Y-31588947D01*
X36413750Y-31590000D01*
X35976250Y-31590000D01*
X35954809Y-31588947D01*
X35933574Y-31585797D01*
X35912750Y-31580581D01*
X35892538Y-31573349D01*
X35873132Y-31564170D01*
X35854719Y-31553134D01*
X35837476Y-31540346D01*
X35821570Y-31525930D01*
X35807154Y-31510024D01*
X35794366Y-31492781D01*
X35783330Y-31474368D01*
X35774151Y-31454962D01*
X35766919Y-31434750D01*
X35761703Y-31413926D01*
X35758553Y-31392691D01*
X35757500Y-31371250D01*
X35757500Y-30858750D01*
X35758553Y-30837309D01*
X35761703Y-30816074D01*
X35766919Y-30795250D01*
X35774151Y-30775038D01*
X35783330Y-30755632D01*
X35794366Y-30737219D01*
X35807154Y-30719976D01*
X35821570Y-30704070D01*
X35837476Y-30689654D01*
X35854719Y-30676866D01*
X35873132Y-30665830D01*
X35892538Y-30656651D01*
X35912750Y-30649419D01*
X35933574Y-30644203D01*
X35954809Y-30641053D01*
X35976250Y-30640000D01*
X36413750Y-30640000D01*
X36435191Y-30641053D01*
X36435191Y-30641053D01*
G37*
D11*
X36195000Y-31115000D03*
G04 #@! TD*
D10*
G04 #@! TO.C,R10*
G36*
X36435191Y-28736053D02*
X36456426Y-28739203D01*
X36477250Y-28744419D01*
X36497462Y-28751651D01*
X36516868Y-28760830D01*
X36535281Y-28771866D01*
X36552524Y-28784654D01*
X36568430Y-28799070D01*
X36582846Y-28814976D01*
X36595634Y-28832219D01*
X36606670Y-28850632D01*
X36615849Y-28870038D01*
X36623081Y-28890250D01*
X36628297Y-28911074D01*
X36631447Y-28932309D01*
X36632500Y-28953750D01*
X36632500Y-29466250D01*
X36631447Y-29487691D01*
X36628297Y-29508926D01*
X36623081Y-29529750D01*
X36615849Y-29549962D01*
X36606670Y-29569368D01*
X36595634Y-29587781D01*
X36582846Y-29605024D01*
X36568430Y-29620930D01*
X36552524Y-29635346D01*
X36535281Y-29648134D01*
X36516868Y-29659170D01*
X36497462Y-29668349D01*
X36477250Y-29675581D01*
X36456426Y-29680797D01*
X36435191Y-29683947D01*
X36413750Y-29685000D01*
X35976250Y-29685000D01*
X35954809Y-29683947D01*
X35933574Y-29680797D01*
X35912750Y-29675581D01*
X35892538Y-29668349D01*
X35873132Y-29659170D01*
X35854719Y-29648134D01*
X35837476Y-29635346D01*
X35821570Y-29620930D01*
X35807154Y-29605024D01*
X35794366Y-29587781D01*
X35783330Y-29569368D01*
X35774151Y-29549962D01*
X35766919Y-29529750D01*
X35761703Y-29508926D01*
X35758553Y-29487691D01*
X35757500Y-29466250D01*
X35757500Y-28953750D01*
X35758553Y-28932309D01*
X35761703Y-28911074D01*
X35766919Y-28890250D01*
X35774151Y-28870038D01*
X35783330Y-28850632D01*
X35794366Y-28832219D01*
X35807154Y-28814976D01*
X35821570Y-28799070D01*
X35837476Y-28784654D01*
X35854719Y-28771866D01*
X35873132Y-28760830D01*
X35892538Y-28751651D01*
X35912750Y-28744419D01*
X35933574Y-28739203D01*
X35954809Y-28736053D01*
X35976250Y-28735000D01*
X36413750Y-28735000D01*
X36435191Y-28736053D01*
X36435191Y-28736053D01*
G37*
D11*
X36195000Y-29210000D03*
D10*
G36*
X38010191Y-28736053D02*
X38031426Y-28739203D01*
X38052250Y-28744419D01*
X38072462Y-28751651D01*
X38091868Y-28760830D01*
X38110281Y-28771866D01*
X38127524Y-28784654D01*
X38143430Y-28799070D01*
X38157846Y-28814976D01*
X38170634Y-28832219D01*
X38181670Y-28850632D01*
X38190849Y-28870038D01*
X38198081Y-28890250D01*
X38203297Y-28911074D01*
X38206447Y-28932309D01*
X38207500Y-28953750D01*
X38207500Y-29466250D01*
X38206447Y-29487691D01*
X38203297Y-29508926D01*
X38198081Y-29529750D01*
X38190849Y-29549962D01*
X38181670Y-29569368D01*
X38170634Y-29587781D01*
X38157846Y-29605024D01*
X38143430Y-29620930D01*
X38127524Y-29635346D01*
X38110281Y-29648134D01*
X38091868Y-29659170D01*
X38072462Y-29668349D01*
X38052250Y-29675581D01*
X38031426Y-29680797D01*
X38010191Y-29683947D01*
X37988750Y-29685000D01*
X37551250Y-29685000D01*
X37529809Y-29683947D01*
X37508574Y-29680797D01*
X37487750Y-29675581D01*
X37467538Y-29668349D01*
X37448132Y-29659170D01*
X37429719Y-29648134D01*
X37412476Y-29635346D01*
X37396570Y-29620930D01*
X37382154Y-29605024D01*
X37369366Y-29587781D01*
X37358330Y-29569368D01*
X37349151Y-29549962D01*
X37341919Y-29529750D01*
X37336703Y-29508926D01*
X37333553Y-29487691D01*
X37332500Y-29466250D01*
X37332500Y-28953750D01*
X37333553Y-28932309D01*
X37336703Y-28911074D01*
X37341919Y-28890250D01*
X37349151Y-28870038D01*
X37358330Y-28850632D01*
X37369366Y-28832219D01*
X37382154Y-28814976D01*
X37396570Y-28799070D01*
X37412476Y-28784654D01*
X37429719Y-28771866D01*
X37448132Y-28760830D01*
X37467538Y-28751651D01*
X37487750Y-28744419D01*
X37508574Y-28739203D01*
X37529809Y-28736053D01*
X37551250Y-28735000D01*
X37988750Y-28735000D01*
X38010191Y-28736053D01*
X38010191Y-28736053D01*
G37*
D11*
X37770000Y-29210000D03*
G04 #@! TD*
D10*
G04 #@! TO.C,R11*
G36*
X40245191Y-36356053D02*
X40266426Y-36359203D01*
X40287250Y-36364419D01*
X40307462Y-36371651D01*
X40326868Y-36380830D01*
X40345281Y-36391866D01*
X40362524Y-36404654D01*
X40378430Y-36419070D01*
X40392846Y-36434976D01*
X40405634Y-36452219D01*
X40416670Y-36470632D01*
X40425849Y-36490038D01*
X40433081Y-36510250D01*
X40438297Y-36531074D01*
X40441447Y-36552309D01*
X40442500Y-36573750D01*
X40442500Y-37086250D01*
X40441447Y-37107691D01*
X40438297Y-37128926D01*
X40433081Y-37149750D01*
X40425849Y-37169962D01*
X40416670Y-37189368D01*
X40405634Y-37207781D01*
X40392846Y-37225024D01*
X40378430Y-37240930D01*
X40362524Y-37255346D01*
X40345281Y-37268134D01*
X40326868Y-37279170D01*
X40307462Y-37288349D01*
X40287250Y-37295581D01*
X40266426Y-37300797D01*
X40245191Y-37303947D01*
X40223750Y-37305000D01*
X39786250Y-37305000D01*
X39764809Y-37303947D01*
X39743574Y-37300797D01*
X39722750Y-37295581D01*
X39702538Y-37288349D01*
X39683132Y-37279170D01*
X39664719Y-37268134D01*
X39647476Y-37255346D01*
X39631570Y-37240930D01*
X39617154Y-37225024D01*
X39604366Y-37207781D01*
X39593330Y-37189368D01*
X39584151Y-37169962D01*
X39576919Y-37149750D01*
X39571703Y-37128926D01*
X39568553Y-37107691D01*
X39567500Y-37086250D01*
X39567500Y-36573750D01*
X39568553Y-36552309D01*
X39571703Y-36531074D01*
X39576919Y-36510250D01*
X39584151Y-36490038D01*
X39593330Y-36470632D01*
X39604366Y-36452219D01*
X39617154Y-36434976D01*
X39631570Y-36419070D01*
X39647476Y-36404654D01*
X39664719Y-36391866D01*
X39683132Y-36380830D01*
X39702538Y-36371651D01*
X39722750Y-36364419D01*
X39743574Y-36359203D01*
X39764809Y-36356053D01*
X39786250Y-36355000D01*
X40223750Y-36355000D01*
X40245191Y-36356053D01*
X40245191Y-36356053D01*
G37*
D11*
X40005000Y-36830000D03*
D10*
G36*
X41820191Y-36356053D02*
X41841426Y-36359203D01*
X41862250Y-36364419D01*
X41882462Y-36371651D01*
X41901868Y-36380830D01*
X41920281Y-36391866D01*
X41937524Y-36404654D01*
X41953430Y-36419070D01*
X41967846Y-36434976D01*
X41980634Y-36452219D01*
X41991670Y-36470632D01*
X42000849Y-36490038D01*
X42008081Y-36510250D01*
X42013297Y-36531074D01*
X42016447Y-36552309D01*
X42017500Y-36573750D01*
X42017500Y-37086250D01*
X42016447Y-37107691D01*
X42013297Y-37128926D01*
X42008081Y-37149750D01*
X42000849Y-37169962D01*
X41991670Y-37189368D01*
X41980634Y-37207781D01*
X41967846Y-37225024D01*
X41953430Y-37240930D01*
X41937524Y-37255346D01*
X41920281Y-37268134D01*
X41901868Y-37279170D01*
X41882462Y-37288349D01*
X41862250Y-37295581D01*
X41841426Y-37300797D01*
X41820191Y-37303947D01*
X41798750Y-37305000D01*
X41361250Y-37305000D01*
X41339809Y-37303947D01*
X41318574Y-37300797D01*
X41297750Y-37295581D01*
X41277538Y-37288349D01*
X41258132Y-37279170D01*
X41239719Y-37268134D01*
X41222476Y-37255346D01*
X41206570Y-37240930D01*
X41192154Y-37225024D01*
X41179366Y-37207781D01*
X41168330Y-37189368D01*
X41159151Y-37169962D01*
X41151919Y-37149750D01*
X41146703Y-37128926D01*
X41143553Y-37107691D01*
X41142500Y-37086250D01*
X41142500Y-36573750D01*
X41143553Y-36552309D01*
X41146703Y-36531074D01*
X41151919Y-36510250D01*
X41159151Y-36490038D01*
X41168330Y-36470632D01*
X41179366Y-36452219D01*
X41192154Y-36434976D01*
X41206570Y-36419070D01*
X41222476Y-36404654D01*
X41239719Y-36391866D01*
X41258132Y-36380830D01*
X41277538Y-36371651D01*
X41297750Y-36364419D01*
X41318574Y-36359203D01*
X41339809Y-36356053D01*
X41361250Y-36355000D01*
X41798750Y-36355000D01*
X41820191Y-36356053D01*
X41820191Y-36356053D01*
G37*
D11*
X41580000Y-36830000D03*
G04 #@! TD*
D10*
G04 #@! TO.C,R12*
G36*
X40245191Y-34451053D02*
X40266426Y-34454203D01*
X40287250Y-34459419D01*
X40307462Y-34466651D01*
X40326868Y-34475830D01*
X40345281Y-34486866D01*
X40362524Y-34499654D01*
X40378430Y-34514070D01*
X40392846Y-34529976D01*
X40405634Y-34547219D01*
X40416670Y-34565632D01*
X40425849Y-34585038D01*
X40433081Y-34605250D01*
X40438297Y-34626074D01*
X40441447Y-34647309D01*
X40442500Y-34668750D01*
X40442500Y-35181250D01*
X40441447Y-35202691D01*
X40438297Y-35223926D01*
X40433081Y-35244750D01*
X40425849Y-35264962D01*
X40416670Y-35284368D01*
X40405634Y-35302781D01*
X40392846Y-35320024D01*
X40378430Y-35335930D01*
X40362524Y-35350346D01*
X40345281Y-35363134D01*
X40326868Y-35374170D01*
X40307462Y-35383349D01*
X40287250Y-35390581D01*
X40266426Y-35395797D01*
X40245191Y-35398947D01*
X40223750Y-35400000D01*
X39786250Y-35400000D01*
X39764809Y-35398947D01*
X39743574Y-35395797D01*
X39722750Y-35390581D01*
X39702538Y-35383349D01*
X39683132Y-35374170D01*
X39664719Y-35363134D01*
X39647476Y-35350346D01*
X39631570Y-35335930D01*
X39617154Y-35320024D01*
X39604366Y-35302781D01*
X39593330Y-35284368D01*
X39584151Y-35264962D01*
X39576919Y-35244750D01*
X39571703Y-35223926D01*
X39568553Y-35202691D01*
X39567500Y-35181250D01*
X39567500Y-34668750D01*
X39568553Y-34647309D01*
X39571703Y-34626074D01*
X39576919Y-34605250D01*
X39584151Y-34585038D01*
X39593330Y-34565632D01*
X39604366Y-34547219D01*
X39617154Y-34529976D01*
X39631570Y-34514070D01*
X39647476Y-34499654D01*
X39664719Y-34486866D01*
X39683132Y-34475830D01*
X39702538Y-34466651D01*
X39722750Y-34459419D01*
X39743574Y-34454203D01*
X39764809Y-34451053D01*
X39786250Y-34450000D01*
X40223750Y-34450000D01*
X40245191Y-34451053D01*
X40245191Y-34451053D01*
G37*
D11*
X40005000Y-34925000D03*
D10*
G36*
X41820191Y-34451053D02*
X41841426Y-34454203D01*
X41862250Y-34459419D01*
X41882462Y-34466651D01*
X41901868Y-34475830D01*
X41920281Y-34486866D01*
X41937524Y-34499654D01*
X41953430Y-34514070D01*
X41967846Y-34529976D01*
X41980634Y-34547219D01*
X41991670Y-34565632D01*
X42000849Y-34585038D01*
X42008081Y-34605250D01*
X42013297Y-34626074D01*
X42016447Y-34647309D01*
X42017500Y-34668750D01*
X42017500Y-35181250D01*
X42016447Y-35202691D01*
X42013297Y-35223926D01*
X42008081Y-35244750D01*
X42000849Y-35264962D01*
X41991670Y-35284368D01*
X41980634Y-35302781D01*
X41967846Y-35320024D01*
X41953430Y-35335930D01*
X41937524Y-35350346D01*
X41920281Y-35363134D01*
X41901868Y-35374170D01*
X41882462Y-35383349D01*
X41862250Y-35390581D01*
X41841426Y-35395797D01*
X41820191Y-35398947D01*
X41798750Y-35400000D01*
X41361250Y-35400000D01*
X41339809Y-35398947D01*
X41318574Y-35395797D01*
X41297750Y-35390581D01*
X41277538Y-35383349D01*
X41258132Y-35374170D01*
X41239719Y-35363134D01*
X41222476Y-35350346D01*
X41206570Y-35335930D01*
X41192154Y-35320024D01*
X41179366Y-35302781D01*
X41168330Y-35284368D01*
X41159151Y-35264962D01*
X41151919Y-35244750D01*
X41146703Y-35223926D01*
X41143553Y-35202691D01*
X41142500Y-35181250D01*
X41142500Y-34668750D01*
X41143553Y-34647309D01*
X41146703Y-34626074D01*
X41151919Y-34605250D01*
X41159151Y-34585038D01*
X41168330Y-34565632D01*
X41179366Y-34547219D01*
X41192154Y-34529976D01*
X41206570Y-34514070D01*
X41222476Y-34499654D01*
X41239719Y-34486866D01*
X41258132Y-34475830D01*
X41277538Y-34466651D01*
X41297750Y-34459419D01*
X41318574Y-34454203D01*
X41339809Y-34451053D01*
X41361250Y-34450000D01*
X41798750Y-34450000D01*
X41820191Y-34451053D01*
X41820191Y-34451053D01*
G37*
D11*
X41580000Y-34925000D03*
G04 #@! TD*
D14*
G04 #@! TO.C,SW1*
X49150000Y-46795000D03*
X44850000Y-46795000D03*
X49150000Y-44645000D03*
X44850000Y-44645000D03*
G04 #@! TD*
G04 #@! TO.C,SW2*
X49150000Y-29650000D03*
X44850000Y-29650000D03*
X49150000Y-27500000D03*
X44850000Y-27500000D03*
G04 #@! TD*
D15*
G04 #@! TO.C,U2*
X53245000Y-40850000D03*
X53245000Y-40350000D03*
X53245000Y-39850000D03*
X53245000Y-39350000D03*
X53245000Y-38850000D03*
X53245000Y-38350000D03*
X53245000Y-37850000D03*
X53245000Y-37350000D03*
X53245000Y-36850000D03*
X53245000Y-36350000D03*
X53245000Y-35850000D03*
X53245000Y-35350000D03*
D16*
X51645000Y-33750000D03*
X51145000Y-33750000D03*
X50645000Y-33750000D03*
X50145000Y-33750000D03*
X49645000Y-33750000D03*
X49145000Y-33750000D03*
X48645000Y-33750000D03*
X48145000Y-33750000D03*
X47645000Y-33750000D03*
X47145000Y-33750000D03*
X46645000Y-33750000D03*
X46145000Y-33750000D03*
D15*
X44545000Y-35350000D03*
X44545000Y-35850000D03*
X44545000Y-36350000D03*
X44545000Y-36850000D03*
X44545000Y-37350000D03*
X44545000Y-37850000D03*
X44545000Y-38350000D03*
X44545000Y-38850000D03*
X44545000Y-39350000D03*
X44545000Y-39850000D03*
X44545000Y-40350000D03*
X44545000Y-40850000D03*
D16*
X46145000Y-42450000D03*
X46645000Y-42450000D03*
X47145000Y-42450000D03*
X47645000Y-42450000D03*
X48145000Y-42450000D03*
X48645000Y-42450000D03*
X49145000Y-42450000D03*
X49645000Y-42450000D03*
X50145000Y-42450000D03*
X50645000Y-42450000D03*
X51145000Y-42450000D03*
X51645000Y-42450000D03*
G04 #@! TD*
D17*
G04 #@! TO.C,X1*
X57150000Y-39895000D03*
X57150000Y-36195000D03*
G04 #@! TD*
D10*
G04 #@! TO.C,R13*
G36*
X58189691Y-28900553D02*
X58210926Y-28903703D01*
X58231750Y-28908919D01*
X58251962Y-28916151D01*
X58271368Y-28925330D01*
X58289781Y-28936366D01*
X58307024Y-28949154D01*
X58322930Y-28963570D01*
X58337346Y-28979476D01*
X58350134Y-28996719D01*
X58361170Y-29015132D01*
X58370349Y-29034538D01*
X58377581Y-29054750D01*
X58382797Y-29075574D01*
X58385947Y-29096809D01*
X58387000Y-29118250D01*
X58387000Y-29555750D01*
X58385947Y-29577191D01*
X58382797Y-29598426D01*
X58377581Y-29619250D01*
X58370349Y-29639462D01*
X58361170Y-29658868D01*
X58350134Y-29677281D01*
X58337346Y-29694524D01*
X58322930Y-29710430D01*
X58307024Y-29724846D01*
X58289781Y-29737634D01*
X58271368Y-29748670D01*
X58251962Y-29757849D01*
X58231750Y-29765081D01*
X58210926Y-29770297D01*
X58189691Y-29773447D01*
X58168250Y-29774500D01*
X57655750Y-29774500D01*
X57634309Y-29773447D01*
X57613074Y-29770297D01*
X57592250Y-29765081D01*
X57572038Y-29757849D01*
X57552632Y-29748670D01*
X57534219Y-29737634D01*
X57516976Y-29724846D01*
X57501070Y-29710430D01*
X57486654Y-29694524D01*
X57473866Y-29677281D01*
X57462830Y-29658868D01*
X57453651Y-29639462D01*
X57446419Y-29619250D01*
X57441203Y-29598426D01*
X57438053Y-29577191D01*
X57437000Y-29555750D01*
X57437000Y-29118250D01*
X57438053Y-29096809D01*
X57441203Y-29075574D01*
X57446419Y-29054750D01*
X57453651Y-29034538D01*
X57462830Y-29015132D01*
X57473866Y-28996719D01*
X57486654Y-28979476D01*
X57501070Y-28963570D01*
X57516976Y-28949154D01*
X57534219Y-28936366D01*
X57552632Y-28925330D01*
X57572038Y-28916151D01*
X57592250Y-28908919D01*
X57613074Y-28903703D01*
X57634309Y-28900553D01*
X57655750Y-28899500D01*
X58168250Y-28899500D01*
X58189691Y-28900553D01*
X58189691Y-28900553D01*
G37*
D11*
X57912000Y-29337000D03*
D10*
G36*
X58189691Y-27325553D02*
X58210926Y-27328703D01*
X58231750Y-27333919D01*
X58251962Y-27341151D01*
X58271368Y-27350330D01*
X58289781Y-27361366D01*
X58307024Y-27374154D01*
X58322930Y-27388570D01*
X58337346Y-27404476D01*
X58350134Y-27421719D01*
X58361170Y-27440132D01*
X58370349Y-27459538D01*
X58377581Y-27479750D01*
X58382797Y-27500574D01*
X58385947Y-27521809D01*
X58387000Y-27543250D01*
X58387000Y-27980750D01*
X58385947Y-28002191D01*
X58382797Y-28023426D01*
X58377581Y-28044250D01*
X58370349Y-28064462D01*
X58361170Y-28083868D01*
X58350134Y-28102281D01*
X58337346Y-28119524D01*
X58322930Y-28135430D01*
X58307024Y-28149846D01*
X58289781Y-28162634D01*
X58271368Y-28173670D01*
X58251962Y-28182849D01*
X58231750Y-28190081D01*
X58210926Y-28195297D01*
X58189691Y-28198447D01*
X58168250Y-28199500D01*
X57655750Y-28199500D01*
X57634309Y-28198447D01*
X57613074Y-28195297D01*
X57592250Y-28190081D01*
X57572038Y-28182849D01*
X57552632Y-28173670D01*
X57534219Y-28162634D01*
X57516976Y-28149846D01*
X57501070Y-28135430D01*
X57486654Y-28119524D01*
X57473866Y-28102281D01*
X57462830Y-28083868D01*
X57453651Y-28064462D01*
X57446419Y-28044250D01*
X57441203Y-28023426D01*
X57438053Y-28002191D01*
X57437000Y-27980750D01*
X57437000Y-27543250D01*
X57438053Y-27521809D01*
X57441203Y-27500574D01*
X57446419Y-27479750D01*
X57453651Y-27459538D01*
X57462830Y-27440132D01*
X57473866Y-27421719D01*
X57486654Y-27404476D01*
X57501070Y-27388570D01*
X57516976Y-27374154D01*
X57534219Y-27361366D01*
X57552632Y-27350330D01*
X57572038Y-27341151D01*
X57592250Y-27333919D01*
X57613074Y-27328703D01*
X57634309Y-27325553D01*
X57655750Y-27324500D01*
X58168250Y-27324500D01*
X58189691Y-27325553D01*
X58189691Y-27325553D01*
G37*
D11*
X57912000Y-27762000D03*
G04 #@! TD*
D10*
G04 #@! TO.C,R14*
G36*
X60348691Y-28900553D02*
X60369926Y-28903703D01*
X60390750Y-28908919D01*
X60410962Y-28916151D01*
X60430368Y-28925330D01*
X60448781Y-28936366D01*
X60466024Y-28949154D01*
X60481930Y-28963570D01*
X60496346Y-28979476D01*
X60509134Y-28996719D01*
X60520170Y-29015132D01*
X60529349Y-29034538D01*
X60536581Y-29054750D01*
X60541797Y-29075574D01*
X60544947Y-29096809D01*
X60546000Y-29118250D01*
X60546000Y-29555750D01*
X60544947Y-29577191D01*
X60541797Y-29598426D01*
X60536581Y-29619250D01*
X60529349Y-29639462D01*
X60520170Y-29658868D01*
X60509134Y-29677281D01*
X60496346Y-29694524D01*
X60481930Y-29710430D01*
X60466024Y-29724846D01*
X60448781Y-29737634D01*
X60430368Y-29748670D01*
X60410962Y-29757849D01*
X60390750Y-29765081D01*
X60369926Y-29770297D01*
X60348691Y-29773447D01*
X60327250Y-29774500D01*
X59814750Y-29774500D01*
X59793309Y-29773447D01*
X59772074Y-29770297D01*
X59751250Y-29765081D01*
X59731038Y-29757849D01*
X59711632Y-29748670D01*
X59693219Y-29737634D01*
X59675976Y-29724846D01*
X59660070Y-29710430D01*
X59645654Y-29694524D01*
X59632866Y-29677281D01*
X59621830Y-29658868D01*
X59612651Y-29639462D01*
X59605419Y-29619250D01*
X59600203Y-29598426D01*
X59597053Y-29577191D01*
X59596000Y-29555750D01*
X59596000Y-29118250D01*
X59597053Y-29096809D01*
X59600203Y-29075574D01*
X59605419Y-29054750D01*
X59612651Y-29034538D01*
X59621830Y-29015132D01*
X59632866Y-28996719D01*
X59645654Y-28979476D01*
X59660070Y-28963570D01*
X59675976Y-28949154D01*
X59693219Y-28936366D01*
X59711632Y-28925330D01*
X59731038Y-28916151D01*
X59751250Y-28908919D01*
X59772074Y-28903703D01*
X59793309Y-28900553D01*
X59814750Y-28899500D01*
X60327250Y-28899500D01*
X60348691Y-28900553D01*
X60348691Y-28900553D01*
G37*
D11*
X60071000Y-29337000D03*
D10*
G36*
X60348691Y-27325553D02*
X60369926Y-27328703D01*
X60390750Y-27333919D01*
X60410962Y-27341151D01*
X60430368Y-27350330D01*
X60448781Y-27361366D01*
X60466024Y-27374154D01*
X60481930Y-27388570D01*
X60496346Y-27404476D01*
X60509134Y-27421719D01*
X60520170Y-27440132D01*
X60529349Y-27459538D01*
X60536581Y-27479750D01*
X60541797Y-27500574D01*
X60544947Y-27521809D01*
X60546000Y-27543250D01*
X60546000Y-27980750D01*
X60544947Y-28002191D01*
X60541797Y-28023426D01*
X60536581Y-28044250D01*
X60529349Y-28064462D01*
X60520170Y-28083868D01*
X60509134Y-28102281D01*
X60496346Y-28119524D01*
X60481930Y-28135430D01*
X60466024Y-28149846D01*
X60448781Y-28162634D01*
X60430368Y-28173670D01*
X60410962Y-28182849D01*
X60390750Y-28190081D01*
X60369926Y-28195297D01*
X60348691Y-28198447D01*
X60327250Y-28199500D01*
X59814750Y-28199500D01*
X59793309Y-28198447D01*
X59772074Y-28195297D01*
X59751250Y-28190081D01*
X59731038Y-28182849D01*
X59711632Y-28173670D01*
X59693219Y-28162634D01*
X59675976Y-28149846D01*
X59660070Y-28135430D01*
X59645654Y-28119524D01*
X59632866Y-28102281D01*
X59621830Y-28083868D01*
X59612651Y-28064462D01*
X59605419Y-28044250D01*
X59600203Y-28023426D01*
X59597053Y-28002191D01*
X59596000Y-27980750D01*
X59596000Y-27543250D01*
X59597053Y-27521809D01*
X59600203Y-27500574D01*
X59605419Y-27479750D01*
X59612651Y-27459538D01*
X59621830Y-27440132D01*
X59632866Y-27421719D01*
X59645654Y-27404476D01*
X59660070Y-27388570D01*
X59675976Y-27374154D01*
X59693219Y-27361366D01*
X59711632Y-27350330D01*
X59731038Y-27341151D01*
X59751250Y-27333919D01*
X59772074Y-27328703D01*
X59793309Y-27325553D01*
X59814750Y-27324500D01*
X60327250Y-27324500D01*
X60348691Y-27325553D01*
X60348691Y-27325553D01*
G37*
D11*
X60071000Y-27762000D03*
G04 #@! TD*
D10*
G04 #@! TO.C,C5*
G36*
X62253691Y-28926053D02*
X62274926Y-28929203D01*
X62295750Y-28934419D01*
X62315962Y-28941651D01*
X62335368Y-28950830D01*
X62353781Y-28961866D01*
X62371024Y-28974654D01*
X62386930Y-28989070D01*
X62401346Y-29004976D01*
X62414134Y-29022219D01*
X62425170Y-29040632D01*
X62434349Y-29060038D01*
X62441581Y-29080250D01*
X62446797Y-29101074D01*
X62449947Y-29122309D01*
X62451000Y-29143750D01*
X62451000Y-29581250D01*
X62449947Y-29602691D01*
X62446797Y-29623926D01*
X62441581Y-29644750D01*
X62434349Y-29664962D01*
X62425170Y-29684368D01*
X62414134Y-29702781D01*
X62401346Y-29720024D01*
X62386930Y-29735930D01*
X62371024Y-29750346D01*
X62353781Y-29763134D01*
X62335368Y-29774170D01*
X62315962Y-29783349D01*
X62295750Y-29790581D01*
X62274926Y-29795797D01*
X62253691Y-29798947D01*
X62232250Y-29800000D01*
X61719750Y-29800000D01*
X61698309Y-29798947D01*
X61677074Y-29795797D01*
X61656250Y-29790581D01*
X61636038Y-29783349D01*
X61616632Y-29774170D01*
X61598219Y-29763134D01*
X61580976Y-29750346D01*
X61565070Y-29735930D01*
X61550654Y-29720024D01*
X61537866Y-29702781D01*
X61526830Y-29684368D01*
X61517651Y-29664962D01*
X61510419Y-29644750D01*
X61505203Y-29623926D01*
X61502053Y-29602691D01*
X61501000Y-29581250D01*
X61501000Y-29143750D01*
X61502053Y-29122309D01*
X61505203Y-29101074D01*
X61510419Y-29080250D01*
X61517651Y-29060038D01*
X61526830Y-29040632D01*
X61537866Y-29022219D01*
X61550654Y-29004976D01*
X61565070Y-28989070D01*
X61580976Y-28974654D01*
X61598219Y-28961866D01*
X61616632Y-28950830D01*
X61636038Y-28941651D01*
X61656250Y-28934419D01*
X61677074Y-28929203D01*
X61698309Y-28926053D01*
X61719750Y-28925000D01*
X62232250Y-28925000D01*
X62253691Y-28926053D01*
X62253691Y-28926053D01*
G37*
D11*
X61976000Y-29362500D03*
D10*
G36*
X62253691Y-27351053D02*
X62274926Y-27354203D01*
X62295750Y-27359419D01*
X62315962Y-27366651D01*
X62335368Y-27375830D01*
X62353781Y-27386866D01*
X62371024Y-27399654D01*
X62386930Y-27414070D01*
X62401346Y-27429976D01*
X62414134Y-27447219D01*
X62425170Y-27465632D01*
X62434349Y-27485038D01*
X62441581Y-27505250D01*
X62446797Y-27526074D01*
X62449947Y-27547309D01*
X62451000Y-27568750D01*
X62451000Y-28006250D01*
X62449947Y-28027691D01*
X62446797Y-28048926D01*
X62441581Y-28069750D01*
X62434349Y-28089962D01*
X62425170Y-28109368D01*
X62414134Y-28127781D01*
X62401346Y-28145024D01*
X62386930Y-28160930D01*
X62371024Y-28175346D01*
X62353781Y-28188134D01*
X62335368Y-28199170D01*
X62315962Y-28208349D01*
X62295750Y-28215581D01*
X62274926Y-28220797D01*
X62253691Y-28223947D01*
X62232250Y-28225000D01*
X61719750Y-28225000D01*
X61698309Y-28223947D01*
X61677074Y-28220797D01*
X61656250Y-28215581D01*
X61636038Y-28208349D01*
X61616632Y-28199170D01*
X61598219Y-28188134D01*
X61580976Y-28175346D01*
X61565070Y-28160930D01*
X61550654Y-28145024D01*
X61537866Y-28127781D01*
X61526830Y-28109368D01*
X61517651Y-28089962D01*
X61510419Y-28069750D01*
X61505203Y-28048926D01*
X61502053Y-28027691D01*
X61501000Y-28006250D01*
X61501000Y-27568750D01*
X61502053Y-27547309D01*
X61505203Y-27526074D01*
X61510419Y-27505250D01*
X61517651Y-27485038D01*
X61526830Y-27465632D01*
X61537866Y-27447219D01*
X61550654Y-27429976D01*
X61565070Y-27414070D01*
X61580976Y-27399654D01*
X61598219Y-27386866D01*
X61616632Y-27375830D01*
X61636038Y-27366651D01*
X61656250Y-27359419D01*
X61677074Y-27354203D01*
X61698309Y-27351053D01*
X61719750Y-27350000D01*
X62232250Y-27350000D01*
X62253691Y-27351053D01*
X62253691Y-27351053D01*
G37*
D11*
X61976000Y-27787500D03*
G04 #@! TD*
D10*
G04 #@! TO.C,R15*
G36*
X51839691Y-28900553D02*
X51860926Y-28903703D01*
X51881750Y-28908919D01*
X51901962Y-28916151D01*
X51921368Y-28925330D01*
X51939781Y-28936366D01*
X51957024Y-28949154D01*
X51972930Y-28963570D01*
X51987346Y-28979476D01*
X52000134Y-28996719D01*
X52011170Y-29015132D01*
X52020349Y-29034538D01*
X52027581Y-29054750D01*
X52032797Y-29075574D01*
X52035947Y-29096809D01*
X52037000Y-29118250D01*
X52037000Y-29555750D01*
X52035947Y-29577191D01*
X52032797Y-29598426D01*
X52027581Y-29619250D01*
X52020349Y-29639462D01*
X52011170Y-29658868D01*
X52000134Y-29677281D01*
X51987346Y-29694524D01*
X51972930Y-29710430D01*
X51957024Y-29724846D01*
X51939781Y-29737634D01*
X51921368Y-29748670D01*
X51901962Y-29757849D01*
X51881750Y-29765081D01*
X51860926Y-29770297D01*
X51839691Y-29773447D01*
X51818250Y-29774500D01*
X51305750Y-29774500D01*
X51284309Y-29773447D01*
X51263074Y-29770297D01*
X51242250Y-29765081D01*
X51222038Y-29757849D01*
X51202632Y-29748670D01*
X51184219Y-29737634D01*
X51166976Y-29724846D01*
X51151070Y-29710430D01*
X51136654Y-29694524D01*
X51123866Y-29677281D01*
X51112830Y-29658868D01*
X51103651Y-29639462D01*
X51096419Y-29619250D01*
X51091203Y-29598426D01*
X51088053Y-29577191D01*
X51087000Y-29555750D01*
X51087000Y-29118250D01*
X51088053Y-29096809D01*
X51091203Y-29075574D01*
X51096419Y-29054750D01*
X51103651Y-29034538D01*
X51112830Y-29015132D01*
X51123866Y-28996719D01*
X51136654Y-28979476D01*
X51151070Y-28963570D01*
X51166976Y-28949154D01*
X51184219Y-28936366D01*
X51202632Y-28925330D01*
X51222038Y-28916151D01*
X51242250Y-28908919D01*
X51263074Y-28903703D01*
X51284309Y-28900553D01*
X51305750Y-28899500D01*
X51818250Y-28899500D01*
X51839691Y-28900553D01*
X51839691Y-28900553D01*
G37*
D11*
X51562000Y-29337000D03*
D10*
G36*
X51839691Y-27325553D02*
X51860926Y-27328703D01*
X51881750Y-27333919D01*
X51901962Y-27341151D01*
X51921368Y-27350330D01*
X51939781Y-27361366D01*
X51957024Y-27374154D01*
X51972930Y-27388570D01*
X51987346Y-27404476D01*
X52000134Y-27421719D01*
X52011170Y-27440132D01*
X52020349Y-27459538D01*
X52027581Y-27479750D01*
X52032797Y-27500574D01*
X52035947Y-27521809D01*
X52037000Y-27543250D01*
X52037000Y-27980750D01*
X52035947Y-28002191D01*
X52032797Y-28023426D01*
X52027581Y-28044250D01*
X52020349Y-28064462D01*
X52011170Y-28083868D01*
X52000134Y-28102281D01*
X51987346Y-28119524D01*
X51972930Y-28135430D01*
X51957024Y-28149846D01*
X51939781Y-28162634D01*
X51921368Y-28173670D01*
X51901962Y-28182849D01*
X51881750Y-28190081D01*
X51860926Y-28195297D01*
X51839691Y-28198447D01*
X51818250Y-28199500D01*
X51305750Y-28199500D01*
X51284309Y-28198447D01*
X51263074Y-28195297D01*
X51242250Y-28190081D01*
X51222038Y-28182849D01*
X51202632Y-28173670D01*
X51184219Y-28162634D01*
X51166976Y-28149846D01*
X51151070Y-28135430D01*
X51136654Y-28119524D01*
X51123866Y-28102281D01*
X51112830Y-28083868D01*
X51103651Y-28064462D01*
X51096419Y-28044250D01*
X51091203Y-28023426D01*
X51088053Y-28002191D01*
X51087000Y-27980750D01*
X51087000Y-27543250D01*
X51088053Y-27521809D01*
X51091203Y-27500574D01*
X51096419Y-27479750D01*
X51103651Y-27459538D01*
X51112830Y-27440132D01*
X51123866Y-27421719D01*
X51136654Y-27404476D01*
X51151070Y-27388570D01*
X51166976Y-27374154D01*
X51184219Y-27361366D01*
X51202632Y-27350330D01*
X51222038Y-27341151D01*
X51242250Y-27333919D01*
X51263074Y-27328703D01*
X51284309Y-27325553D01*
X51305750Y-27324500D01*
X51818250Y-27324500D01*
X51839691Y-27325553D01*
X51839691Y-27325553D01*
G37*
D11*
X51562000Y-27762000D03*
G04 #@! TD*
D18*
G04 #@! TO.C,Q1*
X55620999Y-27559005D03*
X53720999Y-27559005D03*
X54670999Y-29559005D03*
G04 #@! TD*
D10*
G04 #@! TO.C,C6*
G36*
X41820191Y-40166053D02*
X41841426Y-40169203D01*
X41862250Y-40174419D01*
X41882462Y-40181651D01*
X41901868Y-40190830D01*
X41920281Y-40201866D01*
X41937524Y-40214654D01*
X41953430Y-40229070D01*
X41967846Y-40244976D01*
X41980634Y-40262219D01*
X41991670Y-40280632D01*
X42000849Y-40300038D01*
X42008081Y-40320250D01*
X42013297Y-40341074D01*
X42016447Y-40362309D01*
X42017500Y-40383750D01*
X42017500Y-40896250D01*
X42016447Y-40917691D01*
X42013297Y-40938926D01*
X42008081Y-40959750D01*
X42000849Y-40979962D01*
X41991670Y-40999368D01*
X41980634Y-41017781D01*
X41967846Y-41035024D01*
X41953430Y-41050930D01*
X41937524Y-41065346D01*
X41920281Y-41078134D01*
X41901868Y-41089170D01*
X41882462Y-41098349D01*
X41862250Y-41105581D01*
X41841426Y-41110797D01*
X41820191Y-41113947D01*
X41798750Y-41115000D01*
X41361250Y-41115000D01*
X41339809Y-41113947D01*
X41318574Y-41110797D01*
X41297750Y-41105581D01*
X41277538Y-41098349D01*
X41258132Y-41089170D01*
X41239719Y-41078134D01*
X41222476Y-41065346D01*
X41206570Y-41050930D01*
X41192154Y-41035024D01*
X41179366Y-41017781D01*
X41168330Y-40999368D01*
X41159151Y-40979962D01*
X41151919Y-40959750D01*
X41146703Y-40938926D01*
X41143553Y-40917691D01*
X41142500Y-40896250D01*
X41142500Y-40383750D01*
X41143553Y-40362309D01*
X41146703Y-40341074D01*
X41151919Y-40320250D01*
X41159151Y-40300038D01*
X41168330Y-40280632D01*
X41179366Y-40262219D01*
X41192154Y-40244976D01*
X41206570Y-40229070D01*
X41222476Y-40214654D01*
X41239719Y-40201866D01*
X41258132Y-40190830D01*
X41277538Y-40181651D01*
X41297750Y-40174419D01*
X41318574Y-40169203D01*
X41339809Y-40166053D01*
X41361250Y-40165000D01*
X41798750Y-40165000D01*
X41820191Y-40166053D01*
X41820191Y-40166053D01*
G37*
D11*
X41580000Y-40640000D03*
D10*
G36*
X40245191Y-40166053D02*
X40266426Y-40169203D01*
X40287250Y-40174419D01*
X40307462Y-40181651D01*
X40326868Y-40190830D01*
X40345281Y-40201866D01*
X40362524Y-40214654D01*
X40378430Y-40229070D01*
X40392846Y-40244976D01*
X40405634Y-40262219D01*
X40416670Y-40280632D01*
X40425849Y-40300038D01*
X40433081Y-40320250D01*
X40438297Y-40341074D01*
X40441447Y-40362309D01*
X40442500Y-40383750D01*
X40442500Y-40896250D01*
X40441447Y-40917691D01*
X40438297Y-40938926D01*
X40433081Y-40959750D01*
X40425849Y-40979962D01*
X40416670Y-40999368D01*
X40405634Y-41017781D01*
X40392846Y-41035024D01*
X40378430Y-41050930D01*
X40362524Y-41065346D01*
X40345281Y-41078134D01*
X40326868Y-41089170D01*
X40307462Y-41098349D01*
X40287250Y-41105581D01*
X40266426Y-41110797D01*
X40245191Y-41113947D01*
X40223750Y-41115000D01*
X39786250Y-41115000D01*
X39764809Y-41113947D01*
X39743574Y-41110797D01*
X39722750Y-41105581D01*
X39702538Y-41098349D01*
X39683132Y-41089170D01*
X39664719Y-41078134D01*
X39647476Y-41065346D01*
X39631570Y-41050930D01*
X39617154Y-41035024D01*
X39604366Y-41017781D01*
X39593330Y-40999368D01*
X39584151Y-40979962D01*
X39576919Y-40959750D01*
X39571703Y-40938926D01*
X39568553Y-40917691D01*
X39567500Y-40896250D01*
X39567500Y-40383750D01*
X39568553Y-40362309D01*
X39571703Y-40341074D01*
X39576919Y-40320250D01*
X39584151Y-40300038D01*
X39593330Y-40280632D01*
X39604366Y-40262219D01*
X39617154Y-40244976D01*
X39631570Y-40229070D01*
X39647476Y-40214654D01*
X39664719Y-40201866D01*
X39683132Y-40190830D01*
X39702538Y-40181651D01*
X39722750Y-40174419D01*
X39743574Y-40169203D01*
X39764809Y-40166053D01*
X39786250Y-40165000D01*
X40223750Y-40165000D01*
X40245191Y-40166053D01*
X40245191Y-40166053D01*
G37*
D11*
X40005000Y-40640000D03*
G04 #@! TD*
D10*
G04 #@! TO.C,C7*
G36*
X58330191Y-43976053D02*
X58351426Y-43979203D01*
X58372250Y-43984419D01*
X58392462Y-43991651D01*
X58411868Y-44000830D01*
X58430281Y-44011866D01*
X58447524Y-44024654D01*
X58463430Y-44039070D01*
X58477846Y-44054976D01*
X58490634Y-44072219D01*
X58501670Y-44090632D01*
X58510849Y-44110038D01*
X58518081Y-44130250D01*
X58523297Y-44151074D01*
X58526447Y-44172309D01*
X58527500Y-44193750D01*
X58527500Y-44706250D01*
X58526447Y-44727691D01*
X58523297Y-44748926D01*
X58518081Y-44769750D01*
X58510849Y-44789962D01*
X58501670Y-44809368D01*
X58490634Y-44827781D01*
X58477846Y-44845024D01*
X58463430Y-44860930D01*
X58447524Y-44875346D01*
X58430281Y-44888134D01*
X58411868Y-44899170D01*
X58392462Y-44908349D01*
X58372250Y-44915581D01*
X58351426Y-44920797D01*
X58330191Y-44923947D01*
X58308750Y-44925000D01*
X57871250Y-44925000D01*
X57849809Y-44923947D01*
X57828574Y-44920797D01*
X57807750Y-44915581D01*
X57787538Y-44908349D01*
X57768132Y-44899170D01*
X57749719Y-44888134D01*
X57732476Y-44875346D01*
X57716570Y-44860930D01*
X57702154Y-44845024D01*
X57689366Y-44827781D01*
X57678330Y-44809368D01*
X57669151Y-44789962D01*
X57661919Y-44769750D01*
X57656703Y-44748926D01*
X57653553Y-44727691D01*
X57652500Y-44706250D01*
X57652500Y-44193750D01*
X57653553Y-44172309D01*
X57656703Y-44151074D01*
X57661919Y-44130250D01*
X57669151Y-44110038D01*
X57678330Y-44090632D01*
X57689366Y-44072219D01*
X57702154Y-44054976D01*
X57716570Y-44039070D01*
X57732476Y-44024654D01*
X57749719Y-44011866D01*
X57768132Y-44000830D01*
X57787538Y-43991651D01*
X57807750Y-43984419D01*
X57828574Y-43979203D01*
X57849809Y-43976053D01*
X57871250Y-43975000D01*
X58308750Y-43975000D01*
X58330191Y-43976053D01*
X58330191Y-43976053D01*
G37*
D11*
X58090000Y-44450000D03*
D10*
G36*
X56755191Y-43976053D02*
X56776426Y-43979203D01*
X56797250Y-43984419D01*
X56817462Y-43991651D01*
X56836868Y-44000830D01*
X56855281Y-44011866D01*
X56872524Y-44024654D01*
X56888430Y-44039070D01*
X56902846Y-44054976D01*
X56915634Y-44072219D01*
X56926670Y-44090632D01*
X56935849Y-44110038D01*
X56943081Y-44130250D01*
X56948297Y-44151074D01*
X56951447Y-44172309D01*
X56952500Y-44193750D01*
X56952500Y-44706250D01*
X56951447Y-44727691D01*
X56948297Y-44748926D01*
X56943081Y-44769750D01*
X56935849Y-44789962D01*
X56926670Y-44809368D01*
X56915634Y-44827781D01*
X56902846Y-44845024D01*
X56888430Y-44860930D01*
X56872524Y-44875346D01*
X56855281Y-44888134D01*
X56836868Y-44899170D01*
X56817462Y-44908349D01*
X56797250Y-44915581D01*
X56776426Y-44920797D01*
X56755191Y-44923947D01*
X56733750Y-44925000D01*
X56296250Y-44925000D01*
X56274809Y-44923947D01*
X56253574Y-44920797D01*
X56232750Y-44915581D01*
X56212538Y-44908349D01*
X56193132Y-44899170D01*
X56174719Y-44888134D01*
X56157476Y-44875346D01*
X56141570Y-44860930D01*
X56127154Y-44845024D01*
X56114366Y-44827781D01*
X56103330Y-44809368D01*
X56094151Y-44789962D01*
X56086919Y-44769750D01*
X56081703Y-44748926D01*
X56078553Y-44727691D01*
X56077500Y-44706250D01*
X56077500Y-44193750D01*
X56078553Y-44172309D01*
X56081703Y-44151074D01*
X56086919Y-44130250D01*
X56094151Y-44110038D01*
X56103330Y-44090632D01*
X56114366Y-44072219D01*
X56127154Y-44054976D01*
X56141570Y-44039070D01*
X56157476Y-44024654D01*
X56174719Y-44011866D01*
X56193132Y-44000830D01*
X56212538Y-43991651D01*
X56232750Y-43984419D01*
X56253574Y-43979203D01*
X56274809Y-43976053D01*
X56296250Y-43975000D01*
X56733750Y-43975000D01*
X56755191Y-43976053D01*
X56755191Y-43976053D01*
G37*
D11*
X56515000Y-44450000D03*
G04 #@! TD*
D10*
G04 #@! TO.C,C8*
G36*
X68222691Y-34387053D02*
X68243926Y-34390203D01*
X68264750Y-34395419D01*
X68284962Y-34402651D01*
X68304368Y-34411830D01*
X68322781Y-34422866D01*
X68340024Y-34435654D01*
X68355930Y-34450070D01*
X68370346Y-34465976D01*
X68383134Y-34483219D01*
X68394170Y-34501632D01*
X68403349Y-34521038D01*
X68410581Y-34541250D01*
X68415797Y-34562074D01*
X68418947Y-34583309D01*
X68420000Y-34604750D01*
X68420000Y-35042250D01*
X68418947Y-35063691D01*
X68415797Y-35084926D01*
X68410581Y-35105750D01*
X68403349Y-35125962D01*
X68394170Y-35145368D01*
X68383134Y-35163781D01*
X68370346Y-35181024D01*
X68355930Y-35196930D01*
X68340024Y-35211346D01*
X68322781Y-35224134D01*
X68304368Y-35235170D01*
X68284962Y-35244349D01*
X68264750Y-35251581D01*
X68243926Y-35256797D01*
X68222691Y-35259947D01*
X68201250Y-35261000D01*
X67688750Y-35261000D01*
X67667309Y-35259947D01*
X67646074Y-35256797D01*
X67625250Y-35251581D01*
X67605038Y-35244349D01*
X67585632Y-35235170D01*
X67567219Y-35224134D01*
X67549976Y-35211346D01*
X67534070Y-35196930D01*
X67519654Y-35181024D01*
X67506866Y-35163781D01*
X67495830Y-35145368D01*
X67486651Y-35125962D01*
X67479419Y-35105750D01*
X67474203Y-35084926D01*
X67471053Y-35063691D01*
X67470000Y-35042250D01*
X67470000Y-34604750D01*
X67471053Y-34583309D01*
X67474203Y-34562074D01*
X67479419Y-34541250D01*
X67486651Y-34521038D01*
X67495830Y-34501632D01*
X67506866Y-34483219D01*
X67519654Y-34465976D01*
X67534070Y-34450070D01*
X67549976Y-34435654D01*
X67567219Y-34422866D01*
X67585632Y-34411830D01*
X67605038Y-34402651D01*
X67625250Y-34395419D01*
X67646074Y-34390203D01*
X67667309Y-34387053D01*
X67688750Y-34386000D01*
X68201250Y-34386000D01*
X68222691Y-34387053D01*
X68222691Y-34387053D01*
G37*
D11*
X67945000Y-34823500D03*
D10*
G36*
X68222691Y-32812053D02*
X68243926Y-32815203D01*
X68264750Y-32820419D01*
X68284962Y-32827651D01*
X68304368Y-32836830D01*
X68322781Y-32847866D01*
X68340024Y-32860654D01*
X68355930Y-32875070D01*
X68370346Y-32890976D01*
X68383134Y-32908219D01*
X68394170Y-32926632D01*
X68403349Y-32946038D01*
X68410581Y-32966250D01*
X68415797Y-32987074D01*
X68418947Y-33008309D01*
X68420000Y-33029750D01*
X68420000Y-33467250D01*
X68418947Y-33488691D01*
X68415797Y-33509926D01*
X68410581Y-33530750D01*
X68403349Y-33550962D01*
X68394170Y-33570368D01*
X68383134Y-33588781D01*
X68370346Y-33606024D01*
X68355930Y-33621930D01*
X68340024Y-33636346D01*
X68322781Y-33649134D01*
X68304368Y-33660170D01*
X68284962Y-33669349D01*
X68264750Y-33676581D01*
X68243926Y-33681797D01*
X68222691Y-33684947D01*
X68201250Y-33686000D01*
X67688750Y-33686000D01*
X67667309Y-33684947D01*
X67646074Y-33681797D01*
X67625250Y-33676581D01*
X67605038Y-33669349D01*
X67585632Y-33660170D01*
X67567219Y-33649134D01*
X67549976Y-33636346D01*
X67534070Y-33621930D01*
X67519654Y-33606024D01*
X67506866Y-33588781D01*
X67495830Y-33570368D01*
X67486651Y-33550962D01*
X67479419Y-33530750D01*
X67474203Y-33509926D01*
X67471053Y-33488691D01*
X67470000Y-33467250D01*
X67470000Y-33029750D01*
X67471053Y-33008309D01*
X67474203Y-32987074D01*
X67479419Y-32966250D01*
X67486651Y-32946038D01*
X67495830Y-32926632D01*
X67506866Y-32908219D01*
X67519654Y-32890976D01*
X67534070Y-32875070D01*
X67549976Y-32860654D01*
X67567219Y-32847866D01*
X67585632Y-32836830D01*
X67605038Y-32827651D01*
X67625250Y-32820419D01*
X67646074Y-32815203D01*
X67667309Y-32812053D01*
X67688750Y-32811000D01*
X68201250Y-32811000D01*
X68222691Y-32812053D01*
X68222691Y-32812053D01*
G37*
D11*
X67945000Y-33248500D03*
G04 #@! TD*
D10*
G04 #@! TO.C,R16*
G36*
X68222691Y-37536553D02*
X68243926Y-37539703D01*
X68264750Y-37544919D01*
X68284962Y-37552151D01*
X68304368Y-37561330D01*
X68322781Y-37572366D01*
X68340024Y-37585154D01*
X68355930Y-37599570D01*
X68370346Y-37615476D01*
X68383134Y-37632719D01*
X68394170Y-37651132D01*
X68403349Y-37670538D01*
X68410581Y-37690750D01*
X68415797Y-37711574D01*
X68418947Y-37732809D01*
X68420000Y-37754250D01*
X68420000Y-38191750D01*
X68418947Y-38213191D01*
X68415797Y-38234426D01*
X68410581Y-38255250D01*
X68403349Y-38275462D01*
X68394170Y-38294868D01*
X68383134Y-38313281D01*
X68370346Y-38330524D01*
X68355930Y-38346430D01*
X68340024Y-38360846D01*
X68322781Y-38373634D01*
X68304368Y-38384670D01*
X68284962Y-38393849D01*
X68264750Y-38401081D01*
X68243926Y-38406297D01*
X68222691Y-38409447D01*
X68201250Y-38410500D01*
X67688750Y-38410500D01*
X67667309Y-38409447D01*
X67646074Y-38406297D01*
X67625250Y-38401081D01*
X67605038Y-38393849D01*
X67585632Y-38384670D01*
X67567219Y-38373634D01*
X67549976Y-38360846D01*
X67534070Y-38346430D01*
X67519654Y-38330524D01*
X67506866Y-38313281D01*
X67495830Y-38294868D01*
X67486651Y-38275462D01*
X67479419Y-38255250D01*
X67474203Y-38234426D01*
X67471053Y-38213191D01*
X67470000Y-38191750D01*
X67470000Y-37754250D01*
X67471053Y-37732809D01*
X67474203Y-37711574D01*
X67479419Y-37690750D01*
X67486651Y-37670538D01*
X67495830Y-37651132D01*
X67506866Y-37632719D01*
X67519654Y-37615476D01*
X67534070Y-37599570D01*
X67549976Y-37585154D01*
X67567219Y-37572366D01*
X67585632Y-37561330D01*
X67605038Y-37552151D01*
X67625250Y-37544919D01*
X67646074Y-37539703D01*
X67667309Y-37536553D01*
X67688750Y-37535500D01*
X68201250Y-37535500D01*
X68222691Y-37536553D01*
X68222691Y-37536553D01*
G37*
D11*
X67945000Y-37973000D03*
D10*
G36*
X68222691Y-35961553D02*
X68243926Y-35964703D01*
X68264750Y-35969919D01*
X68284962Y-35977151D01*
X68304368Y-35986330D01*
X68322781Y-35997366D01*
X68340024Y-36010154D01*
X68355930Y-36024570D01*
X68370346Y-36040476D01*
X68383134Y-36057719D01*
X68394170Y-36076132D01*
X68403349Y-36095538D01*
X68410581Y-36115750D01*
X68415797Y-36136574D01*
X68418947Y-36157809D01*
X68420000Y-36179250D01*
X68420000Y-36616750D01*
X68418947Y-36638191D01*
X68415797Y-36659426D01*
X68410581Y-36680250D01*
X68403349Y-36700462D01*
X68394170Y-36719868D01*
X68383134Y-36738281D01*
X68370346Y-36755524D01*
X68355930Y-36771430D01*
X68340024Y-36785846D01*
X68322781Y-36798634D01*
X68304368Y-36809670D01*
X68284962Y-36818849D01*
X68264750Y-36826081D01*
X68243926Y-36831297D01*
X68222691Y-36834447D01*
X68201250Y-36835500D01*
X67688750Y-36835500D01*
X67667309Y-36834447D01*
X67646074Y-36831297D01*
X67625250Y-36826081D01*
X67605038Y-36818849D01*
X67585632Y-36809670D01*
X67567219Y-36798634D01*
X67549976Y-36785846D01*
X67534070Y-36771430D01*
X67519654Y-36755524D01*
X67506866Y-36738281D01*
X67495830Y-36719868D01*
X67486651Y-36700462D01*
X67479419Y-36680250D01*
X67474203Y-36659426D01*
X67471053Y-36638191D01*
X67470000Y-36616750D01*
X67470000Y-36179250D01*
X67471053Y-36157809D01*
X67474203Y-36136574D01*
X67479419Y-36115750D01*
X67486651Y-36095538D01*
X67495830Y-36076132D01*
X67506866Y-36057719D01*
X67519654Y-36040476D01*
X67534070Y-36024570D01*
X67549976Y-36010154D01*
X67567219Y-35997366D01*
X67585632Y-35986330D01*
X67605038Y-35977151D01*
X67625250Y-35969919D01*
X67646074Y-35964703D01*
X67667309Y-35961553D01*
X67688750Y-35960500D01*
X68201250Y-35960500D01*
X68222691Y-35961553D01*
X68222691Y-35961553D01*
G37*
D11*
X67945000Y-36398000D03*
G04 #@! TD*
D10*
G04 #@! TO.C,R17*
G36*
X60602691Y-39670053D02*
X60623926Y-39673203D01*
X60644750Y-39678419D01*
X60664962Y-39685651D01*
X60684368Y-39694830D01*
X60702781Y-39705866D01*
X60720024Y-39718654D01*
X60735930Y-39733070D01*
X60750346Y-39748976D01*
X60763134Y-39766219D01*
X60774170Y-39784632D01*
X60783349Y-39804038D01*
X60790581Y-39824250D01*
X60795797Y-39845074D01*
X60798947Y-39866309D01*
X60800000Y-39887750D01*
X60800000Y-40325250D01*
X60798947Y-40346691D01*
X60795797Y-40367926D01*
X60790581Y-40388750D01*
X60783349Y-40408962D01*
X60774170Y-40428368D01*
X60763134Y-40446781D01*
X60750346Y-40464024D01*
X60735930Y-40479930D01*
X60720024Y-40494346D01*
X60702781Y-40507134D01*
X60684368Y-40518170D01*
X60664962Y-40527349D01*
X60644750Y-40534581D01*
X60623926Y-40539797D01*
X60602691Y-40542947D01*
X60581250Y-40544000D01*
X60068750Y-40544000D01*
X60047309Y-40542947D01*
X60026074Y-40539797D01*
X60005250Y-40534581D01*
X59985038Y-40527349D01*
X59965632Y-40518170D01*
X59947219Y-40507134D01*
X59929976Y-40494346D01*
X59914070Y-40479930D01*
X59899654Y-40464024D01*
X59886866Y-40446781D01*
X59875830Y-40428368D01*
X59866651Y-40408962D01*
X59859419Y-40388750D01*
X59854203Y-40367926D01*
X59851053Y-40346691D01*
X59850000Y-40325250D01*
X59850000Y-39887750D01*
X59851053Y-39866309D01*
X59854203Y-39845074D01*
X59859419Y-39824250D01*
X59866651Y-39804038D01*
X59875830Y-39784632D01*
X59886866Y-39766219D01*
X59899654Y-39748976D01*
X59914070Y-39733070D01*
X59929976Y-39718654D01*
X59947219Y-39705866D01*
X59965632Y-39694830D01*
X59985038Y-39685651D01*
X60005250Y-39678419D01*
X60026074Y-39673203D01*
X60047309Y-39670053D01*
X60068750Y-39669000D01*
X60581250Y-39669000D01*
X60602691Y-39670053D01*
X60602691Y-39670053D01*
G37*
D11*
X60325000Y-40106500D03*
D10*
G36*
X60602691Y-41245053D02*
X60623926Y-41248203D01*
X60644750Y-41253419D01*
X60664962Y-41260651D01*
X60684368Y-41269830D01*
X60702781Y-41280866D01*
X60720024Y-41293654D01*
X60735930Y-41308070D01*
X60750346Y-41323976D01*
X60763134Y-41341219D01*
X60774170Y-41359632D01*
X60783349Y-41379038D01*
X60790581Y-41399250D01*
X60795797Y-41420074D01*
X60798947Y-41441309D01*
X60800000Y-41462750D01*
X60800000Y-41900250D01*
X60798947Y-41921691D01*
X60795797Y-41942926D01*
X60790581Y-41963750D01*
X60783349Y-41983962D01*
X60774170Y-42003368D01*
X60763134Y-42021781D01*
X60750346Y-42039024D01*
X60735930Y-42054930D01*
X60720024Y-42069346D01*
X60702781Y-42082134D01*
X60684368Y-42093170D01*
X60664962Y-42102349D01*
X60644750Y-42109581D01*
X60623926Y-42114797D01*
X60602691Y-42117947D01*
X60581250Y-42119000D01*
X60068750Y-42119000D01*
X60047309Y-42117947D01*
X60026074Y-42114797D01*
X60005250Y-42109581D01*
X59985038Y-42102349D01*
X59965632Y-42093170D01*
X59947219Y-42082134D01*
X59929976Y-42069346D01*
X59914070Y-42054930D01*
X59899654Y-42039024D01*
X59886866Y-42021781D01*
X59875830Y-42003368D01*
X59866651Y-41983962D01*
X59859419Y-41963750D01*
X59854203Y-41942926D01*
X59851053Y-41921691D01*
X59850000Y-41900250D01*
X59850000Y-41462750D01*
X59851053Y-41441309D01*
X59854203Y-41420074D01*
X59859419Y-41399250D01*
X59866651Y-41379038D01*
X59875830Y-41359632D01*
X59886866Y-41341219D01*
X59899654Y-41323976D01*
X59914070Y-41308070D01*
X59929976Y-41293654D01*
X59947219Y-41280866D01*
X59965632Y-41269830D01*
X59985038Y-41260651D01*
X60005250Y-41253419D01*
X60026074Y-41248203D01*
X60047309Y-41245053D01*
X60068750Y-41244000D01*
X60581250Y-41244000D01*
X60602691Y-41245053D01*
X60602691Y-41245053D01*
G37*
D11*
X60325000Y-41681500D03*
G04 #@! TD*
D10*
G04 #@! TO.C,R18*
G36*
X62253691Y-41245053D02*
X62274926Y-41248203D01*
X62295750Y-41253419D01*
X62315962Y-41260651D01*
X62335368Y-41269830D01*
X62353781Y-41280866D01*
X62371024Y-41293654D01*
X62386930Y-41308070D01*
X62401346Y-41323976D01*
X62414134Y-41341219D01*
X62425170Y-41359632D01*
X62434349Y-41379038D01*
X62441581Y-41399250D01*
X62446797Y-41420074D01*
X62449947Y-41441309D01*
X62451000Y-41462750D01*
X62451000Y-41900250D01*
X62449947Y-41921691D01*
X62446797Y-41942926D01*
X62441581Y-41963750D01*
X62434349Y-41983962D01*
X62425170Y-42003368D01*
X62414134Y-42021781D01*
X62401346Y-42039024D01*
X62386930Y-42054930D01*
X62371024Y-42069346D01*
X62353781Y-42082134D01*
X62335368Y-42093170D01*
X62315962Y-42102349D01*
X62295750Y-42109581D01*
X62274926Y-42114797D01*
X62253691Y-42117947D01*
X62232250Y-42119000D01*
X61719750Y-42119000D01*
X61698309Y-42117947D01*
X61677074Y-42114797D01*
X61656250Y-42109581D01*
X61636038Y-42102349D01*
X61616632Y-42093170D01*
X61598219Y-42082134D01*
X61580976Y-42069346D01*
X61565070Y-42054930D01*
X61550654Y-42039024D01*
X61537866Y-42021781D01*
X61526830Y-42003368D01*
X61517651Y-41983962D01*
X61510419Y-41963750D01*
X61505203Y-41942926D01*
X61502053Y-41921691D01*
X61501000Y-41900250D01*
X61501000Y-41462750D01*
X61502053Y-41441309D01*
X61505203Y-41420074D01*
X61510419Y-41399250D01*
X61517651Y-41379038D01*
X61526830Y-41359632D01*
X61537866Y-41341219D01*
X61550654Y-41323976D01*
X61565070Y-41308070D01*
X61580976Y-41293654D01*
X61598219Y-41280866D01*
X61616632Y-41269830D01*
X61636038Y-41260651D01*
X61656250Y-41253419D01*
X61677074Y-41248203D01*
X61698309Y-41245053D01*
X61719750Y-41244000D01*
X62232250Y-41244000D01*
X62253691Y-41245053D01*
X62253691Y-41245053D01*
G37*
D11*
X61976000Y-41681500D03*
D10*
G36*
X62253691Y-39670053D02*
X62274926Y-39673203D01*
X62295750Y-39678419D01*
X62315962Y-39685651D01*
X62335368Y-39694830D01*
X62353781Y-39705866D01*
X62371024Y-39718654D01*
X62386930Y-39733070D01*
X62401346Y-39748976D01*
X62414134Y-39766219D01*
X62425170Y-39784632D01*
X62434349Y-39804038D01*
X62441581Y-39824250D01*
X62446797Y-39845074D01*
X62449947Y-39866309D01*
X62451000Y-39887750D01*
X62451000Y-40325250D01*
X62449947Y-40346691D01*
X62446797Y-40367926D01*
X62441581Y-40388750D01*
X62434349Y-40408962D01*
X62425170Y-40428368D01*
X62414134Y-40446781D01*
X62401346Y-40464024D01*
X62386930Y-40479930D01*
X62371024Y-40494346D01*
X62353781Y-40507134D01*
X62335368Y-40518170D01*
X62315962Y-40527349D01*
X62295750Y-40534581D01*
X62274926Y-40539797D01*
X62253691Y-40542947D01*
X62232250Y-40544000D01*
X61719750Y-40544000D01*
X61698309Y-40542947D01*
X61677074Y-40539797D01*
X61656250Y-40534581D01*
X61636038Y-40527349D01*
X61616632Y-40518170D01*
X61598219Y-40507134D01*
X61580976Y-40494346D01*
X61565070Y-40479930D01*
X61550654Y-40464024D01*
X61537866Y-40446781D01*
X61526830Y-40428368D01*
X61517651Y-40408962D01*
X61510419Y-40388750D01*
X61505203Y-40367926D01*
X61502053Y-40346691D01*
X61501000Y-40325250D01*
X61501000Y-39887750D01*
X61502053Y-39866309D01*
X61505203Y-39845074D01*
X61510419Y-39824250D01*
X61517651Y-39804038D01*
X61526830Y-39784632D01*
X61537866Y-39766219D01*
X61550654Y-39748976D01*
X61565070Y-39733070D01*
X61580976Y-39718654D01*
X61598219Y-39705866D01*
X61616632Y-39694830D01*
X61636038Y-39685651D01*
X61656250Y-39678419D01*
X61677074Y-39673203D01*
X61698309Y-39670053D01*
X61719750Y-39669000D01*
X62232250Y-39669000D01*
X62253691Y-39670053D01*
X62253691Y-39670053D01*
G37*
D11*
X61976000Y-40106500D03*
G04 #@! TD*
D10*
G04 #@! TO.C,R19*
G36*
X67206691Y-39670053D02*
X67227926Y-39673203D01*
X67248750Y-39678419D01*
X67268962Y-39685651D01*
X67288368Y-39694830D01*
X67306781Y-39705866D01*
X67324024Y-39718654D01*
X67339930Y-39733070D01*
X67354346Y-39748976D01*
X67367134Y-39766219D01*
X67378170Y-39784632D01*
X67387349Y-39804038D01*
X67394581Y-39824250D01*
X67399797Y-39845074D01*
X67402947Y-39866309D01*
X67404000Y-39887750D01*
X67404000Y-40325250D01*
X67402947Y-40346691D01*
X67399797Y-40367926D01*
X67394581Y-40388750D01*
X67387349Y-40408962D01*
X67378170Y-40428368D01*
X67367134Y-40446781D01*
X67354346Y-40464024D01*
X67339930Y-40479930D01*
X67324024Y-40494346D01*
X67306781Y-40507134D01*
X67288368Y-40518170D01*
X67268962Y-40527349D01*
X67248750Y-40534581D01*
X67227926Y-40539797D01*
X67206691Y-40542947D01*
X67185250Y-40544000D01*
X66672750Y-40544000D01*
X66651309Y-40542947D01*
X66630074Y-40539797D01*
X66609250Y-40534581D01*
X66589038Y-40527349D01*
X66569632Y-40518170D01*
X66551219Y-40507134D01*
X66533976Y-40494346D01*
X66518070Y-40479930D01*
X66503654Y-40464024D01*
X66490866Y-40446781D01*
X66479830Y-40428368D01*
X66470651Y-40408962D01*
X66463419Y-40388750D01*
X66458203Y-40367926D01*
X66455053Y-40346691D01*
X66454000Y-40325250D01*
X66454000Y-39887750D01*
X66455053Y-39866309D01*
X66458203Y-39845074D01*
X66463419Y-39824250D01*
X66470651Y-39804038D01*
X66479830Y-39784632D01*
X66490866Y-39766219D01*
X66503654Y-39748976D01*
X66518070Y-39733070D01*
X66533976Y-39718654D01*
X66551219Y-39705866D01*
X66569632Y-39694830D01*
X66589038Y-39685651D01*
X66609250Y-39678419D01*
X66630074Y-39673203D01*
X66651309Y-39670053D01*
X66672750Y-39669000D01*
X67185250Y-39669000D01*
X67206691Y-39670053D01*
X67206691Y-39670053D01*
G37*
D11*
X66929000Y-40106500D03*
D10*
G36*
X67206691Y-41245053D02*
X67227926Y-41248203D01*
X67248750Y-41253419D01*
X67268962Y-41260651D01*
X67288368Y-41269830D01*
X67306781Y-41280866D01*
X67324024Y-41293654D01*
X67339930Y-41308070D01*
X67354346Y-41323976D01*
X67367134Y-41341219D01*
X67378170Y-41359632D01*
X67387349Y-41379038D01*
X67394581Y-41399250D01*
X67399797Y-41420074D01*
X67402947Y-41441309D01*
X67404000Y-41462750D01*
X67404000Y-41900250D01*
X67402947Y-41921691D01*
X67399797Y-41942926D01*
X67394581Y-41963750D01*
X67387349Y-41983962D01*
X67378170Y-42003368D01*
X67367134Y-42021781D01*
X67354346Y-42039024D01*
X67339930Y-42054930D01*
X67324024Y-42069346D01*
X67306781Y-42082134D01*
X67288368Y-42093170D01*
X67268962Y-42102349D01*
X67248750Y-42109581D01*
X67227926Y-42114797D01*
X67206691Y-42117947D01*
X67185250Y-42119000D01*
X66672750Y-42119000D01*
X66651309Y-42117947D01*
X66630074Y-42114797D01*
X66609250Y-42109581D01*
X66589038Y-42102349D01*
X66569632Y-42093170D01*
X66551219Y-42082134D01*
X66533976Y-42069346D01*
X66518070Y-42054930D01*
X66503654Y-42039024D01*
X66490866Y-42021781D01*
X66479830Y-42003368D01*
X66470651Y-41983962D01*
X66463419Y-41963750D01*
X66458203Y-41942926D01*
X66455053Y-41921691D01*
X66454000Y-41900250D01*
X66454000Y-41462750D01*
X66455053Y-41441309D01*
X66458203Y-41420074D01*
X66463419Y-41399250D01*
X66470651Y-41379038D01*
X66479830Y-41359632D01*
X66490866Y-41341219D01*
X66503654Y-41323976D01*
X66518070Y-41308070D01*
X66533976Y-41293654D01*
X66551219Y-41280866D01*
X66569632Y-41269830D01*
X66589038Y-41260651D01*
X66609250Y-41253419D01*
X66630074Y-41248203D01*
X66651309Y-41245053D01*
X66672750Y-41244000D01*
X67185250Y-41244000D01*
X67206691Y-41245053D01*
X67206691Y-41245053D01*
G37*
D11*
X66929000Y-41681500D03*
G04 #@! TD*
D10*
G04 #@! TO.C,R20*
G36*
X65555691Y-41270553D02*
X65576926Y-41273703D01*
X65597750Y-41278919D01*
X65617962Y-41286151D01*
X65637368Y-41295330D01*
X65655781Y-41306366D01*
X65673024Y-41319154D01*
X65688930Y-41333570D01*
X65703346Y-41349476D01*
X65716134Y-41366719D01*
X65727170Y-41385132D01*
X65736349Y-41404538D01*
X65743581Y-41424750D01*
X65748797Y-41445574D01*
X65751947Y-41466809D01*
X65753000Y-41488250D01*
X65753000Y-41925750D01*
X65751947Y-41947191D01*
X65748797Y-41968426D01*
X65743581Y-41989250D01*
X65736349Y-42009462D01*
X65727170Y-42028868D01*
X65716134Y-42047281D01*
X65703346Y-42064524D01*
X65688930Y-42080430D01*
X65673024Y-42094846D01*
X65655781Y-42107634D01*
X65637368Y-42118670D01*
X65617962Y-42127849D01*
X65597750Y-42135081D01*
X65576926Y-42140297D01*
X65555691Y-42143447D01*
X65534250Y-42144500D01*
X65021750Y-42144500D01*
X65000309Y-42143447D01*
X64979074Y-42140297D01*
X64958250Y-42135081D01*
X64938038Y-42127849D01*
X64918632Y-42118670D01*
X64900219Y-42107634D01*
X64882976Y-42094846D01*
X64867070Y-42080430D01*
X64852654Y-42064524D01*
X64839866Y-42047281D01*
X64828830Y-42028868D01*
X64819651Y-42009462D01*
X64812419Y-41989250D01*
X64807203Y-41968426D01*
X64804053Y-41947191D01*
X64803000Y-41925750D01*
X64803000Y-41488250D01*
X64804053Y-41466809D01*
X64807203Y-41445574D01*
X64812419Y-41424750D01*
X64819651Y-41404538D01*
X64828830Y-41385132D01*
X64839866Y-41366719D01*
X64852654Y-41349476D01*
X64867070Y-41333570D01*
X64882976Y-41319154D01*
X64900219Y-41306366D01*
X64918632Y-41295330D01*
X64938038Y-41286151D01*
X64958250Y-41278919D01*
X64979074Y-41273703D01*
X65000309Y-41270553D01*
X65021750Y-41269500D01*
X65534250Y-41269500D01*
X65555691Y-41270553D01*
X65555691Y-41270553D01*
G37*
D11*
X65278000Y-41707000D03*
D10*
G36*
X65555691Y-39695553D02*
X65576926Y-39698703D01*
X65597750Y-39703919D01*
X65617962Y-39711151D01*
X65637368Y-39720330D01*
X65655781Y-39731366D01*
X65673024Y-39744154D01*
X65688930Y-39758570D01*
X65703346Y-39774476D01*
X65716134Y-39791719D01*
X65727170Y-39810132D01*
X65736349Y-39829538D01*
X65743581Y-39849750D01*
X65748797Y-39870574D01*
X65751947Y-39891809D01*
X65753000Y-39913250D01*
X65753000Y-40350750D01*
X65751947Y-40372191D01*
X65748797Y-40393426D01*
X65743581Y-40414250D01*
X65736349Y-40434462D01*
X65727170Y-40453868D01*
X65716134Y-40472281D01*
X65703346Y-40489524D01*
X65688930Y-40505430D01*
X65673024Y-40519846D01*
X65655781Y-40532634D01*
X65637368Y-40543670D01*
X65617962Y-40552849D01*
X65597750Y-40560081D01*
X65576926Y-40565297D01*
X65555691Y-40568447D01*
X65534250Y-40569500D01*
X65021750Y-40569500D01*
X65000309Y-40568447D01*
X64979074Y-40565297D01*
X64958250Y-40560081D01*
X64938038Y-40552849D01*
X64918632Y-40543670D01*
X64900219Y-40532634D01*
X64882976Y-40519846D01*
X64867070Y-40505430D01*
X64852654Y-40489524D01*
X64839866Y-40472281D01*
X64828830Y-40453868D01*
X64819651Y-40434462D01*
X64812419Y-40414250D01*
X64807203Y-40393426D01*
X64804053Y-40372191D01*
X64803000Y-40350750D01*
X64803000Y-39913250D01*
X64804053Y-39891809D01*
X64807203Y-39870574D01*
X64812419Y-39849750D01*
X64819651Y-39829538D01*
X64828830Y-39810132D01*
X64839866Y-39791719D01*
X64852654Y-39774476D01*
X64867070Y-39758570D01*
X64882976Y-39744154D01*
X64900219Y-39731366D01*
X64918632Y-39720330D01*
X64938038Y-39711151D01*
X64958250Y-39703919D01*
X64979074Y-39698703D01*
X65000309Y-39695553D01*
X65021750Y-39694500D01*
X65534250Y-39694500D01*
X65555691Y-39695553D01*
X65555691Y-39695553D01*
G37*
D11*
X65278000Y-40132000D03*
G04 #@! TD*
D10*
G04 #@! TO.C,R21*
G36*
X63904691Y-39695553D02*
X63925926Y-39698703D01*
X63946750Y-39703919D01*
X63966962Y-39711151D01*
X63986368Y-39720330D01*
X64004781Y-39731366D01*
X64022024Y-39744154D01*
X64037930Y-39758570D01*
X64052346Y-39774476D01*
X64065134Y-39791719D01*
X64076170Y-39810132D01*
X64085349Y-39829538D01*
X64092581Y-39849750D01*
X64097797Y-39870574D01*
X64100947Y-39891809D01*
X64102000Y-39913250D01*
X64102000Y-40350750D01*
X64100947Y-40372191D01*
X64097797Y-40393426D01*
X64092581Y-40414250D01*
X64085349Y-40434462D01*
X64076170Y-40453868D01*
X64065134Y-40472281D01*
X64052346Y-40489524D01*
X64037930Y-40505430D01*
X64022024Y-40519846D01*
X64004781Y-40532634D01*
X63986368Y-40543670D01*
X63966962Y-40552849D01*
X63946750Y-40560081D01*
X63925926Y-40565297D01*
X63904691Y-40568447D01*
X63883250Y-40569500D01*
X63370750Y-40569500D01*
X63349309Y-40568447D01*
X63328074Y-40565297D01*
X63307250Y-40560081D01*
X63287038Y-40552849D01*
X63267632Y-40543670D01*
X63249219Y-40532634D01*
X63231976Y-40519846D01*
X63216070Y-40505430D01*
X63201654Y-40489524D01*
X63188866Y-40472281D01*
X63177830Y-40453868D01*
X63168651Y-40434462D01*
X63161419Y-40414250D01*
X63156203Y-40393426D01*
X63153053Y-40372191D01*
X63152000Y-40350750D01*
X63152000Y-39913250D01*
X63153053Y-39891809D01*
X63156203Y-39870574D01*
X63161419Y-39849750D01*
X63168651Y-39829538D01*
X63177830Y-39810132D01*
X63188866Y-39791719D01*
X63201654Y-39774476D01*
X63216070Y-39758570D01*
X63231976Y-39744154D01*
X63249219Y-39731366D01*
X63267632Y-39720330D01*
X63287038Y-39711151D01*
X63307250Y-39703919D01*
X63328074Y-39698703D01*
X63349309Y-39695553D01*
X63370750Y-39694500D01*
X63883250Y-39694500D01*
X63904691Y-39695553D01*
X63904691Y-39695553D01*
G37*
D11*
X63627000Y-40132000D03*
D10*
G36*
X63904691Y-41270553D02*
X63925926Y-41273703D01*
X63946750Y-41278919D01*
X63966962Y-41286151D01*
X63986368Y-41295330D01*
X64004781Y-41306366D01*
X64022024Y-41319154D01*
X64037930Y-41333570D01*
X64052346Y-41349476D01*
X64065134Y-41366719D01*
X64076170Y-41385132D01*
X64085349Y-41404538D01*
X64092581Y-41424750D01*
X64097797Y-41445574D01*
X64100947Y-41466809D01*
X64102000Y-41488250D01*
X64102000Y-41925750D01*
X64100947Y-41947191D01*
X64097797Y-41968426D01*
X64092581Y-41989250D01*
X64085349Y-42009462D01*
X64076170Y-42028868D01*
X64065134Y-42047281D01*
X64052346Y-42064524D01*
X64037930Y-42080430D01*
X64022024Y-42094846D01*
X64004781Y-42107634D01*
X63986368Y-42118670D01*
X63966962Y-42127849D01*
X63946750Y-42135081D01*
X63925926Y-42140297D01*
X63904691Y-42143447D01*
X63883250Y-42144500D01*
X63370750Y-42144500D01*
X63349309Y-42143447D01*
X63328074Y-42140297D01*
X63307250Y-42135081D01*
X63287038Y-42127849D01*
X63267632Y-42118670D01*
X63249219Y-42107634D01*
X63231976Y-42094846D01*
X63216070Y-42080430D01*
X63201654Y-42064524D01*
X63188866Y-42047281D01*
X63177830Y-42028868D01*
X63168651Y-42009462D01*
X63161419Y-41989250D01*
X63156203Y-41968426D01*
X63153053Y-41947191D01*
X63152000Y-41925750D01*
X63152000Y-41488250D01*
X63153053Y-41466809D01*
X63156203Y-41445574D01*
X63161419Y-41424750D01*
X63168651Y-41404538D01*
X63177830Y-41385132D01*
X63188866Y-41366719D01*
X63201654Y-41349476D01*
X63216070Y-41333570D01*
X63231976Y-41319154D01*
X63249219Y-41306366D01*
X63267632Y-41295330D01*
X63287038Y-41286151D01*
X63307250Y-41278919D01*
X63328074Y-41273703D01*
X63349309Y-41270553D01*
X63370750Y-41269500D01*
X63883250Y-41269500D01*
X63904691Y-41270553D01*
X63904691Y-41270553D01*
G37*
D11*
X63627000Y-41707000D03*
G04 #@! TD*
D19*
G04 #@! TO.C,U3*
X60321000Y-37863000D03*
X60971000Y-37863000D03*
X61621000Y-37863000D03*
X62271000Y-37863000D03*
X62921000Y-37863000D03*
X63571000Y-37863000D03*
X64221000Y-37863000D03*
X64871000Y-37863000D03*
X65521000Y-37863000D03*
X66171000Y-37863000D03*
X66156000Y-31733000D03*
X65506000Y-31733000D03*
X64856000Y-31733000D03*
X64206000Y-31733000D03*
X63571000Y-31733000D03*
X62921000Y-31733000D03*
X62271000Y-31733000D03*
X61621000Y-31733000D03*
X60971000Y-31733000D03*
X60321000Y-31733000D03*
G04 #@! TD*
D18*
G04 #@! TO.C,U1*
X42225000Y-27575000D03*
X40325000Y-27575000D03*
X41275000Y-29575000D03*
G04 #@! TD*
M02*
