G04 #@! TF.GenerationSoftware,KiCad,Pcbnew,(5.0.0)*
G04 #@! TF.CreationDate,2020-11-29T08:45:12-06:00*
G04 #@! TF.ProjectId,bmp,626D702E6B696361645F706362000000,rev?*
G04 #@! TF.SameCoordinates,Original*
G04 #@! TF.FileFunction,Soldermask,Top*
G04 #@! TF.FilePolarity,Negative*
%FSLAX46Y46*%
G04 Gerber Fmt 4.6, Leading zero omitted, Abs format (unit mm)*
G04 Created by KiCad (PCBNEW (5.0.0)) date 11/29/20 08:45:12*
%MOMM*%
%LPD*%
G01*
G04 APERTURE LIST*
%ADD10C,0.100000*%
%ADD11C,1.275000*%
%ADD12O,2.000000X1.400000*%
%ADD13O,2.500000X1.400000*%
%ADD14C,1.050000*%
%ADD15R,1.850000X0.700000*%
%ADD16R,1.850000X1.000000*%
%ADD17R,1.600000X1.050000*%
%ADD18R,0.650000X1.700000*%
%ADD19R,1.700000X0.650000*%
%ADD20C,1.390600*%
%ADD21R,2.100000X2.100000*%
%ADD22O,2.100000X2.100000*%
%ADD23R,1.300000X1.200000*%
%ADD24R,0.750000X1.900000*%
%ADD25R,1.050000X1.460000*%
%ADD26C,1.552000*%
%ADD27R,2.800000X2.400000*%
G04 APERTURE END LIST*
D10*
G04 #@! TO.C,C1*
G36*
X40329493Y-30695535D02*
X40360435Y-30700125D01*
X40390778Y-30707725D01*
X40420230Y-30718263D01*
X40448508Y-30731638D01*
X40475338Y-30747719D01*
X40500463Y-30766353D01*
X40523640Y-30787360D01*
X40544647Y-30810537D01*
X40563281Y-30835662D01*
X40579362Y-30862492D01*
X40592737Y-30890770D01*
X40603275Y-30920222D01*
X40610875Y-30950565D01*
X40615465Y-30981507D01*
X40617000Y-31012750D01*
X40617000Y-31725250D01*
X40615465Y-31756493D01*
X40610875Y-31787435D01*
X40603275Y-31817778D01*
X40592737Y-31847230D01*
X40579362Y-31875508D01*
X40563281Y-31902338D01*
X40544647Y-31927463D01*
X40523640Y-31950640D01*
X40500463Y-31971647D01*
X40475338Y-31990281D01*
X40448508Y-32006362D01*
X40420230Y-32019737D01*
X40390778Y-32030275D01*
X40360435Y-32037875D01*
X40329493Y-32042465D01*
X40298250Y-32044000D01*
X39660750Y-32044000D01*
X39629507Y-32042465D01*
X39598565Y-32037875D01*
X39568222Y-32030275D01*
X39538770Y-32019737D01*
X39510492Y-32006362D01*
X39483662Y-31990281D01*
X39458537Y-31971647D01*
X39435360Y-31950640D01*
X39414353Y-31927463D01*
X39395719Y-31902338D01*
X39379638Y-31875508D01*
X39366263Y-31847230D01*
X39355725Y-31817778D01*
X39348125Y-31787435D01*
X39343535Y-31756493D01*
X39342000Y-31725250D01*
X39342000Y-31012750D01*
X39343535Y-30981507D01*
X39348125Y-30950565D01*
X39355725Y-30920222D01*
X39366263Y-30890770D01*
X39379638Y-30862492D01*
X39395719Y-30835662D01*
X39414353Y-30810537D01*
X39435360Y-30787360D01*
X39458537Y-30766353D01*
X39483662Y-30747719D01*
X39510492Y-30731638D01*
X39538770Y-30718263D01*
X39568222Y-30707725D01*
X39598565Y-30700125D01*
X39629507Y-30695535D01*
X39660750Y-30694000D01*
X40298250Y-30694000D01*
X40329493Y-30695535D01*
X40329493Y-30695535D01*
G37*
D11*
X39979500Y-31369000D03*
D10*
G36*
X41904493Y-30695535D02*
X41935435Y-30700125D01*
X41965778Y-30707725D01*
X41995230Y-30718263D01*
X42023508Y-30731638D01*
X42050338Y-30747719D01*
X42075463Y-30766353D01*
X42098640Y-30787360D01*
X42119647Y-30810537D01*
X42138281Y-30835662D01*
X42154362Y-30862492D01*
X42167737Y-30890770D01*
X42178275Y-30920222D01*
X42185875Y-30950565D01*
X42190465Y-30981507D01*
X42192000Y-31012750D01*
X42192000Y-31725250D01*
X42190465Y-31756493D01*
X42185875Y-31787435D01*
X42178275Y-31817778D01*
X42167737Y-31847230D01*
X42154362Y-31875508D01*
X42138281Y-31902338D01*
X42119647Y-31927463D01*
X42098640Y-31950640D01*
X42075463Y-31971647D01*
X42050338Y-31990281D01*
X42023508Y-32006362D01*
X41995230Y-32019737D01*
X41965778Y-32030275D01*
X41935435Y-32037875D01*
X41904493Y-32042465D01*
X41873250Y-32044000D01*
X41235750Y-32044000D01*
X41204507Y-32042465D01*
X41173565Y-32037875D01*
X41143222Y-32030275D01*
X41113770Y-32019737D01*
X41085492Y-32006362D01*
X41058662Y-31990281D01*
X41033537Y-31971647D01*
X41010360Y-31950640D01*
X40989353Y-31927463D01*
X40970719Y-31902338D01*
X40954638Y-31875508D01*
X40941263Y-31847230D01*
X40930725Y-31817778D01*
X40923125Y-31787435D01*
X40918535Y-31756493D01*
X40917000Y-31725250D01*
X40917000Y-31012750D01*
X40918535Y-30981507D01*
X40923125Y-30950565D01*
X40930725Y-30920222D01*
X40941263Y-30890770D01*
X40954638Y-30862492D01*
X40970719Y-30835662D01*
X40989353Y-30810537D01*
X41010360Y-30787360D01*
X41033537Y-30766353D01*
X41058662Y-30747719D01*
X41085492Y-30731638D01*
X41113770Y-30718263D01*
X41143222Y-30707725D01*
X41173565Y-30700125D01*
X41204507Y-30695535D01*
X41235750Y-30694000D01*
X41873250Y-30694000D01*
X41904493Y-30695535D01*
X41904493Y-30695535D01*
G37*
D11*
X41554500Y-31369000D03*
G04 #@! TD*
D10*
G04 #@! TO.C,C2*
G36*
X44329493Y-26923035D02*
X44360435Y-26927625D01*
X44390778Y-26935225D01*
X44420230Y-26945763D01*
X44448508Y-26959138D01*
X44475338Y-26975219D01*
X44500463Y-26993853D01*
X44523640Y-27014860D01*
X44544647Y-27038037D01*
X44563281Y-27063162D01*
X44579362Y-27089992D01*
X44592737Y-27118270D01*
X44603275Y-27147722D01*
X44610875Y-27178065D01*
X44615465Y-27209007D01*
X44617000Y-27240250D01*
X44617000Y-27877750D01*
X44615465Y-27908993D01*
X44610875Y-27939935D01*
X44603275Y-27970278D01*
X44592737Y-27999730D01*
X44579362Y-28028008D01*
X44563281Y-28054838D01*
X44544647Y-28079963D01*
X44523640Y-28103140D01*
X44500463Y-28124147D01*
X44475338Y-28142781D01*
X44448508Y-28158862D01*
X44420230Y-28172237D01*
X44390778Y-28182775D01*
X44360435Y-28190375D01*
X44329493Y-28194965D01*
X44298250Y-28196500D01*
X43585750Y-28196500D01*
X43554507Y-28194965D01*
X43523565Y-28190375D01*
X43493222Y-28182775D01*
X43463770Y-28172237D01*
X43435492Y-28158862D01*
X43408662Y-28142781D01*
X43383537Y-28124147D01*
X43360360Y-28103140D01*
X43339353Y-28079963D01*
X43320719Y-28054838D01*
X43304638Y-28028008D01*
X43291263Y-27999730D01*
X43280725Y-27970278D01*
X43273125Y-27939935D01*
X43268535Y-27908993D01*
X43267000Y-27877750D01*
X43267000Y-27240250D01*
X43268535Y-27209007D01*
X43273125Y-27178065D01*
X43280725Y-27147722D01*
X43291263Y-27118270D01*
X43304638Y-27089992D01*
X43320719Y-27063162D01*
X43339353Y-27038037D01*
X43360360Y-27014860D01*
X43383537Y-26993853D01*
X43408662Y-26975219D01*
X43435492Y-26959138D01*
X43463770Y-26945763D01*
X43493222Y-26935225D01*
X43523565Y-26927625D01*
X43554507Y-26923035D01*
X43585750Y-26921500D01*
X44298250Y-26921500D01*
X44329493Y-26923035D01*
X44329493Y-26923035D01*
G37*
D11*
X43942000Y-27559000D03*
D10*
G36*
X44329493Y-28498035D02*
X44360435Y-28502625D01*
X44390778Y-28510225D01*
X44420230Y-28520763D01*
X44448508Y-28534138D01*
X44475338Y-28550219D01*
X44500463Y-28568853D01*
X44523640Y-28589860D01*
X44544647Y-28613037D01*
X44563281Y-28638162D01*
X44579362Y-28664992D01*
X44592737Y-28693270D01*
X44603275Y-28722722D01*
X44610875Y-28753065D01*
X44615465Y-28784007D01*
X44617000Y-28815250D01*
X44617000Y-29452750D01*
X44615465Y-29483993D01*
X44610875Y-29514935D01*
X44603275Y-29545278D01*
X44592737Y-29574730D01*
X44579362Y-29603008D01*
X44563281Y-29629838D01*
X44544647Y-29654963D01*
X44523640Y-29678140D01*
X44500463Y-29699147D01*
X44475338Y-29717781D01*
X44448508Y-29733862D01*
X44420230Y-29747237D01*
X44390778Y-29757775D01*
X44360435Y-29765375D01*
X44329493Y-29769965D01*
X44298250Y-29771500D01*
X43585750Y-29771500D01*
X43554507Y-29769965D01*
X43523565Y-29765375D01*
X43493222Y-29757775D01*
X43463770Y-29747237D01*
X43435492Y-29733862D01*
X43408662Y-29717781D01*
X43383537Y-29699147D01*
X43360360Y-29678140D01*
X43339353Y-29654963D01*
X43320719Y-29629838D01*
X43304638Y-29603008D01*
X43291263Y-29574730D01*
X43280725Y-29545278D01*
X43273125Y-29514935D01*
X43268535Y-29483993D01*
X43267000Y-29452750D01*
X43267000Y-28815250D01*
X43268535Y-28784007D01*
X43273125Y-28753065D01*
X43280725Y-28722722D01*
X43291263Y-28693270D01*
X43304638Y-28664992D01*
X43320719Y-28638162D01*
X43339353Y-28613037D01*
X43360360Y-28589860D01*
X43383537Y-28568853D01*
X43408662Y-28550219D01*
X43435492Y-28534138D01*
X43463770Y-28520763D01*
X43493222Y-28510225D01*
X43523565Y-28502625D01*
X43554507Y-28498035D01*
X43585750Y-28496500D01*
X44298250Y-28496500D01*
X44329493Y-28498035D01*
X44329493Y-28498035D01*
G37*
D11*
X43942000Y-29134000D03*
G04 #@! TD*
D10*
G04 #@! TO.C,D1*
G36*
X32582493Y-26631535D02*
X32613435Y-26636125D01*
X32643778Y-26643725D01*
X32673230Y-26654263D01*
X32701508Y-26667638D01*
X32728338Y-26683719D01*
X32753463Y-26702353D01*
X32776640Y-26723360D01*
X32797647Y-26746537D01*
X32816281Y-26771662D01*
X32832362Y-26798492D01*
X32845737Y-26826770D01*
X32856275Y-26856222D01*
X32863875Y-26886565D01*
X32868465Y-26917507D01*
X32870000Y-26948750D01*
X32870000Y-27661250D01*
X32868465Y-27692493D01*
X32863875Y-27723435D01*
X32856275Y-27753778D01*
X32845737Y-27783230D01*
X32832362Y-27811508D01*
X32816281Y-27838338D01*
X32797647Y-27863463D01*
X32776640Y-27886640D01*
X32753463Y-27907647D01*
X32728338Y-27926281D01*
X32701508Y-27942362D01*
X32673230Y-27955737D01*
X32643778Y-27966275D01*
X32613435Y-27973875D01*
X32582493Y-27978465D01*
X32551250Y-27980000D01*
X31913750Y-27980000D01*
X31882507Y-27978465D01*
X31851565Y-27973875D01*
X31821222Y-27966275D01*
X31791770Y-27955737D01*
X31763492Y-27942362D01*
X31736662Y-27926281D01*
X31711537Y-27907647D01*
X31688360Y-27886640D01*
X31667353Y-27863463D01*
X31648719Y-27838338D01*
X31632638Y-27811508D01*
X31619263Y-27783230D01*
X31608725Y-27753778D01*
X31601125Y-27723435D01*
X31596535Y-27692493D01*
X31595000Y-27661250D01*
X31595000Y-26948750D01*
X31596535Y-26917507D01*
X31601125Y-26886565D01*
X31608725Y-26856222D01*
X31619263Y-26826770D01*
X31632638Y-26798492D01*
X31648719Y-26771662D01*
X31667353Y-26746537D01*
X31688360Y-26723360D01*
X31711537Y-26702353D01*
X31736662Y-26683719D01*
X31763492Y-26667638D01*
X31791770Y-26654263D01*
X31821222Y-26643725D01*
X31851565Y-26636125D01*
X31882507Y-26631535D01*
X31913750Y-26630000D01*
X32551250Y-26630000D01*
X32582493Y-26631535D01*
X32582493Y-26631535D01*
G37*
D11*
X32232500Y-27305000D03*
D10*
G36*
X34157493Y-26631535D02*
X34188435Y-26636125D01*
X34218778Y-26643725D01*
X34248230Y-26654263D01*
X34276508Y-26667638D01*
X34303338Y-26683719D01*
X34328463Y-26702353D01*
X34351640Y-26723360D01*
X34372647Y-26746537D01*
X34391281Y-26771662D01*
X34407362Y-26798492D01*
X34420737Y-26826770D01*
X34431275Y-26856222D01*
X34438875Y-26886565D01*
X34443465Y-26917507D01*
X34445000Y-26948750D01*
X34445000Y-27661250D01*
X34443465Y-27692493D01*
X34438875Y-27723435D01*
X34431275Y-27753778D01*
X34420737Y-27783230D01*
X34407362Y-27811508D01*
X34391281Y-27838338D01*
X34372647Y-27863463D01*
X34351640Y-27886640D01*
X34328463Y-27907647D01*
X34303338Y-27926281D01*
X34276508Y-27942362D01*
X34248230Y-27955737D01*
X34218778Y-27966275D01*
X34188435Y-27973875D01*
X34157493Y-27978465D01*
X34126250Y-27980000D01*
X33488750Y-27980000D01*
X33457507Y-27978465D01*
X33426565Y-27973875D01*
X33396222Y-27966275D01*
X33366770Y-27955737D01*
X33338492Y-27942362D01*
X33311662Y-27926281D01*
X33286537Y-27907647D01*
X33263360Y-27886640D01*
X33242353Y-27863463D01*
X33223719Y-27838338D01*
X33207638Y-27811508D01*
X33194263Y-27783230D01*
X33183725Y-27753778D01*
X33176125Y-27723435D01*
X33171535Y-27692493D01*
X33170000Y-27661250D01*
X33170000Y-26948750D01*
X33171535Y-26917507D01*
X33176125Y-26886565D01*
X33183725Y-26856222D01*
X33194263Y-26826770D01*
X33207638Y-26798492D01*
X33223719Y-26771662D01*
X33242353Y-26746537D01*
X33263360Y-26723360D01*
X33286537Y-26702353D01*
X33311662Y-26683719D01*
X33338492Y-26667638D01*
X33366770Y-26654263D01*
X33396222Y-26643725D01*
X33426565Y-26636125D01*
X33457507Y-26631535D01*
X33488750Y-26630000D01*
X34126250Y-26630000D01*
X34157493Y-26631535D01*
X34157493Y-26631535D01*
G37*
D11*
X33807500Y-27305000D03*
G04 #@! TD*
D10*
G04 #@! TO.C,D2*
G36*
X34157493Y-32219535D02*
X34188435Y-32224125D01*
X34218778Y-32231725D01*
X34248230Y-32242263D01*
X34276508Y-32255638D01*
X34303338Y-32271719D01*
X34328463Y-32290353D01*
X34351640Y-32311360D01*
X34372647Y-32334537D01*
X34391281Y-32359662D01*
X34407362Y-32386492D01*
X34420737Y-32414770D01*
X34431275Y-32444222D01*
X34438875Y-32474565D01*
X34443465Y-32505507D01*
X34445000Y-32536750D01*
X34445000Y-33249250D01*
X34443465Y-33280493D01*
X34438875Y-33311435D01*
X34431275Y-33341778D01*
X34420737Y-33371230D01*
X34407362Y-33399508D01*
X34391281Y-33426338D01*
X34372647Y-33451463D01*
X34351640Y-33474640D01*
X34328463Y-33495647D01*
X34303338Y-33514281D01*
X34276508Y-33530362D01*
X34248230Y-33543737D01*
X34218778Y-33554275D01*
X34188435Y-33561875D01*
X34157493Y-33566465D01*
X34126250Y-33568000D01*
X33488750Y-33568000D01*
X33457507Y-33566465D01*
X33426565Y-33561875D01*
X33396222Y-33554275D01*
X33366770Y-33543737D01*
X33338492Y-33530362D01*
X33311662Y-33514281D01*
X33286537Y-33495647D01*
X33263360Y-33474640D01*
X33242353Y-33451463D01*
X33223719Y-33426338D01*
X33207638Y-33399508D01*
X33194263Y-33371230D01*
X33183725Y-33341778D01*
X33176125Y-33311435D01*
X33171535Y-33280493D01*
X33170000Y-33249250D01*
X33170000Y-32536750D01*
X33171535Y-32505507D01*
X33176125Y-32474565D01*
X33183725Y-32444222D01*
X33194263Y-32414770D01*
X33207638Y-32386492D01*
X33223719Y-32359662D01*
X33242353Y-32334537D01*
X33263360Y-32311360D01*
X33286537Y-32290353D01*
X33311662Y-32271719D01*
X33338492Y-32255638D01*
X33366770Y-32242263D01*
X33396222Y-32231725D01*
X33426565Y-32224125D01*
X33457507Y-32219535D01*
X33488750Y-32218000D01*
X34126250Y-32218000D01*
X34157493Y-32219535D01*
X34157493Y-32219535D01*
G37*
D11*
X33807500Y-32893000D03*
D10*
G36*
X32582493Y-32219535D02*
X32613435Y-32224125D01*
X32643778Y-32231725D01*
X32673230Y-32242263D01*
X32701508Y-32255638D01*
X32728338Y-32271719D01*
X32753463Y-32290353D01*
X32776640Y-32311360D01*
X32797647Y-32334537D01*
X32816281Y-32359662D01*
X32832362Y-32386492D01*
X32845737Y-32414770D01*
X32856275Y-32444222D01*
X32863875Y-32474565D01*
X32868465Y-32505507D01*
X32870000Y-32536750D01*
X32870000Y-33249250D01*
X32868465Y-33280493D01*
X32863875Y-33311435D01*
X32856275Y-33341778D01*
X32845737Y-33371230D01*
X32832362Y-33399508D01*
X32816281Y-33426338D01*
X32797647Y-33451463D01*
X32776640Y-33474640D01*
X32753463Y-33495647D01*
X32728338Y-33514281D01*
X32701508Y-33530362D01*
X32673230Y-33543737D01*
X32643778Y-33554275D01*
X32613435Y-33561875D01*
X32582493Y-33566465D01*
X32551250Y-33568000D01*
X31913750Y-33568000D01*
X31882507Y-33566465D01*
X31851565Y-33561875D01*
X31821222Y-33554275D01*
X31791770Y-33543737D01*
X31763492Y-33530362D01*
X31736662Y-33514281D01*
X31711537Y-33495647D01*
X31688360Y-33474640D01*
X31667353Y-33451463D01*
X31648719Y-33426338D01*
X31632638Y-33399508D01*
X31619263Y-33371230D01*
X31608725Y-33341778D01*
X31601125Y-33311435D01*
X31596535Y-33280493D01*
X31595000Y-33249250D01*
X31595000Y-32536750D01*
X31596535Y-32505507D01*
X31601125Y-32474565D01*
X31608725Y-32444222D01*
X31619263Y-32414770D01*
X31632638Y-32386492D01*
X31648719Y-32359662D01*
X31667353Y-32334537D01*
X31688360Y-32311360D01*
X31711537Y-32290353D01*
X31736662Y-32271719D01*
X31763492Y-32255638D01*
X31791770Y-32242263D01*
X31821222Y-32231725D01*
X31851565Y-32224125D01*
X31882507Y-32219535D01*
X31913750Y-32218000D01*
X32551250Y-32218000D01*
X32582493Y-32219535D01*
X32582493Y-32219535D01*
G37*
D11*
X32232500Y-32893000D03*
G04 #@! TD*
D10*
G04 #@! TO.C,D3*
G36*
X32582493Y-30441535D02*
X32613435Y-30446125D01*
X32643778Y-30453725D01*
X32673230Y-30464263D01*
X32701508Y-30477638D01*
X32728338Y-30493719D01*
X32753463Y-30512353D01*
X32776640Y-30533360D01*
X32797647Y-30556537D01*
X32816281Y-30581662D01*
X32832362Y-30608492D01*
X32845737Y-30636770D01*
X32856275Y-30666222D01*
X32863875Y-30696565D01*
X32868465Y-30727507D01*
X32870000Y-30758750D01*
X32870000Y-31471250D01*
X32868465Y-31502493D01*
X32863875Y-31533435D01*
X32856275Y-31563778D01*
X32845737Y-31593230D01*
X32832362Y-31621508D01*
X32816281Y-31648338D01*
X32797647Y-31673463D01*
X32776640Y-31696640D01*
X32753463Y-31717647D01*
X32728338Y-31736281D01*
X32701508Y-31752362D01*
X32673230Y-31765737D01*
X32643778Y-31776275D01*
X32613435Y-31783875D01*
X32582493Y-31788465D01*
X32551250Y-31790000D01*
X31913750Y-31790000D01*
X31882507Y-31788465D01*
X31851565Y-31783875D01*
X31821222Y-31776275D01*
X31791770Y-31765737D01*
X31763492Y-31752362D01*
X31736662Y-31736281D01*
X31711537Y-31717647D01*
X31688360Y-31696640D01*
X31667353Y-31673463D01*
X31648719Y-31648338D01*
X31632638Y-31621508D01*
X31619263Y-31593230D01*
X31608725Y-31563778D01*
X31601125Y-31533435D01*
X31596535Y-31502493D01*
X31595000Y-31471250D01*
X31595000Y-30758750D01*
X31596535Y-30727507D01*
X31601125Y-30696565D01*
X31608725Y-30666222D01*
X31619263Y-30636770D01*
X31632638Y-30608492D01*
X31648719Y-30581662D01*
X31667353Y-30556537D01*
X31688360Y-30533360D01*
X31711537Y-30512353D01*
X31736662Y-30493719D01*
X31763492Y-30477638D01*
X31791770Y-30464263D01*
X31821222Y-30453725D01*
X31851565Y-30446125D01*
X31882507Y-30441535D01*
X31913750Y-30440000D01*
X32551250Y-30440000D01*
X32582493Y-30441535D01*
X32582493Y-30441535D01*
G37*
D11*
X32232500Y-31115000D03*
D10*
G36*
X34157493Y-30441535D02*
X34188435Y-30446125D01*
X34218778Y-30453725D01*
X34248230Y-30464263D01*
X34276508Y-30477638D01*
X34303338Y-30493719D01*
X34328463Y-30512353D01*
X34351640Y-30533360D01*
X34372647Y-30556537D01*
X34391281Y-30581662D01*
X34407362Y-30608492D01*
X34420737Y-30636770D01*
X34431275Y-30666222D01*
X34438875Y-30696565D01*
X34443465Y-30727507D01*
X34445000Y-30758750D01*
X34445000Y-31471250D01*
X34443465Y-31502493D01*
X34438875Y-31533435D01*
X34431275Y-31563778D01*
X34420737Y-31593230D01*
X34407362Y-31621508D01*
X34391281Y-31648338D01*
X34372647Y-31673463D01*
X34351640Y-31696640D01*
X34328463Y-31717647D01*
X34303338Y-31736281D01*
X34276508Y-31752362D01*
X34248230Y-31765737D01*
X34218778Y-31776275D01*
X34188435Y-31783875D01*
X34157493Y-31788465D01*
X34126250Y-31790000D01*
X33488750Y-31790000D01*
X33457507Y-31788465D01*
X33426565Y-31783875D01*
X33396222Y-31776275D01*
X33366770Y-31765737D01*
X33338492Y-31752362D01*
X33311662Y-31736281D01*
X33286537Y-31717647D01*
X33263360Y-31696640D01*
X33242353Y-31673463D01*
X33223719Y-31648338D01*
X33207638Y-31621508D01*
X33194263Y-31593230D01*
X33183725Y-31563778D01*
X33176125Y-31533435D01*
X33171535Y-31502493D01*
X33170000Y-31471250D01*
X33170000Y-30758750D01*
X33171535Y-30727507D01*
X33176125Y-30696565D01*
X33183725Y-30666222D01*
X33194263Y-30636770D01*
X33207638Y-30608492D01*
X33223719Y-30581662D01*
X33242353Y-30556537D01*
X33263360Y-30533360D01*
X33286537Y-30512353D01*
X33311662Y-30493719D01*
X33338492Y-30477638D01*
X33366770Y-30464263D01*
X33396222Y-30453725D01*
X33426565Y-30446125D01*
X33457507Y-30441535D01*
X33488750Y-30440000D01*
X34126250Y-30440000D01*
X34157493Y-30441535D01*
X34157493Y-30441535D01*
G37*
D11*
X33807500Y-31115000D03*
G04 #@! TD*
D10*
G04 #@! TO.C,D4*
G36*
X34157493Y-28536535D02*
X34188435Y-28541125D01*
X34218778Y-28548725D01*
X34248230Y-28559263D01*
X34276508Y-28572638D01*
X34303338Y-28588719D01*
X34328463Y-28607353D01*
X34351640Y-28628360D01*
X34372647Y-28651537D01*
X34391281Y-28676662D01*
X34407362Y-28703492D01*
X34420737Y-28731770D01*
X34431275Y-28761222D01*
X34438875Y-28791565D01*
X34443465Y-28822507D01*
X34445000Y-28853750D01*
X34445000Y-29566250D01*
X34443465Y-29597493D01*
X34438875Y-29628435D01*
X34431275Y-29658778D01*
X34420737Y-29688230D01*
X34407362Y-29716508D01*
X34391281Y-29743338D01*
X34372647Y-29768463D01*
X34351640Y-29791640D01*
X34328463Y-29812647D01*
X34303338Y-29831281D01*
X34276508Y-29847362D01*
X34248230Y-29860737D01*
X34218778Y-29871275D01*
X34188435Y-29878875D01*
X34157493Y-29883465D01*
X34126250Y-29885000D01*
X33488750Y-29885000D01*
X33457507Y-29883465D01*
X33426565Y-29878875D01*
X33396222Y-29871275D01*
X33366770Y-29860737D01*
X33338492Y-29847362D01*
X33311662Y-29831281D01*
X33286537Y-29812647D01*
X33263360Y-29791640D01*
X33242353Y-29768463D01*
X33223719Y-29743338D01*
X33207638Y-29716508D01*
X33194263Y-29688230D01*
X33183725Y-29658778D01*
X33176125Y-29628435D01*
X33171535Y-29597493D01*
X33170000Y-29566250D01*
X33170000Y-28853750D01*
X33171535Y-28822507D01*
X33176125Y-28791565D01*
X33183725Y-28761222D01*
X33194263Y-28731770D01*
X33207638Y-28703492D01*
X33223719Y-28676662D01*
X33242353Y-28651537D01*
X33263360Y-28628360D01*
X33286537Y-28607353D01*
X33311662Y-28588719D01*
X33338492Y-28572638D01*
X33366770Y-28559263D01*
X33396222Y-28548725D01*
X33426565Y-28541125D01*
X33457507Y-28536535D01*
X33488750Y-28535000D01*
X34126250Y-28535000D01*
X34157493Y-28536535D01*
X34157493Y-28536535D01*
G37*
D11*
X33807500Y-29210000D03*
D10*
G36*
X32582493Y-28536535D02*
X32613435Y-28541125D01*
X32643778Y-28548725D01*
X32673230Y-28559263D01*
X32701508Y-28572638D01*
X32728338Y-28588719D01*
X32753463Y-28607353D01*
X32776640Y-28628360D01*
X32797647Y-28651537D01*
X32816281Y-28676662D01*
X32832362Y-28703492D01*
X32845737Y-28731770D01*
X32856275Y-28761222D01*
X32863875Y-28791565D01*
X32868465Y-28822507D01*
X32870000Y-28853750D01*
X32870000Y-29566250D01*
X32868465Y-29597493D01*
X32863875Y-29628435D01*
X32856275Y-29658778D01*
X32845737Y-29688230D01*
X32832362Y-29716508D01*
X32816281Y-29743338D01*
X32797647Y-29768463D01*
X32776640Y-29791640D01*
X32753463Y-29812647D01*
X32728338Y-29831281D01*
X32701508Y-29847362D01*
X32673230Y-29860737D01*
X32643778Y-29871275D01*
X32613435Y-29878875D01*
X32582493Y-29883465D01*
X32551250Y-29885000D01*
X31913750Y-29885000D01*
X31882507Y-29883465D01*
X31851565Y-29878875D01*
X31821222Y-29871275D01*
X31791770Y-29860737D01*
X31763492Y-29847362D01*
X31736662Y-29831281D01*
X31711537Y-29812647D01*
X31688360Y-29791640D01*
X31667353Y-29768463D01*
X31648719Y-29743338D01*
X31632638Y-29716508D01*
X31619263Y-29688230D01*
X31608725Y-29658778D01*
X31601125Y-29628435D01*
X31596535Y-29597493D01*
X31595000Y-29566250D01*
X31595000Y-28853750D01*
X31596535Y-28822507D01*
X31601125Y-28791565D01*
X31608725Y-28761222D01*
X31619263Y-28731770D01*
X31632638Y-28703492D01*
X31648719Y-28676662D01*
X31667353Y-28651537D01*
X31688360Y-28628360D01*
X31711537Y-28607353D01*
X31736662Y-28588719D01*
X31763492Y-28572638D01*
X31791770Y-28559263D01*
X31821222Y-28548725D01*
X31851565Y-28541125D01*
X31882507Y-28536535D01*
X31913750Y-28535000D01*
X32551250Y-28535000D01*
X32582493Y-28536535D01*
X32582493Y-28536535D01*
G37*
D11*
X32232500Y-29210000D03*
G04 #@! TD*
D12*
G04 #@! TO.C,J1*
X28000000Y-44325000D03*
X28000000Y-35685000D03*
D13*
X32180000Y-44325000D03*
X32180000Y-35685000D03*
D14*
X31650000Y-37115000D03*
X31650000Y-42895000D03*
D15*
X33095000Y-39755000D03*
X33095000Y-40255000D03*
X33095000Y-40755000D03*
X33095000Y-39255000D03*
X33095000Y-41255000D03*
X33095000Y-38755000D03*
X33095000Y-41755000D03*
X33095000Y-38255000D03*
D16*
X33095000Y-37555000D03*
X33095000Y-42455000D03*
X33095000Y-36780000D03*
X33095000Y-43230000D03*
G04 #@! TD*
D10*
G04 #@! TO.C,R1*
G36*
X36544993Y-35775535D02*
X36575935Y-35780125D01*
X36606278Y-35787725D01*
X36635730Y-35798263D01*
X36664008Y-35811638D01*
X36690838Y-35827719D01*
X36715963Y-35846353D01*
X36739140Y-35867360D01*
X36760147Y-35890537D01*
X36778781Y-35915662D01*
X36794862Y-35942492D01*
X36808237Y-35970770D01*
X36818775Y-36000222D01*
X36826375Y-36030565D01*
X36830965Y-36061507D01*
X36832500Y-36092750D01*
X36832500Y-36805250D01*
X36830965Y-36836493D01*
X36826375Y-36867435D01*
X36818775Y-36897778D01*
X36808237Y-36927230D01*
X36794862Y-36955508D01*
X36778781Y-36982338D01*
X36760147Y-37007463D01*
X36739140Y-37030640D01*
X36715963Y-37051647D01*
X36690838Y-37070281D01*
X36664008Y-37086362D01*
X36635730Y-37099737D01*
X36606278Y-37110275D01*
X36575935Y-37117875D01*
X36544993Y-37122465D01*
X36513750Y-37124000D01*
X35876250Y-37124000D01*
X35845007Y-37122465D01*
X35814065Y-37117875D01*
X35783722Y-37110275D01*
X35754270Y-37099737D01*
X35725992Y-37086362D01*
X35699162Y-37070281D01*
X35674037Y-37051647D01*
X35650860Y-37030640D01*
X35629853Y-37007463D01*
X35611219Y-36982338D01*
X35595138Y-36955508D01*
X35581763Y-36927230D01*
X35571225Y-36897778D01*
X35563625Y-36867435D01*
X35559035Y-36836493D01*
X35557500Y-36805250D01*
X35557500Y-36092750D01*
X35559035Y-36061507D01*
X35563625Y-36030565D01*
X35571225Y-36000222D01*
X35581763Y-35970770D01*
X35595138Y-35942492D01*
X35611219Y-35915662D01*
X35629853Y-35890537D01*
X35650860Y-35867360D01*
X35674037Y-35846353D01*
X35699162Y-35827719D01*
X35725992Y-35811638D01*
X35754270Y-35798263D01*
X35783722Y-35787725D01*
X35814065Y-35780125D01*
X35845007Y-35775535D01*
X35876250Y-35774000D01*
X36513750Y-35774000D01*
X36544993Y-35775535D01*
X36544993Y-35775535D01*
G37*
D11*
X36195000Y-36449000D03*
D10*
G36*
X38119993Y-35775535D02*
X38150935Y-35780125D01*
X38181278Y-35787725D01*
X38210730Y-35798263D01*
X38239008Y-35811638D01*
X38265838Y-35827719D01*
X38290963Y-35846353D01*
X38314140Y-35867360D01*
X38335147Y-35890537D01*
X38353781Y-35915662D01*
X38369862Y-35942492D01*
X38383237Y-35970770D01*
X38393775Y-36000222D01*
X38401375Y-36030565D01*
X38405965Y-36061507D01*
X38407500Y-36092750D01*
X38407500Y-36805250D01*
X38405965Y-36836493D01*
X38401375Y-36867435D01*
X38393775Y-36897778D01*
X38383237Y-36927230D01*
X38369862Y-36955508D01*
X38353781Y-36982338D01*
X38335147Y-37007463D01*
X38314140Y-37030640D01*
X38290963Y-37051647D01*
X38265838Y-37070281D01*
X38239008Y-37086362D01*
X38210730Y-37099737D01*
X38181278Y-37110275D01*
X38150935Y-37117875D01*
X38119993Y-37122465D01*
X38088750Y-37124000D01*
X37451250Y-37124000D01*
X37420007Y-37122465D01*
X37389065Y-37117875D01*
X37358722Y-37110275D01*
X37329270Y-37099737D01*
X37300992Y-37086362D01*
X37274162Y-37070281D01*
X37249037Y-37051647D01*
X37225860Y-37030640D01*
X37204853Y-37007463D01*
X37186219Y-36982338D01*
X37170138Y-36955508D01*
X37156763Y-36927230D01*
X37146225Y-36897778D01*
X37138625Y-36867435D01*
X37134035Y-36836493D01*
X37132500Y-36805250D01*
X37132500Y-36092750D01*
X37134035Y-36061507D01*
X37138625Y-36030565D01*
X37146225Y-36000222D01*
X37156763Y-35970770D01*
X37170138Y-35942492D01*
X37186219Y-35915662D01*
X37204853Y-35890537D01*
X37225860Y-35867360D01*
X37249037Y-35846353D01*
X37274162Y-35827719D01*
X37300992Y-35811638D01*
X37329270Y-35798263D01*
X37358722Y-35787725D01*
X37389065Y-35780125D01*
X37420007Y-35775535D01*
X37451250Y-35774000D01*
X38088750Y-35774000D01*
X38119993Y-35775535D01*
X38119993Y-35775535D01*
G37*
D11*
X37770000Y-36449000D03*
G04 #@! TD*
D10*
G04 #@! TO.C,R2*
G36*
X38119993Y-42379535D02*
X38150935Y-42384125D01*
X38181278Y-42391725D01*
X38210730Y-42402263D01*
X38239008Y-42415638D01*
X38265838Y-42431719D01*
X38290963Y-42450353D01*
X38314140Y-42471360D01*
X38335147Y-42494537D01*
X38353781Y-42519662D01*
X38369862Y-42546492D01*
X38383237Y-42574770D01*
X38393775Y-42604222D01*
X38401375Y-42634565D01*
X38405965Y-42665507D01*
X38407500Y-42696750D01*
X38407500Y-43409250D01*
X38405965Y-43440493D01*
X38401375Y-43471435D01*
X38393775Y-43501778D01*
X38383237Y-43531230D01*
X38369862Y-43559508D01*
X38353781Y-43586338D01*
X38335147Y-43611463D01*
X38314140Y-43634640D01*
X38290963Y-43655647D01*
X38265838Y-43674281D01*
X38239008Y-43690362D01*
X38210730Y-43703737D01*
X38181278Y-43714275D01*
X38150935Y-43721875D01*
X38119993Y-43726465D01*
X38088750Y-43728000D01*
X37451250Y-43728000D01*
X37420007Y-43726465D01*
X37389065Y-43721875D01*
X37358722Y-43714275D01*
X37329270Y-43703737D01*
X37300992Y-43690362D01*
X37274162Y-43674281D01*
X37249037Y-43655647D01*
X37225860Y-43634640D01*
X37204853Y-43611463D01*
X37186219Y-43586338D01*
X37170138Y-43559508D01*
X37156763Y-43531230D01*
X37146225Y-43501778D01*
X37138625Y-43471435D01*
X37134035Y-43440493D01*
X37132500Y-43409250D01*
X37132500Y-42696750D01*
X37134035Y-42665507D01*
X37138625Y-42634565D01*
X37146225Y-42604222D01*
X37156763Y-42574770D01*
X37170138Y-42546492D01*
X37186219Y-42519662D01*
X37204853Y-42494537D01*
X37225860Y-42471360D01*
X37249037Y-42450353D01*
X37274162Y-42431719D01*
X37300992Y-42415638D01*
X37329270Y-42402263D01*
X37358722Y-42391725D01*
X37389065Y-42384125D01*
X37420007Y-42379535D01*
X37451250Y-42378000D01*
X38088750Y-42378000D01*
X38119993Y-42379535D01*
X38119993Y-42379535D01*
G37*
D11*
X37770000Y-43053000D03*
D10*
G36*
X36544993Y-42379535D02*
X36575935Y-42384125D01*
X36606278Y-42391725D01*
X36635730Y-42402263D01*
X36664008Y-42415638D01*
X36690838Y-42431719D01*
X36715963Y-42450353D01*
X36739140Y-42471360D01*
X36760147Y-42494537D01*
X36778781Y-42519662D01*
X36794862Y-42546492D01*
X36808237Y-42574770D01*
X36818775Y-42604222D01*
X36826375Y-42634565D01*
X36830965Y-42665507D01*
X36832500Y-42696750D01*
X36832500Y-43409250D01*
X36830965Y-43440493D01*
X36826375Y-43471435D01*
X36818775Y-43501778D01*
X36808237Y-43531230D01*
X36794862Y-43559508D01*
X36778781Y-43586338D01*
X36760147Y-43611463D01*
X36739140Y-43634640D01*
X36715963Y-43655647D01*
X36690838Y-43674281D01*
X36664008Y-43690362D01*
X36635730Y-43703737D01*
X36606278Y-43714275D01*
X36575935Y-43721875D01*
X36544993Y-43726465D01*
X36513750Y-43728000D01*
X35876250Y-43728000D01*
X35845007Y-43726465D01*
X35814065Y-43721875D01*
X35783722Y-43714275D01*
X35754270Y-43703737D01*
X35725992Y-43690362D01*
X35699162Y-43674281D01*
X35674037Y-43655647D01*
X35650860Y-43634640D01*
X35629853Y-43611463D01*
X35611219Y-43586338D01*
X35595138Y-43559508D01*
X35581763Y-43531230D01*
X35571225Y-43501778D01*
X35563625Y-43471435D01*
X35559035Y-43440493D01*
X35557500Y-43409250D01*
X35557500Y-42696750D01*
X35559035Y-42665507D01*
X35563625Y-42634565D01*
X35571225Y-42604222D01*
X35581763Y-42574770D01*
X35595138Y-42546492D01*
X35611219Y-42519662D01*
X35629853Y-42494537D01*
X35650860Y-42471360D01*
X35674037Y-42450353D01*
X35699162Y-42431719D01*
X35725992Y-42415638D01*
X35754270Y-42402263D01*
X35783722Y-42391725D01*
X35814065Y-42384125D01*
X35845007Y-42379535D01*
X35876250Y-42378000D01*
X36513750Y-42378000D01*
X36544993Y-42379535D01*
X36544993Y-42379535D01*
G37*
D11*
X36195000Y-43053000D03*
G04 #@! TD*
D10*
G04 #@! TO.C,R3*
G36*
X36544993Y-39077535D02*
X36575935Y-39082125D01*
X36606278Y-39089725D01*
X36635730Y-39100263D01*
X36664008Y-39113638D01*
X36690838Y-39129719D01*
X36715963Y-39148353D01*
X36739140Y-39169360D01*
X36760147Y-39192537D01*
X36778781Y-39217662D01*
X36794862Y-39244492D01*
X36808237Y-39272770D01*
X36818775Y-39302222D01*
X36826375Y-39332565D01*
X36830965Y-39363507D01*
X36832500Y-39394750D01*
X36832500Y-40107250D01*
X36830965Y-40138493D01*
X36826375Y-40169435D01*
X36818775Y-40199778D01*
X36808237Y-40229230D01*
X36794862Y-40257508D01*
X36778781Y-40284338D01*
X36760147Y-40309463D01*
X36739140Y-40332640D01*
X36715963Y-40353647D01*
X36690838Y-40372281D01*
X36664008Y-40388362D01*
X36635730Y-40401737D01*
X36606278Y-40412275D01*
X36575935Y-40419875D01*
X36544993Y-40424465D01*
X36513750Y-40426000D01*
X35876250Y-40426000D01*
X35845007Y-40424465D01*
X35814065Y-40419875D01*
X35783722Y-40412275D01*
X35754270Y-40401737D01*
X35725992Y-40388362D01*
X35699162Y-40372281D01*
X35674037Y-40353647D01*
X35650860Y-40332640D01*
X35629853Y-40309463D01*
X35611219Y-40284338D01*
X35595138Y-40257508D01*
X35581763Y-40229230D01*
X35571225Y-40199778D01*
X35563625Y-40169435D01*
X35559035Y-40138493D01*
X35557500Y-40107250D01*
X35557500Y-39394750D01*
X35559035Y-39363507D01*
X35563625Y-39332565D01*
X35571225Y-39302222D01*
X35581763Y-39272770D01*
X35595138Y-39244492D01*
X35611219Y-39217662D01*
X35629853Y-39192537D01*
X35650860Y-39169360D01*
X35674037Y-39148353D01*
X35699162Y-39129719D01*
X35725992Y-39113638D01*
X35754270Y-39100263D01*
X35783722Y-39089725D01*
X35814065Y-39082125D01*
X35845007Y-39077535D01*
X35876250Y-39076000D01*
X36513750Y-39076000D01*
X36544993Y-39077535D01*
X36544993Y-39077535D01*
G37*
D11*
X36195000Y-39751000D03*
D10*
G36*
X38119993Y-39077535D02*
X38150935Y-39082125D01*
X38181278Y-39089725D01*
X38210730Y-39100263D01*
X38239008Y-39113638D01*
X38265838Y-39129719D01*
X38290963Y-39148353D01*
X38314140Y-39169360D01*
X38335147Y-39192537D01*
X38353781Y-39217662D01*
X38369862Y-39244492D01*
X38383237Y-39272770D01*
X38393775Y-39302222D01*
X38401375Y-39332565D01*
X38405965Y-39363507D01*
X38407500Y-39394750D01*
X38407500Y-40107250D01*
X38405965Y-40138493D01*
X38401375Y-40169435D01*
X38393775Y-40199778D01*
X38383237Y-40229230D01*
X38369862Y-40257508D01*
X38353781Y-40284338D01*
X38335147Y-40309463D01*
X38314140Y-40332640D01*
X38290963Y-40353647D01*
X38265838Y-40372281D01*
X38239008Y-40388362D01*
X38210730Y-40401737D01*
X38181278Y-40412275D01*
X38150935Y-40419875D01*
X38119993Y-40424465D01*
X38088750Y-40426000D01*
X37451250Y-40426000D01*
X37420007Y-40424465D01*
X37389065Y-40419875D01*
X37358722Y-40412275D01*
X37329270Y-40401737D01*
X37300992Y-40388362D01*
X37274162Y-40372281D01*
X37249037Y-40353647D01*
X37225860Y-40332640D01*
X37204853Y-40309463D01*
X37186219Y-40284338D01*
X37170138Y-40257508D01*
X37156763Y-40229230D01*
X37146225Y-40199778D01*
X37138625Y-40169435D01*
X37134035Y-40138493D01*
X37132500Y-40107250D01*
X37132500Y-39394750D01*
X37134035Y-39363507D01*
X37138625Y-39332565D01*
X37146225Y-39302222D01*
X37156763Y-39272770D01*
X37170138Y-39244492D01*
X37186219Y-39217662D01*
X37204853Y-39192537D01*
X37225860Y-39169360D01*
X37249037Y-39148353D01*
X37274162Y-39129719D01*
X37300992Y-39113638D01*
X37329270Y-39100263D01*
X37358722Y-39089725D01*
X37389065Y-39082125D01*
X37420007Y-39077535D01*
X37451250Y-39076000D01*
X38088750Y-39076000D01*
X38119993Y-39077535D01*
X38119993Y-39077535D01*
G37*
D11*
X37770000Y-39751000D03*
G04 #@! TD*
D10*
G04 #@! TO.C,R4*
G36*
X38119993Y-40728535D02*
X38150935Y-40733125D01*
X38181278Y-40740725D01*
X38210730Y-40751263D01*
X38239008Y-40764638D01*
X38265838Y-40780719D01*
X38290963Y-40799353D01*
X38314140Y-40820360D01*
X38335147Y-40843537D01*
X38353781Y-40868662D01*
X38369862Y-40895492D01*
X38383237Y-40923770D01*
X38393775Y-40953222D01*
X38401375Y-40983565D01*
X38405965Y-41014507D01*
X38407500Y-41045750D01*
X38407500Y-41758250D01*
X38405965Y-41789493D01*
X38401375Y-41820435D01*
X38393775Y-41850778D01*
X38383237Y-41880230D01*
X38369862Y-41908508D01*
X38353781Y-41935338D01*
X38335147Y-41960463D01*
X38314140Y-41983640D01*
X38290963Y-42004647D01*
X38265838Y-42023281D01*
X38239008Y-42039362D01*
X38210730Y-42052737D01*
X38181278Y-42063275D01*
X38150935Y-42070875D01*
X38119993Y-42075465D01*
X38088750Y-42077000D01*
X37451250Y-42077000D01*
X37420007Y-42075465D01*
X37389065Y-42070875D01*
X37358722Y-42063275D01*
X37329270Y-42052737D01*
X37300992Y-42039362D01*
X37274162Y-42023281D01*
X37249037Y-42004647D01*
X37225860Y-41983640D01*
X37204853Y-41960463D01*
X37186219Y-41935338D01*
X37170138Y-41908508D01*
X37156763Y-41880230D01*
X37146225Y-41850778D01*
X37138625Y-41820435D01*
X37134035Y-41789493D01*
X37132500Y-41758250D01*
X37132500Y-41045750D01*
X37134035Y-41014507D01*
X37138625Y-40983565D01*
X37146225Y-40953222D01*
X37156763Y-40923770D01*
X37170138Y-40895492D01*
X37186219Y-40868662D01*
X37204853Y-40843537D01*
X37225860Y-40820360D01*
X37249037Y-40799353D01*
X37274162Y-40780719D01*
X37300992Y-40764638D01*
X37329270Y-40751263D01*
X37358722Y-40740725D01*
X37389065Y-40733125D01*
X37420007Y-40728535D01*
X37451250Y-40727000D01*
X38088750Y-40727000D01*
X38119993Y-40728535D01*
X38119993Y-40728535D01*
G37*
D11*
X37770000Y-41402000D03*
D10*
G36*
X36544993Y-40728535D02*
X36575935Y-40733125D01*
X36606278Y-40740725D01*
X36635730Y-40751263D01*
X36664008Y-40764638D01*
X36690838Y-40780719D01*
X36715963Y-40799353D01*
X36739140Y-40820360D01*
X36760147Y-40843537D01*
X36778781Y-40868662D01*
X36794862Y-40895492D01*
X36808237Y-40923770D01*
X36818775Y-40953222D01*
X36826375Y-40983565D01*
X36830965Y-41014507D01*
X36832500Y-41045750D01*
X36832500Y-41758250D01*
X36830965Y-41789493D01*
X36826375Y-41820435D01*
X36818775Y-41850778D01*
X36808237Y-41880230D01*
X36794862Y-41908508D01*
X36778781Y-41935338D01*
X36760147Y-41960463D01*
X36739140Y-41983640D01*
X36715963Y-42004647D01*
X36690838Y-42023281D01*
X36664008Y-42039362D01*
X36635730Y-42052737D01*
X36606278Y-42063275D01*
X36575935Y-42070875D01*
X36544993Y-42075465D01*
X36513750Y-42077000D01*
X35876250Y-42077000D01*
X35845007Y-42075465D01*
X35814065Y-42070875D01*
X35783722Y-42063275D01*
X35754270Y-42052737D01*
X35725992Y-42039362D01*
X35699162Y-42023281D01*
X35674037Y-42004647D01*
X35650860Y-41983640D01*
X35629853Y-41960463D01*
X35611219Y-41935338D01*
X35595138Y-41908508D01*
X35581763Y-41880230D01*
X35571225Y-41850778D01*
X35563625Y-41820435D01*
X35559035Y-41789493D01*
X35557500Y-41758250D01*
X35557500Y-41045750D01*
X35559035Y-41014507D01*
X35563625Y-40983565D01*
X35571225Y-40953222D01*
X35581763Y-40923770D01*
X35595138Y-40895492D01*
X35611219Y-40868662D01*
X35629853Y-40843537D01*
X35650860Y-40820360D01*
X35674037Y-40799353D01*
X35699162Y-40780719D01*
X35725992Y-40764638D01*
X35754270Y-40751263D01*
X35783722Y-40740725D01*
X35814065Y-40733125D01*
X35845007Y-40728535D01*
X35876250Y-40727000D01*
X36513750Y-40727000D01*
X36544993Y-40728535D01*
X36544993Y-40728535D01*
G37*
D11*
X36195000Y-41402000D03*
G04 #@! TD*
D10*
G04 #@! TO.C,R5*
G36*
X36544993Y-37426535D02*
X36575935Y-37431125D01*
X36606278Y-37438725D01*
X36635730Y-37449263D01*
X36664008Y-37462638D01*
X36690838Y-37478719D01*
X36715963Y-37497353D01*
X36739140Y-37518360D01*
X36760147Y-37541537D01*
X36778781Y-37566662D01*
X36794862Y-37593492D01*
X36808237Y-37621770D01*
X36818775Y-37651222D01*
X36826375Y-37681565D01*
X36830965Y-37712507D01*
X36832500Y-37743750D01*
X36832500Y-38456250D01*
X36830965Y-38487493D01*
X36826375Y-38518435D01*
X36818775Y-38548778D01*
X36808237Y-38578230D01*
X36794862Y-38606508D01*
X36778781Y-38633338D01*
X36760147Y-38658463D01*
X36739140Y-38681640D01*
X36715963Y-38702647D01*
X36690838Y-38721281D01*
X36664008Y-38737362D01*
X36635730Y-38750737D01*
X36606278Y-38761275D01*
X36575935Y-38768875D01*
X36544993Y-38773465D01*
X36513750Y-38775000D01*
X35876250Y-38775000D01*
X35845007Y-38773465D01*
X35814065Y-38768875D01*
X35783722Y-38761275D01*
X35754270Y-38750737D01*
X35725992Y-38737362D01*
X35699162Y-38721281D01*
X35674037Y-38702647D01*
X35650860Y-38681640D01*
X35629853Y-38658463D01*
X35611219Y-38633338D01*
X35595138Y-38606508D01*
X35581763Y-38578230D01*
X35571225Y-38548778D01*
X35563625Y-38518435D01*
X35559035Y-38487493D01*
X35557500Y-38456250D01*
X35557500Y-37743750D01*
X35559035Y-37712507D01*
X35563625Y-37681565D01*
X35571225Y-37651222D01*
X35581763Y-37621770D01*
X35595138Y-37593492D01*
X35611219Y-37566662D01*
X35629853Y-37541537D01*
X35650860Y-37518360D01*
X35674037Y-37497353D01*
X35699162Y-37478719D01*
X35725992Y-37462638D01*
X35754270Y-37449263D01*
X35783722Y-37438725D01*
X35814065Y-37431125D01*
X35845007Y-37426535D01*
X35876250Y-37425000D01*
X36513750Y-37425000D01*
X36544993Y-37426535D01*
X36544993Y-37426535D01*
G37*
D11*
X36195000Y-38100000D03*
D10*
G36*
X38119993Y-37426535D02*
X38150935Y-37431125D01*
X38181278Y-37438725D01*
X38210730Y-37449263D01*
X38239008Y-37462638D01*
X38265838Y-37478719D01*
X38290963Y-37497353D01*
X38314140Y-37518360D01*
X38335147Y-37541537D01*
X38353781Y-37566662D01*
X38369862Y-37593492D01*
X38383237Y-37621770D01*
X38393775Y-37651222D01*
X38401375Y-37681565D01*
X38405965Y-37712507D01*
X38407500Y-37743750D01*
X38407500Y-38456250D01*
X38405965Y-38487493D01*
X38401375Y-38518435D01*
X38393775Y-38548778D01*
X38383237Y-38578230D01*
X38369862Y-38606508D01*
X38353781Y-38633338D01*
X38335147Y-38658463D01*
X38314140Y-38681640D01*
X38290963Y-38702647D01*
X38265838Y-38721281D01*
X38239008Y-38737362D01*
X38210730Y-38750737D01*
X38181278Y-38761275D01*
X38150935Y-38768875D01*
X38119993Y-38773465D01*
X38088750Y-38775000D01*
X37451250Y-38775000D01*
X37420007Y-38773465D01*
X37389065Y-38768875D01*
X37358722Y-38761275D01*
X37329270Y-38750737D01*
X37300992Y-38737362D01*
X37274162Y-38721281D01*
X37249037Y-38702647D01*
X37225860Y-38681640D01*
X37204853Y-38658463D01*
X37186219Y-38633338D01*
X37170138Y-38606508D01*
X37156763Y-38578230D01*
X37146225Y-38548778D01*
X37138625Y-38518435D01*
X37134035Y-38487493D01*
X37132500Y-38456250D01*
X37132500Y-37743750D01*
X37134035Y-37712507D01*
X37138625Y-37681565D01*
X37146225Y-37651222D01*
X37156763Y-37621770D01*
X37170138Y-37593492D01*
X37186219Y-37566662D01*
X37204853Y-37541537D01*
X37225860Y-37518360D01*
X37249037Y-37497353D01*
X37274162Y-37478719D01*
X37300992Y-37462638D01*
X37329270Y-37449263D01*
X37358722Y-37438725D01*
X37389065Y-37431125D01*
X37420007Y-37426535D01*
X37451250Y-37425000D01*
X38088750Y-37425000D01*
X38119993Y-37426535D01*
X38119993Y-37426535D01*
G37*
D11*
X37770000Y-38100000D03*
G04 #@! TD*
D10*
G04 #@! TO.C,R7*
G36*
X37332493Y-26631535D02*
X37363435Y-26636125D01*
X37393778Y-26643725D01*
X37423230Y-26654263D01*
X37451508Y-26667638D01*
X37478338Y-26683719D01*
X37503463Y-26702353D01*
X37526640Y-26723360D01*
X37547647Y-26746537D01*
X37566281Y-26771662D01*
X37582362Y-26798492D01*
X37595737Y-26826770D01*
X37606275Y-26856222D01*
X37613875Y-26886565D01*
X37618465Y-26917507D01*
X37620000Y-26948750D01*
X37620000Y-27661250D01*
X37618465Y-27692493D01*
X37613875Y-27723435D01*
X37606275Y-27753778D01*
X37595737Y-27783230D01*
X37582362Y-27811508D01*
X37566281Y-27838338D01*
X37547647Y-27863463D01*
X37526640Y-27886640D01*
X37503463Y-27907647D01*
X37478338Y-27926281D01*
X37451508Y-27942362D01*
X37423230Y-27955737D01*
X37393778Y-27966275D01*
X37363435Y-27973875D01*
X37332493Y-27978465D01*
X37301250Y-27980000D01*
X36663750Y-27980000D01*
X36632507Y-27978465D01*
X36601565Y-27973875D01*
X36571222Y-27966275D01*
X36541770Y-27955737D01*
X36513492Y-27942362D01*
X36486662Y-27926281D01*
X36461537Y-27907647D01*
X36438360Y-27886640D01*
X36417353Y-27863463D01*
X36398719Y-27838338D01*
X36382638Y-27811508D01*
X36369263Y-27783230D01*
X36358725Y-27753778D01*
X36351125Y-27723435D01*
X36346535Y-27692493D01*
X36345000Y-27661250D01*
X36345000Y-26948750D01*
X36346535Y-26917507D01*
X36351125Y-26886565D01*
X36358725Y-26856222D01*
X36369263Y-26826770D01*
X36382638Y-26798492D01*
X36398719Y-26771662D01*
X36417353Y-26746537D01*
X36438360Y-26723360D01*
X36461537Y-26702353D01*
X36486662Y-26683719D01*
X36513492Y-26667638D01*
X36541770Y-26654263D01*
X36571222Y-26643725D01*
X36601565Y-26636125D01*
X36632507Y-26631535D01*
X36663750Y-26630000D01*
X37301250Y-26630000D01*
X37332493Y-26631535D01*
X37332493Y-26631535D01*
G37*
D11*
X36982500Y-27305000D03*
D10*
G36*
X35757493Y-26631535D02*
X35788435Y-26636125D01*
X35818778Y-26643725D01*
X35848230Y-26654263D01*
X35876508Y-26667638D01*
X35903338Y-26683719D01*
X35928463Y-26702353D01*
X35951640Y-26723360D01*
X35972647Y-26746537D01*
X35991281Y-26771662D01*
X36007362Y-26798492D01*
X36020737Y-26826770D01*
X36031275Y-26856222D01*
X36038875Y-26886565D01*
X36043465Y-26917507D01*
X36045000Y-26948750D01*
X36045000Y-27661250D01*
X36043465Y-27692493D01*
X36038875Y-27723435D01*
X36031275Y-27753778D01*
X36020737Y-27783230D01*
X36007362Y-27811508D01*
X35991281Y-27838338D01*
X35972647Y-27863463D01*
X35951640Y-27886640D01*
X35928463Y-27907647D01*
X35903338Y-27926281D01*
X35876508Y-27942362D01*
X35848230Y-27955737D01*
X35818778Y-27966275D01*
X35788435Y-27973875D01*
X35757493Y-27978465D01*
X35726250Y-27980000D01*
X35088750Y-27980000D01*
X35057507Y-27978465D01*
X35026565Y-27973875D01*
X34996222Y-27966275D01*
X34966770Y-27955737D01*
X34938492Y-27942362D01*
X34911662Y-27926281D01*
X34886537Y-27907647D01*
X34863360Y-27886640D01*
X34842353Y-27863463D01*
X34823719Y-27838338D01*
X34807638Y-27811508D01*
X34794263Y-27783230D01*
X34783725Y-27753778D01*
X34776125Y-27723435D01*
X34771535Y-27692493D01*
X34770000Y-27661250D01*
X34770000Y-26948750D01*
X34771535Y-26917507D01*
X34776125Y-26886565D01*
X34783725Y-26856222D01*
X34794263Y-26826770D01*
X34807638Y-26798492D01*
X34823719Y-26771662D01*
X34842353Y-26746537D01*
X34863360Y-26723360D01*
X34886537Y-26702353D01*
X34911662Y-26683719D01*
X34938492Y-26667638D01*
X34966770Y-26654263D01*
X34996222Y-26643725D01*
X35026565Y-26636125D01*
X35057507Y-26631535D01*
X35088750Y-26630000D01*
X35726250Y-26630000D01*
X35757493Y-26631535D01*
X35757493Y-26631535D01*
G37*
D11*
X35407500Y-27305000D03*
G04 #@! TD*
D10*
G04 #@! TO.C,R8*
G36*
X35757493Y-32219535D02*
X35788435Y-32224125D01*
X35818778Y-32231725D01*
X35848230Y-32242263D01*
X35876508Y-32255638D01*
X35903338Y-32271719D01*
X35928463Y-32290353D01*
X35951640Y-32311360D01*
X35972647Y-32334537D01*
X35991281Y-32359662D01*
X36007362Y-32386492D01*
X36020737Y-32414770D01*
X36031275Y-32444222D01*
X36038875Y-32474565D01*
X36043465Y-32505507D01*
X36045000Y-32536750D01*
X36045000Y-33249250D01*
X36043465Y-33280493D01*
X36038875Y-33311435D01*
X36031275Y-33341778D01*
X36020737Y-33371230D01*
X36007362Y-33399508D01*
X35991281Y-33426338D01*
X35972647Y-33451463D01*
X35951640Y-33474640D01*
X35928463Y-33495647D01*
X35903338Y-33514281D01*
X35876508Y-33530362D01*
X35848230Y-33543737D01*
X35818778Y-33554275D01*
X35788435Y-33561875D01*
X35757493Y-33566465D01*
X35726250Y-33568000D01*
X35088750Y-33568000D01*
X35057507Y-33566465D01*
X35026565Y-33561875D01*
X34996222Y-33554275D01*
X34966770Y-33543737D01*
X34938492Y-33530362D01*
X34911662Y-33514281D01*
X34886537Y-33495647D01*
X34863360Y-33474640D01*
X34842353Y-33451463D01*
X34823719Y-33426338D01*
X34807638Y-33399508D01*
X34794263Y-33371230D01*
X34783725Y-33341778D01*
X34776125Y-33311435D01*
X34771535Y-33280493D01*
X34770000Y-33249250D01*
X34770000Y-32536750D01*
X34771535Y-32505507D01*
X34776125Y-32474565D01*
X34783725Y-32444222D01*
X34794263Y-32414770D01*
X34807638Y-32386492D01*
X34823719Y-32359662D01*
X34842353Y-32334537D01*
X34863360Y-32311360D01*
X34886537Y-32290353D01*
X34911662Y-32271719D01*
X34938492Y-32255638D01*
X34966770Y-32242263D01*
X34996222Y-32231725D01*
X35026565Y-32224125D01*
X35057507Y-32219535D01*
X35088750Y-32218000D01*
X35726250Y-32218000D01*
X35757493Y-32219535D01*
X35757493Y-32219535D01*
G37*
D11*
X35407500Y-32893000D03*
D10*
G36*
X37332493Y-32219535D02*
X37363435Y-32224125D01*
X37393778Y-32231725D01*
X37423230Y-32242263D01*
X37451508Y-32255638D01*
X37478338Y-32271719D01*
X37503463Y-32290353D01*
X37526640Y-32311360D01*
X37547647Y-32334537D01*
X37566281Y-32359662D01*
X37582362Y-32386492D01*
X37595737Y-32414770D01*
X37606275Y-32444222D01*
X37613875Y-32474565D01*
X37618465Y-32505507D01*
X37620000Y-32536750D01*
X37620000Y-33249250D01*
X37618465Y-33280493D01*
X37613875Y-33311435D01*
X37606275Y-33341778D01*
X37595737Y-33371230D01*
X37582362Y-33399508D01*
X37566281Y-33426338D01*
X37547647Y-33451463D01*
X37526640Y-33474640D01*
X37503463Y-33495647D01*
X37478338Y-33514281D01*
X37451508Y-33530362D01*
X37423230Y-33543737D01*
X37393778Y-33554275D01*
X37363435Y-33561875D01*
X37332493Y-33566465D01*
X37301250Y-33568000D01*
X36663750Y-33568000D01*
X36632507Y-33566465D01*
X36601565Y-33561875D01*
X36571222Y-33554275D01*
X36541770Y-33543737D01*
X36513492Y-33530362D01*
X36486662Y-33514281D01*
X36461537Y-33495647D01*
X36438360Y-33474640D01*
X36417353Y-33451463D01*
X36398719Y-33426338D01*
X36382638Y-33399508D01*
X36369263Y-33371230D01*
X36358725Y-33341778D01*
X36351125Y-33311435D01*
X36346535Y-33280493D01*
X36345000Y-33249250D01*
X36345000Y-32536750D01*
X36346535Y-32505507D01*
X36351125Y-32474565D01*
X36358725Y-32444222D01*
X36369263Y-32414770D01*
X36382638Y-32386492D01*
X36398719Y-32359662D01*
X36417353Y-32334537D01*
X36438360Y-32311360D01*
X36461537Y-32290353D01*
X36486662Y-32271719D01*
X36513492Y-32255638D01*
X36541770Y-32242263D01*
X36571222Y-32231725D01*
X36601565Y-32224125D01*
X36632507Y-32219535D01*
X36663750Y-32218000D01*
X37301250Y-32218000D01*
X37332493Y-32219535D01*
X37332493Y-32219535D01*
G37*
D11*
X36982500Y-32893000D03*
G04 #@! TD*
D10*
G04 #@! TO.C,R9*
G36*
X37332493Y-30441535D02*
X37363435Y-30446125D01*
X37393778Y-30453725D01*
X37423230Y-30464263D01*
X37451508Y-30477638D01*
X37478338Y-30493719D01*
X37503463Y-30512353D01*
X37526640Y-30533360D01*
X37547647Y-30556537D01*
X37566281Y-30581662D01*
X37582362Y-30608492D01*
X37595737Y-30636770D01*
X37606275Y-30666222D01*
X37613875Y-30696565D01*
X37618465Y-30727507D01*
X37620000Y-30758750D01*
X37620000Y-31471250D01*
X37618465Y-31502493D01*
X37613875Y-31533435D01*
X37606275Y-31563778D01*
X37595737Y-31593230D01*
X37582362Y-31621508D01*
X37566281Y-31648338D01*
X37547647Y-31673463D01*
X37526640Y-31696640D01*
X37503463Y-31717647D01*
X37478338Y-31736281D01*
X37451508Y-31752362D01*
X37423230Y-31765737D01*
X37393778Y-31776275D01*
X37363435Y-31783875D01*
X37332493Y-31788465D01*
X37301250Y-31790000D01*
X36663750Y-31790000D01*
X36632507Y-31788465D01*
X36601565Y-31783875D01*
X36571222Y-31776275D01*
X36541770Y-31765737D01*
X36513492Y-31752362D01*
X36486662Y-31736281D01*
X36461537Y-31717647D01*
X36438360Y-31696640D01*
X36417353Y-31673463D01*
X36398719Y-31648338D01*
X36382638Y-31621508D01*
X36369263Y-31593230D01*
X36358725Y-31563778D01*
X36351125Y-31533435D01*
X36346535Y-31502493D01*
X36345000Y-31471250D01*
X36345000Y-30758750D01*
X36346535Y-30727507D01*
X36351125Y-30696565D01*
X36358725Y-30666222D01*
X36369263Y-30636770D01*
X36382638Y-30608492D01*
X36398719Y-30581662D01*
X36417353Y-30556537D01*
X36438360Y-30533360D01*
X36461537Y-30512353D01*
X36486662Y-30493719D01*
X36513492Y-30477638D01*
X36541770Y-30464263D01*
X36571222Y-30453725D01*
X36601565Y-30446125D01*
X36632507Y-30441535D01*
X36663750Y-30440000D01*
X37301250Y-30440000D01*
X37332493Y-30441535D01*
X37332493Y-30441535D01*
G37*
D11*
X36982500Y-31115000D03*
D10*
G36*
X35757493Y-30441535D02*
X35788435Y-30446125D01*
X35818778Y-30453725D01*
X35848230Y-30464263D01*
X35876508Y-30477638D01*
X35903338Y-30493719D01*
X35928463Y-30512353D01*
X35951640Y-30533360D01*
X35972647Y-30556537D01*
X35991281Y-30581662D01*
X36007362Y-30608492D01*
X36020737Y-30636770D01*
X36031275Y-30666222D01*
X36038875Y-30696565D01*
X36043465Y-30727507D01*
X36045000Y-30758750D01*
X36045000Y-31471250D01*
X36043465Y-31502493D01*
X36038875Y-31533435D01*
X36031275Y-31563778D01*
X36020737Y-31593230D01*
X36007362Y-31621508D01*
X35991281Y-31648338D01*
X35972647Y-31673463D01*
X35951640Y-31696640D01*
X35928463Y-31717647D01*
X35903338Y-31736281D01*
X35876508Y-31752362D01*
X35848230Y-31765737D01*
X35818778Y-31776275D01*
X35788435Y-31783875D01*
X35757493Y-31788465D01*
X35726250Y-31790000D01*
X35088750Y-31790000D01*
X35057507Y-31788465D01*
X35026565Y-31783875D01*
X34996222Y-31776275D01*
X34966770Y-31765737D01*
X34938492Y-31752362D01*
X34911662Y-31736281D01*
X34886537Y-31717647D01*
X34863360Y-31696640D01*
X34842353Y-31673463D01*
X34823719Y-31648338D01*
X34807638Y-31621508D01*
X34794263Y-31593230D01*
X34783725Y-31563778D01*
X34776125Y-31533435D01*
X34771535Y-31502493D01*
X34770000Y-31471250D01*
X34770000Y-30758750D01*
X34771535Y-30727507D01*
X34776125Y-30696565D01*
X34783725Y-30666222D01*
X34794263Y-30636770D01*
X34807638Y-30608492D01*
X34823719Y-30581662D01*
X34842353Y-30556537D01*
X34863360Y-30533360D01*
X34886537Y-30512353D01*
X34911662Y-30493719D01*
X34938492Y-30477638D01*
X34966770Y-30464263D01*
X34996222Y-30453725D01*
X35026565Y-30446125D01*
X35057507Y-30441535D01*
X35088750Y-30440000D01*
X35726250Y-30440000D01*
X35757493Y-30441535D01*
X35757493Y-30441535D01*
G37*
D11*
X35407500Y-31115000D03*
G04 #@! TD*
D10*
G04 #@! TO.C,R10*
G36*
X35757493Y-28536535D02*
X35788435Y-28541125D01*
X35818778Y-28548725D01*
X35848230Y-28559263D01*
X35876508Y-28572638D01*
X35903338Y-28588719D01*
X35928463Y-28607353D01*
X35951640Y-28628360D01*
X35972647Y-28651537D01*
X35991281Y-28676662D01*
X36007362Y-28703492D01*
X36020737Y-28731770D01*
X36031275Y-28761222D01*
X36038875Y-28791565D01*
X36043465Y-28822507D01*
X36045000Y-28853750D01*
X36045000Y-29566250D01*
X36043465Y-29597493D01*
X36038875Y-29628435D01*
X36031275Y-29658778D01*
X36020737Y-29688230D01*
X36007362Y-29716508D01*
X35991281Y-29743338D01*
X35972647Y-29768463D01*
X35951640Y-29791640D01*
X35928463Y-29812647D01*
X35903338Y-29831281D01*
X35876508Y-29847362D01*
X35848230Y-29860737D01*
X35818778Y-29871275D01*
X35788435Y-29878875D01*
X35757493Y-29883465D01*
X35726250Y-29885000D01*
X35088750Y-29885000D01*
X35057507Y-29883465D01*
X35026565Y-29878875D01*
X34996222Y-29871275D01*
X34966770Y-29860737D01*
X34938492Y-29847362D01*
X34911662Y-29831281D01*
X34886537Y-29812647D01*
X34863360Y-29791640D01*
X34842353Y-29768463D01*
X34823719Y-29743338D01*
X34807638Y-29716508D01*
X34794263Y-29688230D01*
X34783725Y-29658778D01*
X34776125Y-29628435D01*
X34771535Y-29597493D01*
X34770000Y-29566250D01*
X34770000Y-28853750D01*
X34771535Y-28822507D01*
X34776125Y-28791565D01*
X34783725Y-28761222D01*
X34794263Y-28731770D01*
X34807638Y-28703492D01*
X34823719Y-28676662D01*
X34842353Y-28651537D01*
X34863360Y-28628360D01*
X34886537Y-28607353D01*
X34911662Y-28588719D01*
X34938492Y-28572638D01*
X34966770Y-28559263D01*
X34996222Y-28548725D01*
X35026565Y-28541125D01*
X35057507Y-28536535D01*
X35088750Y-28535000D01*
X35726250Y-28535000D01*
X35757493Y-28536535D01*
X35757493Y-28536535D01*
G37*
D11*
X35407500Y-29210000D03*
D10*
G36*
X37332493Y-28536535D02*
X37363435Y-28541125D01*
X37393778Y-28548725D01*
X37423230Y-28559263D01*
X37451508Y-28572638D01*
X37478338Y-28588719D01*
X37503463Y-28607353D01*
X37526640Y-28628360D01*
X37547647Y-28651537D01*
X37566281Y-28676662D01*
X37582362Y-28703492D01*
X37595737Y-28731770D01*
X37606275Y-28761222D01*
X37613875Y-28791565D01*
X37618465Y-28822507D01*
X37620000Y-28853750D01*
X37620000Y-29566250D01*
X37618465Y-29597493D01*
X37613875Y-29628435D01*
X37606275Y-29658778D01*
X37595737Y-29688230D01*
X37582362Y-29716508D01*
X37566281Y-29743338D01*
X37547647Y-29768463D01*
X37526640Y-29791640D01*
X37503463Y-29812647D01*
X37478338Y-29831281D01*
X37451508Y-29847362D01*
X37423230Y-29860737D01*
X37393778Y-29871275D01*
X37363435Y-29878875D01*
X37332493Y-29883465D01*
X37301250Y-29885000D01*
X36663750Y-29885000D01*
X36632507Y-29883465D01*
X36601565Y-29878875D01*
X36571222Y-29871275D01*
X36541770Y-29860737D01*
X36513492Y-29847362D01*
X36486662Y-29831281D01*
X36461537Y-29812647D01*
X36438360Y-29791640D01*
X36417353Y-29768463D01*
X36398719Y-29743338D01*
X36382638Y-29716508D01*
X36369263Y-29688230D01*
X36358725Y-29658778D01*
X36351125Y-29628435D01*
X36346535Y-29597493D01*
X36345000Y-29566250D01*
X36345000Y-28853750D01*
X36346535Y-28822507D01*
X36351125Y-28791565D01*
X36358725Y-28761222D01*
X36369263Y-28731770D01*
X36382638Y-28703492D01*
X36398719Y-28676662D01*
X36417353Y-28651537D01*
X36438360Y-28628360D01*
X36461537Y-28607353D01*
X36486662Y-28588719D01*
X36513492Y-28572638D01*
X36541770Y-28559263D01*
X36571222Y-28548725D01*
X36601565Y-28541125D01*
X36632507Y-28536535D01*
X36663750Y-28535000D01*
X37301250Y-28535000D01*
X37332493Y-28536535D01*
X37332493Y-28536535D01*
G37*
D11*
X36982500Y-29210000D03*
G04 #@! TD*
D10*
G04 #@! TO.C,R11*
G36*
X41904493Y-32346535D02*
X41935435Y-32351125D01*
X41965778Y-32358725D01*
X41995230Y-32369263D01*
X42023508Y-32382638D01*
X42050338Y-32398719D01*
X42075463Y-32417353D01*
X42098640Y-32438360D01*
X42119647Y-32461537D01*
X42138281Y-32486662D01*
X42154362Y-32513492D01*
X42167737Y-32541770D01*
X42178275Y-32571222D01*
X42185875Y-32601565D01*
X42190465Y-32632507D01*
X42192000Y-32663750D01*
X42192000Y-33376250D01*
X42190465Y-33407493D01*
X42185875Y-33438435D01*
X42178275Y-33468778D01*
X42167737Y-33498230D01*
X42154362Y-33526508D01*
X42138281Y-33553338D01*
X42119647Y-33578463D01*
X42098640Y-33601640D01*
X42075463Y-33622647D01*
X42050338Y-33641281D01*
X42023508Y-33657362D01*
X41995230Y-33670737D01*
X41965778Y-33681275D01*
X41935435Y-33688875D01*
X41904493Y-33693465D01*
X41873250Y-33695000D01*
X41235750Y-33695000D01*
X41204507Y-33693465D01*
X41173565Y-33688875D01*
X41143222Y-33681275D01*
X41113770Y-33670737D01*
X41085492Y-33657362D01*
X41058662Y-33641281D01*
X41033537Y-33622647D01*
X41010360Y-33601640D01*
X40989353Y-33578463D01*
X40970719Y-33553338D01*
X40954638Y-33526508D01*
X40941263Y-33498230D01*
X40930725Y-33468778D01*
X40923125Y-33438435D01*
X40918535Y-33407493D01*
X40917000Y-33376250D01*
X40917000Y-32663750D01*
X40918535Y-32632507D01*
X40923125Y-32601565D01*
X40930725Y-32571222D01*
X40941263Y-32541770D01*
X40954638Y-32513492D01*
X40970719Y-32486662D01*
X40989353Y-32461537D01*
X41010360Y-32438360D01*
X41033537Y-32417353D01*
X41058662Y-32398719D01*
X41085492Y-32382638D01*
X41113770Y-32369263D01*
X41143222Y-32358725D01*
X41173565Y-32351125D01*
X41204507Y-32346535D01*
X41235750Y-32345000D01*
X41873250Y-32345000D01*
X41904493Y-32346535D01*
X41904493Y-32346535D01*
G37*
D11*
X41554500Y-33020000D03*
D10*
G36*
X40329493Y-32346535D02*
X40360435Y-32351125D01*
X40390778Y-32358725D01*
X40420230Y-32369263D01*
X40448508Y-32382638D01*
X40475338Y-32398719D01*
X40500463Y-32417353D01*
X40523640Y-32438360D01*
X40544647Y-32461537D01*
X40563281Y-32486662D01*
X40579362Y-32513492D01*
X40592737Y-32541770D01*
X40603275Y-32571222D01*
X40610875Y-32601565D01*
X40615465Y-32632507D01*
X40617000Y-32663750D01*
X40617000Y-33376250D01*
X40615465Y-33407493D01*
X40610875Y-33438435D01*
X40603275Y-33468778D01*
X40592737Y-33498230D01*
X40579362Y-33526508D01*
X40563281Y-33553338D01*
X40544647Y-33578463D01*
X40523640Y-33601640D01*
X40500463Y-33622647D01*
X40475338Y-33641281D01*
X40448508Y-33657362D01*
X40420230Y-33670737D01*
X40390778Y-33681275D01*
X40360435Y-33688875D01*
X40329493Y-33693465D01*
X40298250Y-33695000D01*
X39660750Y-33695000D01*
X39629507Y-33693465D01*
X39598565Y-33688875D01*
X39568222Y-33681275D01*
X39538770Y-33670737D01*
X39510492Y-33657362D01*
X39483662Y-33641281D01*
X39458537Y-33622647D01*
X39435360Y-33601640D01*
X39414353Y-33578463D01*
X39395719Y-33553338D01*
X39379638Y-33526508D01*
X39366263Y-33498230D01*
X39355725Y-33468778D01*
X39348125Y-33438435D01*
X39343535Y-33407493D01*
X39342000Y-33376250D01*
X39342000Y-32663750D01*
X39343535Y-32632507D01*
X39348125Y-32601565D01*
X39355725Y-32571222D01*
X39366263Y-32541770D01*
X39379638Y-32513492D01*
X39395719Y-32486662D01*
X39414353Y-32461537D01*
X39435360Y-32438360D01*
X39458537Y-32417353D01*
X39483662Y-32398719D01*
X39510492Y-32382638D01*
X39538770Y-32369263D01*
X39568222Y-32358725D01*
X39598565Y-32351125D01*
X39629507Y-32346535D01*
X39660750Y-32345000D01*
X40298250Y-32345000D01*
X40329493Y-32346535D01*
X40329493Y-32346535D01*
G37*
D11*
X39979500Y-33020000D03*
G04 #@! TD*
D10*
G04 #@! TO.C,R12*
G36*
X36519493Y-34124535D02*
X36550435Y-34129125D01*
X36580778Y-34136725D01*
X36610230Y-34147263D01*
X36638508Y-34160638D01*
X36665338Y-34176719D01*
X36690463Y-34195353D01*
X36713640Y-34216360D01*
X36734647Y-34239537D01*
X36753281Y-34264662D01*
X36769362Y-34291492D01*
X36782737Y-34319770D01*
X36793275Y-34349222D01*
X36800875Y-34379565D01*
X36805465Y-34410507D01*
X36807000Y-34441750D01*
X36807000Y-35154250D01*
X36805465Y-35185493D01*
X36800875Y-35216435D01*
X36793275Y-35246778D01*
X36782737Y-35276230D01*
X36769362Y-35304508D01*
X36753281Y-35331338D01*
X36734647Y-35356463D01*
X36713640Y-35379640D01*
X36690463Y-35400647D01*
X36665338Y-35419281D01*
X36638508Y-35435362D01*
X36610230Y-35448737D01*
X36580778Y-35459275D01*
X36550435Y-35466875D01*
X36519493Y-35471465D01*
X36488250Y-35473000D01*
X35850750Y-35473000D01*
X35819507Y-35471465D01*
X35788565Y-35466875D01*
X35758222Y-35459275D01*
X35728770Y-35448737D01*
X35700492Y-35435362D01*
X35673662Y-35419281D01*
X35648537Y-35400647D01*
X35625360Y-35379640D01*
X35604353Y-35356463D01*
X35585719Y-35331338D01*
X35569638Y-35304508D01*
X35556263Y-35276230D01*
X35545725Y-35246778D01*
X35538125Y-35216435D01*
X35533535Y-35185493D01*
X35532000Y-35154250D01*
X35532000Y-34441750D01*
X35533535Y-34410507D01*
X35538125Y-34379565D01*
X35545725Y-34349222D01*
X35556263Y-34319770D01*
X35569638Y-34291492D01*
X35585719Y-34264662D01*
X35604353Y-34239537D01*
X35625360Y-34216360D01*
X35648537Y-34195353D01*
X35673662Y-34176719D01*
X35700492Y-34160638D01*
X35728770Y-34147263D01*
X35758222Y-34136725D01*
X35788565Y-34129125D01*
X35819507Y-34124535D01*
X35850750Y-34123000D01*
X36488250Y-34123000D01*
X36519493Y-34124535D01*
X36519493Y-34124535D01*
G37*
D11*
X36169500Y-34798000D03*
D10*
G36*
X38094493Y-34124535D02*
X38125435Y-34129125D01*
X38155778Y-34136725D01*
X38185230Y-34147263D01*
X38213508Y-34160638D01*
X38240338Y-34176719D01*
X38265463Y-34195353D01*
X38288640Y-34216360D01*
X38309647Y-34239537D01*
X38328281Y-34264662D01*
X38344362Y-34291492D01*
X38357737Y-34319770D01*
X38368275Y-34349222D01*
X38375875Y-34379565D01*
X38380465Y-34410507D01*
X38382000Y-34441750D01*
X38382000Y-35154250D01*
X38380465Y-35185493D01*
X38375875Y-35216435D01*
X38368275Y-35246778D01*
X38357737Y-35276230D01*
X38344362Y-35304508D01*
X38328281Y-35331338D01*
X38309647Y-35356463D01*
X38288640Y-35379640D01*
X38265463Y-35400647D01*
X38240338Y-35419281D01*
X38213508Y-35435362D01*
X38185230Y-35448737D01*
X38155778Y-35459275D01*
X38125435Y-35466875D01*
X38094493Y-35471465D01*
X38063250Y-35473000D01*
X37425750Y-35473000D01*
X37394507Y-35471465D01*
X37363565Y-35466875D01*
X37333222Y-35459275D01*
X37303770Y-35448737D01*
X37275492Y-35435362D01*
X37248662Y-35419281D01*
X37223537Y-35400647D01*
X37200360Y-35379640D01*
X37179353Y-35356463D01*
X37160719Y-35331338D01*
X37144638Y-35304508D01*
X37131263Y-35276230D01*
X37120725Y-35246778D01*
X37113125Y-35216435D01*
X37108535Y-35185493D01*
X37107000Y-35154250D01*
X37107000Y-34441750D01*
X37108535Y-34410507D01*
X37113125Y-34379565D01*
X37120725Y-34349222D01*
X37131263Y-34319770D01*
X37144638Y-34291492D01*
X37160719Y-34264662D01*
X37179353Y-34239537D01*
X37200360Y-34216360D01*
X37223537Y-34195353D01*
X37248662Y-34176719D01*
X37275492Y-34160638D01*
X37303770Y-34147263D01*
X37333222Y-34136725D01*
X37363565Y-34129125D01*
X37394507Y-34124535D01*
X37425750Y-34123000D01*
X38063250Y-34123000D01*
X38094493Y-34124535D01*
X38094493Y-34124535D01*
G37*
D11*
X37744500Y-34798000D03*
G04 #@! TD*
D17*
G04 #@! TO.C,SW2*
X44840000Y-44645000D03*
X49140000Y-44645000D03*
X44840000Y-46795000D03*
X49140000Y-46795000D03*
G04 #@! TD*
D18*
G04 #@! TO.C,U2*
X48851000Y-42323000D03*
X48351000Y-42323000D03*
X47851000Y-42323000D03*
X47351000Y-42323000D03*
X46851000Y-42323000D03*
X46351000Y-42323000D03*
X45851000Y-42323000D03*
X45351000Y-42323000D03*
X44851000Y-42323000D03*
X44351000Y-42323000D03*
X43851000Y-42323000D03*
X43351000Y-42323000D03*
D19*
X41751000Y-40723000D03*
X41751000Y-40223000D03*
X41751000Y-39723000D03*
X41751000Y-39223000D03*
X41751000Y-38723000D03*
X41751000Y-38223000D03*
X41751000Y-37723000D03*
X41751000Y-37223000D03*
X41751000Y-36723000D03*
X41751000Y-36223000D03*
X41751000Y-35723000D03*
X41751000Y-35223000D03*
D18*
X43351000Y-33623000D03*
X43851000Y-33623000D03*
X44351000Y-33623000D03*
X44851000Y-33623000D03*
X45351000Y-33623000D03*
X45851000Y-33623000D03*
X46351000Y-33623000D03*
X46851000Y-33623000D03*
X47351000Y-33623000D03*
X47851000Y-33623000D03*
X48351000Y-33623000D03*
X48851000Y-33623000D03*
D19*
X50451000Y-35223000D03*
X50451000Y-35723000D03*
X50451000Y-36223000D03*
X50451000Y-36723000D03*
X50451000Y-37223000D03*
X50451000Y-37723000D03*
X50451000Y-38223000D03*
X50451000Y-38723000D03*
X50451000Y-39223000D03*
X50451000Y-39723000D03*
X50451000Y-40223000D03*
X50451000Y-40723000D03*
G04 #@! TD*
D10*
G04 #@! TO.C,R13*
G36*
X50171493Y-28701035D02*
X50202435Y-28705625D01*
X50232778Y-28713225D01*
X50262230Y-28723763D01*
X50290508Y-28737138D01*
X50317338Y-28753219D01*
X50342463Y-28771853D01*
X50365640Y-28792860D01*
X50386647Y-28816037D01*
X50405281Y-28841162D01*
X50421362Y-28867992D01*
X50434737Y-28896270D01*
X50445275Y-28925722D01*
X50452875Y-28956065D01*
X50457465Y-28987007D01*
X50459000Y-29018250D01*
X50459000Y-29655750D01*
X50457465Y-29686993D01*
X50452875Y-29717935D01*
X50445275Y-29748278D01*
X50434737Y-29777730D01*
X50421362Y-29806008D01*
X50405281Y-29832838D01*
X50386647Y-29857963D01*
X50365640Y-29881140D01*
X50342463Y-29902147D01*
X50317338Y-29920781D01*
X50290508Y-29936862D01*
X50262230Y-29950237D01*
X50232778Y-29960775D01*
X50202435Y-29968375D01*
X50171493Y-29972965D01*
X50140250Y-29974500D01*
X49427750Y-29974500D01*
X49396507Y-29972965D01*
X49365565Y-29968375D01*
X49335222Y-29960775D01*
X49305770Y-29950237D01*
X49277492Y-29936862D01*
X49250662Y-29920781D01*
X49225537Y-29902147D01*
X49202360Y-29881140D01*
X49181353Y-29857963D01*
X49162719Y-29832838D01*
X49146638Y-29806008D01*
X49133263Y-29777730D01*
X49122725Y-29748278D01*
X49115125Y-29717935D01*
X49110535Y-29686993D01*
X49109000Y-29655750D01*
X49109000Y-29018250D01*
X49110535Y-28987007D01*
X49115125Y-28956065D01*
X49122725Y-28925722D01*
X49133263Y-28896270D01*
X49146638Y-28867992D01*
X49162719Y-28841162D01*
X49181353Y-28816037D01*
X49202360Y-28792860D01*
X49225537Y-28771853D01*
X49250662Y-28753219D01*
X49277492Y-28737138D01*
X49305770Y-28723763D01*
X49335222Y-28713225D01*
X49365565Y-28705625D01*
X49396507Y-28701035D01*
X49427750Y-28699500D01*
X50140250Y-28699500D01*
X50171493Y-28701035D01*
X50171493Y-28701035D01*
G37*
D11*
X49784000Y-29337000D03*
D10*
G36*
X50171493Y-27126035D02*
X50202435Y-27130625D01*
X50232778Y-27138225D01*
X50262230Y-27148763D01*
X50290508Y-27162138D01*
X50317338Y-27178219D01*
X50342463Y-27196853D01*
X50365640Y-27217860D01*
X50386647Y-27241037D01*
X50405281Y-27266162D01*
X50421362Y-27292992D01*
X50434737Y-27321270D01*
X50445275Y-27350722D01*
X50452875Y-27381065D01*
X50457465Y-27412007D01*
X50459000Y-27443250D01*
X50459000Y-28080750D01*
X50457465Y-28111993D01*
X50452875Y-28142935D01*
X50445275Y-28173278D01*
X50434737Y-28202730D01*
X50421362Y-28231008D01*
X50405281Y-28257838D01*
X50386647Y-28282963D01*
X50365640Y-28306140D01*
X50342463Y-28327147D01*
X50317338Y-28345781D01*
X50290508Y-28361862D01*
X50262230Y-28375237D01*
X50232778Y-28385775D01*
X50202435Y-28393375D01*
X50171493Y-28397965D01*
X50140250Y-28399500D01*
X49427750Y-28399500D01*
X49396507Y-28397965D01*
X49365565Y-28393375D01*
X49335222Y-28385775D01*
X49305770Y-28375237D01*
X49277492Y-28361862D01*
X49250662Y-28345781D01*
X49225537Y-28327147D01*
X49202360Y-28306140D01*
X49181353Y-28282963D01*
X49162719Y-28257838D01*
X49146638Y-28231008D01*
X49133263Y-28202730D01*
X49122725Y-28173278D01*
X49115125Y-28142935D01*
X49110535Y-28111993D01*
X49109000Y-28080750D01*
X49109000Y-27443250D01*
X49110535Y-27412007D01*
X49115125Y-27381065D01*
X49122725Y-27350722D01*
X49133263Y-27321270D01*
X49146638Y-27292992D01*
X49162719Y-27266162D01*
X49181353Y-27241037D01*
X49202360Y-27217860D01*
X49225537Y-27196853D01*
X49250662Y-27178219D01*
X49277492Y-27162138D01*
X49305770Y-27148763D01*
X49335222Y-27138225D01*
X49365565Y-27130625D01*
X49396507Y-27126035D01*
X49427750Y-27124500D01*
X50140250Y-27124500D01*
X50171493Y-27126035D01*
X50171493Y-27126035D01*
G37*
D11*
X49784000Y-27762000D03*
G04 #@! TD*
D10*
G04 #@! TO.C,R14*
G36*
X51822493Y-28701035D02*
X51853435Y-28705625D01*
X51883778Y-28713225D01*
X51913230Y-28723763D01*
X51941508Y-28737138D01*
X51968338Y-28753219D01*
X51993463Y-28771853D01*
X52016640Y-28792860D01*
X52037647Y-28816037D01*
X52056281Y-28841162D01*
X52072362Y-28867992D01*
X52085737Y-28896270D01*
X52096275Y-28925722D01*
X52103875Y-28956065D01*
X52108465Y-28987007D01*
X52110000Y-29018250D01*
X52110000Y-29655750D01*
X52108465Y-29686993D01*
X52103875Y-29717935D01*
X52096275Y-29748278D01*
X52085737Y-29777730D01*
X52072362Y-29806008D01*
X52056281Y-29832838D01*
X52037647Y-29857963D01*
X52016640Y-29881140D01*
X51993463Y-29902147D01*
X51968338Y-29920781D01*
X51941508Y-29936862D01*
X51913230Y-29950237D01*
X51883778Y-29960775D01*
X51853435Y-29968375D01*
X51822493Y-29972965D01*
X51791250Y-29974500D01*
X51078750Y-29974500D01*
X51047507Y-29972965D01*
X51016565Y-29968375D01*
X50986222Y-29960775D01*
X50956770Y-29950237D01*
X50928492Y-29936862D01*
X50901662Y-29920781D01*
X50876537Y-29902147D01*
X50853360Y-29881140D01*
X50832353Y-29857963D01*
X50813719Y-29832838D01*
X50797638Y-29806008D01*
X50784263Y-29777730D01*
X50773725Y-29748278D01*
X50766125Y-29717935D01*
X50761535Y-29686993D01*
X50760000Y-29655750D01*
X50760000Y-29018250D01*
X50761535Y-28987007D01*
X50766125Y-28956065D01*
X50773725Y-28925722D01*
X50784263Y-28896270D01*
X50797638Y-28867992D01*
X50813719Y-28841162D01*
X50832353Y-28816037D01*
X50853360Y-28792860D01*
X50876537Y-28771853D01*
X50901662Y-28753219D01*
X50928492Y-28737138D01*
X50956770Y-28723763D01*
X50986222Y-28713225D01*
X51016565Y-28705625D01*
X51047507Y-28701035D01*
X51078750Y-28699500D01*
X51791250Y-28699500D01*
X51822493Y-28701035D01*
X51822493Y-28701035D01*
G37*
D11*
X51435000Y-29337000D03*
D10*
G36*
X51822493Y-27126035D02*
X51853435Y-27130625D01*
X51883778Y-27138225D01*
X51913230Y-27148763D01*
X51941508Y-27162138D01*
X51968338Y-27178219D01*
X51993463Y-27196853D01*
X52016640Y-27217860D01*
X52037647Y-27241037D01*
X52056281Y-27266162D01*
X52072362Y-27292992D01*
X52085737Y-27321270D01*
X52096275Y-27350722D01*
X52103875Y-27381065D01*
X52108465Y-27412007D01*
X52110000Y-27443250D01*
X52110000Y-28080750D01*
X52108465Y-28111993D01*
X52103875Y-28142935D01*
X52096275Y-28173278D01*
X52085737Y-28202730D01*
X52072362Y-28231008D01*
X52056281Y-28257838D01*
X52037647Y-28282963D01*
X52016640Y-28306140D01*
X51993463Y-28327147D01*
X51968338Y-28345781D01*
X51941508Y-28361862D01*
X51913230Y-28375237D01*
X51883778Y-28385775D01*
X51853435Y-28393375D01*
X51822493Y-28397965D01*
X51791250Y-28399500D01*
X51078750Y-28399500D01*
X51047507Y-28397965D01*
X51016565Y-28393375D01*
X50986222Y-28385775D01*
X50956770Y-28375237D01*
X50928492Y-28361862D01*
X50901662Y-28345781D01*
X50876537Y-28327147D01*
X50853360Y-28306140D01*
X50832353Y-28282963D01*
X50813719Y-28257838D01*
X50797638Y-28231008D01*
X50784263Y-28202730D01*
X50773725Y-28173278D01*
X50766125Y-28142935D01*
X50761535Y-28111993D01*
X50760000Y-28080750D01*
X50760000Y-27443250D01*
X50761535Y-27412007D01*
X50766125Y-27381065D01*
X50773725Y-27350722D01*
X50784263Y-27321270D01*
X50797638Y-27292992D01*
X50813719Y-27266162D01*
X50832353Y-27241037D01*
X50853360Y-27217860D01*
X50876537Y-27196853D01*
X50901662Y-27178219D01*
X50928492Y-27162138D01*
X50956770Y-27148763D01*
X50986222Y-27138225D01*
X51016565Y-27130625D01*
X51047507Y-27126035D01*
X51078750Y-27124500D01*
X51791250Y-27124500D01*
X51822493Y-27126035D01*
X51822493Y-27126035D01*
G37*
D11*
X51435000Y-27762000D03*
G04 #@! TD*
D20*
G04 #@! TO.C,J2*
X50800000Y-46736000D03*
X50800000Y-44704000D03*
X43180000Y-45720000D03*
G04 #@! TD*
D10*
G04 #@! TO.C,C5*
G36*
X53473493Y-28726535D02*
X53504435Y-28731125D01*
X53534778Y-28738725D01*
X53564230Y-28749263D01*
X53592508Y-28762638D01*
X53619338Y-28778719D01*
X53644463Y-28797353D01*
X53667640Y-28818360D01*
X53688647Y-28841537D01*
X53707281Y-28866662D01*
X53723362Y-28893492D01*
X53736737Y-28921770D01*
X53747275Y-28951222D01*
X53754875Y-28981565D01*
X53759465Y-29012507D01*
X53761000Y-29043750D01*
X53761000Y-29681250D01*
X53759465Y-29712493D01*
X53754875Y-29743435D01*
X53747275Y-29773778D01*
X53736737Y-29803230D01*
X53723362Y-29831508D01*
X53707281Y-29858338D01*
X53688647Y-29883463D01*
X53667640Y-29906640D01*
X53644463Y-29927647D01*
X53619338Y-29946281D01*
X53592508Y-29962362D01*
X53564230Y-29975737D01*
X53534778Y-29986275D01*
X53504435Y-29993875D01*
X53473493Y-29998465D01*
X53442250Y-30000000D01*
X52729750Y-30000000D01*
X52698507Y-29998465D01*
X52667565Y-29993875D01*
X52637222Y-29986275D01*
X52607770Y-29975737D01*
X52579492Y-29962362D01*
X52552662Y-29946281D01*
X52527537Y-29927647D01*
X52504360Y-29906640D01*
X52483353Y-29883463D01*
X52464719Y-29858338D01*
X52448638Y-29831508D01*
X52435263Y-29803230D01*
X52424725Y-29773778D01*
X52417125Y-29743435D01*
X52412535Y-29712493D01*
X52411000Y-29681250D01*
X52411000Y-29043750D01*
X52412535Y-29012507D01*
X52417125Y-28981565D01*
X52424725Y-28951222D01*
X52435263Y-28921770D01*
X52448638Y-28893492D01*
X52464719Y-28866662D01*
X52483353Y-28841537D01*
X52504360Y-28818360D01*
X52527537Y-28797353D01*
X52552662Y-28778719D01*
X52579492Y-28762638D01*
X52607770Y-28749263D01*
X52637222Y-28738725D01*
X52667565Y-28731125D01*
X52698507Y-28726535D01*
X52729750Y-28725000D01*
X53442250Y-28725000D01*
X53473493Y-28726535D01*
X53473493Y-28726535D01*
G37*
D11*
X53086000Y-29362500D03*
D10*
G36*
X53473493Y-27151535D02*
X53504435Y-27156125D01*
X53534778Y-27163725D01*
X53564230Y-27174263D01*
X53592508Y-27187638D01*
X53619338Y-27203719D01*
X53644463Y-27222353D01*
X53667640Y-27243360D01*
X53688647Y-27266537D01*
X53707281Y-27291662D01*
X53723362Y-27318492D01*
X53736737Y-27346770D01*
X53747275Y-27376222D01*
X53754875Y-27406565D01*
X53759465Y-27437507D01*
X53761000Y-27468750D01*
X53761000Y-28106250D01*
X53759465Y-28137493D01*
X53754875Y-28168435D01*
X53747275Y-28198778D01*
X53736737Y-28228230D01*
X53723362Y-28256508D01*
X53707281Y-28283338D01*
X53688647Y-28308463D01*
X53667640Y-28331640D01*
X53644463Y-28352647D01*
X53619338Y-28371281D01*
X53592508Y-28387362D01*
X53564230Y-28400737D01*
X53534778Y-28411275D01*
X53504435Y-28418875D01*
X53473493Y-28423465D01*
X53442250Y-28425000D01*
X52729750Y-28425000D01*
X52698507Y-28423465D01*
X52667565Y-28418875D01*
X52637222Y-28411275D01*
X52607770Y-28400737D01*
X52579492Y-28387362D01*
X52552662Y-28371281D01*
X52527537Y-28352647D01*
X52504360Y-28331640D01*
X52483353Y-28308463D01*
X52464719Y-28283338D01*
X52448638Y-28256508D01*
X52435263Y-28228230D01*
X52424725Y-28198778D01*
X52417125Y-28168435D01*
X52412535Y-28137493D01*
X52411000Y-28106250D01*
X52411000Y-27468750D01*
X52412535Y-27437507D01*
X52417125Y-27406565D01*
X52424725Y-27376222D01*
X52435263Y-27346770D01*
X52448638Y-27318492D01*
X52464719Y-27291662D01*
X52483353Y-27266537D01*
X52504360Y-27243360D01*
X52527537Y-27222353D01*
X52552662Y-27203719D01*
X52579492Y-27187638D01*
X52607770Y-27174263D01*
X52637222Y-27163725D01*
X52667565Y-27156125D01*
X52698507Y-27151535D01*
X52729750Y-27150000D01*
X53442250Y-27150000D01*
X53473493Y-27151535D01*
X53473493Y-27151535D01*
G37*
D11*
X53086000Y-27787500D03*
G04 #@! TD*
D10*
G04 #@! TO.C,R15*
G36*
X53410493Y-45681535D02*
X53441435Y-45686125D01*
X53471778Y-45693725D01*
X53501230Y-45704263D01*
X53529508Y-45717638D01*
X53556338Y-45733719D01*
X53581463Y-45752353D01*
X53604640Y-45773360D01*
X53625647Y-45796537D01*
X53644281Y-45821662D01*
X53660362Y-45848492D01*
X53673737Y-45876770D01*
X53684275Y-45906222D01*
X53691875Y-45936565D01*
X53696465Y-45967507D01*
X53698000Y-45998750D01*
X53698000Y-46711250D01*
X53696465Y-46742493D01*
X53691875Y-46773435D01*
X53684275Y-46803778D01*
X53673737Y-46833230D01*
X53660362Y-46861508D01*
X53644281Y-46888338D01*
X53625647Y-46913463D01*
X53604640Y-46936640D01*
X53581463Y-46957647D01*
X53556338Y-46976281D01*
X53529508Y-46992362D01*
X53501230Y-47005737D01*
X53471778Y-47016275D01*
X53441435Y-47023875D01*
X53410493Y-47028465D01*
X53379250Y-47030000D01*
X52741750Y-47030000D01*
X52710507Y-47028465D01*
X52679565Y-47023875D01*
X52649222Y-47016275D01*
X52619770Y-47005737D01*
X52591492Y-46992362D01*
X52564662Y-46976281D01*
X52539537Y-46957647D01*
X52516360Y-46936640D01*
X52495353Y-46913463D01*
X52476719Y-46888338D01*
X52460638Y-46861508D01*
X52447263Y-46833230D01*
X52436725Y-46803778D01*
X52429125Y-46773435D01*
X52424535Y-46742493D01*
X52423000Y-46711250D01*
X52423000Y-45998750D01*
X52424535Y-45967507D01*
X52429125Y-45936565D01*
X52436725Y-45906222D01*
X52447263Y-45876770D01*
X52460638Y-45848492D01*
X52476719Y-45821662D01*
X52495353Y-45796537D01*
X52516360Y-45773360D01*
X52539537Y-45752353D01*
X52564662Y-45733719D01*
X52591492Y-45717638D01*
X52619770Y-45704263D01*
X52649222Y-45693725D01*
X52679565Y-45686125D01*
X52710507Y-45681535D01*
X52741750Y-45680000D01*
X53379250Y-45680000D01*
X53410493Y-45681535D01*
X53410493Y-45681535D01*
G37*
D11*
X53060500Y-46355000D03*
D10*
G36*
X54985493Y-45681535D02*
X55016435Y-45686125D01*
X55046778Y-45693725D01*
X55076230Y-45704263D01*
X55104508Y-45717638D01*
X55131338Y-45733719D01*
X55156463Y-45752353D01*
X55179640Y-45773360D01*
X55200647Y-45796537D01*
X55219281Y-45821662D01*
X55235362Y-45848492D01*
X55248737Y-45876770D01*
X55259275Y-45906222D01*
X55266875Y-45936565D01*
X55271465Y-45967507D01*
X55273000Y-45998750D01*
X55273000Y-46711250D01*
X55271465Y-46742493D01*
X55266875Y-46773435D01*
X55259275Y-46803778D01*
X55248737Y-46833230D01*
X55235362Y-46861508D01*
X55219281Y-46888338D01*
X55200647Y-46913463D01*
X55179640Y-46936640D01*
X55156463Y-46957647D01*
X55131338Y-46976281D01*
X55104508Y-46992362D01*
X55076230Y-47005737D01*
X55046778Y-47016275D01*
X55016435Y-47023875D01*
X54985493Y-47028465D01*
X54954250Y-47030000D01*
X54316750Y-47030000D01*
X54285507Y-47028465D01*
X54254565Y-47023875D01*
X54224222Y-47016275D01*
X54194770Y-47005737D01*
X54166492Y-46992362D01*
X54139662Y-46976281D01*
X54114537Y-46957647D01*
X54091360Y-46936640D01*
X54070353Y-46913463D01*
X54051719Y-46888338D01*
X54035638Y-46861508D01*
X54022263Y-46833230D01*
X54011725Y-46803778D01*
X54004125Y-46773435D01*
X53999535Y-46742493D01*
X53998000Y-46711250D01*
X53998000Y-45998750D01*
X53999535Y-45967507D01*
X54004125Y-45936565D01*
X54011725Y-45906222D01*
X54022263Y-45876770D01*
X54035638Y-45848492D01*
X54051719Y-45821662D01*
X54070353Y-45796537D01*
X54091360Y-45773360D01*
X54114537Y-45752353D01*
X54139662Y-45733719D01*
X54166492Y-45717638D01*
X54194770Y-45704263D01*
X54224222Y-45693725D01*
X54254565Y-45686125D01*
X54285507Y-45681535D01*
X54316750Y-45680000D01*
X54954250Y-45680000D01*
X54985493Y-45681535D01*
X54985493Y-45681535D01*
G37*
D11*
X54635500Y-46355000D03*
G04 #@! TD*
D21*
G04 #@! TO.C,J3*
X68580000Y-40640000D03*
D22*
X66040000Y-40640000D03*
X68580000Y-38100000D03*
X66040000Y-38100000D03*
X68580000Y-35560000D03*
X66040000Y-35560000D03*
X68580000Y-33020000D03*
X66040000Y-33020000D03*
X68580000Y-30480000D03*
X66040000Y-30480000D03*
G04 #@! TD*
D21*
G04 #@! TO.C,J4*
X35560000Y-46355000D03*
D22*
X38100000Y-46355000D03*
X40640000Y-46355000D03*
G04 #@! TD*
D21*
G04 #@! TO.C,J5*
X68580000Y-46355000D03*
D22*
X66040000Y-46355000D03*
X63500000Y-46355000D03*
X60960000Y-46355000D03*
G04 #@! TD*
D23*
G04 #@! TO.C,Q1*
X45863000Y-27244000D03*
X45863000Y-29144000D03*
X47863000Y-28194000D03*
G04 #@! TD*
D10*
G04 #@! TO.C,C6*
G36*
X41904493Y-42379535D02*
X41935435Y-42384125D01*
X41965778Y-42391725D01*
X41995230Y-42402263D01*
X42023508Y-42415638D01*
X42050338Y-42431719D01*
X42075463Y-42450353D01*
X42098640Y-42471360D01*
X42119647Y-42494537D01*
X42138281Y-42519662D01*
X42154362Y-42546492D01*
X42167737Y-42574770D01*
X42178275Y-42604222D01*
X42185875Y-42634565D01*
X42190465Y-42665507D01*
X42192000Y-42696750D01*
X42192000Y-43409250D01*
X42190465Y-43440493D01*
X42185875Y-43471435D01*
X42178275Y-43501778D01*
X42167737Y-43531230D01*
X42154362Y-43559508D01*
X42138281Y-43586338D01*
X42119647Y-43611463D01*
X42098640Y-43634640D01*
X42075463Y-43655647D01*
X42050338Y-43674281D01*
X42023508Y-43690362D01*
X41995230Y-43703737D01*
X41965778Y-43714275D01*
X41935435Y-43721875D01*
X41904493Y-43726465D01*
X41873250Y-43728000D01*
X41235750Y-43728000D01*
X41204507Y-43726465D01*
X41173565Y-43721875D01*
X41143222Y-43714275D01*
X41113770Y-43703737D01*
X41085492Y-43690362D01*
X41058662Y-43674281D01*
X41033537Y-43655647D01*
X41010360Y-43634640D01*
X40989353Y-43611463D01*
X40970719Y-43586338D01*
X40954638Y-43559508D01*
X40941263Y-43531230D01*
X40930725Y-43501778D01*
X40923125Y-43471435D01*
X40918535Y-43440493D01*
X40917000Y-43409250D01*
X40917000Y-42696750D01*
X40918535Y-42665507D01*
X40923125Y-42634565D01*
X40930725Y-42604222D01*
X40941263Y-42574770D01*
X40954638Y-42546492D01*
X40970719Y-42519662D01*
X40989353Y-42494537D01*
X41010360Y-42471360D01*
X41033537Y-42450353D01*
X41058662Y-42431719D01*
X41085492Y-42415638D01*
X41113770Y-42402263D01*
X41143222Y-42391725D01*
X41173565Y-42384125D01*
X41204507Y-42379535D01*
X41235750Y-42378000D01*
X41873250Y-42378000D01*
X41904493Y-42379535D01*
X41904493Y-42379535D01*
G37*
D11*
X41554500Y-43053000D03*
D10*
G36*
X40329493Y-42379535D02*
X40360435Y-42384125D01*
X40390778Y-42391725D01*
X40420230Y-42402263D01*
X40448508Y-42415638D01*
X40475338Y-42431719D01*
X40500463Y-42450353D01*
X40523640Y-42471360D01*
X40544647Y-42494537D01*
X40563281Y-42519662D01*
X40579362Y-42546492D01*
X40592737Y-42574770D01*
X40603275Y-42604222D01*
X40610875Y-42634565D01*
X40615465Y-42665507D01*
X40617000Y-42696750D01*
X40617000Y-43409250D01*
X40615465Y-43440493D01*
X40610875Y-43471435D01*
X40603275Y-43501778D01*
X40592737Y-43531230D01*
X40579362Y-43559508D01*
X40563281Y-43586338D01*
X40544647Y-43611463D01*
X40523640Y-43634640D01*
X40500463Y-43655647D01*
X40475338Y-43674281D01*
X40448508Y-43690362D01*
X40420230Y-43703737D01*
X40390778Y-43714275D01*
X40360435Y-43721875D01*
X40329493Y-43726465D01*
X40298250Y-43728000D01*
X39660750Y-43728000D01*
X39629507Y-43726465D01*
X39598565Y-43721875D01*
X39568222Y-43714275D01*
X39538770Y-43703737D01*
X39510492Y-43690362D01*
X39483662Y-43674281D01*
X39458537Y-43655647D01*
X39435360Y-43634640D01*
X39414353Y-43611463D01*
X39395719Y-43586338D01*
X39379638Y-43559508D01*
X39366263Y-43531230D01*
X39355725Y-43501778D01*
X39348125Y-43471435D01*
X39343535Y-43440493D01*
X39342000Y-43409250D01*
X39342000Y-42696750D01*
X39343535Y-42665507D01*
X39348125Y-42634565D01*
X39355725Y-42604222D01*
X39366263Y-42574770D01*
X39379638Y-42546492D01*
X39395719Y-42519662D01*
X39414353Y-42494537D01*
X39435360Y-42471360D01*
X39458537Y-42450353D01*
X39483662Y-42431719D01*
X39510492Y-42415638D01*
X39538770Y-42402263D01*
X39568222Y-42391725D01*
X39598565Y-42384125D01*
X39629507Y-42379535D01*
X39660750Y-42378000D01*
X40298250Y-42378000D01*
X40329493Y-42379535D01*
X40329493Y-42379535D01*
G37*
D11*
X39979500Y-43053000D03*
G04 #@! TD*
D10*
G04 #@! TO.C,C7*
G36*
X54985493Y-43776535D02*
X55016435Y-43781125D01*
X55046778Y-43788725D01*
X55076230Y-43799263D01*
X55104508Y-43812638D01*
X55131338Y-43828719D01*
X55156463Y-43847353D01*
X55179640Y-43868360D01*
X55200647Y-43891537D01*
X55219281Y-43916662D01*
X55235362Y-43943492D01*
X55248737Y-43971770D01*
X55259275Y-44001222D01*
X55266875Y-44031565D01*
X55271465Y-44062507D01*
X55273000Y-44093750D01*
X55273000Y-44806250D01*
X55271465Y-44837493D01*
X55266875Y-44868435D01*
X55259275Y-44898778D01*
X55248737Y-44928230D01*
X55235362Y-44956508D01*
X55219281Y-44983338D01*
X55200647Y-45008463D01*
X55179640Y-45031640D01*
X55156463Y-45052647D01*
X55131338Y-45071281D01*
X55104508Y-45087362D01*
X55076230Y-45100737D01*
X55046778Y-45111275D01*
X55016435Y-45118875D01*
X54985493Y-45123465D01*
X54954250Y-45125000D01*
X54316750Y-45125000D01*
X54285507Y-45123465D01*
X54254565Y-45118875D01*
X54224222Y-45111275D01*
X54194770Y-45100737D01*
X54166492Y-45087362D01*
X54139662Y-45071281D01*
X54114537Y-45052647D01*
X54091360Y-45031640D01*
X54070353Y-45008463D01*
X54051719Y-44983338D01*
X54035638Y-44956508D01*
X54022263Y-44928230D01*
X54011725Y-44898778D01*
X54004125Y-44868435D01*
X53999535Y-44837493D01*
X53998000Y-44806250D01*
X53998000Y-44093750D01*
X53999535Y-44062507D01*
X54004125Y-44031565D01*
X54011725Y-44001222D01*
X54022263Y-43971770D01*
X54035638Y-43943492D01*
X54051719Y-43916662D01*
X54070353Y-43891537D01*
X54091360Y-43868360D01*
X54114537Y-43847353D01*
X54139662Y-43828719D01*
X54166492Y-43812638D01*
X54194770Y-43799263D01*
X54224222Y-43788725D01*
X54254565Y-43781125D01*
X54285507Y-43776535D01*
X54316750Y-43775000D01*
X54954250Y-43775000D01*
X54985493Y-43776535D01*
X54985493Y-43776535D01*
G37*
D11*
X54635500Y-44450000D03*
D10*
G36*
X53410493Y-43776535D02*
X53441435Y-43781125D01*
X53471778Y-43788725D01*
X53501230Y-43799263D01*
X53529508Y-43812638D01*
X53556338Y-43828719D01*
X53581463Y-43847353D01*
X53604640Y-43868360D01*
X53625647Y-43891537D01*
X53644281Y-43916662D01*
X53660362Y-43943492D01*
X53673737Y-43971770D01*
X53684275Y-44001222D01*
X53691875Y-44031565D01*
X53696465Y-44062507D01*
X53698000Y-44093750D01*
X53698000Y-44806250D01*
X53696465Y-44837493D01*
X53691875Y-44868435D01*
X53684275Y-44898778D01*
X53673737Y-44928230D01*
X53660362Y-44956508D01*
X53644281Y-44983338D01*
X53625647Y-45008463D01*
X53604640Y-45031640D01*
X53581463Y-45052647D01*
X53556338Y-45071281D01*
X53529508Y-45087362D01*
X53501230Y-45100737D01*
X53471778Y-45111275D01*
X53441435Y-45118875D01*
X53410493Y-45123465D01*
X53379250Y-45125000D01*
X52741750Y-45125000D01*
X52710507Y-45123465D01*
X52679565Y-45118875D01*
X52649222Y-45111275D01*
X52619770Y-45100737D01*
X52591492Y-45087362D01*
X52564662Y-45071281D01*
X52539537Y-45052647D01*
X52516360Y-45031640D01*
X52495353Y-45008463D01*
X52476719Y-44983338D01*
X52460638Y-44956508D01*
X52447263Y-44928230D01*
X52436725Y-44898778D01*
X52429125Y-44868435D01*
X52424535Y-44837493D01*
X52423000Y-44806250D01*
X52423000Y-44093750D01*
X52424535Y-44062507D01*
X52429125Y-44031565D01*
X52436725Y-44001222D01*
X52447263Y-43971770D01*
X52460638Y-43943492D01*
X52476719Y-43916662D01*
X52495353Y-43891537D01*
X52516360Y-43868360D01*
X52539537Y-43847353D01*
X52564662Y-43828719D01*
X52591492Y-43812638D01*
X52619770Y-43799263D01*
X52649222Y-43788725D01*
X52679565Y-43781125D01*
X52710507Y-43776535D01*
X52741750Y-43775000D01*
X53379250Y-43775000D01*
X53410493Y-43776535D01*
X53410493Y-43776535D01*
G37*
D11*
X53060500Y-44450000D03*
G04 #@! TD*
D10*
G04 #@! TO.C,C8*
G36*
X55124493Y-27126035D02*
X55155435Y-27130625D01*
X55185778Y-27138225D01*
X55215230Y-27148763D01*
X55243508Y-27162138D01*
X55270338Y-27178219D01*
X55295463Y-27196853D01*
X55318640Y-27217860D01*
X55339647Y-27241037D01*
X55358281Y-27266162D01*
X55374362Y-27292992D01*
X55387737Y-27321270D01*
X55398275Y-27350722D01*
X55405875Y-27381065D01*
X55410465Y-27412007D01*
X55412000Y-27443250D01*
X55412000Y-28080750D01*
X55410465Y-28111993D01*
X55405875Y-28142935D01*
X55398275Y-28173278D01*
X55387737Y-28202730D01*
X55374362Y-28231008D01*
X55358281Y-28257838D01*
X55339647Y-28282963D01*
X55318640Y-28306140D01*
X55295463Y-28327147D01*
X55270338Y-28345781D01*
X55243508Y-28361862D01*
X55215230Y-28375237D01*
X55185778Y-28385775D01*
X55155435Y-28393375D01*
X55124493Y-28397965D01*
X55093250Y-28399500D01*
X54380750Y-28399500D01*
X54349507Y-28397965D01*
X54318565Y-28393375D01*
X54288222Y-28385775D01*
X54258770Y-28375237D01*
X54230492Y-28361862D01*
X54203662Y-28345781D01*
X54178537Y-28327147D01*
X54155360Y-28306140D01*
X54134353Y-28282963D01*
X54115719Y-28257838D01*
X54099638Y-28231008D01*
X54086263Y-28202730D01*
X54075725Y-28173278D01*
X54068125Y-28142935D01*
X54063535Y-28111993D01*
X54062000Y-28080750D01*
X54062000Y-27443250D01*
X54063535Y-27412007D01*
X54068125Y-27381065D01*
X54075725Y-27350722D01*
X54086263Y-27321270D01*
X54099638Y-27292992D01*
X54115719Y-27266162D01*
X54134353Y-27241037D01*
X54155360Y-27217860D01*
X54178537Y-27196853D01*
X54203662Y-27178219D01*
X54230492Y-27162138D01*
X54258770Y-27148763D01*
X54288222Y-27138225D01*
X54318565Y-27130625D01*
X54349507Y-27126035D01*
X54380750Y-27124500D01*
X55093250Y-27124500D01*
X55124493Y-27126035D01*
X55124493Y-27126035D01*
G37*
D11*
X54737000Y-27762000D03*
D10*
G36*
X55124493Y-28701035D02*
X55155435Y-28705625D01*
X55185778Y-28713225D01*
X55215230Y-28723763D01*
X55243508Y-28737138D01*
X55270338Y-28753219D01*
X55295463Y-28771853D01*
X55318640Y-28792860D01*
X55339647Y-28816037D01*
X55358281Y-28841162D01*
X55374362Y-28867992D01*
X55387737Y-28896270D01*
X55398275Y-28925722D01*
X55405875Y-28956065D01*
X55410465Y-28987007D01*
X55412000Y-29018250D01*
X55412000Y-29655750D01*
X55410465Y-29686993D01*
X55405875Y-29717935D01*
X55398275Y-29748278D01*
X55387737Y-29777730D01*
X55374362Y-29806008D01*
X55358281Y-29832838D01*
X55339647Y-29857963D01*
X55318640Y-29881140D01*
X55295463Y-29902147D01*
X55270338Y-29920781D01*
X55243508Y-29936862D01*
X55215230Y-29950237D01*
X55185778Y-29960775D01*
X55155435Y-29968375D01*
X55124493Y-29972965D01*
X55093250Y-29974500D01*
X54380750Y-29974500D01*
X54349507Y-29972965D01*
X54318565Y-29968375D01*
X54288222Y-29960775D01*
X54258770Y-29950237D01*
X54230492Y-29936862D01*
X54203662Y-29920781D01*
X54178537Y-29902147D01*
X54155360Y-29881140D01*
X54134353Y-29857963D01*
X54115719Y-29832838D01*
X54099638Y-29806008D01*
X54086263Y-29777730D01*
X54075725Y-29748278D01*
X54068125Y-29717935D01*
X54063535Y-29686993D01*
X54062000Y-29655750D01*
X54062000Y-29018250D01*
X54063535Y-28987007D01*
X54068125Y-28956065D01*
X54075725Y-28925722D01*
X54086263Y-28896270D01*
X54099638Y-28867992D01*
X54115719Y-28841162D01*
X54134353Y-28816037D01*
X54155360Y-28792860D01*
X54178537Y-28771853D01*
X54203662Y-28753219D01*
X54230492Y-28737138D01*
X54258770Y-28723763D01*
X54288222Y-28713225D01*
X54318565Y-28705625D01*
X54349507Y-28701035D01*
X54380750Y-28699500D01*
X55093250Y-28699500D01*
X55124493Y-28701035D01*
X55124493Y-28701035D01*
G37*
D11*
X54737000Y-29337000D03*
G04 #@! TD*
D10*
G04 #@! TO.C,R16*
G36*
X56775493Y-28701035D02*
X56806435Y-28705625D01*
X56836778Y-28713225D01*
X56866230Y-28723763D01*
X56894508Y-28737138D01*
X56921338Y-28753219D01*
X56946463Y-28771853D01*
X56969640Y-28792860D01*
X56990647Y-28816037D01*
X57009281Y-28841162D01*
X57025362Y-28867992D01*
X57038737Y-28896270D01*
X57049275Y-28925722D01*
X57056875Y-28956065D01*
X57061465Y-28987007D01*
X57063000Y-29018250D01*
X57063000Y-29655750D01*
X57061465Y-29686993D01*
X57056875Y-29717935D01*
X57049275Y-29748278D01*
X57038737Y-29777730D01*
X57025362Y-29806008D01*
X57009281Y-29832838D01*
X56990647Y-29857963D01*
X56969640Y-29881140D01*
X56946463Y-29902147D01*
X56921338Y-29920781D01*
X56894508Y-29936862D01*
X56866230Y-29950237D01*
X56836778Y-29960775D01*
X56806435Y-29968375D01*
X56775493Y-29972965D01*
X56744250Y-29974500D01*
X56031750Y-29974500D01*
X56000507Y-29972965D01*
X55969565Y-29968375D01*
X55939222Y-29960775D01*
X55909770Y-29950237D01*
X55881492Y-29936862D01*
X55854662Y-29920781D01*
X55829537Y-29902147D01*
X55806360Y-29881140D01*
X55785353Y-29857963D01*
X55766719Y-29832838D01*
X55750638Y-29806008D01*
X55737263Y-29777730D01*
X55726725Y-29748278D01*
X55719125Y-29717935D01*
X55714535Y-29686993D01*
X55713000Y-29655750D01*
X55713000Y-29018250D01*
X55714535Y-28987007D01*
X55719125Y-28956065D01*
X55726725Y-28925722D01*
X55737263Y-28896270D01*
X55750638Y-28867992D01*
X55766719Y-28841162D01*
X55785353Y-28816037D01*
X55806360Y-28792860D01*
X55829537Y-28771853D01*
X55854662Y-28753219D01*
X55881492Y-28737138D01*
X55909770Y-28723763D01*
X55939222Y-28713225D01*
X55969565Y-28705625D01*
X56000507Y-28701035D01*
X56031750Y-28699500D01*
X56744250Y-28699500D01*
X56775493Y-28701035D01*
X56775493Y-28701035D01*
G37*
D11*
X56388000Y-29337000D03*
D10*
G36*
X56775493Y-27126035D02*
X56806435Y-27130625D01*
X56836778Y-27138225D01*
X56866230Y-27148763D01*
X56894508Y-27162138D01*
X56921338Y-27178219D01*
X56946463Y-27196853D01*
X56969640Y-27217860D01*
X56990647Y-27241037D01*
X57009281Y-27266162D01*
X57025362Y-27292992D01*
X57038737Y-27321270D01*
X57049275Y-27350722D01*
X57056875Y-27381065D01*
X57061465Y-27412007D01*
X57063000Y-27443250D01*
X57063000Y-28080750D01*
X57061465Y-28111993D01*
X57056875Y-28142935D01*
X57049275Y-28173278D01*
X57038737Y-28202730D01*
X57025362Y-28231008D01*
X57009281Y-28257838D01*
X56990647Y-28282963D01*
X56969640Y-28306140D01*
X56946463Y-28327147D01*
X56921338Y-28345781D01*
X56894508Y-28361862D01*
X56866230Y-28375237D01*
X56836778Y-28385775D01*
X56806435Y-28393375D01*
X56775493Y-28397965D01*
X56744250Y-28399500D01*
X56031750Y-28399500D01*
X56000507Y-28397965D01*
X55969565Y-28393375D01*
X55939222Y-28385775D01*
X55909770Y-28375237D01*
X55881492Y-28361862D01*
X55854662Y-28345781D01*
X55829537Y-28327147D01*
X55806360Y-28306140D01*
X55785353Y-28282963D01*
X55766719Y-28257838D01*
X55750638Y-28231008D01*
X55737263Y-28202730D01*
X55726725Y-28173278D01*
X55719125Y-28142935D01*
X55714535Y-28111993D01*
X55713000Y-28080750D01*
X55713000Y-27443250D01*
X55714535Y-27412007D01*
X55719125Y-27381065D01*
X55726725Y-27350722D01*
X55737263Y-27321270D01*
X55750638Y-27292992D01*
X55766719Y-27266162D01*
X55785353Y-27241037D01*
X55806360Y-27217860D01*
X55829537Y-27196853D01*
X55854662Y-27178219D01*
X55881492Y-27162138D01*
X55909770Y-27148763D01*
X55939222Y-27138225D01*
X55969565Y-27130625D01*
X56000507Y-27126035D01*
X56031750Y-27124500D01*
X56744250Y-27124500D01*
X56775493Y-27126035D01*
X56775493Y-27126035D01*
G37*
D11*
X56388000Y-27762000D03*
G04 #@! TD*
D10*
G04 #@! TO.C,R17*
G36*
X57194993Y-45681535D02*
X57225935Y-45686125D01*
X57256278Y-45693725D01*
X57285730Y-45704263D01*
X57314008Y-45717638D01*
X57340838Y-45733719D01*
X57365963Y-45752353D01*
X57389140Y-45773360D01*
X57410147Y-45796537D01*
X57428781Y-45821662D01*
X57444862Y-45848492D01*
X57458237Y-45876770D01*
X57468775Y-45906222D01*
X57476375Y-45936565D01*
X57480965Y-45967507D01*
X57482500Y-45998750D01*
X57482500Y-46711250D01*
X57480965Y-46742493D01*
X57476375Y-46773435D01*
X57468775Y-46803778D01*
X57458237Y-46833230D01*
X57444862Y-46861508D01*
X57428781Y-46888338D01*
X57410147Y-46913463D01*
X57389140Y-46936640D01*
X57365963Y-46957647D01*
X57340838Y-46976281D01*
X57314008Y-46992362D01*
X57285730Y-47005737D01*
X57256278Y-47016275D01*
X57225935Y-47023875D01*
X57194993Y-47028465D01*
X57163750Y-47030000D01*
X56526250Y-47030000D01*
X56495007Y-47028465D01*
X56464065Y-47023875D01*
X56433722Y-47016275D01*
X56404270Y-47005737D01*
X56375992Y-46992362D01*
X56349162Y-46976281D01*
X56324037Y-46957647D01*
X56300860Y-46936640D01*
X56279853Y-46913463D01*
X56261219Y-46888338D01*
X56245138Y-46861508D01*
X56231763Y-46833230D01*
X56221225Y-46803778D01*
X56213625Y-46773435D01*
X56209035Y-46742493D01*
X56207500Y-46711250D01*
X56207500Y-45998750D01*
X56209035Y-45967507D01*
X56213625Y-45936565D01*
X56221225Y-45906222D01*
X56231763Y-45876770D01*
X56245138Y-45848492D01*
X56261219Y-45821662D01*
X56279853Y-45796537D01*
X56300860Y-45773360D01*
X56324037Y-45752353D01*
X56349162Y-45733719D01*
X56375992Y-45717638D01*
X56404270Y-45704263D01*
X56433722Y-45693725D01*
X56464065Y-45686125D01*
X56495007Y-45681535D01*
X56526250Y-45680000D01*
X57163750Y-45680000D01*
X57194993Y-45681535D01*
X57194993Y-45681535D01*
G37*
D11*
X56845000Y-46355000D03*
D10*
G36*
X58769993Y-45681535D02*
X58800935Y-45686125D01*
X58831278Y-45693725D01*
X58860730Y-45704263D01*
X58889008Y-45717638D01*
X58915838Y-45733719D01*
X58940963Y-45752353D01*
X58964140Y-45773360D01*
X58985147Y-45796537D01*
X59003781Y-45821662D01*
X59019862Y-45848492D01*
X59033237Y-45876770D01*
X59043775Y-45906222D01*
X59051375Y-45936565D01*
X59055965Y-45967507D01*
X59057500Y-45998750D01*
X59057500Y-46711250D01*
X59055965Y-46742493D01*
X59051375Y-46773435D01*
X59043775Y-46803778D01*
X59033237Y-46833230D01*
X59019862Y-46861508D01*
X59003781Y-46888338D01*
X58985147Y-46913463D01*
X58964140Y-46936640D01*
X58940963Y-46957647D01*
X58915838Y-46976281D01*
X58889008Y-46992362D01*
X58860730Y-47005737D01*
X58831278Y-47016275D01*
X58800935Y-47023875D01*
X58769993Y-47028465D01*
X58738750Y-47030000D01*
X58101250Y-47030000D01*
X58070007Y-47028465D01*
X58039065Y-47023875D01*
X58008722Y-47016275D01*
X57979270Y-47005737D01*
X57950992Y-46992362D01*
X57924162Y-46976281D01*
X57899037Y-46957647D01*
X57875860Y-46936640D01*
X57854853Y-46913463D01*
X57836219Y-46888338D01*
X57820138Y-46861508D01*
X57806763Y-46833230D01*
X57796225Y-46803778D01*
X57788625Y-46773435D01*
X57784035Y-46742493D01*
X57782500Y-46711250D01*
X57782500Y-45998750D01*
X57784035Y-45967507D01*
X57788625Y-45936565D01*
X57796225Y-45906222D01*
X57806763Y-45876770D01*
X57820138Y-45848492D01*
X57836219Y-45821662D01*
X57854853Y-45796537D01*
X57875860Y-45773360D01*
X57899037Y-45752353D01*
X57924162Y-45733719D01*
X57950992Y-45717638D01*
X57979270Y-45704263D01*
X58008722Y-45693725D01*
X58039065Y-45686125D01*
X58070007Y-45681535D01*
X58101250Y-45680000D01*
X58738750Y-45680000D01*
X58769993Y-45681535D01*
X58769993Y-45681535D01*
G37*
D11*
X58420000Y-46355000D03*
G04 #@! TD*
D10*
G04 #@! TO.C,R18*
G36*
X58769993Y-43776535D02*
X58800935Y-43781125D01*
X58831278Y-43788725D01*
X58860730Y-43799263D01*
X58889008Y-43812638D01*
X58915838Y-43828719D01*
X58940963Y-43847353D01*
X58964140Y-43868360D01*
X58985147Y-43891537D01*
X59003781Y-43916662D01*
X59019862Y-43943492D01*
X59033237Y-43971770D01*
X59043775Y-44001222D01*
X59051375Y-44031565D01*
X59055965Y-44062507D01*
X59057500Y-44093750D01*
X59057500Y-44806250D01*
X59055965Y-44837493D01*
X59051375Y-44868435D01*
X59043775Y-44898778D01*
X59033237Y-44928230D01*
X59019862Y-44956508D01*
X59003781Y-44983338D01*
X58985147Y-45008463D01*
X58964140Y-45031640D01*
X58940963Y-45052647D01*
X58915838Y-45071281D01*
X58889008Y-45087362D01*
X58860730Y-45100737D01*
X58831278Y-45111275D01*
X58800935Y-45118875D01*
X58769993Y-45123465D01*
X58738750Y-45125000D01*
X58101250Y-45125000D01*
X58070007Y-45123465D01*
X58039065Y-45118875D01*
X58008722Y-45111275D01*
X57979270Y-45100737D01*
X57950992Y-45087362D01*
X57924162Y-45071281D01*
X57899037Y-45052647D01*
X57875860Y-45031640D01*
X57854853Y-45008463D01*
X57836219Y-44983338D01*
X57820138Y-44956508D01*
X57806763Y-44928230D01*
X57796225Y-44898778D01*
X57788625Y-44868435D01*
X57784035Y-44837493D01*
X57782500Y-44806250D01*
X57782500Y-44093750D01*
X57784035Y-44062507D01*
X57788625Y-44031565D01*
X57796225Y-44001222D01*
X57806763Y-43971770D01*
X57820138Y-43943492D01*
X57836219Y-43916662D01*
X57854853Y-43891537D01*
X57875860Y-43868360D01*
X57899037Y-43847353D01*
X57924162Y-43828719D01*
X57950992Y-43812638D01*
X57979270Y-43799263D01*
X58008722Y-43788725D01*
X58039065Y-43781125D01*
X58070007Y-43776535D01*
X58101250Y-43775000D01*
X58738750Y-43775000D01*
X58769993Y-43776535D01*
X58769993Y-43776535D01*
G37*
D11*
X58420000Y-44450000D03*
D10*
G36*
X57194993Y-43776535D02*
X57225935Y-43781125D01*
X57256278Y-43788725D01*
X57285730Y-43799263D01*
X57314008Y-43812638D01*
X57340838Y-43828719D01*
X57365963Y-43847353D01*
X57389140Y-43868360D01*
X57410147Y-43891537D01*
X57428781Y-43916662D01*
X57444862Y-43943492D01*
X57458237Y-43971770D01*
X57468775Y-44001222D01*
X57476375Y-44031565D01*
X57480965Y-44062507D01*
X57482500Y-44093750D01*
X57482500Y-44806250D01*
X57480965Y-44837493D01*
X57476375Y-44868435D01*
X57468775Y-44898778D01*
X57458237Y-44928230D01*
X57444862Y-44956508D01*
X57428781Y-44983338D01*
X57410147Y-45008463D01*
X57389140Y-45031640D01*
X57365963Y-45052647D01*
X57340838Y-45071281D01*
X57314008Y-45087362D01*
X57285730Y-45100737D01*
X57256278Y-45111275D01*
X57225935Y-45118875D01*
X57194993Y-45123465D01*
X57163750Y-45125000D01*
X56526250Y-45125000D01*
X56495007Y-45123465D01*
X56464065Y-45118875D01*
X56433722Y-45111275D01*
X56404270Y-45100737D01*
X56375992Y-45087362D01*
X56349162Y-45071281D01*
X56324037Y-45052647D01*
X56300860Y-45031640D01*
X56279853Y-45008463D01*
X56261219Y-44983338D01*
X56245138Y-44956508D01*
X56231763Y-44928230D01*
X56221225Y-44898778D01*
X56213625Y-44868435D01*
X56209035Y-44837493D01*
X56207500Y-44806250D01*
X56207500Y-44093750D01*
X56209035Y-44062507D01*
X56213625Y-44031565D01*
X56221225Y-44001222D01*
X56231763Y-43971770D01*
X56245138Y-43943492D01*
X56261219Y-43916662D01*
X56279853Y-43891537D01*
X56300860Y-43868360D01*
X56324037Y-43847353D01*
X56349162Y-43828719D01*
X56375992Y-43812638D01*
X56404270Y-43799263D01*
X56433722Y-43788725D01*
X56464065Y-43781125D01*
X56495007Y-43776535D01*
X56526250Y-43775000D01*
X57163750Y-43775000D01*
X57194993Y-43776535D01*
X57194993Y-43776535D01*
G37*
D11*
X56845000Y-44450000D03*
G04 #@! TD*
D10*
G04 #@! TO.C,R19*
G36*
X62109493Y-39343535D02*
X62140435Y-39348125D01*
X62170778Y-39355725D01*
X62200230Y-39366263D01*
X62228508Y-39379638D01*
X62255338Y-39395719D01*
X62280463Y-39414353D01*
X62303640Y-39435360D01*
X62324647Y-39458537D01*
X62343281Y-39483662D01*
X62359362Y-39510492D01*
X62372737Y-39538770D01*
X62383275Y-39568222D01*
X62390875Y-39598565D01*
X62395465Y-39629507D01*
X62397000Y-39660750D01*
X62397000Y-40298250D01*
X62395465Y-40329493D01*
X62390875Y-40360435D01*
X62383275Y-40390778D01*
X62372737Y-40420230D01*
X62359362Y-40448508D01*
X62343281Y-40475338D01*
X62324647Y-40500463D01*
X62303640Y-40523640D01*
X62280463Y-40544647D01*
X62255338Y-40563281D01*
X62228508Y-40579362D01*
X62200230Y-40592737D01*
X62170778Y-40603275D01*
X62140435Y-40610875D01*
X62109493Y-40615465D01*
X62078250Y-40617000D01*
X61365750Y-40617000D01*
X61334507Y-40615465D01*
X61303565Y-40610875D01*
X61273222Y-40603275D01*
X61243770Y-40592737D01*
X61215492Y-40579362D01*
X61188662Y-40563281D01*
X61163537Y-40544647D01*
X61140360Y-40523640D01*
X61119353Y-40500463D01*
X61100719Y-40475338D01*
X61084638Y-40448508D01*
X61071263Y-40420230D01*
X61060725Y-40390778D01*
X61053125Y-40360435D01*
X61048535Y-40329493D01*
X61047000Y-40298250D01*
X61047000Y-39660750D01*
X61048535Y-39629507D01*
X61053125Y-39598565D01*
X61060725Y-39568222D01*
X61071263Y-39538770D01*
X61084638Y-39510492D01*
X61100719Y-39483662D01*
X61119353Y-39458537D01*
X61140360Y-39435360D01*
X61163537Y-39414353D01*
X61188662Y-39395719D01*
X61215492Y-39379638D01*
X61243770Y-39366263D01*
X61273222Y-39355725D01*
X61303565Y-39348125D01*
X61334507Y-39343535D01*
X61365750Y-39342000D01*
X62078250Y-39342000D01*
X62109493Y-39343535D01*
X62109493Y-39343535D01*
G37*
D11*
X61722000Y-39979500D03*
D10*
G36*
X62109493Y-40918535D02*
X62140435Y-40923125D01*
X62170778Y-40930725D01*
X62200230Y-40941263D01*
X62228508Y-40954638D01*
X62255338Y-40970719D01*
X62280463Y-40989353D01*
X62303640Y-41010360D01*
X62324647Y-41033537D01*
X62343281Y-41058662D01*
X62359362Y-41085492D01*
X62372737Y-41113770D01*
X62383275Y-41143222D01*
X62390875Y-41173565D01*
X62395465Y-41204507D01*
X62397000Y-41235750D01*
X62397000Y-41873250D01*
X62395465Y-41904493D01*
X62390875Y-41935435D01*
X62383275Y-41965778D01*
X62372737Y-41995230D01*
X62359362Y-42023508D01*
X62343281Y-42050338D01*
X62324647Y-42075463D01*
X62303640Y-42098640D01*
X62280463Y-42119647D01*
X62255338Y-42138281D01*
X62228508Y-42154362D01*
X62200230Y-42167737D01*
X62170778Y-42178275D01*
X62140435Y-42185875D01*
X62109493Y-42190465D01*
X62078250Y-42192000D01*
X61365750Y-42192000D01*
X61334507Y-42190465D01*
X61303565Y-42185875D01*
X61273222Y-42178275D01*
X61243770Y-42167737D01*
X61215492Y-42154362D01*
X61188662Y-42138281D01*
X61163537Y-42119647D01*
X61140360Y-42098640D01*
X61119353Y-42075463D01*
X61100719Y-42050338D01*
X61084638Y-42023508D01*
X61071263Y-41995230D01*
X61060725Y-41965778D01*
X61053125Y-41935435D01*
X61048535Y-41904493D01*
X61047000Y-41873250D01*
X61047000Y-41235750D01*
X61048535Y-41204507D01*
X61053125Y-41173565D01*
X61060725Y-41143222D01*
X61071263Y-41113770D01*
X61084638Y-41085492D01*
X61100719Y-41058662D01*
X61119353Y-41033537D01*
X61140360Y-41010360D01*
X61163537Y-40989353D01*
X61188662Y-40970719D01*
X61215492Y-40954638D01*
X61243770Y-40941263D01*
X61273222Y-40930725D01*
X61303565Y-40923125D01*
X61334507Y-40918535D01*
X61365750Y-40917000D01*
X62078250Y-40917000D01*
X62109493Y-40918535D01*
X62109493Y-40918535D01*
G37*
D11*
X61722000Y-41554500D03*
G04 #@! TD*
D10*
G04 #@! TO.C,R20*
G36*
X60458493Y-40918535D02*
X60489435Y-40923125D01*
X60519778Y-40930725D01*
X60549230Y-40941263D01*
X60577508Y-40954638D01*
X60604338Y-40970719D01*
X60629463Y-40989353D01*
X60652640Y-41010360D01*
X60673647Y-41033537D01*
X60692281Y-41058662D01*
X60708362Y-41085492D01*
X60721737Y-41113770D01*
X60732275Y-41143222D01*
X60739875Y-41173565D01*
X60744465Y-41204507D01*
X60746000Y-41235750D01*
X60746000Y-41873250D01*
X60744465Y-41904493D01*
X60739875Y-41935435D01*
X60732275Y-41965778D01*
X60721737Y-41995230D01*
X60708362Y-42023508D01*
X60692281Y-42050338D01*
X60673647Y-42075463D01*
X60652640Y-42098640D01*
X60629463Y-42119647D01*
X60604338Y-42138281D01*
X60577508Y-42154362D01*
X60549230Y-42167737D01*
X60519778Y-42178275D01*
X60489435Y-42185875D01*
X60458493Y-42190465D01*
X60427250Y-42192000D01*
X59714750Y-42192000D01*
X59683507Y-42190465D01*
X59652565Y-42185875D01*
X59622222Y-42178275D01*
X59592770Y-42167737D01*
X59564492Y-42154362D01*
X59537662Y-42138281D01*
X59512537Y-42119647D01*
X59489360Y-42098640D01*
X59468353Y-42075463D01*
X59449719Y-42050338D01*
X59433638Y-42023508D01*
X59420263Y-41995230D01*
X59409725Y-41965778D01*
X59402125Y-41935435D01*
X59397535Y-41904493D01*
X59396000Y-41873250D01*
X59396000Y-41235750D01*
X59397535Y-41204507D01*
X59402125Y-41173565D01*
X59409725Y-41143222D01*
X59420263Y-41113770D01*
X59433638Y-41085492D01*
X59449719Y-41058662D01*
X59468353Y-41033537D01*
X59489360Y-41010360D01*
X59512537Y-40989353D01*
X59537662Y-40970719D01*
X59564492Y-40954638D01*
X59592770Y-40941263D01*
X59622222Y-40930725D01*
X59652565Y-40923125D01*
X59683507Y-40918535D01*
X59714750Y-40917000D01*
X60427250Y-40917000D01*
X60458493Y-40918535D01*
X60458493Y-40918535D01*
G37*
D11*
X60071000Y-41554500D03*
D10*
G36*
X60458493Y-39343535D02*
X60489435Y-39348125D01*
X60519778Y-39355725D01*
X60549230Y-39366263D01*
X60577508Y-39379638D01*
X60604338Y-39395719D01*
X60629463Y-39414353D01*
X60652640Y-39435360D01*
X60673647Y-39458537D01*
X60692281Y-39483662D01*
X60708362Y-39510492D01*
X60721737Y-39538770D01*
X60732275Y-39568222D01*
X60739875Y-39598565D01*
X60744465Y-39629507D01*
X60746000Y-39660750D01*
X60746000Y-40298250D01*
X60744465Y-40329493D01*
X60739875Y-40360435D01*
X60732275Y-40390778D01*
X60721737Y-40420230D01*
X60708362Y-40448508D01*
X60692281Y-40475338D01*
X60673647Y-40500463D01*
X60652640Y-40523640D01*
X60629463Y-40544647D01*
X60604338Y-40563281D01*
X60577508Y-40579362D01*
X60549230Y-40592737D01*
X60519778Y-40603275D01*
X60489435Y-40610875D01*
X60458493Y-40615465D01*
X60427250Y-40617000D01*
X59714750Y-40617000D01*
X59683507Y-40615465D01*
X59652565Y-40610875D01*
X59622222Y-40603275D01*
X59592770Y-40592737D01*
X59564492Y-40579362D01*
X59537662Y-40563281D01*
X59512537Y-40544647D01*
X59489360Y-40523640D01*
X59468353Y-40500463D01*
X59449719Y-40475338D01*
X59433638Y-40448508D01*
X59420263Y-40420230D01*
X59409725Y-40390778D01*
X59402125Y-40360435D01*
X59397535Y-40329493D01*
X59396000Y-40298250D01*
X59396000Y-39660750D01*
X59397535Y-39629507D01*
X59402125Y-39598565D01*
X59409725Y-39568222D01*
X59420263Y-39538770D01*
X59433638Y-39510492D01*
X59449719Y-39483662D01*
X59468353Y-39458537D01*
X59489360Y-39435360D01*
X59512537Y-39414353D01*
X59537662Y-39395719D01*
X59564492Y-39379638D01*
X59592770Y-39366263D01*
X59622222Y-39355725D01*
X59652565Y-39348125D01*
X59683507Y-39343535D01*
X59714750Y-39342000D01*
X60427250Y-39342000D01*
X60458493Y-39343535D01*
X60458493Y-39343535D01*
G37*
D11*
X60071000Y-39979500D03*
G04 #@! TD*
D10*
G04 #@! TO.C,R21*
G36*
X58807493Y-39343535D02*
X58838435Y-39348125D01*
X58868778Y-39355725D01*
X58898230Y-39366263D01*
X58926508Y-39379638D01*
X58953338Y-39395719D01*
X58978463Y-39414353D01*
X59001640Y-39435360D01*
X59022647Y-39458537D01*
X59041281Y-39483662D01*
X59057362Y-39510492D01*
X59070737Y-39538770D01*
X59081275Y-39568222D01*
X59088875Y-39598565D01*
X59093465Y-39629507D01*
X59095000Y-39660750D01*
X59095000Y-40298250D01*
X59093465Y-40329493D01*
X59088875Y-40360435D01*
X59081275Y-40390778D01*
X59070737Y-40420230D01*
X59057362Y-40448508D01*
X59041281Y-40475338D01*
X59022647Y-40500463D01*
X59001640Y-40523640D01*
X58978463Y-40544647D01*
X58953338Y-40563281D01*
X58926508Y-40579362D01*
X58898230Y-40592737D01*
X58868778Y-40603275D01*
X58838435Y-40610875D01*
X58807493Y-40615465D01*
X58776250Y-40617000D01*
X58063750Y-40617000D01*
X58032507Y-40615465D01*
X58001565Y-40610875D01*
X57971222Y-40603275D01*
X57941770Y-40592737D01*
X57913492Y-40579362D01*
X57886662Y-40563281D01*
X57861537Y-40544647D01*
X57838360Y-40523640D01*
X57817353Y-40500463D01*
X57798719Y-40475338D01*
X57782638Y-40448508D01*
X57769263Y-40420230D01*
X57758725Y-40390778D01*
X57751125Y-40360435D01*
X57746535Y-40329493D01*
X57745000Y-40298250D01*
X57745000Y-39660750D01*
X57746535Y-39629507D01*
X57751125Y-39598565D01*
X57758725Y-39568222D01*
X57769263Y-39538770D01*
X57782638Y-39510492D01*
X57798719Y-39483662D01*
X57817353Y-39458537D01*
X57838360Y-39435360D01*
X57861537Y-39414353D01*
X57886662Y-39395719D01*
X57913492Y-39379638D01*
X57941770Y-39366263D01*
X57971222Y-39355725D01*
X58001565Y-39348125D01*
X58032507Y-39343535D01*
X58063750Y-39342000D01*
X58776250Y-39342000D01*
X58807493Y-39343535D01*
X58807493Y-39343535D01*
G37*
D11*
X58420000Y-39979500D03*
D10*
G36*
X58807493Y-40918535D02*
X58838435Y-40923125D01*
X58868778Y-40930725D01*
X58898230Y-40941263D01*
X58926508Y-40954638D01*
X58953338Y-40970719D01*
X58978463Y-40989353D01*
X59001640Y-41010360D01*
X59022647Y-41033537D01*
X59041281Y-41058662D01*
X59057362Y-41085492D01*
X59070737Y-41113770D01*
X59081275Y-41143222D01*
X59088875Y-41173565D01*
X59093465Y-41204507D01*
X59095000Y-41235750D01*
X59095000Y-41873250D01*
X59093465Y-41904493D01*
X59088875Y-41935435D01*
X59081275Y-41965778D01*
X59070737Y-41995230D01*
X59057362Y-42023508D01*
X59041281Y-42050338D01*
X59022647Y-42075463D01*
X59001640Y-42098640D01*
X58978463Y-42119647D01*
X58953338Y-42138281D01*
X58926508Y-42154362D01*
X58898230Y-42167737D01*
X58868778Y-42178275D01*
X58838435Y-42185875D01*
X58807493Y-42190465D01*
X58776250Y-42192000D01*
X58063750Y-42192000D01*
X58032507Y-42190465D01*
X58001565Y-42185875D01*
X57971222Y-42178275D01*
X57941770Y-42167737D01*
X57913492Y-42154362D01*
X57886662Y-42138281D01*
X57861537Y-42119647D01*
X57838360Y-42098640D01*
X57817353Y-42075463D01*
X57798719Y-42050338D01*
X57782638Y-42023508D01*
X57769263Y-41995230D01*
X57758725Y-41965778D01*
X57751125Y-41935435D01*
X57746535Y-41904493D01*
X57745000Y-41873250D01*
X57745000Y-41235750D01*
X57746535Y-41204507D01*
X57751125Y-41173565D01*
X57758725Y-41143222D01*
X57769263Y-41113770D01*
X57782638Y-41085492D01*
X57798719Y-41058662D01*
X57817353Y-41033537D01*
X57838360Y-41010360D01*
X57861537Y-40989353D01*
X57886662Y-40970719D01*
X57913492Y-40954638D01*
X57941770Y-40941263D01*
X57971222Y-40930725D01*
X58001565Y-40923125D01*
X58032507Y-40918535D01*
X58063750Y-40917000D01*
X58776250Y-40917000D01*
X58807493Y-40918535D01*
X58807493Y-40918535D01*
G37*
D11*
X58420000Y-41554500D03*
G04 #@! TD*
D24*
G04 #@! TO.C,U3*
X56765000Y-37863000D03*
X57415000Y-37863000D03*
X58065000Y-37863000D03*
X58715000Y-37863000D03*
X59365000Y-37863000D03*
X60015000Y-37863000D03*
X60665000Y-37863000D03*
X61315000Y-37863000D03*
X61965000Y-37863000D03*
X62615000Y-37863000D03*
X62600000Y-31733000D03*
X61950000Y-31733000D03*
X61300000Y-31733000D03*
X60650000Y-31733000D03*
X60015000Y-31733000D03*
X59365000Y-31733000D03*
X58715000Y-31733000D03*
X58065000Y-31733000D03*
X57415000Y-31733000D03*
X56765000Y-31733000D03*
G04 #@! TD*
D25*
G04 #@! TO.C,U1*
X42032000Y-27391000D03*
X41082000Y-27391000D03*
X40132000Y-27391000D03*
X40132000Y-29591000D03*
X42032000Y-29591000D03*
G04 #@! TD*
D26*
G04 #@! TO.C,MH1*
X68580000Y-27940000D03*
G04 #@! TD*
G04 #@! TO.C,MH2*
X27305000Y-46355000D03*
G04 #@! TD*
D27*
G04 #@! TO.C,X1*
X53848000Y-38752000D03*
X53848000Y-35052000D03*
G04 #@! TD*
D10*
G04 #@! TO.C,C3*
G36*
X54959993Y-40474535D02*
X54990935Y-40479125D01*
X55021278Y-40486725D01*
X55050730Y-40497263D01*
X55079008Y-40510638D01*
X55105838Y-40526719D01*
X55130963Y-40545353D01*
X55154140Y-40566360D01*
X55175147Y-40589537D01*
X55193781Y-40614662D01*
X55209862Y-40641492D01*
X55223237Y-40669770D01*
X55233775Y-40699222D01*
X55241375Y-40729565D01*
X55245965Y-40760507D01*
X55247500Y-40791750D01*
X55247500Y-41504250D01*
X55245965Y-41535493D01*
X55241375Y-41566435D01*
X55233775Y-41596778D01*
X55223237Y-41626230D01*
X55209862Y-41654508D01*
X55193781Y-41681338D01*
X55175147Y-41706463D01*
X55154140Y-41729640D01*
X55130963Y-41750647D01*
X55105838Y-41769281D01*
X55079008Y-41785362D01*
X55050730Y-41798737D01*
X55021278Y-41809275D01*
X54990935Y-41816875D01*
X54959993Y-41821465D01*
X54928750Y-41823000D01*
X54291250Y-41823000D01*
X54260007Y-41821465D01*
X54229065Y-41816875D01*
X54198722Y-41809275D01*
X54169270Y-41798737D01*
X54140992Y-41785362D01*
X54114162Y-41769281D01*
X54089037Y-41750647D01*
X54065860Y-41729640D01*
X54044853Y-41706463D01*
X54026219Y-41681338D01*
X54010138Y-41654508D01*
X53996763Y-41626230D01*
X53986225Y-41596778D01*
X53978625Y-41566435D01*
X53974035Y-41535493D01*
X53972500Y-41504250D01*
X53972500Y-40791750D01*
X53974035Y-40760507D01*
X53978625Y-40729565D01*
X53986225Y-40699222D01*
X53996763Y-40669770D01*
X54010138Y-40641492D01*
X54026219Y-40614662D01*
X54044853Y-40589537D01*
X54065860Y-40566360D01*
X54089037Y-40545353D01*
X54114162Y-40526719D01*
X54140992Y-40510638D01*
X54169270Y-40497263D01*
X54198722Y-40486725D01*
X54229065Y-40479125D01*
X54260007Y-40474535D01*
X54291250Y-40473000D01*
X54928750Y-40473000D01*
X54959993Y-40474535D01*
X54959993Y-40474535D01*
G37*
D11*
X54610000Y-41148000D03*
D10*
G36*
X53384993Y-40474535D02*
X53415935Y-40479125D01*
X53446278Y-40486725D01*
X53475730Y-40497263D01*
X53504008Y-40510638D01*
X53530838Y-40526719D01*
X53555963Y-40545353D01*
X53579140Y-40566360D01*
X53600147Y-40589537D01*
X53618781Y-40614662D01*
X53634862Y-40641492D01*
X53648237Y-40669770D01*
X53658775Y-40699222D01*
X53666375Y-40729565D01*
X53670965Y-40760507D01*
X53672500Y-40791750D01*
X53672500Y-41504250D01*
X53670965Y-41535493D01*
X53666375Y-41566435D01*
X53658775Y-41596778D01*
X53648237Y-41626230D01*
X53634862Y-41654508D01*
X53618781Y-41681338D01*
X53600147Y-41706463D01*
X53579140Y-41729640D01*
X53555963Y-41750647D01*
X53530838Y-41769281D01*
X53504008Y-41785362D01*
X53475730Y-41798737D01*
X53446278Y-41809275D01*
X53415935Y-41816875D01*
X53384993Y-41821465D01*
X53353750Y-41823000D01*
X52716250Y-41823000D01*
X52685007Y-41821465D01*
X52654065Y-41816875D01*
X52623722Y-41809275D01*
X52594270Y-41798737D01*
X52565992Y-41785362D01*
X52539162Y-41769281D01*
X52514037Y-41750647D01*
X52490860Y-41729640D01*
X52469853Y-41706463D01*
X52451219Y-41681338D01*
X52435138Y-41654508D01*
X52421763Y-41626230D01*
X52411225Y-41596778D01*
X52403625Y-41566435D01*
X52399035Y-41535493D01*
X52397500Y-41504250D01*
X52397500Y-40791750D01*
X52399035Y-40760507D01*
X52403625Y-40729565D01*
X52411225Y-40699222D01*
X52421763Y-40669770D01*
X52435138Y-40641492D01*
X52451219Y-40614662D01*
X52469853Y-40589537D01*
X52490860Y-40566360D01*
X52514037Y-40545353D01*
X52539162Y-40526719D01*
X52565992Y-40510638D01*
X52594270Y-40497263D01*
X52623722Y-40486725D01*
X52654065Y-40479125D01*
X52685007Y-40474535D01*
X52716250Y-40473000D01*
X53353750Y-40473000D01*
X53384993Y-40474535D01*
X53384993Y-40474535D01*
G37*
D11*
X53035000Y-41148000D03*
G04 #@! TD*
D10*
G04 #@! TO.C,C4*
G36*
X53257993Y-31965535D02*
X53288935Y-31970125D01*
X53319278Y-31977725D01*
X53348730Y-31988263D01*
X53377008Y-32001638D01*
X53403838Y-32017719D01*
X53428963Y-32036353D01*
X53452140Y-32057360D01*
X53473147Y-32080537D01*
X53491781Y-32105662D01*
X53507862Y-32132492D01*
X53521237Y-32160770D01*
X53531775Y-32190222D01*
X53539375Y-32220565D01*
X53543965Y-32251507D01*
X53545500Y-32282750D01*
X53545500Y-32995250D01*
X53543965Y-33026493D01*
X53539375Y-33057435D01*
X53531775Y-33087778D01*
X53521237Y-33117230D01*
X53507862Y-33145508D01*
X53491781Y-33172338D01*
X53473147Y-33197463D01*
X53452140Y-33220640D01*
X53428963Y-33241647D01*
X53403838Y-33260281D01*
X53377008Y-33276362D01*
X53348730Y-33289737D01*
X53319278Y-33300275D01*
X53288935Y-33307875D01*
X53257993Y-33312465D01*
X53226750Y-33314000D01*
X52589250Y-33314000D01*
X52558007Y-33312465D01*
X52527065Y-33307875D01*
X52496722Y-33300275D01*
X52467270Y-33289737D01*
X52438992Y-33276362D01*
X52412162Y-33260281D01*
X52387037Y-33241647D01*
X52363860Y-33220640D01*
X52342853Y-33197463D01*
X52324219Y-33172338D01*
X52308138Y-33145508D01*
X52294763Y-33117230D01*
X52284225Y-33087778D01*
X52276625Y-33057435D01*
X52272035Y-33026493D01*
X52270500Y-32995250D01*
X52270500Y-32282750D01*
X52272035Y-32251507D01*
X52276625Y-32220565D01*
X52284225Y-32190222D01*
X52294763Y-32160770D01*
X52308138Y-32132492D01*
X52324219Y-32105662D01*
X52342853Y-32080537D01*
X52363860Y-32057360D01*
X52387037Y-32036353D01*
X52412162Y-32017719D01*
X52438992Y-32001638D01*
X52467270Y-31988263D01*
X52496722Y-31977725D01*
X52527065Y-31970125D01*
X52558007Y-31965535D01*
X52589250Y-31964000D01*
X53226750Y-31964000D01*
X53257993Y-31965535D01*
X53257993Y-31965535D01*
G37*
D11*
X52908000Y-32639000D03*
D10*
G36*
X54832993Y-31965535D02*
X54863935Y-31970125D01*
X54894278Y-31977725D01*
X54923730Y-31988263D01*
X54952008Y-32001638D01*
X54978838Y-32017719D01*
X55003963Y-32036353D01*
X55027140Y-32057360D01*
X55048147Y-32080537D01*
X55066781Y-32105662D01*
X55082862Y-32132492D01*
X55096237Y-32160770D01*
X55106775Y-32190222D01*
X55114375Y-32220565D01*
X55118965Y-32251507D01*
X55120500Y-32282750D01*
X55120500Y-32995250D01*
X55118965Y-33026493D01*
X55114375Y-33057435D01*
X55106775Y-33087778D01*
X55096237Y-33117230D01*
X55082862Y-33145508D01*
X55066781Y-33172338D01*
X55048147Y-33197463D01*
X55027140Y-33220640D01*
X55003963Y-33241647D01*
X54978838Y-33260281D01*
X54952008Y-33276362D01*
X54923730Y-33289737D01*
X54894278Y-33300275D01*
X54863935Y-33307875D01*
X54832993Y-33312465D01*
X54801750Y-33314000D01*
X54164250Y-33314000D01*
X54133007Y-33312465D01*
X54102065Y-33307875D01*
X54071722Y-33300275D01*
X54042270Y-33289737D01*
X54013992Y-33276362D01*
X53987162Y-33260281D01*
X53962037Y-33241647D01*
X53938860Y-33220640D01*
X53917853Y-33197463D01*
X53899219Y-33172338D01*
X53883138Y-33145508D01*
X53869763Y-33117230D01*
X53859225Y-33087778D01*
X53851625Y-33057435D01*
X53847035Y-33026493D01*
X53845500Y-32995250D01*
X53845500Y-32282750D01*
X53847035Y-32251507D01*
X53851625Y-32220565D01*
X53859225Y-32190222D01*
X53869763Y-32160770D01*
X53883138Y-32132492D01*
X53899219Y-32105662D01*
X53917853Y-32080537D01*
X53938860Y-32057360D01*
X53962037Y-32036353D01*
X53987162Y-32017719D01*
X54013992Y-32001638D01*
X54042270Y-31988263D01*
X54071722Y-31977725D01*
X54102065Y-31970125D01*
X54133007Y-31965535D01*
X54164250Y-31964000D01*
X54801750Y-31964000D01*
X54832993Y-31965535D01*
X54832993Y-31965535D01*
G37*
D11*
X54483000Y-32639000D03*
G04 #@! TD*
M02*
