M48
;DRILL file {KiCad (5.0.0)} date 06/15/20 19:05:29
;FORMAT={-:-/ absolute / inch / decimal}
FMAT,2
INCH,TZ
T1C0.0157
T2C0.0236
T3C0.0394
%
G90
G05
M72
T1
X1.1Y-1.1
X1.15Y-1.6
X1.195Y-1.51
X1.36Y-1.445
X1.365Y-1.685
X1.37Y-1.515
X1.38Y-1.11
X1.38Y-1.185
X1.38Y-1.26
X1.46Y-1.345
X1.5273Y-1.1277
X1.53Y-1.22
X1.53Y-1.635
X1.535Y-1.17
X1.535Y-1.345
X1.5362Y-1.4588
X1.5402Y-1.2652
X1.68Y-1.72
X1.69Y-1.5886
X1.75Y-1.65
X1.75Y-1.7
X1.79Y-1.265
X1.8011Y-1.5715
X1.8138Y-1.5144
X1.815Y-1.47
X1.8512Y-1.2573
X1.875Y-1.2258
X1.885Y-1.6
X1.893Y-1.5614
X1.9Y-1.4
X1.915Y-1.23
X1.9798Y-1.6102
X2.0081Y-1.4327
X2.03Y-1.4
X2.045Y-1.75
X2.05Y-1.05
X2.16Y-1.38
X2.16Y-1.615
X2.22Y-1.18
X2.33Y-1.325
X2.3335Y-1.2635
X2.38Y-1.04
X2.39Y-1.195
X2.405Y-1.705
X2.425Y-1.31
X2.5Y-1.33
X2.505Y-1.735
X2.52Y-1.0955
X2.52Y-1.365
X2.575Y-1.355
X2.595Y-1.18
X2.695Y-1.555
X2.75Y-1.65
X2.9Y-1.8
T3
X1.4Y-1.825
X1.5Y-1.825
X1.6Y-1.825
X2.41Y-1.825
X2.51Y-1.825
X2.61Y-1.825
X2.71Y-1.825
X2.8Y-1.2
X2.8Y-1.3
X2.8Y-1.4
X2.8Y-1.5
X2.8Y-1.6
X2.9Y-1.2
X2.9Y-1.3
X2.9Y-1.4
X2.9Y-1.5
X2.9Y-1.6
T2
X1.1142Y-1.4049G85X1.0906Y-1.4049
G05
X1.1142Y-1.7451G85X1.0906Y-1.7451
G05
X1.2886Y-1.4049G85X1.2453Y-1.4049
G05
X1.2886Y-1.7451G85X1.2453Y-1.7451
G05
T0
M30
