G04 #@! TF.GenerationSoftware,KiCad,Pcbnew,(5.0.0)*
G04 #@! TF.CreationDate,2020-06-29T13:58:06-06:00*
G04 #@! TF.ProjectId,bmp,626D702E6B696361645F706362000000,rev?*
G04 #@! TF.SameCoordinates,Original*
G04 #@! TF.FileFunction,Paste,Top*
G04 #@! TF.FilePolarity,Positive*
%FSLAX46Y46*%
G04 Gerber Fmt 4.6, Leading zero omitted, Abs format (unit mm)*
G04 Created by KiCad (PCBNEW (5.0.0)) date 06/29/20 13:58:06*
%MOMM*%
%LPD*%
G01*
G04 APERTURE LIST*
%ADD10C,0.100000*%
%ADD11C,0.875000*%
%ADD12R,1.450000X0.300000*%
%ADD13R,1.450000X0.600000*%
%ADD14R,1.200000X0.650000*%
%ADD15R,0.250000X1.300000*%
%ADD16R,1.300000X0.250000*%
%ADD17R,0.900000X0.800000*%
%ADD18R,0.350000X1.500000*%
%ADD19R,0.650000X1.060000*%
%ADD20R,2.400000X2.000000*%
G04 APERTURE END LIST*
D10*
G04 #@! TO.C,C1*
G36*
X40219691Y-30895053D02*
X40240926Y-30898203D01*
X40261750Y-30903419D01*
X40281962Y-30910651D01*
X40301368Y-30919830D01*
X40319781Y-30930866D01*
X40337024Y-30943654D01*
X40352930Y-30958070D01*
X40367346Y-30973976D01*
X40380134Y-30991219D01*
X40391170Y-31009632D01*
X40400349Y-31029038D01*
X40407581Y-31049250D01*
X40412797Y-31070074D01*
X40415947Y-31091309D01*
X40417000Y-31112750D01*
X40417000Y-31625250D01*
X40415947Y-31646691D01*
X40412797Y-31667926D01*
X40407581Y-31688750D01*
X40400349Y-31708962D01*
X40391170Y-31728368D01*
X40380134Y-31746781D01*
X40367346Y-31764024D01*
X40352930Y-31779930D01*
X40337024Y-31794346D01*
X40319781Y-31807134D01*
X40301368Y-31818170D01*
X40281962Y-31827349D01*
X40261750Y-31834581D01*
X40240926Y-31839797D01*
X40219691Y-31842947D01*
X40198250Y-31844000D01*
X39760750Y-31844000D01*
X39739309Y-31842947D01*
X39718074Y-31839797D01*
X39697250Y-31834581D01*
X39677038Y-31827349D01*
X39657632Y-31818170D01*
X39639219Y-31807134D01*
X39621976Y-31794346D01*
X39606070Y-31779930D01*
X39591654Y-31764024D01*
X39578866Y-31746781D01*
X39567830Y-31728368D01*
X39558651Y-31708962D01*
X39551419Y-31688750D01*
X39546203Y-31667926D01*
X39543053Y-31646691D01*
X39542000Y-31625250D01*
X39542000Y-31112750D01*
X39543053Y-31091309D01*
X39546203Y-31070074D01*
X39551419Y-31049250D01*
X39558651Y-31029038D01*
X39567830Y-31009632D01*
X39578866Y-30991219D01*
X39591654Y-30973976D01*
X39606070Y-30958070D01*
X39621976Y-30943654D01*
X39639219Y-30930866D01*
X39657632Y-30919830D01*
X39677038Y-30910651D01*
X39697250Y-30903419D01*
X39718074Y-30898203D01*
X39739309Y-30895053D01*
X39760750Y-30894000D01*
X40198250Y-30894000D01*
X40219691Y-30895053D01*
X40219691Y-30895053D01*
G37*
D11*
X39979500Y-31369000D03*
D10*
G36*
X41794691Y-30895053D02*
X41815926Y-30898203D01*
X41836750Y-30903419D01*
X41856962Y-30910651D01*
X41876368Y-30919830D01*
X41894781Y-30930866D01*
X41912024Y-30943654D01*
X41927930Y-30958070D01*
X41942346Y-30973976D01*
X41955134Y-30991219D01*
X41966170Y-31009632D01*
X41975349Y-31029038D01*
X41982581Y-31049250D01*
X41987797Y-31070074D01*
X41990947Y-31091309D01*
X41992000Y-31112750D01*
X41992000Y-31625250D01*
X41990947Y-31646691D01*
X41987797Y-31667926D01*
X41982581Y-31688750D01*
X41975349Y-31708962D01*
X41966170Y-31728368D01*
X41955134Y-31746781D01*
X41942346Y-31764024D01*
X41927930Y-31779930D01*
X41912024Y-31794346D01*
X41894781Y-31807134D01*
X41876368Y-31818170D01*
X41856962Y-31827349D01*
X41836750Y-31834581D01*
X41815926Y-31839797D01*
X41794691Y-31842947D01*
X41773250Y-31844000D01*
X41335750Y-31844000D01*
X41314309Y-31842947D01*
X41293074Y-31839797D01*
X41272250Y-31834581D01*
X41252038Y-31827349D01*
X41232632Y-31818170D01*
X41214219Y-31807134D01*
X41196976Y-31794346D01*
X41181070Y-31779930D01*
X41166654Y-31764024D01*
X41153866Y-31746781D01*
X41142830Y-31728368D01*
X41133651Y-31708962D01*
X41126419Y-31688750D01*
X41121203Y-31667926D01*
X41118053Y-31646691D01*
X41117000Y-31625250D01*
X41117000Y-31112750D01*
X41118053Y-31091309D01*
X41121203Y-31070074D01*
X41126419Y-31049250D01*
X41133651Y-31029038D01*
X41142830Y-31009632D01*
X41153866Y-30991219D01*
X41166654Y-30973976D01*
X41181070Y-30958070D01*
X41196976Y-30943654D01*
X41214219Y-30930866D01*
X41232632Y-30919830D01*
X41252038Y-30910651D01*
X41272250Y-30903419D01*
X41293074Y-30898203D01*
X41314309Y-30895053D01*
X41335750Y-30894000D01*
X41773250Y-30894000D01*
X41794691Y-30895053D01*
X41794691Y-30895053D01*
G37*
D11*
X41554500Y-31369000D03*
G04 #@! TD*
D10*
G04 #@! TO.C,C2*
G36*
X44219691Y-27122553D02*
X44240926Y-27125703D01*
X44261750Y-27130919D01*
X44281962Y-27138151D01*
X44301368Y-27147330D01*
X44319781Y-27158366D01*
X44337024Y-27171154D01*
X44352930Y-27185570D01*
X44367346Y-27201476D01*
X44380134Y-27218719D01*
X44391170Y-27237132D01*
X44400349Y-27256538D01*
X44407581Y-27276750D01*
X44412797Y-27297574D01*
X44415947Y-27318809D01*
X44417000Y-27340250D01*
X44417000Y-27777750D01*
X44415947Y-27799191D01*
X44412797Y-27820426D01*
X44407581Y-27841250D01*
X44400349Y-27861462D01*
X44391170Y-27880868D01*
X44380134Y-27899281D01*
X44367346Y-27916524D01*
X44352930Y-27932430D01*
X44337024Y-27946846D01*
X44319781Y-27959634D01*
X44301368Y-27970670D01*
X44281962Y-27979849D01*
X44261750Y-27987081D01*
X44240926Y-27992297D01*
X44219691Y-27995447D01*
X44198250Y-27996500D01*
X43685750Y-27996500D01*
X43664309Y-27995447D01*
X43643074Y-27992297D01*
X43622250Y-27987081D01*
X43602038Y-27979849D01*
X43582632Y-27970670D01*
X43564219Y-27959634D01*
X43546976Y-27946846D01*
X43531070Y-27932430D01*
X43516654Y-27916524D01*
X43503866Y-27899281D01*
X43492830Y-27880868D01*
X43483651Y-27861462D01*
X43476419Y-27841250D01*
X43471203Y-27820426D01*
X43468053Y-27799191D01*
X43467000Y-27777750D01*
X43467000Y-27340250D01*
X43468053Y-27318809D01*
X43471203Y-27297574D01*
X43476419Y-27276750D01*
X43483651Y-27256538D01*
X43492830Y-27237132D01*
X43503866Y-27218719D01*
X43516654Y-27201476D01*
X43531070Y-27185570D01*
X43546976Y-27171154D01*
X43564219Y-27158366D01*
X43582632Y-27147330D01*
X43602038Y-27138151D01*
X43622250Y-27130919D01*
X43643074Y-27125703D01*
X43664309Y-27122553D01*
X43685750Y-27121500D01*
X44198250Y-27121500D01*
X44219691Y-27122553D01*
X44219691Y-27122553D01*
G37*
D11*
X43942000Y-27559000D03*
D10*
G36*
X44219691Y-28697553D02*
X44240926Y-28700703D01*
X44261750Y-28705919D01*
X44281962Y-28713151D01*
X44301368Y-28722330D01*
X44319781Y-28733366D01*
X44337024Y-28746154D01*
X44352930Y-28760570D01*
X44367346Y-28776476D01*
X44380134Y-28793719D01*
X44391170Y-28812132D01*
X44400349Y-28831538D01*
X44407581Y-28851750D01*
X44412797Y-28872574D01*
X44415947Y-28893809D01*
X44417000Y-28915250D01*
X44417000Y-29352750D01*
X44415947Y-29374191D01*
X44412797Y-29395426D01*
X44407581Y-29416250D01*
X44400349Y-29436462D01*
X44391170Y-29455868D01*
X44380134Y-29474281D01*
X44367346Y-29491524D01*
X44352930Y-29507430D01*
X44337024Y-29521846D01*
X44319781Y-29534634D01*
X44301368Y-29545670D01*
X44281962Y-29554849D01*
X44261750Y-29562081D01*
X44240926Y-29567297D01*
X44219691Y-29570447D01*
X44198250Y-29571500D01*
X43685750Y-29571500D01*
X43664309Y-29570447D01*
X43643074Y-29567297D01*
X43622250Y-29562081D01*
X43602038Y-29554849D01*
X43582632Y-29545670D01*
X43564219Y-29534634D01*
X43546976Y-29521846D01*
X43531070Y-29507430D01*
X43516654Y-29491524D01*
X43503866Y-29474281D01*
X43492830Y-29455868D01*
X43483651Y-29436462D01*
X43476419Y-29416250D01*
X43471203Y-29395426D01*
X43468053Y-29374191D01*
X43467000Y-29352750D01*
X43467000Y-28915250D01*
X43468053Y-28893809D01*
X43471203Y-28872574D01*
X43476419Y-28851750D01*
X43483651Y-28831538D01*
X43492830Y-28812132D01*
X43503866Y-28793719D01*
X43516654Y-28776476D01*
X43531070Y-28760570D01*
X43546976Y-28746154D01*
X43564219Y-28733366D01*
X43582632Y-28722330D01*
X43602038Y-28713151D01*
X43622250Y-28705919D01*
X43643074Y-28700703D01*
X43664309Y-28697553D01*
X43685750Y-28696500D01*
X44198250Y-28696500D01*
X44219691Y-28697553D01*
X44219691Y-28697553D01*
G37*
D11*
X43942000Y-29134000D03*
G04 #@! TD*
D10*
G04 #@! TO.C,D1*
G36*
X32472691Y-26831053D02*
X32493926Y-26834203D01*
X32514750Y-26839419D01*
X32534962Y-26846651D01*
X32554368Y-26855830D01*
X32572781Y-26866866D01*
X32590024Y-26879654D01*
X32605930Y-26894070D01*
X32620346Y-26909976D01*
X32633134Y-26927219D01*
X32644170Y-26945632D01*
X32653349Y-26965038D01*
X32660581Y-26985250D01*
X32665797Y-27006074D01*
X32668947Y-27027309D01*
X32670000Y-27048750D01*
X32670000Y-27561250D01*
X32668947Y-27582691D01*
X32665797Y-27603926D01*
X32660581Y-27624750D01*
X32653349Y-27644962D01*
X32644170Y-27664368D01*
X32633134Y-27682781D01*
X32620346Y-27700024D01*
X32605930Y-27715930D01*
X32590024Y-27730346D01*
X32572781Y-27743134D01*
X32554368Y-27754170D01*
X32534962Y-27763349D01*
X32514750Y-27770581D01*
X32493926Y-27775797D01*
X32472691Y-27778947D01*
X32451250Y-27780000D01*
X32013750Y-27780000D01*
X31992309Y-27778947D01*
X31971074Y-27775797D01*
X31950250Y-27770581D01*
X31930038Y-27763349D01*
X31910632Y-27754170D01*
X31892219Y-27743134D01*
X31874976Y-27730346D01*
X31859070Y-27715930D01*
X31844654Y-27700024D01*
X31831866Y-27682781D01*
X31820830Y-27664368D01*
X31811651Y-27644962D01*
X31804419Y-27624750D01*
X31799203Y-27603926D01*
X31796053Y-27582691D01*
X31795000Y-27561250D01*
X31795000Y-27048750D01*
X31796053Y-27027309D01*
X31799203Y-27006074D01*
X31804419Y-26985250D01*
X31811651Y-26965038D01*
X31820830Y-26945632D01*
X31831866Y-26927219D01*
X31844654Y-26909976D01*
X31859070Y-26894070D01*
X31874976Y-26879654D01*
X31892219Y-26866866D01*
X31910632Y-26855830D01*
X31930038Y-26846651D01*
X31950250Y-26839419D01*
X31971074Y-26834203D01*
X31992309Y-26831053D01*
X32013750Y-26830000D01*
X32451250Y-26830000D01*
X32472691Y-26831053D01*
X32472691Y-26831053D01*
G37*
D11*
X32232500Y-27305000D03*
D10*
G36*
X34047691Y-26831053D02*
X34068926Y-26834203D01*
X34089750Y-26839419D01*
X34109962Y-26846651D01*
X34129368Y-26855830D01*
X34147781Y-26866866D01*
X34165024Y-26879654D01*
X34180930Y-26894070D01*
X34195346Y-26909976D01*
X34208134Y-26927219D01*
X34219170Y-26945632D01*
X34228349Y-26965038D01*
X34235581Y-26985250D01*
X34240797Y-27006074D01*
X34243947Y-27027309D01*
X34245000Y-27048750D01*
X34245000Y-27561250D01*
X34243947Y-27582691D01*
X34240797Y-27603926D01*
X34235581Y-27624750D01*
X34228349Y-27644962D01*
X34219170Y-27664368D01*
X34208134Y-27682781D01*
X34195346Y-27700024D01*
X34180930Y-27715930D01*
X34165024Y-27730346D01*
X34147781Y-27743134D01*
X34129368Y-27754170D01*
X34109962Y-27763349D01*
X34089750Y-27770581D01*
X34068926Y-27775797D01*
X34047691Y-27778947D01*
X34026250Y-27780000D01*
X33588750Y-27780000D01*
X33567309Y-27778947D01*
X33546074Y-27775797D01*
X33525250Y-27770581D01*
X33505038Y-27763349D01*
X33485632Y-27754170D01*
X33467219Y-27743134D01*
X33449976Y-27730346D01*
X33434070Y-27715930D01*
X33419654Y-27700024D01*
X33406866Y-27682781D01*
X33395830Y-27664368D01*
X33386651Y-27644962D01*
X33379419Y-27624750D01*
X33374203Y-27603926D01*
X33371053Y-27582691D01*
X33370000Y-27561250D01*
X33370000Y-27048750D01*
X33371053Y-27027309D01*
X33374203Y-27006074D01*
X33379419Y-26985250D01*
X33386651Y-26965038D01*
X33395830Y-26945632D01*
X33406866Y-26927219D01*
X33419654Y-26909976D01*
X33434070Y-26894070D01*
X33449976Y-26879654D01*
X33467219Y-26866866D01*
X33485632Y-26855830D01*
X33505038Y-26846651D01*
X33525250Y-26839419D01*
X33546074Y-26834203D01*
X33567309Y-26831053D01*
X33588750Y-26830000D01*
X34026250Y-26830000D01*
X34047691Y-26831053D01*
X34047691Y-26831053D01*
G37*
D11*
X33807500Y-27305000D03*
G04 #@! TD*
D10*
G04 #@! TO.C,D2*
G36*
X34047691Y-32419053D02*
X34068926Y-32422203D01*
X34089750Y-32427419D01*
X34109962Y-32434651D01*
X34129368Y-32443830D01*
X34147781Y-32454866D01*
X34165024Y-32467654D01*
X34180930Y-32482070D01*
X34195346Y-32497976D01*
X34208134Y-32515219D01*
X34219170Y-32533632D01*
X34228349Y-32553038D01*
X34235581Y-32573250D01*
X34240797Y-32594074D01*
X34243947Y-32615309D01*
X34245000Y-32636750D01*
X34245000Y-33149250D01*
X34243947Y-33170691D01*
X34240797Y-33191926D01*
X34235581Y-33212750D01*
X34228349Y-33232962D01*
X34219170Y-33252368D01*
X34208134Y-33270781D01*
X34195346Y-33288024D01*
X34180930Y-33303930D01*
X34165024Y-33318346D01*
X34147781Y-33331134D01*
X34129368Y-33342170D01*
X34109962Y-33351349D01*
X34089750Y-33358581D01*
X34068926Y-33363797D01*
X34047691Y-33366947D01*
X34026250Y-33368000D01*
X33588750Y-33368000D01*
X33567309Y-33366947D01*
X33546074Y-33363797D01*
X33525250Y-33358581D01*
X33505038Y-33351349D01*
X33485632Y-33342170D01*
X33467219Y-33331134D01*
X33449976Y-33318346D01*
X33434070Y-33303930D01*
X33419654Y-33288024D01*
X33406866Y-33270781D01*
X33395830Y-33252368D01*
X33386651Y-33232962D01*
X33379419Y-33212750D01*
X33374203Y-33191926D01*
X33371053Y-33170691D01*
X33370000Y-33149250D01*
X33370000Y-32636750D01*
X33371053Y-32615309D01*
X33374203Y-32594074D01*
X33379419Y-32573250D01*
X33386651Y-32553038D01*
X33395830Y-32533632D01*
X33406866Y-32515219D01*
X33419654Y-32497976D01*
X33434070Y-32482070D01*
X33449976Y-32467654D01*
X33467219Y-32454866D01*
X33485632Y-32443830D01*
X33505038Y-32434651D01*
X33525250Y-32427419D01*
X33546074Y-32422203D01*
X33567309Y-32419053D01*
X33588750Y-32418000D01*
X34026250Y-32418000D01*
X34047691Y-32419053D01*
X34047691Y-32419053D01*
G37*
D11*
X33807500Y-32893000D03*
D10*
G36*
X32472691Y-32419053D02*
X32493926Y-32422203D01*
X32514750Y-32427419D01*
X32534962Y-32434651D01*
X32554368Y-32443830D01*
X32572781Y-32454866D01*
X32590024Y-32467654D01*
X32605930Y-32482070D01*
X32620346Y-32497976D01*
X32633134Y-32515219D01*
X32644170Y-32533632D01*
X32653349Y-32553038D01*
X32660581Y-32573250D01*
X32665797Y-32594074D01*
X32668947Y-32615309D01*
X32670000Y-32636750D01*
X32670000Y-33149250D01*
X32668947Y-33170691D01*
X32665797Y-33191926D01*
X32660581Y-33212750D01*
X32653349Y-33232962D01*
X32644170Y-33252368D01*
X32633134Y-33270781D01*
X32620346Y-33288024D01*
X32605930Y-33303930D01*
X32590024Y-33318346D01*
X32572781Y-33331134D01*
X32554368Y-33342170D01*
X32534962Y-33351349D01*
X32514750Y-33358581D01*
X32493926Y-33363797D01*
X32472691Y-33366947D01*
X32451250Y-33368000D01*
X32013750Y-33368000D01*
X31992309Y-33366947D01*
X31971074Y-33363797D01*
X31950250Y-33358581D01*
X31930038Y-33351349D01*
X31910632Y-33342170D01*
X31892219Y-33331134D01*
X31874976Y-33318346D01*
X31859070Y-33303930D01*
X31844654Y-33288024D01*
X31831866Y-33270781D01*
X31820830Y-33252368D01*
X31811651Y-33232962D01*
X31804419Y-33212750D01*
X31799203Y-33191926D01*
X31796053Y-33170691D01*
X31795000Y-33149250D01*
X31795000Y-32636750D01*
X31796053Y-32615309D01*
X31799203Y-32594074D01*
X31804419Y-32573250D01*
X31811651Y-32553038D01*
X31820830Y-32533632D01*
X31831866Y-32515219D01*
X31844654Y-32497976D01*
X31859070Y-32482070D01*
X31874976Y-32467654D01*
X31892219Y-32454866D01*
X31910632Y-32443830D01*
X31930038Y-32434651D01*
X31950250Y-32427419D01*
X31971074Y-32422203D01*
X31992309Y-32419053D01*
X32013750Y-32418000D01*
X32451250Y-32418000D01*
X32472691Y-32419053D01*
X32472691Y-32419053D01*
G37*
D11*
X32232500Y-32893000D03*
G04 #@! TD*
D10*
G04 #@! TO.C,D3*
G36*
X32472691Y-30641053D02*
X32493926Y-30644203D01*
X32514750Y-30649419D01*
X32534962Y-30656651D01*
X32554368Y-30665830D01*
X32572781Y-30676866D01*
X32590024Y-30689654D01*
X32605930Y-30704070D01*
X32620346Y-30719976D01*
X32633134Y-30737219D01*
X32644170Y-30755632D01*
X32653349Y-30775038D01*
X32660581Y-30795250D01*
X32665797Y-30816074D01*
X32668947Y-30837309D01*
X32670000Y-30858750D01*
X32670000Y-31371250D01*
X32668947Y-31392691D01*
X32665797Y-31413926D01*
X32660581Y-31434750D01*
X32653349Y-31454962D01*
X32644170Y-31474368D01*
X32633134Y-31492781D01*
X32620346Y-31510024D01*
X32605930Y-31525930D01*
X32590024Y-31540346D01*
X32572781Y-31553134D01*
X32554368Y-31564170D01*
X32534962Y-31573349D01*
X32514750Y-31580581D01*
X32493926Y-31585797D01*
X32472691Y-31588947D01*
X32451250Y-31590000D01*
X32013750Y-31590000D01*
X31992309Y-31588947D01*
X31971074Y-31585797D01*
X31950250Y-31580581D01*
X31930038Y-31573349D01*
X31910632Y-31564170D01*
X31892219Y-31553134D01*
X31874976Y-31540346D01*
X31859070Y-31525930D01*
X31844654Y-31510024D01*
X31831866Y-31492781D01*
X31820830Y-31474368D01*
X31811651Y-31454962D01*
X31804419Y-31434750D01*
X31799203Y-31413926D01*
X31796053Y-31392691D01*
X31795000Y-31371250D01*
X31795000Y-30858750D01*
X31796053Y-30837309D01*
X31799203Y-30816074D01*
X31804419Y-30795250D01*
X31811651Y-30775038D01*
X31820830Y-30755632D01*
X31831866Y-30737219D01*
X31844654Y-30719976D01*
X31859070Y-30704070D01*
X31874976Y-30689654D01*
X31892219Y-30676866D01*
X31910632Y-30665830D01*
X31930038Y-30656651D01*
X31950250Y-30649419D01*
X31971074Y-30644203D01*
X31992309Y-30641053D01*
X32013750Y-30640000D01*
X32451250Y-30640000D01*
X32472691Y-30641053D01*
X32472691Y-30641053D01*
G37*
D11*
X32232500Y-31115000D03*
D10*
G36*
X34047691Y-30641053D02*
X34068926Y-30644203D01*
X34089750Y-30649419D01*
X34109962Y-30656651D01*
X34129368Y-30665830D01*
X34147781Y-30676866D01*
X34165024Y-30689654D01*
X34180930Y-30704070D01*
X34195346Y-30719976D01*
X34208134Y-30737219D01*
X34219170Y-30755632D01*
X34228349Y-30775038D01*
X34235581Y-30795250D01*
X34240797Y-30816074D01*
X34243947Y-30837309D01*
X34245000Y-30858750D01*
X34245000Y-31371250D01*
X34243947Y-31392691D01*
X34240797Y-31413926D01*
X34235581Y-31434750D01*
X34228349Y-31454962D01*
X34219170Y-31474368D01*
X34208134Y-31492781D01*
X34195346Y-31510024D01*
X34180930Y-31525930D01*
X34165024Y-31540346D01*
X34147781Y-31553134D01*
X34129368Y-31564170D01*
X34109962Y-31573349D01*
X34089750Y-31580581D01*
X34068926Y-31585797D01*
X34047691Y-31588947D01*
X34026250Y-31590000D01*
X33588750Y-31590000D01*
X33567309Y-31588947D01*
X33546074Y-31585797D01*
X33525250Y-31580581D01*
X33505038Y-31573349D01*
X33485632Y-31564170D01*
X33467219Y-31553134D01*
X33449976Y-31540346D01*
X33434070Y-31525930D01*
X33419654Y-31510024D01*
X33406866Y-31492781D01*
X33395830Y-31474368D01*
X33386651Y-31454962D01*
X33379419Y-31434750D01*
X33374203Y-31413926D01*
X33371053Y-31392691D01*
X33370000Y-31371250D01*
X33370000Y-30858750D01*
X33371053Y-30837309D01*
X33374203Y-30816074D01*
X33379419Y-30795250D01*
X33386651Y-30775038D01*
X33395830Y-30755632D01*
X33406866Y-30737219D01*
X33419654Y-30719976D01*
X33434070Y-30704070D01*
X33449976Y-30689654D01*
X33467219Y-30676866D01*
X33485632Y-30665830D01*
X33505038Y-30656651D01*
X33525250Y-30649419D01*
X33546074Y-30644203D01*
X33567309Y-30641053D01*
X33588750Y-30640000D01*
X34026250Y-30640000D01*
X34047691Y-30641053D01*
X34047691Y-30641053D01*
G37*
D11*
X33807500Y-31115000D03*
G04 #@! TD*
D10*
G04 #@! TO.C,D4*
G36*
X34047691Y-28736053D02*
X34068926Y-28739203D01*
X34089750Y-28744419D01*
X34109962Y-28751651D01*
X34129368Y-28760830D01*
X34147781Y-28771866D01*
X34165024Y-28784654D01*
X34180930Y-28799070D01*
X34195346Y-28814976D01*
X34208134Y-28832219D01*
X34219170Y-28850632D01*
X34228349Y-28870038D01*
X34235581Y-28890250D01*
X34240797Y-28911074D01*
X34243947Y-28932309D01*
X34245000Y-28953750D01*
X34245000Y-29466250D01*
X34243947Y-29487691D01*
X34240797Y-29508926D01*
X34235581Y-29529750D01*
X34228349Y-29549962D01*
X34219170Y-29569368D01*
X34208134Y-29587781D01*
X34195346Y-29605024D01*
X34180930Y-29620930D01*
X34165024Y-29635346D01*
X34147781Y-29648134D01*
X34129368Y-29659170D01*
X34109962Y-29668349D01*
X34089750Y-29675581D01*
X34068926Y-29680797D01*
X34047691Y-29683947D01*
X34026250Y-29685000D01*
X33588750Y-29685000D01*
X33567309Y-29683947D01*
X33546074Y-29680797D01*
X33525250Y-29675581D01*
X33505038Y-29668349D01*
X33485632Y-29659170D01*
X33467219Y-29648134D01*
X33449976Y-29635346D01*
X33434070Y-29620930D01*
X33419654Y-29605024D01*
X33406866Y-29587781D01*
X33395830Y-29569368D01*
X33386651Y-29549962D01*
X33379419Y-29529750D01*
X33374203Y-29508926D01*
X33371053Y-29487691D01*
X33370000Y-29466250D01*
X33370000Y-28953750D01*
X33371053Y-28932309D01*
X33374203Y-28911074D01*
X33379419Y-28890250D01*
X33386651Y-28870038D01*
X33395830Y-28850632D01*
X33406866Y-28832219D01*
X33419654Y-28814976D01*
X33434070Y-28799070D01*
X33449976Y-28784654D01*
X33467219Y-28771866D01*
X33485632Y-28760830D01*
X33505038Y-28751651D01*
X33525250Y-28744419D01*
X33546074Y-28739203D01*
X33567309Y-28736053D01*
X33588750Y-28735000D01*
X34026250Y-28735000D01*
X34047691Y-28736053D01*
X34047691Y-28736053D01*
G37*
D11*
X33807500Y-29210000D03*
D10*
G36*
X32472691Y-28736053D02*
X32493926Y-28739203D01*
X32514750Y-28744419D01*
X32534962Y-28751651D01*
X32554368Y-28760830D01*
X32572781Y-28771866D01*
X32590024Y-28784654D01*
X32605930Y-28799070D01*
X32620346Y-28814976D01*
X32633134Y-28832219D01*
X32644170Y-28850632D01*
X32653349Y-28870038D01*
X32660581Y-28890250D01*
X32665797Y-28911074D01*
X32668947Y-28932309D01*
X32670000Y-28953750D01*
X32670000Y-29466250D01*
X32668947Y-29487691D01*
X32665797Y-29508926D01*
X32660581Y-29529750D01*
X32653349Y-29549962D01*
X32644170Y-29569368D01*
X32633134Y-29587781D01*
X32620346Y-29605024D01*
X32605930Y-29620930D01*
X32590024Y-29635346D01*
X32572781Y-29648134D01*
X32554368Y-29659170D01*
X32534962Y-29668349D01*
X32514750Y-29675581D01*
X32493926Y-29680797D01*
X32472691Y-29683947D01*
X32451250Y-29685000D01*
X32013750Y-29685000D01*
X31992309Y-29683947D01*
X31971074Y-29680797D01*
X31950250Y-29675581D01*
X31930038Y-29668349D01*
X31910632Y-29659170D01*
X31892219Y-29648134D01*
X31874976Y-29635346D01*
X31859070Y-29620930D01*
X31844654Y-29605024D01*
X31831866Y-29587781D01*
X31820830Y-29569368D01*
X31811651Y-29549962D01*
X31804419Y-29529750D01*
X31799203Y-29508926D01*
X31796053Y-29487691D01*
X31795000Y-29466250D01*
X31795000Y-28953750D01*
X31796053Y-28932309D01*
X31799203Y-28911074D01*
X31804419Y-28890250D01*
X31811651Y-28870038D01*
X31820830Y-28850632D01*
X31831866Y-28832219D01*
X31844654Y-28814976D01*
X31859070Y-28799070D01*
X31874976Y-28784654D01*
X31892219Y-28771866D01*
X31910632Y-28760830D01*
X31930038Y-28751651D01*
X31950250Y-28744419D01*
X31971074Y-28739203D01*
X31992309Y-28736053D01*
X32013750Y-28735000D01*
X32451250Y-28735000D01*
X32472691Y-28736053D01*
X32472691Y-28736053D01*
G37*
D11*
X32232500Y-29210000D03*
G04 #@! TD*
D12*
G04 #@! TO.C,J1*
X33095000Y-39755000D03*
X33095000Y-40255000D03*
X33095000Y-40755000D03*
X33095000Y-39255000D03*
X33095000Y-41255000D03*
X33095000Y-38755000D03*
X33095000Y-41755000D03*
X33095000Y-38255000D03*
D13*
X33095000Y-37555000D03*
X33095000Y-42455000D03*
X33095000Y-36780000D03*
X33095000Y-43230000D03*
G04 #@! TD*
D10*
G04 #@! TO.C,R1*
G36*
X36435191Y-35975053D02*
X36456426Y-35978203D01*
X36477250Y-35983419D01*
X36497462Y-35990651D01*
X36516868Y-35999830D01*
X36535281Y-36010866D01*
X36552524Y-36023654D01*
X36568430Y-36038070D01*
X36582846Y-36053976D01*
X36595634Y-36071219D01*
X36606670Y-36089632D01*
X36615849Y-36109038D01*
X36623081Y-36129250D01*
X36628297Y-36150074D01*
X36631447Y-36171309D01*
X36632500Y-36192750D01*
X36632500Y-36705250D01*
X36631447Y-36726691D01*
X36628297Y-36747926D01*
X36623081Y-36768750D01*
X36615849Y-36788962D01*
X36606670Y-36808368D01*
X36595634Y-36826781D01*
X36582846Y-36844024D01*
X36568430Y-36859930D01*
X36552524Y-36874346D01*
X36535281Y-36887134D01*
X36516868Y-36898170D01*
X36497462Y-36907349D01*
X36477250Y-36914581D01*
X36456426Y-36919797D01*
X36435191Y-36922947D01*
X36413750Y-36924000D01*
X35976250Y-36924000D01*
X35954809Y-36922947D01*
X35933574Y-36919797D01*
X35912750Y-36914581D01*
X35892538Y-36907349D01*
X35873132Y-36898170D01*
X35854719Y-36887134D01*
X35837476Y-36874346D01*
X35821570Y-36859930D01*
X35807154Y-36844024D01*
X35794366Y-36826781D01*
X35783330Y-36808368D01*
X35774151Y-36788962D01*
X35766919Y-36768750D01*
X35761703Y-36747926D01*
X35758553Y-36726691D01*
X35757500Y-36705250D01*
X35757500Y-36192750D01*
X35758553Y-36171309D01*
X35761703Y-36150074D01*
X35766919Y-36129250D01*
X35774151Y-36109038D01*
X35783330Y-36089632D01*
X35794366Y-36071219D01*
X35807154Y-36053976D01*
X35821570Y-36038070D01*
X35837476Y-36023654D01*
X35854719Y-36010866D01*
X35873132Y-35999830D01*
X35892538Y-35990651D01*
X35912750Y-35983419D01*
X35933574Y-35978203D01*
X35954809Y-35975053D01*
X35976250Y-35974000D01*
X36413750Y-35974000D01*
X36435191Y-35975053D01*
X36435191Y-35975053D01*
G37*
D11*
X36195000Y-36449000D03*
D10*
G36*
X38010191Y-35975053D02*
X38031426Y-35978203D01*
X38052250Y-35983419D01*
X38072462Y-35990651D01*
X38091868Y-35999830D01*
X38110281Y-36010866D01*
X38127524Y-36023654D01*
X38143430Y-36038070D01*
X38157846Y-36053976D01*
X38170634Y-36071219D01*
X38181670Y-36089632D01*
X38190849Y-36109038D01*
X38198081Y-36129250D01*
X38203297Y-36150074D01*
X38206447Y-36171309D01*
X38207500Y-36192750D01*
X38207500Y-36705250D01*
X38206447Y-36726691D01*
X38203297Y-36747926D01*
X38198081Y-36768750D01*
X38190849Y-36788962D01*
X38181670Y-36808368D01*
X38170634Y-36826781D01*
X38157846Y-36844024D01*
X38143430Y-36859930D01*
X38127524Y-36874346D01*
X38110281Y-36887134D01*
X38091868Y-36898170D01*
X38072462Y-36907349D01*
X38052250Y-36914581D01*
X38031426Y-36919797D01*
X38010191Y-36922947D01*
X37988750Y-36924000D01*
X37551250Y-36924000D01*
X37529809Y-36922947D01*
X37508574Y-36919797D01*
X37487750Y-36914581D01*
X37467538Y-36907349D01*
X37448132Y-36898170D01*
X37429719Y-36887134D01*
X37412476Y-36874346D01*
X37396570Y-36859930D01*
X37382154Y-36844024D01*
X37369366Y-36826781D01*
X37358330Y-36808368D01*
X37349151Y-36788962D01*
X37341919Y-36768750D01*
X37336703Y-36747926D01*
X37333553Y-36726691D01*
X37332500Y-36705250D01*
X37332500Y-36192750D01*
X37333553Y-36171309D01*
X37336703Y-36150074D01*
X37341919Y-36129250D01*
X37349151Y-36109038D01*
X37358330Y-36089632D01*
X37369366Y-36071219D01*
X37382154Y-36053976D01*
X37396570Y-36038070D01*
X37412476Y-36023654D01*
X37429719Y-36010866D01*
X37448132Y-35999830D01*
X37467538Y-35990651D01*
X37487750Y-35983419D01*
X37508574Y-35978203D01*
X37529809Y-35975053D01*
X37551250Y-35974000D01*
X37988750Y-35974000D01*
X38010191Y-35975053D01*
X38010191Y-35975053D01*
G37*
D11*
X37770000Y-36449000D03*
G04 #@! TD*
D10*
G04 #@! TO.C,R2*
G36*
X38010191Y-42579053D02*
X38031426Y-42582203D01*
X38052250Y-42587419D01*
X38072462Y-42594651D01*
X38091868Y-42603830D01*
X38110281Y-42614866D01*
X38127524Y-42627654D01*
X38143430Y-42642070D01*
X38157846Y-42657976D01*
X38170634Y-42675219D01*
X38181670Y-42693632D01*
X38190849Y-42713038D01*
X38198081Y-42733250D01*
X38203297Y-42754074D01*
X38206447Y-42775309D01*
X38207500Y-42796750D01*
X38207500Y-43309250D01*
X38206447Y-43330691D01*
X38203297Y-43351926D01*
X38198081Y-43372750D01*
X38190849Y-43392962D01*
X38181670Y-43412368D01*
X38170634Y-43430781D01*
X38157846Y-43448024D01*
X38143430Y-43463930D01*
X38127524Y-43478346D01*
X38110281Y-43491134D01*
X38091868Y-43502170D01*
X38072462Y-43511349D01*
X38052250Y-43518581D01*
X38031426Y-43523797D01*
X38010191Y-43526947D01*
X37988750Y-43528000D01*
X37551250Y-43528000D01*
X37529809Y-43526947D01*
X37508574Y-43523797D01*
X37487750Y-43518581D01*
X37467538Y-43511349D01*
X37448132Y-43502170D01*
X37429719Y-43491134D01*
X37412476Y-43478346D01*
X37396570Y-43463930D01*
X37382154Y-43448024D01*
X37369366Y-43430781D01*
X37358330Y-43412368D01*
X37349151Y-43392962D01*
X37341919Y-43372750D01*
X37336703Y-43351926D01*
X37333553Y-43330691D01*
X37332500Y-43309250D01*
X37332500Y-42796750D01*
X37333553Y-42775309D01*
X37336703Y-42754074D01*
X37341919Y-42733250D01*
X37349151Y-42713038D01*
X37358330Y-42693632D01*
X37369366Y-42675219D01*
X37382154Y-42657976D01*
X37396570Y-42642070D01*
X37412476Y-42627654D01*
X37429719Y-42614866D01*
X37448132Y-42603830D01*
X37467538Y-42594651D01*
X37487750Y-42587419D01*
X37508574Y-42582203D01*
X37529809Y-42579053D01*
X37551250Y-42578000D01*
X37988750Y-42578000D01*
X38010191Y-42579053D01*
X38010191Y-42579053D01*
G37*
D11*
X37770000Y-43053000D03*
D10*
G36*
X36435191Y-42579053D02*
X36456426Y-42582203D01*
X36477250Y-42587419D01*
X36497462Y-42594651D01*
X36516868Y-42603830D01*
X36535281Y-42614866D01*
X36552524Y-42627654D01*
X36568430Y-42642070D01*
X36582846Y-42657976D01*
X36595634Y-42675219D01*
X36606670Y-42693632D01*
X36615849Y-42713038D01*
X36623081Y-42733250D01*
X36628297Y-42754074D01*
X36631447Y-42775309D01*
X36632500Y-42796750D01*
X36632500Y-43309250D01*
X36631447Y-43330691D01*
X36628297Y-43351926D01*
X36623081Y-43372750D01*
X36615849Y-43392962D01*
X36606670Y-43412368D01*
X36595634Y-43430781D01*
X36582846Y-43448024D01*
X36568430Y-43463930D01*
X36552524Y-43478346D01*
X36535281Y-43491134D01*
X36516868Y-43502170D01*
X36497462Y-43511349D01*
X36477250Y-43518581D01*
X36456426Y-43523797D01*
X36435191Y-43526947D01*
X36413750Y-43528000D01*
X35976250Y-43528000D01*
X35954809Y-43526947D01*
X35933574Y-43523797D01*
X35912750Y-43518581D01*
X35892538Y-43511349D01*
X35873132Y-43502170D01*
X35854719Y-43491134D01*
X35837476Y-43478346D01*
X35821570Y-43463930D01*
X35807154Y-43448024D01*
X35794366Y-43430781D01*
X35783330Y-43412368D01*
X35774151Y-43392962D01*
X35766919Y-43372750D01*
X35761703Y-43351926D01*
X35758553Y-43330691D01*
X35757500Y-43309250D01*
X35757500Y-42796750D01*
X35758553Y-42775309D01*
X35761703Y-42754074D01*
X35766919Y-42733250D01*
X35774151Y-42713038D01*
X35783330Y-42693632D01*
X35794366Y-42675219D01*
X35807154Y-42657976D01*
X35821570Y-42642070D01*
X35837476Y-42627654D01*
X35854719Y-42614866D01*
X35873132Y-42603830D01*
X35892538Y-42594651D01*
X35912750Y-42587419D01*
X35933574Y-42582203D01*
X35954809Y-42579053D01*
X35976250Y-42578000D01*
X36413750Y-42578000D01*
X36435191Y-42579053D01*
X36435191Y-42579053D01*
G37*
D11*
X36195000Y-43053000D03*
G04 #@! TD*
D10*
G04 #@! TO.C,R3*
G36*
X36435191Y-39277053D02*
X36456426Y-39280203D01*
X36477250Y-39285419D01*
X36497462Y-39292651D01*
X36516868Y-39301830D01*
X36535281Y-39312866D01*
X36552524Y-39325654D01*
X36568430Y-39340070D01*
X36582846Y-39355976D01*
X36595634Y-39373219D01*
X36606670Y-39391632D01*
X36615849Y-39411038D01*
X36623081Y-39431250D01*
X36628297Y-39452074D01*
X36631447Y-39473309D01*
X36632500Y-39494750D01*
X36632500Y-40007250D01*
X36631447Y-40028691D01*
X36628297Y-40049926D01*
X36623081Y-40070750D01*
X36615849Y-40090962D01*
X36606670Y-40110368D01*
X36595634Y-40128781D01*
X36582846Y-40146024D01*
X36568430Y-40161930D01*
X36552524Y-40176346D01*
X36535281Y-40189134D01*
X36516868Y-40200170D01*
X36497462Y-40209349D01*
X36477250Y-40216581D01*
X36456426Y-40221797D01*
X36435191Y-40224947D01*
X36413750Y-40226000D01*
X35976250Y-40226000D01*
X35954809Y-40224947D01*
X35933574Y-40221797D01*
X35912750Y-40216581D01*
X35892538Y-40209349D01*
X35873132Y-40200170D01*
X35854719Y-40189134D01*
X35837476Y-40176346D01*
X35821570Y-40161930D01*
X35807154Y-40146024D01*
X35794366Y-40128781D01*
X35783330Y-40110368D01*
X35774151Y-40090962D01*
X35766919Y-40070750D01*
X35761703Y-40049926D01*
X35758553Y-40028691D01*
X35757500Y-40007250D01*
X35757500Y-39494750D01*
X35758553Y-39473309D01*
X35761703Y-39452074D01*
X35766919Y-39431250D01*
X35774151Y-39411038D01*
X35783330Y-39391632D01*
X35794366Y-39373219D01*
X35807154Y-39355976D01*
X35821570Y-39340070D01*
X35837476Y-39325654D01*
X35854719Y-39312866D01*
X35873132Y-39301830D01*
X35892538Y-39292651D01*
X35912750Y-39285419D01*
X35933574Y-39280203D01*
X35954809Y-39277053D01*
X35976250Y-39276000D01*
X36413750Y-39276000D01*
X36435191Y-39277053D01*
X36435191Y-39277053D01*
G37*
D11*
X36195000Y-39751000D03*
D10*
G36*
X38010191Y-39277053D02*
X38031426Y-39280203D01*
X38052250Y-39285419D01*
X38072462Y-39292651D01*
X38091868Y-39301830D01*
X38110281Y-39312866D01*
X38127524Y-39325654D01*
X38143430Y-39340070D01*
X38157846Y-39355976D01*
X38170634Y-39373219D01*
X38181670Y-39391632D01*
X38190849Y-39411038D01*
X38198081Y-39431250D01*
X38203297Y-39452074D01*
X38206447Y-39473309D01*
X38207500Y-39494750D01*
X38207500Y-40007250D01*
X38206447Y-40028691D01*
X38203297Y-40049926D01*
X38198081Y-40070750D01*
X38190849Y-40090962D01*
X38181670Y-40110368D01*
X38170634Y-40128781D01*
X38157846Y-40146024D01*
X38143430Y-40161930D01*
X38127524Y-40176346D01*
X38110281Y-40189134D01*
X38091868Y-40200170D01*
X38072462Y-40209349D01*
X38052250Y-40216581D01*
X38031426Y-40221797D01*
X38010191Y-40224947D01*
X37988750Y-40226000D01*
X37551250Y-40226000D01*
X37529809Y-40224947D01*
X37508574Y-40221797D01*
X37487750Y-40216581D01*
X37467538Y-40209349D01*
X37448132Y-40200170D01*
X37429719Y-40189134D01*
X37412476Y-40176346D01*
X37396570Y-40161930D01*
X37382154Y-40146024D01*
X37369366Y-40128781D01*
X37358330Y-40110368D01*
X37349151Y-40090962D01*
X37341919Y-40070750D01*
X37336703Y-40049926D01*
X37333553Y-40028691D01*
X37332500Y-40007250D01*
X37332500Y-39494750D01*
X37333553Y-39473309D01*
X37336703Y-39452074D01*
X37341919Y-39431250D01*
X37349151Y-39411038D01*
X37358330Y-39391632D01*
X37369366Y-39373219D01*
X37382154Y-39355976D01*
X37396570Y-39340070D01*
X37412476Y-39325654D01*
X37429719Y-39312866D01*
X37448132Y-39301830D01*
X37467538Y-39292651D01*
X37487750Y-39285419D01*
X37508574Y-39280203D01*
X37529809Y-39277053D01*
X37551250Y-39276000D01*
X37988750Y-39276000D01*
X38010191Y-39277053D01*
X38010191Y-39277053D01*
G37*
D11*
X37770000Y-39751000D03*
G04 #@! TD*
D10*
G04 #@! TO.C,R4*
G36*
X38010191Y-40928053D02*
X38031426Y-40931203D01*
X38052250Y-40936419D01*
X38072462Y-40943651D01*
X38091868Y-40952830D01*
X38110281Y-40963866D01*
X38127524Y-40976654D01*
X38143430Y-40991070D01*
X38157846Y-41006976D01*
X38170634Y-41024219D01*
X38181670Y-41042632D01*
X38190849Y-41062038D01*
X38198081Y-41082250D01*
X38203297Y-41103074D01*
X38206447Y-41124309D01*
X38207500Y-41145750D01*
X38207500Y-41658250D01*
X38206447Y-41679691D01*
X38203297Y-41700926D01*
X38198081Y-41721750D01*
X38190849Y-41741962D01*
X38181670Y-41761368D01*
X38170634Y-41779781D01*
X38157846Y-41797024D01*
X38143430Y-41812930D01*
X38127524Y-41827346D01*
X38110281Y-41840134D01*
X38091868Y-41851170D01*
X38072462Y-41860349D01*
X38052250Y-41867581D01*
X38031426Y-41872797D01*
X38010191Y-41875947D01*
X37988750Y-41877000D01*
X37551250Y-41877000D01*
X37529809Y-41875947D01*
X37508574Y-41872797D01*
X37487750Y-41867581D01*
X37467538Y-41860349D01*
X37448132Y-41851170D01*
X37429719Y-41840134D01*
X37412476Y-41827346D01*
X37396570Y-41812930D01*
X37382154Y-41797024D01*
X37369366Y-41779781D01*
X37358330Y-41761368D01*
X37349151Y-41741962D01*
X37341919Y-41721750D01*
X37336703Y-41700926D01*
X37333553Y-41679691D01*
X37332500Y-41658250D01*
X37332500Y-41145750D01*
X37333553Y-41124309D01*
X37336703Y-41103074D01*
X37341919Y-41082250D01*
X37349151Y-41062038D01*
X37358330Y-41042632D01*
X37369366Y-41024219D01*
X37382154Y-41006976D01*
X37396570Y-40991070D01*
X37412476Y-40976654D01*
X37429719Y-40963866D01*
X37448132Y-40952830D01*
X37467538Y-40943651D01*
X37487750Y-40936419D01*
X37508574Y-40931203D01*
X37529809Y-40928053D01*
X37551250Y-40927000D01*
X37988750Y-40927000D01*
X38010191Y-40928053D01*
X38010191Y-40928053D01*
G37*
D11*
X37770000Y-41402000D03*
D10*
G36*
X36435191Y-40928053D02*
X36456426Y-40931203D01*
X36477250Y-40936419D01*
X36497462Y-40943651D01*
X36516868Y-40952830D01*
X36535281Y-40963866D01*
X36552524Y-40976654D01*
X36568430Y-40991070D01*
X36582846Y-41006976D01*
X36595634Y-41024219D01*
X36606670Y-41042632D01*
X36615849Y-41062038D01*
X36623081Y-41082250D01*
X36628297Y-41103074D01*
X36631447Y-41124309D01*
X36632500Y-41145750D01*
X36632500Y-41658250D01*
X36631447Y-41679691D01*
X36628297Y-41700926D01*
X36623081Y-41721750D01*
X36615849Y-41741962D01*
X36606670Y-41761368D01*
X36595634Y-41779781D01*
X36582846Y-41797024D01*
X36568430Y-41812930D01*
X36552524Y-41827346D01*
X36535281Y-41840134D01*
X36516868Y-41851170D01*
X36497462Y-41860349D01*
X36477250Y-41867581D01*
X36456426Y-41872797D01*
X36435191Y-41875947D01*
X36413750Y-41877000D01*
X35976250Y-41877000D01*
X35954809Y-41875947D01*
X35933574Y-41872797D01*
X35912750Y-41867581D01*
X35892538Y-41860349D01*
X35873132Y-41851170D01*
X35854719Y-41840134D01*
X35837476Y-41827346D01*
X35821570Y-41812930D01*
X35807154Y-41797024D01*
X35794366Y-41779781D01*
X35783330Y-41761368D01*
X35774151Y-41741962D01*
X35766919Y-41721750D01*
X35761703Y-41700926D01*
X35758553Y-41679691D01*
X35757500Y-41658250D01*
X35757500Y-41145750D01*
X35758553Y-41124309D01*
X35761703Y-41103074D01*
X35766919Y-41082250D01*
X35774151Y-41062038D01*
X35783330Y-41042632D01*
X35794366Y-41024219D01*
X35807154Y-41006976D01*
X35821570Y-40991070D01*
X35837476Y-40976654D01*
X35854719Y-40963866D01*
X35873132Y-40952830D01*
X35892538Y-40943651D01*
X35912750Y-40936419D01*
X35933574Y-40931203D01*
X35954809Y-40928053D01*
X35976250Y-40927000D01*
X36413750Y-40927000D01*
X36435191Y-40928053D01*
X36435191Y-40928053D01*
G37*
D11*
X36195000Y-41402000D03*
G04 #@! TD*
D10*
G04 #@! TO.C,R5*
G36*
X36435191Y-37626053D02*
X36456426Y-37629203D01*
X36477250Y-37634419D01*
X36497462Y-37641651D01*
X36516868Y-37650830D01*
X36535281Y-37661866D01*
X36552524Y-37674654D01*
X36568430Y-37689070D01*
X36582846Y-37704976D01*
X36595634Y-37722219D01*
X36606670Y-37740632D01*
X36615849Y-37760038D01*
X36623081Y-37780250D01*
X36628297Y-37801074D01*
X36631447Y-37822309D01*
X36632500Y-37843750D01*
X36632500Y-38356250D01*
X36631447Y-38377691D01*
X36628297Y-38398926D01*
X36623081Y-38419750D01*
X36615849Y-38439962D01*
X36606670Y-38459368D01*
X36595634Y-38477781D01*
X36582846Y-38495024D01*
X36568430Y-38510930D01*
X36552524Y-38525346D01*
X36535281Y-38538134D01*
X36516868Y-38549170D01*
X36497462Y-38558349D01*
X36477250Y-38565581D01*
X36456426Y-38570797D01*
X36435191Y-38573947D01*
X36413750Y-38575000D01*
X35976250Y-38575000D01*
X35954809Y-38573947D01*
X35933574Y-38570797D01*
X35912750Y-38565581D01*
X35892538Y-38558349D01*
X35873132Y-38549170D01*
X35854719Y-38538134D01*
X35837476Y-38525346D01*
X35821570Y-38510930D01*
X35807154Y-38495024D01*
X35794366Y-38477781D01*
X35783330Y-38459368D01*
X35774151Y-38439962D01*
X35766919Y-38419750D01*
X35761703Y-38398926D01*
X35758553Y-38377691D01*
X35757500Y-38356250D01*
X35757500Y-37843750D01*
X35758553Y-37822309D01*
X35761703Y-37801074D01*
X35766919Y-37780250D01*
X35774151Y-37760038D01*
X35783330Y-37740632D01*
X35794366Y-37722219D01*
X35807154Y-37704976D01*
X35821570Y-37689070D01*
X35837476Y-37674654D01*
X35854719Y-37661866D01*
X35873132Y-37650830D01*
X35892538Y-37641651D01*
X35912750Y-37634419D01*
X35933574Y-37629203D01*
X35954809Y-37626053D01*
X35976250Y-37625000D01*
X36413750Y-37625000D01*
X36435191Y-37626053D01*
X36435191Y-37626053D01*
G37*
D11*
X36195000Y-38100000D03*
D10*
G36*
X38010191Y-37626053D02*
X38031426Y-37629203D01*
X38052250Y-37634419D01*
X38072462Y-37641651D01*
X38091868Y-37650830D01*
X38110281Y-37661866D01*
X38127524Y-37674654D01*
X38143430Y-37689070D01*
X38157846Y-37704976D01*
X38170634Y-37722219D01*
X38181670Y-37740632D01*
X38190849Y-37760038D01*
X38198081Y-37780250D01*
X38203297Y-37801074D01*
X38206447Y-37822309D01*
X38207500Y-37843750D01*
X38207500Y-38356250D01*
X38206447Y-38377691D01*
X38203297Y-38398926D01*
X38198081Y-38419750D01*
X38190849Y-38439962D01*
X38181670Y-38459368D01*
X38170634Y-38477781D01*
X38157846Y-38495024D01*
X38143430Y-38510930D01*
X38127524Y-38525346D01*
X38110281Y-38538134D01*
X38091868Y-38549170D01*
X38072462Y-38558349D01*
X38052250Y-38565581D01*
X38031426Y-38570797D01*
X38010191Y-38573947D01*
X37988750Y-38575000D01*
X37551250Y-38575000D01*
X37529809Y-38573947D01*
X37508574Y-38570797D01*
X37487750Y-38565581D01*
X37467538Y-38558349D01*
X37448132Y-38549170D01*
X37429719Y-38538134D01*
X37412476Y-38525346D01*
X37396570Y-38510930D01*
X37382154Y-38495024D01*
X37369366Y-38477781D01*
X37358330Y-38459368D01*
X37349151Y-38439962D01*
X37341919Y-38419750D01*
X37336703Y-38398926D01*
X37333553Y-38377691D01*
X37332500Y-38356250D01*
X37332500Y-37843750D01*
X37333553Y-37822309D01*
X37336703Y-37801074D01*
X37341919Y-37780250D01*
X37349151Y-37760038D01*
X37358330Y-37740632D01*
X37369366Y-37722219D01*
X37382154Y-37704976D01*
X37396570Y-37689070D01*
X37412476Y-37674654D01*
X37429719Y-37661866D01*
X37448132Y-37650830D01*
X37467538Y-37641651D01*
X37487750Y-37634419D01*
X37508574Y-37629203D01*
X37529809Y-37626053D01*
X37551250Y-37625000D01*
X37988750Y-37625000D01*
X38010191Y-37626053D01*
X38010191Y-37626053D01*
G37*
D11*
X37770000Y-38100000D03*
G04 #@! TD*
D10*
G04 #@! TO.C,R7*
G36*
X37222691Y-26831053D02*
X37243926Y-26834203D01*
X37264750Y-26839419D01*
X37284962Y-26846651D01*
X37304368Y-26855830D01*
X37322781Y-26866866D01*
X37340024Y-26879654D01*
X37355930Y-26894070D01*
X37370346Y-26909976D01*
X37383134Y-26927219D01*
X37394170Y-26945632D01*
X37403349Y-26965038D01*
X37410581Y-26985250D01*
X37415797Y-27006074D01*
X37418947Y-27027309D01*
X37420000Y-27048750D01*
X37420000Y-27561250D01*
X37418947Y-27582691D01*
X37415797Y-27603926D01*
X37410581Y-27624750D01*
X37403349Y-27644962D01*
X37394170Y-27664368D01*
X37383134Y-27682781D01*
X37370346Y-27700024D01*
X37355930Y-27715930D01*
X37340024Y-27730346D01*
X37322781Y-27743134D01*
X37304368Y-27754170D01*
X37284962Y-27763349D01*
X37264750Y-27770581D01*
X37243926Y-27775797D01*
X37222691Y-27778947D01*
X37201250Y-27780000D01*
X36763750Y-27780000D01*
X36742309Y-27778947D01*
X36721074Y-27775797D01*
X36700250Y-27770581D01*
X36680038Y-27763349D01*
X36660632Y-27754170D01*
X36642219Y-27743134D01*
X36624976Y-27730346D01*
X36609070Y-27715930D01*
X36594654Y-27700024D01*
X36581866Y-27682781D01*
X36570830Y-27664368D01*
X36561651Y-27644962D01*
X36554419Y-27624750D01*
X36549203Y-27603926D01*
X36546053Y-27582691D01*
X36545000Y-27561250D01*
X36545000Y-27048750D01*
X36546053Y-27027309D01*
X36549203Y-27006074D01*
X36554419Y-26985250D01*
X36561651Y-26965038D01*
X36570830Y-26945632D01*
X36581866Y-26927219D01*
X36594654Y-26909976D01*
X36609070Y-26894070D01*
X36624976Y-26879654D01*
X36642219Y-26866866D01*
X36660632Y-26855830D01*
X36680038Y-26846651D01*
X36700250Y-26839419D01*
X36721074Y-26834203D01*
X36742309Y-26831053D01*
X36763750Y-26830000D01*
X37201250Y-26830000D01*
X37222691Y-26831053D01*
X37222691Y-26831053D01*
G37*
D11*
X36982500Y-27305000D03*
D10*
G36*
X35647691Y-26831053D02*
X35668926Y-26834203D01*
X35689750Y-26839419D01*
X35709962Y-26846651D01*
X35729368Y-26855830D01*
X35747781Y-26866866D01*
X35765024Y-26879654D01*
X35780930Y-26894070D01*
X35795346Y-26909976D01*
X35808134Y-26927219D01*
X35819170Y-26945632D01*
X35828349Y-26965038D01*
X35835581Y-26985250D01*
X35840797Y-27006074D01*
X35843947Y-27027309D01*
X35845000Y-27048750D01*
X35845000Y-27561250D01*
X35843947Y-27582691D01*
X35840797Y-27603926D01*
X35835581Y-27624750D01*
X35828349Y-27644962D01*
X35819170Y-27664368D01*
X35808134Y-27682781D01*
X35795346Y-27700024D01*
X35780930Y-27715930D01*
X35765024Y-27730346D01*
X35747781Y-27743134D01*
X35729368Y-27754170D01*
X35709962Y-27763349D01*
X35689750Y-27770581D01*
X35668926Y-27775797D01*
X35647691Y-27778947D01*
X35626250Y-27780000D01*
X35188750Y-27780000D01*
X35167309Y-27778947D01*
X35146074Y-27775797D01*
X35125250Y-27770581D01*
X35105038Y-27763349D01*
X35085632Y-27754170D01*
X35067219Y-27743134D01*
X35049976Y-27730346D01*
X35034070Y-27715930D01*
X35019654Y-27700024D01*
X35006866Y-27682781D01*
X34995830Y-27664368D01*
X34986651Y-27644962D01*
X34979419Y-27624750D01*
X34974203Y-27603926D01*
X34971053Y-27582691D01*
X34970000Y-27561250D01*
X34970000Y-27048750D01*
X34971053Y-27027309D01*
X34974203Y-27006074D01*
X34979419Y-26985250D01*
X34986651Y-26965038D01*
X34995830Y-26945632D01*
X35006866Y-26927219D01*
X35019654Y-26909976D01*
X35034070Y-26894070D01*
X35049976Y-26879654D01*
X35067219Y-26866866D01*
X35085632Y-26855830D01*
X35105038Y-26846651D01*
X35125250Y-26839419D01*
X35146074Y-26834203D01*
X35167309Y-26831053D01*
X35188750Y-26830000D01*
X35626250Y-26830000D01*
X35647691Y-26831053D01*
X35647691Y-26831053D01*
G37*
D11*
X35407500Y-27305000D03*
G04 #@! TD*
D10*
G04 #@! TO.C,R8*
G36*
X35647691Y-32419053D02*
X35668926Y-32422203D01*
X35689750Y-32427419D01*
X35709962Y-32434651D01*
X35729368Y-32443830D01*
X35747781Y-32454866D01*
X35765024Y-32467654D01*
X35780930Y-32482070D01*
X35795346Y-32497976D01*
X35808134Y-32515219D01*
X35819170Y-32533632D01*
X35828349Y-32553038D01*
X35835581Y-32573250D01*
X35840797Y-32594074D01*
X35843947Y-32615309D01*
X35845000Y-32636750D01*
X35845000Y-33149250D01*
X35843947Y-33170691D01*
X35840797Y-33191926D01*
X35835581Y-33212750D01*
X35828349Y-33232962D01*
X35819170Y-33252368D01*
X35808134Y-33270781D01*
X35795346Y-33288024D01*
X35780930Y-33303930D01*
X35765024Y-33318346D01*
X35747781Y-33331134D01*
X35729368Y-33342170D01*
X35709962Y-33351349D01*
X35689750Y-33358581D01*
X35668926Y-33363797D01*
X35647691Y-33366947D01*
X35626250Y-33368000D01*
X35188750Y-33368000D01*
X35167309Y-33366947D01*
X35146074Y-33363797D01*
X35125250Y-33358581D01*
X35105038Y-33351349D01*
X35085632Y-33342170D01*
X35067219Y-33331134D01*
X35049976Y-33318346D01*
X35034070Y-33303930D01*
X35019654Y-33288024D01*
X35006866Y-33270781D01*
X34995830Y-33252368D01*
X34986651Y-33232962D01*
X34979419Y-33212750D01*
X34974203Y-33191926D01*
X34971053Y-33170691D01*
X34970000Y-33149250D01*
X34970000Y-32636750D01*
X34971053Y-32615309D01*
X34974203Y-32594074D01*
X34979419Y-32573250D01*
X34986651Y-32553038D01*
X34995830Y-32533632D01*
X35006866Y-32515219D01*
X35019654Y-32497976D01*
X35034070Y-32482070D01*
X35049976Y-32467654D01*
X35067219Y-32454866D01*
X35085632Y-32443830D01*
X35105038Y-32434651D01*
X35125250Y-32427419D01*
X35146074Y-32422203D01*
X35167309Y-32419053D01*
X35188750Y-32418000D01*
X35626250Y-32418000D01*
X35647691Y-32419053D01*
X35647691Y-32419053D01*
G37*
D11*
X35407500Y-32893000D03*
D10*
G36*
X37222691Y-32419053D02*
X37243926Y-32422203D01*
X37264750Y-32427419D01*
X37284962Y-32434651D01*
X37304368Y-32443830D01*
X37322781Y-32454866D01*
X37340024Y-32467654D01*
X37355930Y-32482070D01*
X37370346Y-32497976D01*
X37383134Y-32515219D01*
X37394170Y-32533632D01*
X37403349Y-32553038D01*
X37410581Y-32573250D01*
X37415797Y-32594074D01*
X37418947Y-32615309D01*
X37420000Y-32636750D01*
X37420000Y-33149250D01*
X37418947Y-33170691D01*
X37415797Y-33191926D01*
X37410581Y-33212750D01*
X37403349Y-33232962D01*
X37394170Y-33252368D01*
X37383134Y-33270781D01*
X37370346Y-33288024D01*
X37355930Y-33303930D01*
X37340024Y-33318346D01*
X37322781Y-33331134D01*
X37304368Y-33342170D01*
X37284962Y-33351349D01*
X37264750Y-33358581D01*
X37243926Y-33363797D01*
X37222691Y-33366947D01*
X37201250Y-33368000D01*
X36763750Y-33368000D01*
X36742309Y-33366947D01*
X36721074Y-33363797D01*
X36700250Y-33358581D01*
X36680038Y-33351349D01*
X36660632Y-33342170D01*
X36642219Y-33331134D01*
X36624976Y-33318346D01*
X36609070Y-33303930D01*
X36594654Y-33288024D01*
X36581866Y-33270781D01*
X36570830Y-33252368D01*
X36561651Y-33232962D01*
X36554419Y-33212750D01*
X36549203Y-33191926D01*
X36546053Y-33170691D01*
X36545000Y-33149250D01*
X36545000Y-32636750D01*
X36546053Y-32615309D01*
X36549203Y-32594074D01*
X36554419Y-32573250D01*
X36561651Y-32553038D01*
X36570830Y-32533632D01*
X36581866Y-32515219D01*
X36594654Y-32497976D01*
X36609070Y-32482070D01*
X36624976Y-32467654D01*
X36642219Y-32454866D01*
X36660632Y-32443830D01*
X36680038Y-32434651D01*
X36700250Y-32427419D01*
X36721074Y-32422203D01*
X36742309Y-32419053D01*
X36763750Y-32418000D01*
X37201250Y-32418000D01*
X37222691Y-32419053D01*
X37222691Y-32419053D01*
G37*
D11*
X36982500Y-32893000D03*
G04 #@! TD*
D10*
G04 #@! TO.C,R9*
G36*
X37222691Y-30641053D02*
X37243926Y-30644203D01*
X37264750Y-30649419D01*
X37284962Y-30656651D01*
X37304368Y-30665830D01*
X37322781Y-30676866D01*
X37340024Y-30689654D01*
X37355930Y-30704070D01*
X37370346Y-30719976D01*
X37383134Y-30737219D01*
X37394170Y-30755632D01*
X37403349Y-30775038D01*
X37410581Y-30795250D01*
X37415797Y-30816074D01*
X37418947Y-30837309D01*
X37420000Y-30858750D01*
X37420000Y-31371250D01*
X37418947Y-31392691D01*
X37415797Y-31413926D01*
X37410581Y-31434750D01*
X37403349Y-31454962D01*
X37394170Y-31474368D01*
X37383134Y-31492781D01*
X37370346Y-31510024D01*
X37355930Y-31525930D01*
X37340024Y-31540346D01*
X37322781Y-31553134D01*
X37304368Y-31564170D01*
X37284962Y-31573349D01*
X37264750Y-31580581D01*
X37243926Y-31585797D01*
X37222691Y-31588947D01*
X37201250Y-31590000D01*
X36763750Y-31590000D01*
X36742309Y-31588947D01*
X36721074Y-31585797D01*
X36700250Y-31580581D01*
X36680038Y-31573349D01*
X36660632Y-31564170D01*
X36642219Y-31553134D01*
X36624976Y-31540346D01*
X36609070Y-31525930D01*
X36594654Y-31510024D01*
X36581866Y-31492781D01*
X36570830Y-31474368D01*
X36561651Y-31454962D01*
X36554419Y-31434750D01*
X36549203Y-31413926D01*
X36546053Y-31392691D01*
X36545000Y-31371250D01*
X36545000Y-30858750D01*
X36546053Y-30837309D01*
X36549203Y-30816074D01*
X36554419Y-30795250D01*
X36561651Y-30775038D01*
X36570830Y-30755632D01*
X36581866Y-30737219D01*
X36594654Y-30719976D01*
X36609070Y-30704070D01*
X36624976Y-30689654D01*
X36642219Y-30676866D01*
X36660632Y-30665830D01*
X36680038Y-30656651D01*
X36700250Y-30649419D01*
X36721074Y-30644203D01*
X36742309Y-30641053D01*
X36763750Y-30640000D01*
X37201250Y-30640000D01*
X37222691Y-30641053D01*
X37222691Y-30641053D01*
G37*
D11*
X36982500Y-31115000D03*
D10*
G36*
X35647691Y-30641053D02*
X35668926Y-30644203D01*
X35689750Y-30649419D01*
X35709962Y-30656651D01*
X35729368Y-30665830D01*
X35747781Y-30676866D01*
X35765024Y-30689654D01*
X35780930Y-30704070D01*
X35795346Y-30719976D01*
X35808134Y-30737219D01*
X35819170Y-30755632D01*
X35828349Y-30775038D01*
X35835581Y-30795250D01*
X35840797Y-30816074D01*
X35843947Y-30837309D01*
X35845000Y-30858750D01*
X35845000Y-31371250D01*
X35843947Y-31392691D01*
X35840797Y-31413926D01*
X35835581Y-31434750D01*
X35828349Y-31454962D01*
X35819170Y-31474368D01*
X35808134Y-31492781D01*
X35795346Y-31510024D01*
X35780930Y-31525930D01*
X35765024Y-31540346D01*
X35747781Y-31553134D01*
X35729368Y-31564170D01*
X35709962Y-31573349D01*
X35689750Y-31580581D01*
X35668926Y-31585797D01*
X35647691Y-31588947D01*
X35626250Y-31590000D01*
X35188750Y-31590000D01*
X35167309Y-31588947D01*
X35146074Y-31585797D01*
X35125250Y-31580581D01*
X35105038Y-31573349D01*
X35085632Y-31564170D01*
X35067219Y-31553134D01*
X35049976Y-31540346D01*
X35034070Y-31525930D01*
X35019654Y-31510024D01*
X35006866Y-31492781D01*
X34995830Y-31474368D01*
X34986651Y-31454962D01*
X34979419Y-31434750D01*
X34974203Y-31413926D01*
X34971053Y-31392691D01*
X34970000Y-31371250D01*
X34970000Y-30858750D01*
X34971053Y-30837309D01*
X34974203Y-30816074D01*
X34979419Y-30795250D01*
X34986651Y-30775038D01*
X34995830Y-30755632D01*
X35006866Y-30737219D01*
X35019654Y-30719976D01*
X35034070Y-30704070D01*
X35049976Y-30689654D01*
X35067219Y-30676866D01*
X35085632Y-30665830D01*
X35105038Y-30656651D01*
X35125250Y-30649419D01*
X35146074Y-30644203D01*
X35167309Y-30641053D01*
X35188750Y-30640000D01*
X35626250Y-30640000D01*
X35647691Y-30641053D01*
X35647691Y-30641053D01*
G37*
D11*
X35407500Y-31115000D03*
G04 #@! TD*
D10*
G04 #@! TO.C,R10*
G36*
X35647691Y-28736053D02*
X35668926Y-28739203D01*
X35689750Y-28744419D01*
X35709962Y-28751651D01*
X35729368Y-28760830D01*
X35747781Y-28771866D01*
X35765024Y-28784654D01*
X35780930Y-28799070D01*
X35795346Y-28814976D01*
X35808134Y-28832219D01*
X35819170Y-28850632D01*
X35828349Y-28870038D01*
X35835581Y-28890250D01*
X35840797Y-28911074D01*
X35843947Y-28932309D01*
X35845000Y-28953750D01*
X35845000Y-29466250D01*
X35843947Y-29487691D01*
X35840797Y-29508926D01*
X35835581Y-29529750D01*
X35828349Y-29549962D01*
X35819170Y-29569368D01*
X35808134Y-29587781D01*
X35795346Y-29605024D01*
X35780930Y-29620930D01*
X35765024Y-29635346D01*
X35747781Y-29648134D01*
X35729368Y-29659170D01*
X35709962Y-29668349D01*
X35689750Y-29675581D01*
X35668926Y-29680797D01*
X35647691Y-29683947D01*
X35626250Y-29685000D01*
X35188750Y-29685000D01*
X35167309Y-29683947D01*
X35146074Y-29680797D01*
X35125250Y-29675581D01*
X35105038Y-29668349D01*
X35085632Y-29659170D01*
X35067219Y-29648134D01*
X35049976Y-29635346D01*
X35034070Y-29620930D01*
X35019654Y-29605024D01*
X35006866Y-29587781D01*
X34995830Y-29569368D01*
X34986651Y-29549962D01*
X34979419Y-29529750D01*
X34974203Y-29508926D01*
X34971053Y-29487691D01*
X34970000Y-29466250D01*
X34970000Y-28953750D01*
X34971053Y-28932309D01*
X34974203Y-28911074D01*
X34979419Y-28890250D01*
X34986651Y-28870038D01*
X34995830Y-28850632D01*
X35006866Y-28832219D01*
X35019654Y-28814976D01*
X35034070Y-28799070D01*
X35049976Y-28784654D01*
X35067219Y-28771866D01*
X35085632Y-28760830D01*
X35105038Y-28751651D01*
X35125250Y-28744419D01*
X35146074Y-28739203D01*
X35167309Y-28736053D01*
X35188750Y-28735000D01*
X35626250Y-28735000D01*
X35647691Y-28736053D01*
X35647691Y-28736053D01*
G37*
D11*
X35407500Y-29210000D03*
D10*
G36*
X37222691Y-28736053D02*
X37243926Y-28739203D01*
X37264750Y-28744419D01*
X37284962Y-28751651D01*
X37304368Y-28760830D01*
X37322781Y-28771866D01*
X37340024Y-28784654D01*
X37355930Y-28799070D01*
X37370346Y-28814976D01*
X37383134Y-28832219D01*
X37394170Y-28850632D01*
X37403349Y-28870038D01*
X37410581Y-28890250D01*
X37415797Y-28911074D01*
X37418947Y-28932309D01*
X37420000Y-28953750D01*
X37420000Y-29466250D01*
X37418947Y-29487691D01*
X37415797Y-29508926D01*
X37410581Y-29529750D01*
X37403349Y-29549962D01*
X37394170Y-29569368D01*
X37383134Y-29587781D01*
X37370346Y-29605024D01*
X37355930Y-29620930D01*
X37340024Y-29635346D01*
X37322781Y-29648134D01*
X37304368Y-29659170D01*
X37284962Y-29668349D01*
X37264750Y-29675581D01*
X37243926Y-29680797D01*
X37222691Y-29683947D01*
X37201250Y-29685000D01*
X36763750Y-29685000D01*
X36742309Y-29683947D01*
X36721074Y-29680797D01*
X36700250Y-29675581D01*
X36680038Y-29668349D01*
X36660632Y-29659170D01*
X36642219Y-29648134D01*
X36624976Y-29635346D01*
X36609070Y-29620930D01*
X36594654Y-29605024D01*
X36581866Y-29587781D01*
X36570830Y-29569368D01*
X36561651Y-29549962D01*
X36554419Y-29529750D01*
X36549203Y-29508926D01*
X36546053Y-29487691D01*
X36545000Y-29466250D01*
X36545000Y-28953750D01*
X36546053Y-28932309D01*
X36549203Y-28911074D01*
X36554419Y-28890250D01*
X36561651Y-28870038D01*
X36570830Y-28850632D01*
X36581866Y-28832219D01*
X36594654Y-28814976D01*
X36609070Y-28799070D01*
X36624976Y-28784654D01*
X36642219Y-28771866D01*
X36660632Y-28760830D01*
X36680038Y-28751651D01*
X36700250Y-28744419D01*
X36721074Y-28739203D01*
X36742309Y-28736053D01*
X36763750Y-28735000D01*
X37201250Y-28735000D01*
X37222691Y-28736053D01*
X37222691Y-28736053D01*
G37*
D11*
X36982500Y-29210000D03*
G04 #@! TD*
D10*
G04 #@! TO.C,R11*
G36*
X41794691Y-32546053D02*
X41815926Y-32549203D01*
X41836750Y-32554419D01*
X41856962Y-32561651D01*
X41876368Y-32570830D01*
X41894781Y-32581866D01*
X41912024Y-32594654D01*
X41927930Y-32609070D01*
X41942346Y-32624976D01*
X41955134Y-32642219D01*
X41966170Y-32660632D01*
X41975349Y-32680038D01*
X41982581Y-32700250D01*
X41987797Y-32721074D01*
X41990947Y-32742309D01*
X41992000Y-32763750D01*
X41992000Y-33276250D01*
X41990947Y-33297691D01*
X41987797Y-33318926D01*
X41982581Y-33339750D01*
X41975349Y-33359962D01*
X41966170Y-33379368D01*
X41955134Y-33397781D01*
X41942346Y-33415024D01*
X41927930Y-33430930D01*
X41912024Y-33445346D01*
X41894781Y-33458134D01*
X41876368Y-33469170D01*
X41856962Y-33478349D01*
X41836750Y-33485581D01*
X41815926Y-33490797D01*
X41794691Y-33493947D01*
X41773250Y-33495000D01*
X41335750Y-33495000D01*
X41314309Y-33493947D01*
X41293074Y-33490797D01*
X41272250Y-33485581D01*
X41252038Y-33478349D01*
X41232632Y-33469170D01*
X41214219Y-33458134D01*
X41196976Y-33445346D01*
X41181070Y-33430930D01*
X41166654Y-33415024D01*
X41153866Y-33397781D01*
X41142830Y-33379368D01*
X41133651Y-33359962D01*
X41126419Y-33339750D01*
X41121203Y-33318926D01*
X41118053Y-33297691D01*
X41117000Y-33276250D01*
X41117000Y-32763750D01*
X41118053Y-32742309D01*
X41121203Y-32721074D01*
X41126419Y-32700250D01*
X41133651Y-32680038D01*
X41142830Y-32660632D01*
X41153866Y-32642219D01*
X41166654Y-32624976D01*
X41181070Y-32609070D01*
X41196976Y-32594654D01*
X41214219Y-32581866D01*
X41232632Y-32570830D01*
X41252038Y-32561651D01*
X41272250Y-32554419D01*
X41293074Y-32549203D01*
X41314309Y-32546053D01*
X41335750Y-32545000D01*
X41773250Y-32545000D01*
X41794691Y-32546053D01*
X41794691Y-32546053D01*
G37*
D11*
X41554500Y-33020000D03*
D10*
G36*
X40219691Y-32546053D02*
X40240926Y-32549203D01*
X40261750Y-32554419D01*
X40281962Y-32561651D01*
X40301368Y-32570830D01*
X40319781Y-32581866D01*
X40337024Y-32594654D01*
X40352930Y-32609070D01*
X40367346Y-32624976D01*
X40380134Y-32642219D01*
X40391170Y-32660632D01*
X40400349Y-32680038D01*
X40407581Y-32700250D01*
X40412797Y-32721074D01*
X40415947Y-32742309D01*
X40417000Y-32763750D01*
X40417000Y-33276250D01*
X40415947Y-33297691D01*
X40412797Y-33318926D01*
X40407581Y-33339750D01*
X40400349Y-33359962D01*
X40391170Y-33379368D01*
X40380134Y-33397781D01*
X40367346Y-33415024D01*
X40352930Y-33430930D01*
X40337024Y-33445346D01*
X40319781Y-33458134D01*
X40301368Y-33469170D01*
X40281962Y-33478349D01*
X40261750Y-33485581D01*
X40240926Y-33490797D01*
X40219691Y-33493947D01*
X40198250Y-33495000D01*
X39760750Y-33495000D01*
X39739309Y-33493947D01*
X39718074Y-33490797D01*
X39697250Y-33485581D01*
X39677038Y-33478349D01*
X39657632Y-33469170D01*
X39639219Y-33458134D01*
X39621976Y-33445346D01*
X39606070Y-33430930D01*
X39591654Y-33415024D01*
X39578866Y-33397781D01*
X39567830Y-33379368D01*
X39558651Y-33359962D01*
X39551419Y-33339750D01*
X39546203Y-33318926D01*
X39543053Y-33297691D01*
X39542000Y-33276250D01*
X39542000Y-32763750D01*
X39543053Y-32742309D01*
X39546203Y-32721074D01*
X39551419Y-32700250D01*
X39558651Y-32680038D01*
X39567830Y-32660632D01*
X39578866Y-32642219D01*
X39591654Y-32624976D01*
X39606070Y-32609070D01*
X39621976Y-32594654D01*
X39639219Y-32581866D01*
X39657632Y-32570830D01*
X39677038Y-32561651D01*
X39697250Y-32554419D01*
X39718074Y-32549203D01*
X39739309Y-32546053D01*
X39760750Y-32545000D01*
X40198250Y-32545000D01*
X40219691Y-32546053D01*
X40219691Y-32546053D01*
G37*
D11*
X39979500Y-33020000D03*
G04 #@! TD*
D10*
G04 #@! TO.C,R12*
G36*
X36409691Y-34324053D02*
X36430926Y-34327203D01*
X36451750Y-34332419D01*
X36471962Y-34339651D01*
X36491368Y-34348830D01*
X36509781Y-34359866D01*
X36527024Y-34372654D01*
X36542930Y-34387070D01*
X36557346Y-34402976D01*
X36570134Y-34420219D01*
X36581170Y-34438632D01*
X36590349Y-34458038D01*
X36597581Y-34478250D01*
X36602797Y-34499074D01*
X36605947Y-34520309D01*
X36607000Y-34541750D01*
X36607000Y-35054250D01*
X36605947Y-35075691D01*
X36602797Y-35096926D01*
X36597581Y-35117750D01*
X36590349Y-35137962D01*
X36581170Y-35157368D01*
X36570134Y-35175781D01*
X36557346Y-35193024D01*
X36542930Y-35208930D01*
X36527024Y-35223346D01*
X36509781Y-35236134D01*
X36491368Y-35247170D01*
X36471962Y-35256349D01*
X36451750Y-35263581D01*
X36430926Y-35268797D01*
X36409691Y-35271947D01*
X36388250Y-35273000D01*
X35950750Y-35273000D01*
X35929309Y-35271947D01*
X35908074Y-35268797D01*
X35887250Y-35263581D01*
X35867038Y-35256349D01*
X35847632Y-35247170D01*
X35829219Y-35236134D01*
X35811976Y-35223346D01*
X35796070Y-35208930D01*
X35781654Y-35193024D01*
X35768866Y-35175781D01*
X35757830Y-35157368D01*
X35748651Y-35137962D01*
X35741419Y-35117750D01*
X35736203Y-35096926D01*
X35733053Y-35075691D01*
X35732000Y-35054250D01*
X35732000Y-34541750D01*
X35733053Y-34520309D01*
X35736203Y-34499074D01*
X35741419Y-34478250D01*
X35748651Y-34458038D01*
X35757830Y-34438632D01*
X35768866Y-34420219D01*
X35781654Y-34402976D01*
X35796070Y-34387070D01*
X35811976Y-34372654D01*
X35829219Y-34359866D01*
X35847632Y-34348830D01*
X35867038Y-34339651D01*
X35887250Y-34332419D01*
X35908074Y-34327203D01*
X35929309Y-34324053D01*
X35950750Y-34323000D01*
X36388250Y-34323000D01*
X36409691Y-34324053D01*
X36409691Y-34324053D01*
G37*
D11*
X36169500Y-34798000D03*
D10*
G36*
X37984691Y-34324053D02*
X38005926Y-34327203D01*
X38026750Y-34332419D01*
X38046962Y-34339651D01*
X38066368Y-34348830D01*
X38084781Y-34359866D01*
X38102024Y-34372654D01*
X38117930Y-34387070D01*
X38132346Y-34402976D01*
X38145134Y-34420219D01*
X38156170Y-34438632D01*
X38165349Y-34458038D01*
X38172581Y-34478250D01*
X38177797Y-34499074D01*
X38180947Y-34520309D01*
X38182000Y-34541750D01*
X38182000Y-35054250D01*
X38180947Y-35075691D01*
X38177797Y-35096926D01*
X38172581Y-35117750D01*
X38165349Y-35137962D01*
X38156170Y-35157368D01*
X38145134Y-35175781D01*
X38132346Y-35193024D01*
X38117930Y-35208930D01*
X38102024Y-35223346D01*
X38084781Y-35236134D01*
X38066368Y-35247170D01*
X38046962Y-35256349D01*
X38026750Y-35263581D01*
X38005926Y-35268797D01*
X37984691Y-35271947D01*
X37963250Y-35273000D01*
X37525750Y-35273000D01*
X37504309Y-35271947D01*
X37483074Y-35268797D01*
X37462250Y-35263581D01*
X37442038Y-35256349D01*
X37422632Y-35247170D01*
X37404219Y-35236134D01*
X37386976Y-35223346D01*
X37371070Y-35208930D01*
X37356654Y-35193024D01*
X37343866Y-35175781D01*
X37332830Y-35157368D01*
X37323651Y-35137962D01*
X37316419Y-35117750D01*
X37311203Y-35096926D01*
X37308053Y-35075691D01*
X37307000Y-35054250D01*
X37307000Y-34541750D01*
X37308053Y-34520309D01*
X37311203Y-34499074D01*
X37316419Y-34478250D01*
X37323651Y-34458038D01*
X37332830Y-34438632D01*
X37343866Y-34420219D01*
X37356654Y-34402976D01*
X37371070Y-34387070D01*
X37386976Y-34372654D01*
X37404219Y-34359866D01*
X37422632Y-34348830D01*
X37442038Y-34339651D01*
X37462250Y-34332419D01*
X37483074Y-34327203D01*
X37504309Y-34324053D01*
X37525750Y-34323000D01*
X37963250Y-34323000D01*
X37984691Y-34324053D01*
X37984691Y-34324053D01*
G37*
D11*
X37744500Y-34798000D03*
G04 #@! TD*
D14*
G04 #@! TO.C,SW2*
X44840000Y-44645000D03*
X49140000Y-44645000D03*
X44840000Y-46795000D03*
X49140000Y-46795000D03*
G04 #@! TD*
D15*
G04 #@! TO.C,U2*
X48851000Y-42323000D03*
X48351000Y-42323000D03*
X47851000Y-42323000D03*
X47351000Y-42323000D03*
X46851000Y-42323000D03*
X46351000Y-42323000D03*
X45851000Y-42323000D03*
X45351000Y-42323000D03*
X44851000Y-42323000D03*
X44351000Y-42323000D03*
X43851000Y-42323000D03*
X43351000Y-42323000D03*
D16*
X41751000Y-40723000D03*
X41751000Y-40223000D03*
X41751000Y-39723000D03*
X41751000Y-39223000D03*
X41751000Y-38723000D03*
X41751000Y-38223000D03*
X41751000Y-37723000D03*
X41751000Y-37223000D03*
X41751000Y-36723000D03*
X41751000Y-36223000D03*
X41751000Y-35723000D03*
X41751000Y-35223000D03*
D15*
X43351000Y-33623000D03*
X43851000Y-33623000D03*
X44351000Y-33623000D03*
X44851000Y-33623000D03*
X45351000Y-33623000D03*
X45851000Y-33623000D03*
X46351000Y-33623000D03*
X46851000Y-33623000D03*
X47351000Y-33623000D03*
X47851000Y-33623000D03*
X48351000Y-33623000D03*
X48851000Y-33623000D03*
D16*
X50451000Y-35223000D03*
X50451000Y-35723000D03*
X50451000Y-36223000D03*
X50451000Y-36723000D03*
X50451000Y-37223000D03*
X50451000Y-37723000D03*
X50451000Y-38223000D03*
X50451000Y-38723000D03*
X50451000Y-39223000D03*
X50451000Y-39723000D03*
X50451000Y-40223000D03*
X50451000Y-40723000D03*
G04 #@! TD*
D10*
G04 #@! TO.C,R13*
G36*
X50061691Y-28900553D02*
X50082926Y-28903703D01*
X50103750Y-28908919D01*
X50123962Y-28916151D01*
X50143368Y-28925330D01*
X50161781Y-28936366D01*
X50179024Y-28949154D01*
X50194930Y-28963570D01*
X50209346Y-28979476D01*
X50222134Y-28996719D01*
X50233170Y-29015132D01*
X50242349Y-29034538D01*
X50249581Y-29054750D01*
X50254797Y-29075574D01*
X50257947Y-29096809D01*
X50259000Y-29118250D01*
X50259000Y-29555750D01*
X50257947Y-29577191D01*
X50254797Y-29598426D01*
X50249581Y-29619250D01*
X50242349Y-29639462D01*
X50233170Y-29658868D01*
X50222134Y-29677281D01*
X50209346Y-29694524D01*
X50194930Y-29710430D01*
X50179024Y-29724846D01*
X50161781Y-29737634D01*
X50143368Y-29748670D01*
X50123962Y-29757849D01*
X50103750Y-29765081D01*
X50082926Y-29770297D01*
X50061691Y-29773447D01*
X50040250Y-29774500D01*
X49527750Y-29774500D01*
X49506309Y-29773447D01*
X49485074Y-29770297D01*
X49464250Y-29765081D01*
X49444038Y-29757849D01*
X49424632Y-29748670D01*
X49406219Y-29737634D01*
X49388976Y-29724846D01*
X49373070Y-29710430D01*
X49358654Y-29694524D01*
X49345866Y-29677281D01*
X49334830Y-29658868D01*
X49325651Y-29639462D01*
X49318419Y-29619250D01*
X49313203Y-29598426D01*
X49310053Y-29577191D01*
X49309000Y-29555750D01*
X49309000Y-29118250D01*
X49310053Y-29096809D01*
X49313203Y-29075574D01*
X49318419Y-29054750D01*
X49325651Y-29034538D01*
X49334830Y-29015132D01*
X49345866Y-28996719D01*
X49358654Y-28979476D01*
X49373070Y-28963570D01*
X49388976Y-28949154D01*
X49406219Y-28936366D01*
X49424632Y-28925330D01*
X49444038Y-28916151D01*
X49464250Y-28908919D01*
X49485074Y-28903703D01*
X49506309Y-28900553D01*
X49527750Y-28899500D01*
X50040250Y-28899500D01*
X50061691Y-28900553D01*
X50061691Y-28900553D01*
G37*
D11*
X49784000Y-29337000D03*
D10*
G36*
X50061691Y-27325553D02*
X50082926Y-27328703D01*
X50103750Y-27333919D01*
X50123962Y-27341151D01*
X50143368Y-27350330D01*
X50161781Y-27361366D01*
X50179024Y-27374154D01*
X50194930Y-27388570D01*
X50209346Y-27404476D01*
X50222134Y-27421719D01*
X50233170Y-27440132D01*
X50242349Y-27459538D01*
X50249581Y-27479750D01*
X50254797Y-27500574D01*
X50257947Y-27521809D01*
X50259000Y-27543250D01*
X50259000Y-27980750D01*
X50257947Y-28002191D01*
X50254797Y-28023426D01*
X50249581Y-28044250D01*
X50242349Y-28064462D01*
X50233170Y-28083868D01*
X50222134Y-28102281D01*
X50209346Y-28119524D01*
X50194930Y-28135430D01*
X50179024Y-28149846D01*
X50161781Y-28162634D01*
X50143368Y-28173670D01*
X50123962Y-28182849D01*
X50103750Y-28190081D01*
X50082926Y-28195297D01*
X50061691Y-28198447D01*
X50040250Y-28199500D01*
X49527750Y-28199500D01*
X49506309Y-28198447D01*
X49485074Y-28195297D01*
X49464250Y-28190081D01*
X49444038Y-28182849D01*
X49424632Y-28173670D01*
X49406219Y-28162634D01*
X49388976Y-28149846D01*
X49373070Y-28135430D01*
X49358654Y-28119524D01*
X49345866Y-28102281D01*
X49334830Y-28083868D01*
X49325651Y-28064462D01*
X49318419Y-28044250D01*
X49313203Y-28023426D01*
X49310053Y-28002191D01*
X49309000Y-27980750D01*
X49309000Y-27543250D01*
X49310053Y-27521809D01*
X49313203Y-27500574D01*
X49318419Y-27479750D01*
X49325651Y-27459538D01*
X49334830Y-27440132D01*
X49345866Y-27421719D01*
X49358654Y-27404476D01*
X49373070Y-27388570D01*
X49388976Y-27374154D01*
X49406219Y-27361366D01*
X49424632Y-27350330D01*
X49444038Y-27341151D01*
X49464250Y-27333919D01*
X49485074Y-27328703D01*
X49506309Y-27325553D01*
X49527750Y-27324500D01*
X50040250Y-27324500D01*
X50061691Y-27325553D01*
X50061691Y-27325553D01*
G37*
D11*
X49784000Y-27762000D03*
G04 #@! TD*
D10*
G04 #@! TO.C,R14*
G36*
X51712691Y-28900553D02*
X51733926Y-28903703D01*
X51754750Y-28908919D01*
X51774962Y-28916151D01*
X51794368Y-28925330D01*
X51812781Y-28936366D01*
X51830024Y-28949154D01*
X51845930Y-28963570D01*
X51860346Y-28979476D01*
X51873134Y-28996719D01*
X51884170Y-29015132D01*
X51893349Y-29034538D01*
X51900581Y-29054750D01*
X51905797Y-29075574D01*
X51908947Y-29096809D01*
X51910000Y-29118250D01*
X51910000Y-29555750D01*
X51908947Y-29577191D01*
X51905797Y-29598426D01*
X51900581Y-29619250D01*
X51893349Y-29639462D01*
X51884170Y-29658868D01*
X51873134Y-29677281D01*
X51860346Y-29694524D01*
X51845930Y-29710430D01*
X51830024Y-29724846D01*
X51812781Y-29737634D01*
X51794368Y-29748670D01*
X51774962Y-29757849D01*
X51754750Y-29765081D01*
X51733926Y-29770297D01*
X51712691Y-29773447D01*
X51691250Y-29774500D01*
X51178750Y-29774500D01*
X51157309Y-29773447D01*
X51136074Y-29770297D01*
X51115250Y-29765081D01*
X51095038Y-29757849D01*
X51075632Y-29748670D01*
X51057219Y-29737634D01*
X51039976Y-29724846D01*
X51024070Y-29710430D01*
X51009654Y-29694524D01*
X50996866Y-29677281D01*
X50985830Y-29658868D01*
X50976651Y-29639462D01*
X50969419Y-29619250D01*
X50964203Y-29598426D01*
X50961053Y-29577191D01*
X50960000Y-29555750D01*
X50960000Y-29118250D01*
X50961053Y-29096809D01*
X50964203Y-29075574D01*
X50969419Y-29054750D01*
X50976651Y-29034538D01*
X50985830Y-29015132D01*
X50996866Y-28996719D01*
X51009654Y-28979476D01*
X51024070Y-28963570D01*
X51039976Y-28949154D01*
X51057219Y-28936366D01*
X51075632Y-28925330D01*
X51095038Y-28916151D01*
X51115250Y-28908919D01*
X51136074Y-28903703D01*
X51157309Y-28900553D01*
X51178750Y-28899500D01*
X51691250Y-28899500D01*
X51712691Y-28900553D01*
X51712691Y-28900553D01*
G37*
D11*
X51435000Y-29337000D03*
D10*
G36*
X51712691Y-27325553D02*
X51733926Y-27328703D01*
X51754750Y-27333919D01*
X51774962Y-27341151D01*
X51794368Y-27350330D01*
X51812781Y-27361366D01*
X51830024Y-27374154D01*
X51845930Y-27388570D01*
X51860346Y-27404476D01*
X51873134Y-27421719D01*
X51884170Y-27440132D01*
X51893349Y-27459538D01*
X51900581Y-27479750D01*
X51905797Y-27500574D01*
X51908947Y-27521809D01*
X51910000Y-27543250D01*
X51910000Y-27980750D01*
X51908947Y-28002191D01*
X51905797Y-28023426D01*
X51900581Y-28044250D01*
X51893349Y-28064462D01*
X51884170Y-28083868D01*
X51873134Y-28102281D01*
X51860346Y-28119524D01*
X51845930Y-28135430D01*
X51830024Y-28149846D01*
X51812781Y-28162634D01*
X51794368Y-28173670D01*
X51774962Y-28182849D01*
X51754750Y-28190081D01*
X51733926Y-28195297D01*
X51712691Y-28198447D01*
X51691250Y-28199500D01*
X51178750Y-28199500D01*
X51157309Y-28198447D01*
X51136074Y-28195297D01*
X51115250Y-28190081D01*
X51095038Y-28182849D01*
X51075632Y-28173670D01*
X51057219Y-28162634D01*
X51039976Y-28149846D01*
X51024070Y-28135430D01*
X51009654Y-28119524D01*
X50996866Y-28102281D01*
X50985830Y-28083868D01*
X50976651Y-28064462D01*
X50969419Y-28044250D01*
X50964203Y-28023426D01*
X50961053Y-28002191D01*
X50960000Y-27980750D01*
X50960000Y-27543250D01*
X50961053Y-27521809D01*
X50964203Y-27500574D01*
X50969419Y-27479750D01*
X50976651Y-27459538D01*
X50985830Y-27440132D01*
X50996866Y-27421719D01*
X51009654Y-27404476D01*
X51024070Y-27388570D01*
X51039976Y-27374154D01*
X51057219Y-27361366D01*
X51075632Y-27350330D01*
X51095038Y-27341151D01*
X51115250Y-27333919D01*
X51136074Y-27328703D01*
X51157309Y-27325553D01*
X51178750Y-27324500D01*
X51691250Y-27324500D01*
X51712691Y-27325553D01*
X51712691Y-27325553D01*
G37*
D11*
X51435000Y-27762000D03*
G04 #@! TD*
D10*
G04 #@! TO.C,C5*
G36*
X53363691Y-28926053D02*
X53384926Y-28929203D01*
X53405750Y-28934419D01*
X53425962Y-28941651D01*
X53445368Y-28950830D01*
X53463781Y-28961866D01*
X53481024Y-28974654D01*
X53496930Y-28989070D01*
X53511346Y-29004976D01*
X53524134Y-29022219D01*
X53535170Y-29040632D01*
X53544349Y-29060038D01*
X53551581Y-29080250D01*
X53556797Y-29101074D01*
X53559947Y-29122309D01*
X53561000Y-29143750D01*
X53561000Y-29581250D01*
X53559947Y-29602691D01*
X53556797Y-29623926D01*
X53551581Y-29644750D01*
X53544349Y-29664962D01*
X53535170Y-29684368D01*
X53524134Y-29702781D01*
X53511346Y-29720024D01*
X53496930Y-29735930D01*
X53481024Y-29750346D01*
X53463781Y-29763134D01*
X53445368Y-29774170D01*
X53425962Y-29783349D01*
X53405750Y-29790581D01*
X53384926Y-29795797D01*
X53363691Y-29798947D01*
X53342250Y-29800000D01*
X52829750Y-29800000D01*
X52808309Y-29798947D01*
X52787074Y-29795797D01*
X52766250Y-29790581D01*
X52746038Y-29783349D01*
X52726632Y-29774170D01*
X52708219Y-29763134D01*
X52690976Y-29750346D01*
X52675070Y-29735930D01*
X52660654Y-29720024D01*
X52647866Y-29702781D01*
X52636830Y-29684368D01*
X52627651Y-29664962D01*
X52620419Y-29644750D01*
X52615203Y-29623926D01*
X52612053Y-29602691D01*
X52611000Y-29581250D01*
X52611000Y-29143750D01*
X52612053Y-29122309D01*
X52615203Y-29101074D01*
X52620419Y-29080250D01*
X52627651Y-29060038D01*
X52636830Y-29040632D01*
X52647866Y-29022219D01*
X52660654Y-29004976D01*
X52675070Y-28989070D01*
X52690976Y-28974654D01*
X52708219Y-28961866D01*
X52726632Y-28950830D01*
X52746038Y-28941651D01*
X52766250Y-28934419D01*
X52787074Y-28929203D01*
X52808309Y-28926053D01*
X52829750Y-28925000D01*
X53342250Y-28925000D01*
X53363691Y-28926053D01*
X53363691Y-28926053D01*
G37*
D11*
X53086000Y-29362500D03*
D10*
G36*
X53363691Y-27351053D02*
X53384926Y-27354203D01*
X53405750Y-27359419D01*
X53425962Y-27366651D01*
X53445368Y-27375830D01*
X53463781Y-27386866D01*
X53481024Y-27399654D01*
X53496930Y-27414070D01*
X53511346Y-27429976D01*
X53524134Y-27447219D01*
X53535170Y-27465632D01*
X53544349Y-27485038D01*
X53551581Y-27505250D01*
X53556797Y-27526074D01*
X53559947Y-27547309D01*
X53561000Y-27568750D01*
X53561000Y-28006250D01*
X53559947Y-28027691D01*
X53556797Y-28048926D01*
X53551581Y-28069750D01*
X53544349Y-28089962D01*
X53535170Y-28109368D01*
X53524134Y-28127781D01*
X53511346Y-28145024D01*
X53496930Y-28160930D01*
X53481024Y-28175346D01*
X53463781Y-28188134D01*
X53445368Y-28199170D01*
X53425962Y-28208349D01*
X53405750Y-28215581D01*
X53384926Y-28220797D01*
X53363691Y-28223947D01*
X53342250Y-28225000D01*
X52829750Y-28225000D01*
X52808309Y-28223947D01*
X52787074Y-28220797D01*
X52766250Y-28215581D01*
X52746038Y-28208349D01*
X52726632Y-28199170D01*
X52708219Y-28188134D01*
X52690976Y-28175346D01*
X52675070Y-28160930D01*
X52660654Y-28145024D01*
X52647866Y-28127781D01*
X52636830Y-28109368D01*
X52627651Y-28089962D01*
X52620419Y-28069750D01*
X52615203Y-28048926D01*
X52612053Y-28027691D01*
X52611000Y-28006250D01*
X52611000Y-27568750D01*
X52612053Y-27547309D01*
X52615203Y-27526074D01*
X52620419Y-27505250D01*
X52627651Y-27485038D01*
X52636830Y-27465632D01*
X52647866Y-27447219D01*
X52660654Y-27429976D01*
X52675070Y-27414070D01*
X52690976Y-27399654D01*
X52708219Y-27386866D01*
X52726632Y-27375830D01*
X52746038Y-27366651D01*
X52766250Y-27359419D01*
X52787074Y-27354203D01*
X52808309Y-27351053D01*
X52829750Y-27350000D01*
X53342250Y-27350000D01*
X53363691Y-27351053D01*
X53363691Y-27351053D01*
G37*
D11*
X53086000Y-27787500D03*
G04 #@! TD*
D10*
G04 #@! TO.C,R15*
G36*
X53300691Y-45881053D02*
X53321926Y-45884203D01*
X53342750Y-45889419D01*
X53362962Y-45896651D01*
X53382368Y-45905830D01*
X53400781Y-45916866D01*
X53418024Y-45929654D01*
X53433930Y-45944070D01*
X53448346Y-45959976D01*
X53461134Y-45977219D01*
X53472170Y-45995632D01*
X53481349Y-46015038D01*
X53488581Y-46035250D01*
X53493797Y-46056074D01*
X53496947Y-46077309D01*
X53498000Y-46098750D01*
X53498000Y-46611250D01*
X53496947Y-46632691D01*
X53493797Y-46653926D01*
X53488581Y-46674750D01*
X53481349Y-46694962D01*
X53472170Y-46714368D01*
X53461134Y-46732781D01*
X53448346Y-46750024D01*
X53433930Y-46765930D01*
X53418024Y-46780346D01*
X53400781Y-46793134D01*
X53382368Y-46804170D01*
X53362962Y-46813349D01*
X53342750Y-46820581D01*
X53321926Y-46825797D01*
X53300691Y-46828947D01*
X53279250Y-46830000D01*
X52841750Y-46830000D01*
X52820309Y-46828947D01*
X52799074Y-46825797D01*
X52778250Y-46820581D01*
X52758038Y-46813349D01*
X52738632Y-46804170D01*
X52720219Y-46793134D01*
X52702976Y-46780346D01*
X52687070Y-46765930D01*
X52672654Y-46750024D01*
X52659866Y-46732781D01*
X52648830Y-46714368D01*
X52639651Y-46694962D01*
X52632419Y-46674750D01*
X52627203Y-46653926D01*
X52624053Y-46632691D01*
X52623000Y-46611250D01*
X52623000Y-46098750D01*
X52624053Y-46077309D01*
X52627203Y-46056074D01*
X52632419Y-46035250D01*
X52639651Y-46015038D01*
X52648830Y-45995632D01*
X52659866Y-45977219D01*
X52672654Y-45959976D01*
X52687070Y-45944070D01*
X52702976Y-45929654D01*
X52720219Y-45916866D01*
X52738632Y-45905830D01*
X52758038Y-45896651D01*
X52778250Y-45889419D01*
X52799074Y-45884203D01*
X52820309Y-45881053D01*
X52841750Y-45880000D01*
X53279250Y-45880000D01*
X53300691Y-45881053D01*
X53300691Y-45881053D01*
G37*
D11*
X53060500Y-46355000D03*
D10*
G36*
X54875691Y-45881053D02*
X54896926Y-45884203D01*
X54917750Y-45889419D01*
X54937962Y-45896651D01*
X54957368Y-45905830D01*
X54975781Y-45916866D01*
X54993024Y-45929654D01*
X55008930Y-45944070D01*
X55023346Y-45959976D01*
X55036134Y-45977219D01*
X55047170Y-45995632D01*
X55056349Y-46015038D01*
X55063581Y-46035250D01*
X55068797Y-46056074D01*
X55071947Y-46077309D01*
X55073000Y-46098750D01*
X55073000Y-46611250D01*
X55071947Y-46632691D01*
X55068797Y-46653926D01*
X55063581Y-46674750D01*
X55056349Y-46694962D01*
X55047170Y-46714368D01*
X55036134Y-46732781D01*
X55023346Y-46750024D01*
X55008930Y-46765930D01*
X54993024Y-46780346D01*
X54975781Y-46793134D01*
X54957368Y-46804170D01*
X54937962Y-46813349D01*
X54917750Y-46820581D01*
X54896926Y-46825797D01*
X54875691Y-46828947D01*
X54854250Y-46830000D01*
X54416750Y-46830000D01*
X54395309Y-46828947D01*
X54374074Y-46825797D01*
X54353250Y-46820581D01*
X54333038Y-46813349D01*
X54313632Y-46804170D01*
X54295219Y-46793134D01*
X54277976Y-46780346D01*
X54262070Y-46765930D01*
X54247654Y-46750024D01*
X54234866Y-46732781D01*
X54223830Y-46714368D01*
X54214651Y-46694962D01*
X54207419Y-46674750D01*
X54202203Y-46653926D01*
X54199053Y-46632691D01*
X54198000Y-46611250D01*
X54198000Y-46098750D01*
X54199053Y-46077309D01*
X54202203Y-46056074D01*
X54207419Y-46035250D01*
X54214651Y-46015038D01*
X54223830Y-45995632D01*
X54234866Y-45977219D01*
X54247654Y-45959976D01*
X54262070Y-45944070D01*
X54277976Y-45929654D01*
X54295219Y-45916866D01*
X54313632Y-45905830D01*
X54333038Y-45896651D01*
X54353250Y-45889419D01*
X54374074Y-45884203D01*
X54395309Y-45881053D01*
X54416750Y-45880000D01*
X54854250Y-45880000D01*
X54875691Y-45881053D01*
X54875691Y-45881053D01*
G37*
D11*
X54635500Y-46355000D03*
G04 #@! TD*
D17*
G04 #@! TO.C,Q1*
X45863000Y-27244000D03*
X45863000Y-29144000D03*
X47863000Y-28194000D03*
G04 #@! TD*
D10*
G04 #@! TO.C,C6*
G36*
X41794691Y-42579053D02*
X41815926Y-42582203D01*
X41836750Y-42587419D01*
X41856962Y-42594651D01*
X41876368Y-42603830D01*
X41894781Y-42614866D01*
X41912024Y-42627654D01*
X41927930Y-42642070D01*
X41942346Y-42657976D01*
X41955134Y-42675219D01*
X41966170Y-42693632D01*
X41975349Y-42713038D01*
X41982581Y-42733250D01*
X41987797Y-42754074D01*
X41990947Y-42775309D01*
X41992000Y-42796750D01*
X41992000Y-43309250D01*
X41990947Y-43330691D01*
X41987797Y-43351926D01*
X41982581Y-43372750D01*
X41975349Y-43392962D01*
X41966170Y-43412368D01*
X41955134Y-43430781D01*
X41942346Y-43448024D01*
X41927930Y-43463930D01*
X41912024Y-43478346D01*
X41894781Y-43491134D01*
X41876368Y-43502170D01*
X41856962Y-43511349D01*
X41836750Y-43518581D01*
X41815926Y-43523797D01*
X41794691Y-43526947D01*
X41773250Y-43528000D01*
X41335750Y-43528000D01*
X41314309Y-43526947D01*
X41293074Y-43523797D01*
X41272250Y-43518581D01*
X41252038Y-43511349D01*
X41232632Y-43502170D01*
X41214219Y-43491134D01*
X41196976Y-43478346D01*
X41181070Y-43463930D01*
X41166654Y-43448024D01*
X41153866Y-43430781D01*
X41142830Y-43412368D01*
X41133651Y-43392962D01*
X41126419Y-43372750D01*
X41121203Y-43351926D01*
X41118053Y-43330691D01*
X41117000Y-43309250D01*
X41117000Y-42796750D01*
X41118053Y-42775309D01*
X41121203Y-42754074D01*
X41126419Y-42733250D01*
X41133651Y-42713038D01*
X41142830Y-42693632D01*
X41153866Y-42675219D01*
X41166654Y-42657976D01*
X41181070Y-42642070D01*
X41196976Y-42627654D01*
X41214219Y-42614866D01*
X41232632Y-42603830D01*
X41252038Y-42594651D01*
X41272250Y-42587419D01*
X41293074Y-42582203D01*
X41314309Y-42579053D01*
X41335750Y-42578000D01*
X41773250Y-42578000D01*
X41794691Y-42579053D01*
X41794691Y-42579053D01*
G37*
D11*
X41554500Y-43053000D03*
D10*
G36*
X40219691Y-42579053D02*
X40240926Y-42582203D01*
X40261750Y-42587419D01*
X40281962Y-42594651D01*
X40301368Y-42603830D01*
X40319781Y-42614866D01*
X40337024Y-42627654D01*
X40352930Y-42642070D01*
X40367346Y-42657976D01*
X40380134Y-42675219D01*
X40391170Y-42693632D01*
X40400349Y-42713038D01*
X40407581Y-42733250D01*
X40412797Y-42754074D01*
X40415947Y-42775309D01*
X40417000Y-42796750D01*
X40417000Y-43309250D01*
X40415947Y-43330691D01*
X40412797Y-43351926D01*
X40407581Y-43372750D01*
X40400349Y-43392962D01*
X40391170Y-43412368D01*
X40380134Y-43430781D01*
X40367346Y-43448024D01*
X40352930Y-43463930D01*
X40337024Y-43478346D01*
X40319781Y-43491134D01*
X40301368Y-43502170D01*
X40281962Y-43511349D01*
X40261750Y-43518581D01*
X40240926Y-43523797D01*
X40219691Y-43526947D01*
X40198250Y-43528000D01*
X39760750Y-43528000D01*
X39739309Y-43526947D01*
X39718074Y-43523797D01*
X39697250Y-43518581D01*
X39677038Y-43511349D01*
X39657632Y-43502170D01*
X39639219Y-43491134D01*
X39621976Y-43478346D01*
X39606070Y-43463930D01*
X39591654Y-43448024D01*
X39578866Y-43430781D01*
X39567830Y-43412368D01*
X39558651Y-43392962D01*
X39551419Y-43372750D01*
X39546203Y-43351926D01*
X39543053Y-43330691D01*
X39542000Y-43309250D01*
X39542000Y-42796750D01*
X39543053Y-42775309D01*
X39546203Y-42754074D01*
X39551419Y-42733250D01*
X39558651Y-42713038D01*
X39567830Y-42693632D01*
X39578866Y-42675219D01*
X39591654Y-42657976D01*
X39606070Y-42642070D01*
X39621976Y-42627654D01*
X39639219Y-42614866D01*
X39657632Y-42603830D01*
X39677038Y-42594651D01*
X39697250Y-42587419D01*
X39718074Y-42582203D01*
X39739309Y-42579053D01*
X39760750Y-42578000D01*
X40198250Y-42578000D01*
X40219691Y-42579053D01*
X40219691Y-42579053D01*
G37*
D11*
X39979500Y-43053000D03*
G04 #@! TD*
D10*
G04 #@! TO.C,C7*
G36*
X54875691Y-43976053D02*
X54896926Y-43979203D01*
X54917750Y-43984419D01*
X54937962Y-43991651D01*
X54957368Y-44000830D01*
X54975781Y-44011866D01*
X54993024Y-44024654D01*
X55008930Y-44039070D01*
X55023346Y-44054976D01*
X55036134Y-44072219D01*
X55047170Y-44090632D01*
X55056349Y-44110038D01*
X55063581Y-44130250D01*
X55068797Y-44151074D01*
X55071947Y-44172309D01*
X55073000Y-44193750D01*
X55073000Y-44706250D01*
X55071947Y-44727691D01*
X55068797Y-44748926D01*
X55063581Y-44769750D01*
X55056349Y-44789962D01*
X55047170Y-44809368D01*
X55036134Y-44827781D01*
X55023346Y-44845024D01*
X55008930Y-44860930D01*
X54993024Y-44875346D01*
X54975781Y-44888134D01*
X54957368Y-44899170D01*
X54937962Y-44908349D01*
X54917750Y-44915581D01*
X54896926Y-44920797D01*
X54875691Y-44923947D01*
X54854250Y-44925000D01*
X54416750Y-44925000D01*
X54395309Y-44923947D01*
X54374074Y-44920797D01*
X54353250Y-44915581D01*
X54333038Y-44908349D01*
X54313632Y-44899170D01*
X54295219Y-44888134D01*
X54277976Y-44875346D01*
X54262070Y-44860930D01*
X54247654Y-44845024D01*
X54234866Y-44827781D01*
X54223830Y-44809368D01*
X54214651Y-44789962D01*
X54207419Y-44769750D01*
X54202203Y-44748926D01*
X54199053Y-44727691D01*
X54198000Y-44706250D01*
X54198000Y-44193750D01*
X54199053Y-44172309D01*
X54202203Y-44151074D01*
X54207419Y-44130250D01*
X54214651Y-44110038D01*
X54223830Y-44090632D01*
X54234866Y-44072219D01*
X54247654Y-44054976D01*
X54262070Y-44039070D01*
X54277976Y-44024654D01*
X54295219Y-44011866D01*
X54313632Y-44000830D01*
X54333038Y-43991651D01*
X54353250Y-43984419D01*
X54374074Y-43979203D01*
X54395309Y-43976053D01*
X54416750Y-43975000D01*
X54854250Y-43975000D01*
X54875691Y-43976053D01*
X54875691Y-43976053D01*
G37*
D11*
X54635500Y-44450000D03*
D10*
G36*
X53300691Y-43976053D02*
X53321926Y-43979203D01*
X53342750Y-43984419D01*
X53362962Y-43991651D01*
X53382368Y-44000830D01*
X53400781Y-44011866D01*
X53418024Y-44024654D01*
X53433930Y-44039070D01*
X53448346Y-44054976D01*
X53461134Y-44072219D01*
X53472170Y-44090632D01*
X53481349Y-44110038D01*
X53488581Y-44130250D01*
X53493797Y-44151074D01*
X53496947Y-44172309D01*
X53498000Y-44193750D01*
X53498000Y-44706250D01*
X53496947Y-44727691D01*
X53493797Y-44748926D01*
X53488581Y-44769750D01*
X53481349Y-44789962D01*
X53472170Y-44809368D01*
X53461134Y-44827781D01*
X53448346Y-44845024D01*
X53433930Y-44860930D01*
X53418024Y-44875346D01*
X53400781Y-44888134D01*
X53382368Y-44899170D01*
X53362962Y-44908349D01*
X53342750Y-44915581D01*
X53321926Y-44920797D01*
X53300691Y-44923947D01*
X53279250Y-44925000D01*
X52841750Y-44925000D01*
X52820309Y-44923947D01*
X52799074Y-44920797D01*
X52778250Y-44915581D01*
X52758038Y-44908349D01*
X52738632Y-44899170D01*
X52720219Y-44888134D01*
X52702976Y-44875346D01*
X52687070Y-44860930D01*
X52672654Y-44845024D01*
X52659866Y-44827781D01*
X52648830Y-44809368D01*
X52639651Y-44789962D01*
X52632419Y-44769750D01*
X52627203Y-44748926D01*
X52624053Y-44727691D01*
X52623000Y-44706250D01*
X52623000Y-44193750D01*
X52624053Y-44172309D01*
X52627203Y-44151074D01*
X52632419Y-44130250D01*
X52639651Y-44110038D01*
X52648830Y-44090632D01*
X52659866Y-44072219D01*
X52672654Y-44054976D01*
X52687070Y-44039070D01*
X52702976Y-44024654D01*
X52720219Y-44011866D01*
X52738632Y-44000830D01*
X52758038Y-43991651D01*
X52778250Y-43984419D01*
X52799074Y-43979203D01*
X52820309Y-43976053D01*
X52841750Y-43975000D01*
X53279250Y-43975000D01*
X53300691Y-43976053D01*
X53300691Y-43976053D01*
G37*
D11*
X53060500Y-44450000D03*
G04 #@! TD*
D10*
G04 #@! TO.C,C8*
G36*
X55014691Y-27325553D02*
X55035926Y-27328703D01*
X55056750Y-27333919D01*
X55076962Y-27341151D01*
X55096368Y-27350330D01*
X55114781Y-27361366D01*
X55132024Y-27374154D01*
X55147930Y-27388570D01*
X55162346Y-27404476D01*
X55175134Y-27421719D01*
X55186170Y-27440132D01*
X55195349Y-27459538D01*
X55202581Y-27479750D01*
X55207797Y-27500574D01*
X55210947Y-27521809D01*
X55212000Y-27543250D01*
X55212000Y-27980750D01*
X55210947Y-28002191D01*
X55207797Y-28023426D01*
X55202581Y-28044250D01*
X55195349Y-28064462D01*
X55186170Y-28083868D01*
X55175134Y-28102281D01*
X55162346Y-28119524D01*
X55147930Y-28135430D01*
X55132024Y-28149846D01*
X55114781Y-28162634D01*
X55096368Y-28173670D01*
X55076962Y-28182849D01*
X55056750Y-28190081D01*
X55035926Y-28195297D01*
X55014691Y-28198447D01*
X54993250Y-28199500D01*
X54480750Y-28199500D01*
X54459309Y-28198447D01*
X54438074Y-28195297D01*
X54417250Y-28190081D01*
X54397038Y-28182849D01*
X54377632Y-28173670D01*
X54359219Y-28162634D01*
X54341976Y-28149846D01*
X54326070Y-28135430D01*
X54311654Y-28119524D01*
X54298866Y-28102281D01*
X54287830Y-28083868D01*
X54278651Y-28064462D01*
X54271419Y-28044250D01*
X54266203Y-28023426D01*
X54263053Y-28002191D01*
X54262000Y-27980750D01*
X54262000Y-27543250D01*
X54263053Y-27521809D01*
X54266203Y-27500574D01*
X54271419Y-27479750D01*
X54278651Y-27459538D01*
X54287830Y-27440132D01*
X54298866Y-27421719D01*
X54311654Y-27404476D01*
X54326070Y-27388570D01*
X54341976Y-27374154D01*
X54359219Y-27361366D01*
X54377632Y-27350330D01*
X54397038Y-27341151D01*
X54417250Y-27333919D01*
X54438074Y-27328703D01*
X54459309Y-27325553D01*
X54480750Y-27324500D01*
X54993250Y-27324500D01*
X55014691Y-27325553D01*
X55014691Y-27325553D01*
G37*
D11*
X54737000Y-27762000D03*
D10*
G36*
X55014691Y-28900553D02*
X55035926Y-28903703D01*
X55056750Y-28908919D01*
X55076962Y-28916151D01*
X55096368Y-28925330D01*
X55114781Y-28936366D01*
X55132024Y-28949154D01*
X55147930Y-28963570D01*
X55162346Y-28979476D01*
X55175134Y-28996719D01*
X55186170Y-29015132D01*
X55195349Y-29034538D01*
X55202581Y-29054750D01*
X55207797Y-29075574D01*
X55210947Y-29096809D01*
X55212000Y-29118250D01*
X55212000Y-29555750D01*
X55210947Y-29577191D01*
X55207797Y-29598426D01*
X55202581Y-29619250D01*
X55195349Y-29639462D01*
X55186170Y-29658868D01*
X55175134Y-29677281D01*
X55162346Y-29694524D01*
X55147930Y-29710430D01*
X55132024Y-29724846D01*
X55114781Y-29737634D01*
X55096368Y-29748670D01*
X55076962Y-29757849D01*
X55056750Y-29765081D01*
X55035926Y-29770297D01*
X55014691Y-29773447D01*
X54993250Y-29774500D01*
X54480750Y-29774500D01*
X54459309Y-29773447D01*
X54438074Y-29770297D01*
X54417250Y-29765081D01*
X54397038Y-29757849D01*
X54377632Y-29748670D01*
X54359219Y-29737634D01*
X54341976Y-29724846D01*
X54326070Y-29710430D01*
X54311654Y-29694524D01*
X54298866Y-29677281D01*
X54287830Y-29658868D01*
X54278651Y-29639462D01*
X54271419Y-29619250D01*
X54266203Y-29598426D01*
X54263053Y-29577191D01*
X54262000Y-29555750D01*
X54262000Y-29118250D01*
X54263053Y-29096809D01*
X54266203Y-29075574D01*
X54271419Y-29054750D01*
X54278651Y-29034538D01*
X54287830Y-29015132D01*
X54298866Y-28996719D01*
X54311654Y-28979476D01*
X54326070Y-28963570D01*
X54341976Y-28949154D01*
X54359219Y-28936366D01*
X54377632Y-28925330D01*
X54397038Y-28916151D01*
X54417250Y-28908919D01*
X54438074Y-28903703D01*
X54459309Y-28900553D01*
X54480750Y-28899500D01*
X54993250Y-28899500D01*
X55014691Y-28900553D01*
X55014691Y-28900553D01*
G37*
D11*
X54737000Y-29337000D03*
G04 #@! TD*
D10*
G04 #@! TO.C,R16*
G36*
X56665691Y-28900553D02*
X56686926Y-28903703D01*
X56707750Y-28908919D01*
X56727962Y-28916151D01*
X56747368Y-28925330D01*
X56765781Y-28936366D01*
X56783024Y-28949154D01*
X56798930Y-28963570D01*
X56813346Y-28979476D01*
X56826134Y-28996719D01*
X56837170Y-29015132D01*
X56846349Y-29034538D01*
X56853581Y-29054750D01*
X56858797Y-29075574D01*
X56861947Y-29096809D01*
X56863000Y-29118250D01*
X56863000Y-29555750D01*
X56861947Y-29577191D01*
X56858797Y-29598426D01*
X56853581Y-29619250D01*
X56846349Y-29639462D01*
X56837170Y-29658868D01*
X56826134Y-29677281D01*
X56813346Y-29694524D01*
X56798930Y-29710430D01*
X56783024Y-29724846D01*
X56765781Y-29737634D01*
X56747368Y-29748670D01*
X56727962Y-29757849D01*
X56707750Y-29765081D01*
X56686926Y-29770297D01*
X56665691Y-29773447D01*
X56644250Y-29774500D01*
X56131750Y-29774500D01*
X56110309Y-29773447D01*
X56089074Y-29770297D01*
X56068250Y-29765081D01*
X56048038Y-29757849D01*
X56028632Y-29748670D01*
X56010219Y-29737634D01*
X55992976Y-29724846D01*
X55977070Y-29710430D01*
X55962654Y-29694524D01*
X55949866Y-29677281D01*
X55938830Y-29658868D01*
X55929651Y-29639462D01*
X55922419Y-29619250D01*
X55917203Y-29598426D01*
X55914053Y-29577191D01*
X55913000Y-29555750D01*
X55913000Y-29118250D01*
X55914053Y-29096809D01*
X55917203Y-29075574D01*
X55922419Y-29054750D01*
X55929651Y-29034538D01*
X55938830Y-29015132D01*
X55949866Y-28996719D01*
X55962654Y-28979476D01*
X55977070Y-28963570D01*
X55992976Y-28949154D01*
X56010219Y-28936366D01*
X56028632Y-28925330D01*
X56048038Y-28916151D01*
X56068250Y-28908919D01*
X56089074Y-28903703D01*
X56110309Y-28900553D01*
X56131750Y-28899500D01*
X56644250Y-28899500D01*
X56665691Y-28900553D01*
X56665691Y-28900553D01*
G37*
D11*
X56388000Y-29337000D03*
D10*
G36*
X56665691Y-27325553D02*
X56686926Y-27328703D01*
X56707750Y-27333919D01*
X56727962Y-27341151D01*
X56747368Y-27350330D01*
X56765781Y-27361366D01*
X56783024Y-27374154D01*
X56798930Y-27388570D01*
X56813346Y-27404476D01*
X56826134Y-27421719D01*
X56837170Y-27440132D01*
X56846349Y-27459538D01*
X56853581Y-27479750D01*
X56858797Y-27500574D01*
X56861947Y-27521809D01*
X56863000Y-27543250D01*
X56863000Y-27980750D01*
X56861947Y-28002191D01*
X56858797Y-28023426D01*
X56853581Y-28044250D01*
X56846349Y-28064462D01*
X56837170Y-28083868D01*
X56826134Y-28102281D01*
X56813346Y-28119524D01*
X56798930Y-28135430D01*
X56783024Y-28149846D01*
X56765781Y-28162634D01*
X56747368Y-28173670D01*
X56727962Y-28182849D01*
X56707750Y-28190081D01*
X56686926Y-28195297D01*
X56665691Y-28198447D01*
X56644250Y-28199500D01*
X56131750Y-28199500D01*
X56110309Y-28198447D01*
X56089074Y-28195297D01*
X56068250Y-28190081D01*
X56048038Y-28182849D01*
X56028632Y-28173670D01*
X56010219Y-28162634D01*
X55992976Y-28149846D01*
X55977070Y-28135430D01*
X55962654Y-28119524D01*
X55949866Y-28102281D01*
X55938830Y-28083868D01*
X55929651Y-28064462D01*
X55922419Y-28044250D01*
X55917203Y-28023426D01*
X55914053Y-28002191D01*
X55913000Y-27980750D01*
X55913000Y-27543250D01*
X55914053Y-27521809D01*
X55917203Y-27500574D01*
X55922419Y-27479750D01*
X55929651Y-27459538D01*
X55938830Y-27440132D01*
X55949866Y-27421719D01*
X55962654Y-27404476D01*
X55977070Y-27388570D01*
X55992976Y-27374154D01*
X56010219Y-27361366D01*
X56028632Y-27350330D01*
X56048038Y-27341151D01*
X56068250Y-27333919D01*
X56089074Y-27328703D01*
X56110309Y-27325553D01*
X56131750Y-27324500D01*
X56644250Y-27324500D01*
X56665691Y-27325553D01*
X56665691Y-27325553D01*
G37*
D11*
X56388000Y-27762000D03*
G04 #@! TD*
D10*
G04 #@! TO.C,R17*
G36*
X57085191Y-45881053D02*
X57106426Y-45884203D01*
X57127250Y-45889419D01*
X57147462Y-45896651D01*
X57166868Y-45905830D01*
X57185281Y-45916866D01*
X57202524Y-45929654D01*
X57218430Y-45944070D01*
X57232846Y-45959976D01*
X57245634Y-45977219D01*
X57256670Y-45995632D01*
X57265849Y-46015038D01*
X57273081Y-46035250D01*
X57278297Y-46056074D01*
X57281447Y-46077309D01*
X57282500Y-46098750D01*
X57282500Y-46611250D01*
X57281447Y-46632691D01*
X57278297Y-46653926D01*
X57273081Y-46674750D01*
X57265849Y-46694962D01*
X57256670Y-46714368D01*
X57245634Y-46732781D01*
X57232846Y-46750024D01*
X57218430Y-46765930D01*
X57202524Y-46780346D01*
X57185281Y-46793134D01*
X57166868Y-46804170D01*
X57147462Y-46813349D01*
X57127250Y-46820581D01*
X57106426Y-46825797D01*
X57085191Y-46828947D01*
X57063750Y-46830000D01*
X56626250Y-46830000D01*
X56604809Y-46828947D01*
X56583574Y-46825797D01*
X56562750Y-46820581D01*
X56542538Y-46813349D01*
X56523132Y-46804170D01*
X56504719Y-46793134D01*
X56487476Y-46780346D01*
X56471570Y-46765930D01*
X56457154Y-46750024D01*
X56444366Y-46732781D01*
X56433330Y-46714368D01*
X56424151Y-46694962D01*
X56416919Y-46674750D01*
X56411703Y-46653926D01*
X56408553Y-46632691D01*
X56407500Y-46611250D01*
X56407500Y-46098750D01*
X56408553Y-46077309D01*
X56411703Y-46056074D01*
X56416919Y-46035250D01*
X56424151Y-46015038D01*
X56433330Y-45995632D01*
X56444366Y-45977219D01*
X56457154Y-45959976D01*
X56471570Y-45944070D01*
X56487476Y-45929654D01*
X56504719Y-45916866D01*
X56523132Y-45905830D01*
X56542538Y-45896651D01*
X56562750Y-45889419D01*
X56583574Y-45884203D01*
X56604809Y-45881053D01*
X56626250Y-45880000D01*
X57063750Y-45880000D01*
X57085191Y-45881053D01*
X57085191Y-45881053D01*
G37*
D11*
X56845000Y-46355000D03*
D10*
G36*
X58660191Y-45881053D02*
X58681426Y-45884203D01*
X58702250Y-45889419D01*
X58722462Y-45896651D01*
X58741868Y-45905830D01*
X58760281Y-45916866D01*
X58777524Y-45929654D01*
X58793430Y-45944070D01*
X58807846Y-45959976D01*
X58820634Y-45977219D01*
X58831670Y-45995632D01*
X58840849Y-46015038D01*
X58848081Y-46035250D01*
X58853297Y-46056074D01*
X58856447Y-46077309D01*
X58857500Y-46098750D01*
X58857500Y-46611250D01*
X58856447Y-46632691D01*
X58853297Y-46653926D01*
X58848081Y-46674750D01*
X58840849Y-46694962D01*
X58831670Y-46714368D01*
X58820634Y-46732781D01*
X58807846Y-46750024D01*
X58793430Y-46765930D01*
X58777524Y-46780346D01*
X58760281Y-46793134D01*
X58741868Y-46804170D01*
X58722462Y-46813349D01*
X58702250Y-46820581D01*
X58681426Y-46825797D01*
X58660191Y-46828947D01*
X58638750Y-46830000D01*
X58201250Y-46830000D01*
X58179809Y-46828947D01*
X58158574Y-46825797D01*
X58137750Y-46820581D01*
X58117538Y-46813349D01*
X58098132Y-46804170D01*
X58079719Y-46793134D01*
X58062476Y-46780346D01*
X58046570Y-46765930D01*
X58032154Y-46750024D01*
X58019366Y-46732781D01*
X58008330Y-46714368D01*
X57999151Y-46694962D01*
X57991919Y-46674750D01*
X57986703Y-46653926D01*
X57983553Y-46632691D01*
X57982500Y-46611250D01*
X57982500Y-46098750D01*
X57983553Y-46077309D01*
X57986703Y-46056074D01*
X57991919Y-46035250D01*
X57999151Y-46015038D01*
X58008330Y-45995632D01*
X58019366Y-45977219D01*
X58032154Y-45959976D01*
X58046570Y-45944070D01*
X58062476Y-45929654D01*
X58079719Y-45916866D01*
X58098132Y-45905830D01*
X58117538Y-45896651D01*
X58137750Y-45889419D01*
X58158574Y-45884203D01*
X58179809Y-45881053D01*
X58201250Y-45880000D01*
X58638750Y-45880000D01*
X58660191Y-45881053D01*
X58660191Y-45881053D01*
G37*
D11*
X58420000Y-46355000D03*
G04 #@! TD*
D10*
G04 #@! TO.C,R18*
G36*
X58660191Y-43976053D02*
X58681426Y-43979203D01*
X58702250Y-43984419D01*
X58722462Y-43991651D01*
X58741868Y-44000830D01*
X58760281Y-44011866D01*
X58777524Y-44024654D01*
X58793430Y-44039070D01*
X58807846Y-44054976D01*
X58820634Y-44072219D01*
X58831670Y-44090632D01*
X58840849Y-44110038D01*
X58848081Y-44130250D01*
X58853297Y-44151074D01*
X58856447Y-44172309D01*
X58857500Y-44193750D01*
X58857500Y-44706250D01*
X58856447Y-44727691D01*
X58853297Y-44748926D01*
X58848081Y-44769750D01*
X58840849Y-44789962D01*
X58831670Y-44809368D01*
X58820634Y-44827781D01*
X58807846Y-44845024D01*
X58793430Y-44860930D01*
X58777524Y-44875346D01*
X58760281Y-44888134D01*
X58741868Y-44899170D01*
X58722462Y-44908349D01*
X58702250Y-44915581D01*
X58681426Y-44920797D01*
X58660191Y-44923947D01*
X58638750Y-44925000D01*
X58201250Y-44925000D01*
X58179809Y-44923947D01*
X58158574Y-44920797D01*
X58137750Y-44915581D01*
X58117538Y-44908349D01*
X58098132Y-44899170D01*
X58079719Y-44888134D01*
X58062476Y-44875346D01*
X58046570Y-44860930D01*
X58032154Y-44845024D01*
X58019366Y-44827781D01*
X58008330Y-44809368D01*
X57999151Y-44789962D01*
X57991919Y-44769750D01*
X57986703Y-44748926D01*
X57983553Y-44727691D01*
X57982500Y-44706250D01*
X57982500Y-44193750D01*
X57983553Y-44172309D01*
X57986703Y-44151074D01*
X57991919Y-44130250D01*
X57999151Y-44110038D01*
X58008330Y-44090632D01*
X58019366Y-44072219D01*
X58032154Y-44054976D01*
X58046570Y-44039070D01*
X58062476Y-44024654D01*
X58079719Y-44011866D01*
X58098132Y-44000830D01*
X58117538Y-43991651D01*
X58137750Y-43984419D01*
X58158574Y-43979203D01*
X58179809Y-43976053D01*
X58201250Y-43975000D01*
X58638750Y-43975000D01*
X58660191Y-43976053D01*
X58660191Y-43976053D01*
G37*
D11*
X58420000Y-44450000D03*
D10*
G36*
X57085191Y-43976053D02*
X57106426Y-43979203D01*
X57127250Y-43984419D01*
X57147462Y-43991651D01*
X57166868Y-44000830D01*
X57185281Y-44011866D01*
X57202524Y-44024654D01*
X57218430Y-44039070D01*
X57232846Y-44054976D01*
X57245634Y-44072219D01*
X57256670Y-44090632D01*
X57265849Y-44110038D01*
X57273081Y-44130250D01*
X57278297Y-44151074D01*
X57281447Y-44172309D01*
X57282500Y-44193750D01*
X57282500Y-44706250D01*
X57281447Y-44727691D01*
X57278297Y-44748926D01*
X57273081Y-44769750D01*
X57265849Y-44789962D01*
X57256670Y-44809368D01*
X57245634Y-44827781D01*
X57232846Y-44845024D01*
X57218430Y-44860930D01*
X57202524Y-44875346D01*
X57185281Y-44888134D01*
X57166868Y-44899170D01*
X57147462Y-44908349D01*
X57127250Y-44915581D01*
X57106426Y-44920797D01*
X57085191Y-44923947D01*
X57063750Y-44925000D01*
X56626250Y-44925000D01*
X56604809Y-44923947D01*
X56583574Y-44920797D01*
X56562750Y-44915581D01*
X56542538Y-44908349D01*
X56523132Y-44899170D01*
X56504719Y-44888134D01*
X56487476Y-44875346D01*
X56471570Y-44860930D01*
X56457154Y-44845024D01*
X56444366Y-44827781D01*
X56433330Y-44809368D01*
X56424151Y-44789962D01*
X56416919Y-44769750D01*
X56411703Y-44748926D01*
X56408553Y-44727691D01*
X56407500Y-44706250D01*
X56407500Y-44193750D01*
X56408553Y-44172309D01*
X56411703Y-44151074D01*
X56416919Y-44130250D01*
X56424151Y-44110038D01*
X56433330Y-44090632D01*
X56444366Y-44072219D01*
X56457154Y-44054976D01*
X56471570Y-44039070D01*
X56487476Y-44024654D01*
X56504719Y-44011866D01*
X56523132Y-44000830D01*
X56542538Y-43991651D01*
X56562750Y-43984419D01*
X56583574Y-43979203D01*
X56604809Y-43976053D01*
X56626250Y-43975000D01*
X57063750Y-43975000D01*
X57085191Y-43976053D01*
X57085191Y-43976053D01*
G37*
D11*
X56845000Y-44450000D03*
G04 #@! TD*
D10*
G04 #@! TO.C,R19*
G36*
X61999691Y-39543053D02*
X62020926Y-39546203D01*
X62041750Y-39551419D01*
X62061962Y-39558651D01*
X62081368Y-39567830D01*
X62099781Y-39578866D01*
X62117024Y-39591654D01*
X62132930Y-39606070D01*
X62147346Y-39621976D01*
X62160134Y-39639219D01*
X62171170Y-39657632D01*
X62180349Y-39677038D01*
X62187581Y-39697250D01*
X62192797Y-39718074D01*
X62195947Y-39739309D01*
X62197000Y-39760750D01*
X62197000Y-40198250D01*
X62195947Y-40219691D01*
X62192797Y-40240926D01*
X62187581Y-40261750D01*
X62180349Y-40281962D01*
X62171170Y-40301368D01*
X62160134Y-40319781D01*
X62147346Y-40337024D01*
X62132930Y-40352930D01*
X62117024Y-40367346D01*
X62099781Y-40380134D01*
X62081368Y-40391170D01*
X62061962Y-40400349D01*
X62041750Y-40407581D01*
X62020926Y-40412797D01*
X61999691Y-40415947D01*
X61978250Y-40417000D01*
X61465750Y-40417000D01*
X61444309Y-40415947D01*
X61423074Y-40412797D01*
X61402250Y-40407581D01*
X61382038Y-40400349D01*
X61362632Y-40391170D01*
X61344219Y-40380134D01*
X61326976Y-40367346D01*
X61311070Y-40352930D01*
X61296654Y-40337024D01*
X61283866Y-40319781D01*
X61272830Y-40301368D01*
X61263651Y-40281962D01*
X61256419Y-40261750D01*
X61251203Y-40240926D01*
X61248053Y-40219691D01*
X61247000Y-40198250D01*
X61247000Y-39760750D01*
X61248053Y-39739309D01*
X61251203Y-39718074D01*
X61256419Y-39697250D01*
X61263651Y-39677038D01*
X61272830Y-39657632D01*
X61283866Y-39639219D01*
X61296654Y-39621976D01*
X61311070Y-39606070D01*
X61326976Y-39591654D01*
X61344219Y-39578866D01*
X61362632Y-39567830D01*
X61382038Y-39558651D01*
X61402250Y-39551419D01*
X61423074Y-39546203D01*
X61444309Y-39543053D01*
X61465750Y-39542000D01*
X61978250Y-39542000D01*
X61999691Y-39543053D01*
X61999691Y-39543053D01*
G37*
D11*
X61722000Y-39979500D03*
D10*
G36*
X61999691Y-41118053D02*
X62020926Y-41121203D01*
X62041750Y-41126419D01*
X62061962Y-41133651D01*
X62081368Y-41142830D01*
X62099781Y-41153866D01*
X62117024Y-41166654D01*
X62132930Y-41181070D01*
X62147346Y-41196976D01*
X62160134Y-41214219D01*
X62171170Y-41232632D01*
X62180349Y-41252038D01*
X62187581Y-41272250D01*
X62192797Y-41293074D01*
X62195947Y-41314309D01*
X62197000Y-41335750D01*
X62197000Y-41773250D01*
X62195947Y-41794691D01*
X62192797Y-41815926D01*
X62187581Y-41836750D01*
X62180349Y-41856962D01*
X62171170Y-41876368D01*
X62160134Y-41894781D01*
X62147346Y-41912024D01*
X62132930Y-41927930D01*
X62117024Y-41942346D01*
X62099781Y-41955134D01*
X62081368Y-41966170D01*
X62061962Y-41975349D01*
X62041750Y-41982581D01*
X62020926Y-41987797D01*
X61999691Y-41990947D01*
X61978250Y-41992000D01*
X61465750Y-41992000D01*
X61444309Y-41990947D01*
X61423074Y-41987797D01*
X61402250Y-41982581D01*
X61382038Y-41975349D01*
X61362632Y-41966170D01*
X61344219Y-41955134D01*
X61326976Y-41942346D01*
X61311070Y-41927930D01*
X61296654Y-41912024D01*
X61283866Y-41894781D01*
X61272830Y-41876368D01*
X61263651Y-41856962D01*
X61256419Y-41836750D01*
X61251203Y-41815926D01*
X61248053Y-41794691D01*
X61247000Y-41773250D01*
X61247000Y-41335750D01*
X61248053Y-41314309D01*
X61251203Y-41293074D01*
X61256419Y-41272250D01*
X61263651Y-41252038D01*
X61272830Y-41232632D01*
X61283866Y-41214219D01*
X61296654Y-41196976D01*
X61311070Y-41181070D01*
X61326976Y-41166654D01*
X61344219Y-41153866D01*
X61362632Y-41142830D01*
X61382038Y-41133651D01*
X61402250Y-41126419D01*
X61423074Y-41121203D01*
X61444309Y-41118053D01*
X61465750Y-41117000D01*
X61978250Y-41117000D01*
X61999691Y-41118053D01*
X61999691Y-41118053D01*
G37*
D11*
X61722000Y-41554500D03*
G04 #@! TD*
D10*
G04 #@! TO.C,R20*
G36*
X60348691Y-41118053D02*
X60369926Y-41121203D01*
X60390750Y-41126419D01*
X60410962Y-41133651D01*
X60430368Y-41142830D01*
X60448781Y-41153866D01*
X60466024Y-41166654D01*
X60481930Y-41181070D01*
X60496346Y-41196976D01*
X60509134Y-41214219D01*
X60520170Y-41232632D01*
X60529349Y-41252038D01*
X60536581Y-41272250D01*
X60541797Y-41293074D01*
X60544947Y-41314309D01*
X60546000Y-41335750D01*
X60546000Y-41773250D01*
X60544947Y-41794691D01*
X60541797Y-41815926D01*
X60536581Y-41836750D01*
X60529349Y-41856962D01*
X60520170Y-41876368D01*
X60509134Y-41894781D01*
X60496346Y-41912024D01*
X60481930Y-41927930D01*
X60466024Y-41942346D01*
X60448781Y-41955134D01*
X60430368Y-41966170D01*
X60410962Y-41975349D01*
X60390750Y-41982581D01*
X60369926Y-41987797D01*
X60348691Y-41990947D01*
X60327250Y-41992000D01*
X59814750Y-41992000D01*
X59793309Y-41990947D01*
X59772074Y-41987797D01*
X59751250Y-41982581D01*
X59731038Y-41975349D01*
X59711632Y-41966170D01*
X59693219Y-41955134D01*
X59675976Y-41942346D01*
X59660070Y-41927930D01*
X59645654Y-41912024D01*
X59632866Y-41894781D01*
X59621830Y-41876368D01*
X59612651Y-41856962D01*
X59605419Y-41836750D01*
X59600203Y-41815926D01*
X59597053Y-41794691D01*
X59596000Y-41773250D01*
X59596000Y-41335750D01*
X59597053Y-41314309D01*
X59600203Y-41293074D01*
X59605419Y-41272250D01*
X59612651Y-41252038D01*
X59621830Y-41232632D01*
X59632866Y-41214219D01*
X59645654Y-41196976D01*
X59660070Y-41181070D01*
X59675976Y-41166654D01*
X59693219Y-41153866D01*
X59711632Y-41142830D01*
X59731038Y-41133651D01*
X59751250Y-41126419D01*
X59772074Y-41121203D01*
X59793309Y-41118053D01*
X59814750Y-41117000D01*
X60327250Y-41117000D01*
X60348691Y-41118053D01*
X60348691Y-41118053D01*
G37*
D11*
X60071000Y-41554500D03*
D10*
G36*
X60348691Y-39543053D02*
X60369926Y-39546203D01*
X60390750Y-39551419D01*
X60410962Y-39558651D01*
X60430368Y-39567830D01*
X60448781Y-39578866D01*
X60466024Y-39591654D01*
X60481930Y-39606070D01*
X60496346Y-39621976D01*
X60509134Y-39639219D01*
X60520170Y-39657632D01*
X60529349Y-39677038D01*
X60536581Y-39697250D01*
X60541797Y-39718074D01*
X60544947Y-39739309D01*
X60546000Y-39760750D01*
X60546000Y-40198250D01*
X60544947Y-40219691D01*
X60541797Y-40240926D01*
X60536581Y-40261750D01*
X60529349Y-40281962D01*
X60520170Y-40301368D01*
X60509134Y-40319781D01*
X60496346Y-40337024D01*
X60481930Y-40352930D01*
X60466024Y-40367346D01*
X60448781Y-40380134D01*
X60430368Y-40391170D01*
X60410962Y-40400349D01*
X60390750Y-40407581D01*
X60369926Y-40412797D01*
X60348691Y-40415947D01*
X60327250Y-40417000D01*
X59814750Y-40417000D01*
X59793309Y-40415947D01*
X59772074Y-40412797D01*
X59751250Y-40407581D01*
X59731038Y-40400349D01*
X59711632Y-40391170D01*
X59693219Y-40380134D01*
X59675976Y-40367346D01*
X59660070Y-40352930D01*
X59645654Y-40337024D01*
X59632866Y-40319781D01*
X59621830Y-40301368D01*
X59612651Y-40281962D01*
X59605419Y-40261750D01*
X59600203Y-40240926D01*
X59597053Y-40219691D01*
X59596000Y-40198250D01*
X59596000Y-39760750D01*
X59597053Y-39739309D01*
X59600203Y-39718074D01*
X59605419Y-39697250D01*
X59612651Y-39677038D01*
X59621830Y-39657632D01*
X59632866Y-39639219D01*
X59645654Y-39621976D01*
X59660070Y-39606070D01*
X59675976Y-39591654D01*
X59693219Y-39578866D01*
X59711632Y-39567830D01*
X59731038Y-39558651D01*
X59751250Y-39551419D01*
X59772074Y-39546203D01*
X59793309Y-39543053D01*
X59814750Y-39542000D01*
X60327250Y-39542000D01*
X60348691Y-39543053D01*
X60348691Y-39543053D01*
G37*
D11*
X60071000Y-39979500D03*
G04 #@! TD*
D10*
G04 #@! TO.C,R21*
G36*
X58697691Y-39543053D02*
X58718926Y-39546203D01*
X58739750Y-39551419D01*
X58759962Y-39558651D01*
X58779368Y-39567830D01*
X58797781Y-39578866D01*
X58815024Y-39591654D01*
X58830930Y-39606070D01*
X58845346Y-39621976D01*
X58858134Y-39639219D01*
X58869170Y-39657632D01*
X58878349Y-39677038D01*
X58885581Y-39697250D01*
X58890797Y-39718074D01*
X58893947Y-39739309D01*
X58895000Y-39760750D01*
X58895000Y-40198250D01*
X58893947Y-40219691D01*
X58890797Y-40240926D01*
X58885581Y-40261750D01*
X58878349Y-40281962D01*
X58869170Y-40301368D01*
X58858134Y-40319781D01*
X58845346Y-40337024D01*
X58830930Y-40352930D01*
X58815024Y-40367346D01*
X58797781Y-40380134D01*
X58779368Y-40391170D01*
X58759962Y-40400349D01*
X58739750Y-40407581D01*
X58718926Y-40412797D01*
X58697691Y-40415947D01*
X58676250Y-40417000D01*
X58163750Y-40417000D01*
X58142309Y-40415947D01*
X58121074Y-40412797D01*
X58100250Y-40407581D01*
X58080038Y-40400349D01*
X58060632Y-40391170D01*
X58042219Y-40380134D01*
X58024976Y-40367346D01*
X58009070Y-40352930D01*
X57994654Y-40337024D01*
X57981866Y-40319781D01*
X57970830Y-40301368D01*
X57961651Y-40281962D01*
X57954419Y-40261750D01*
X57949203Y-40240926D01*
X57946053Y-40219691D01*
X57945000Y-40198250D01*
X57945000Y-39760750D01*
X57946053Y-39739309D01*
X57949203Y-39718074D01*
X57954419Y-39697250D01*
X57961651Y-39677038D01*
X57970830Y-39657632D01*
X57981866Y-39639219D01*
X57994654Y-39621976D01*
X58009070Y-39606070D01*
X58024976Y-39591654D01*
X58042219Y-39578866D01*
X58060632Y-39567830D01*
X58080038Y-39558651D01*
X58100250Y-39551419D01*
X58121074Y-39546203D01*
X58142309Y-39543053D01*
X58163750Y-39542000D01*
X58676250Y-39542000D01*
X58697691Y-39543053D01*
X58697691Y-39543053D01*
G37*
D11*
X58420000Y-39979500D03*
D10*
G36*
X58697691Y-41118053D02*
X58718926Y-41121203D01*
X58739750Y-41126419D01*
X58759962Y-41133651D01*
X58779368Y-41142830D01*
X58797781Y-41153866D01*
X58815024Y-41166654D01*
X58830930Y-41181070D01*
X58845346Y-41196976D01*
X58858134Y-41214219D01*
X58869170Y-41232632D01*
X58878349Y-41252038D01*
X58885581Y-41272250D01*
X58890797Y-41293074D01*
X58893947Y-41314309D01*
X58895000Y-41335750D01*
X58895000Y-41773250D01*
X58893947Y-41794691D01*
X58890797Y-41815926D01*
X58885581Y-41836750D01*
X58878349Y-41856962D01*
X58869170Y-41876368D01*
X58858134Y-41894781D01*
X58845346Y-41912024D01*
X58830930Y-41927930D01*
X58815024Y-41942346D01*
X58797781Y-41955134D01*
X58779368Y-41966170D01*
X58759962Y-41975349D01*
X58739750Y-41982581D01*
X58718926Y-41987797D01*
X58697691Y-41990947D01*
X58676250Y-41992000D01*
X58163750Y-41992000D01*
X58142309Y-41990947D01*
X58121074Y-41987797D01*
X58100250Y-41982581D01*
X58080038Y-41975349D01*
X58060632Y-41966170D01*
X58042219Y-41955134D01*
X58024976Y-41942346D01*
X58009070Y-41927930D01*
X57994654Y-41912024D01*
X57981866Y-41894781D01*
X57970830Y-41876368D01*
X57961651Y-41856962D01*
X57954419Y-41836750D01*
X57949203Y-41815926D01*
X57946053Y-41794691D01*
X57945000Y-41773250D01*
X57945000Y-41335750D01*
X57946053Y-41314309D01*
X57949203Y-41293074D01*
X57954419Y-41272250D01*
X57961651Y-41252038D01*
X57970830Y-41232632D01*
X57981866Y-41214219D01*
X57994654Y-41196976D01*
X58009070Y-41181070D01*
X58024976Y-41166654D01*
X58042219Y-41153866D01*
X58060632Y-41142830D01*
X58080038Y-41133651D01*
X58100250Y-41126419D01*
X58121074Y-41121203D01*
X58142309Y-41118053D01*
X58163750Y-41117000D01*
X58676250Y-41117000D01*
X58697691Y-41118053D01*
X58697691Y-41118053D01*
G37*
D11*
X58420000Y-41554500D03*
G04 #@! TD*
D18*
G04 #@! TO.C,U3*
X56765000Y-37863000D03*
X57415000Y-37863000D03*
X58065000Y-37863000D03*
X58715000Y-37863000D03*
X59365000Y-37863000D03*
X60015000Y-37863000D03*
X60665000Y-37863000D03*
X61315000Y-37863000D03*
X61965000Y-37863000D03*
X62615000Y-37863000D03*
X62600000Y-31733000D03*
X61950000Y-31733000D03*
X61300000Y-31733000D03*
X60650000Y-31733000D03*
X60015000Y-31733000D03*
X59365000Y-31733000D03*
X58715000Y-31733000D03*
X58065000Y-31733000D03*
X57415000Y-31733000D03*
X56765000Y-31733000D03*
G04 #@! TD*
D19*
G04 #@! TO.C,U1*
X42032000Y-27391000D03*
X41082000Y-27391000D03*
X40132000Y-27391000D03*
X40132000Y-29591000D03*
X42032000Y-29591000D03*
G04 #@! TD*
D20*
G04 #@! TO.C,X1*
X53848000Y-38752000D03*
X53848000Y-35052000D03*
G04 #@! TD*
D10*
G04 #@! TO.C,C3*
G36*
X54850191Y-40674053D02*
X54871426Y-40677203D01*
X54892250Y-40682419D01*
X54912462Y-40689651D01*
X54931868Y-40698830D01*
X54950281Y-40709866D01*
X54967524Y-40722654D01*
X54983430Y-40737070D01*
X54997846Y-40752976D01*
X55010634Y-40770219D01*
X55021670Y-40788632D01*
X55030849Y-40808038D01*
X55038081Y-40828250D01*
X55043297Y-40849074D01*
X55046447Y-40870309D01*
X55047500Y-40891750D01*
X55047500Y-41404250D01*
X55046447Y-41425691D01*
X55043297Y-41446926D01*
X55038081Y-41467750D01*
X55030849Y-41487962D01*
X55021670Y-41507368D01*
X55010634Y-41525781D01*
X54997846Y-41543024D01*
X54983430Y-41558930D01*
X54967524Y-41573346D01*
X54950281Y-41586134D01*
X54931868Y-41597170D01*
X54912462Y-41606349D01*
X54892250Y-41613581D01*
X54871426Y-41618797D01*
X54850191Y-41621947D01*
X54828750Y-41623000D01*
X54391250Y-41623000D01*
X54369809Y-41621947D01*
X54348574Y-41618797D01*
X54327750Y-41613581D01*
X54307538Y-41606349D01*
X54288132Y-41597170D01*
X54269719Y-41586134D01*
X54252476Y-41573346D01*
X54236570Y-41558930D01*
X54222154Y-41543024D01*
X54209366Y-41525781D01*
X54198330Y-41507368D01*
X54189151Y-41487962D01*
X54181919Y-41467750D01*
X54176703Y-41446926D01*
X54173553Y-41425691D01*
X54172500Y-41404250D01*
X54172500Y-40891750D01*
X54173553Y-40870309D01*
X54176703Y-40849074D01*
X54181919Y-40828250D01*
X54189151Y-40808038D01*
X54198330Y-40788632D01*
X54209366Y-40770219D01*
X54222154Y-40752976D01*
X54236570Y-40737070D01*
X54252476Y-40722654D01*
X54269719Y-40709866D01*
X54288132Y-40698830D01*
X54307538Y-40689651D01*
X54327750Y-40682419D01*
X54348574Y-40677203D01*
X54369809Y-40674053D01*
X54391250Y-40673000D01*
X54828750Y-40673000D01*
X54850191Y-40674053D01*
X54850191Y-40674053D01*
G37*
D11*
X54610000Y-41148000D03*
D10*
G36*
X53275191Y-40674053D02*
X53296426Y-40677203D01*
X53317250Y-40682419D01*
X53337462Y-40689651D01*
X53356868Y-40698830D01*
X53375281Y-40709866D01*
X53392524Y-40722654D01*
X53408430Y-40737070D01*
X53422846Y-40752976D01*
X53435634Y-40770219D01*
X53446670Y-40788632D01*
X53455849Y-40808038D01*
X53463081Y-40828250D01*
X53468297Y-40849074D01*
X53471447Y-40870309D01*
X53472500Y-40891750D01*
X53472500Y-41404250D01*
X53471447Y-41425691D01*
X53468297Y-41446926D01*
X53463081Y-41467750D01*
X53455849Y-41487962D01*
X53446670Y-41507368D01*
X53435634Y-41525781D01*
X53422846Y-41543024D01*
X53408430Y-41558930D01*
X53392524Y-41573346D01*
X53375281Y-41586134D01*
X53356868Y-41597170D01*
X53337462Y-41606349D01*
X53317250Y-41613581D01*
X53296426Y-41618797D01*
X53275191Y-41621947D01*
X53253750Y-41623000D01*
X52816250Y-41623000D01*
X52794809Y-41621947D01*
X52773574Y-41618797D01*
X52752750Y-41613581D01*
X52732538Y-41606349D01*
X52713132Y-41597170D01*
X52694719Y-41586134D01*
X52677476Y-41573346D01*
X52661570Y-41558930D01*
X52647154Y-41543024D01*
X52634366Y-41525781D01*
X52623330Y-41507368D01*
X52614151Y-41487962D01*
X52606919Y-41467750D01*
X52601703Y-41446926D01*
X52598553Y-41425691D01*
X52597500Y-41404250D01*
X52597500Y-40891750D01*
X52598553Y-40870309D01*
X52601703Y-40849074D01*
X52606919Y-40828250D01*
X52614151Y-40808038D01*
X52623330Y-40788632D01*
X52634366Y-40770219D01*
X52647154Y-40752976D01*
X52661570Y-40737070D01*
X52677476Y-40722654D01*
X52694719Y-40709866D01*
X52713132Y-40698830D01*
X52732538Y-40689651D01*
X52752750Y-40682419D01*
X52773574Y-40677203D01*
X52794809Y-40674053D01*
X52816250Y-40673000D01*
X53253750Y-40673000D01*
X53275191Y-40674053D01*
X53275191Y-40674053D01*
G37*
D11*
X53035000Y-41148000D03*
G04 #@! TD*
D10*
G04 #@! TO.C,C4*
G36*
X53148191Y-32165053D02*
X53169426Y-32168203D01*
X53190250Y-32173419D01*
X53210462Y-32180651D01*
X53229868Y-32189830D01*
X53248281Y-32200866D01*
X53265524Y-32213654D01*
X53281430Y-32228070D01*
X53295846Y-32243976D01*
X53308634Y-32261219D01*
X53319670Y-32279632D01*
X53328849Y-32299038D01*
X53336081Y-32319250D01*
X53341297Y-32340074D01*
X53344447Y-32361309D01*
X53345500Y-32382750D01*
X53345500Y-32895250D01*
X53344447Y-32916691D01*
X53341297Y-32937926D01*
X53336081Y-32958750D01*
X53328849Y-32978962D01*
X53319670Y-32998368D01*
X53308634Y-33016781D01*
X53295846Y-33034024D01*
X53281430Y-33049930D01*
X53265524Y-33064346D01*
X53248281Y-33077134D01*
X53229868Y-33088170D01*
X53210462Y-33097349D01*
X53190250Y-33104581D01*
X53169426Y-33109797D01*
X53148191Y-33112947D01*
X53126750Y-33114000D01*
X52689250Y-33114000D01*
X52667809Y-33112947D01*
X52646574Y-33109797D01*
X52625750Y-33104581D01*
X52605538Y-33097349D01*
X52586132Y-33088170D01*
X52567719Y-33077134D01*
X52550476Y-33064346D01*
X52534570Y-33049930D01*
X52520154Y-33034024D01*
X52507366Y-33016781D01*
X52496330Y-32998368D01*
X52487151Y-32978962D01*
X52479919Y-32958750D01*
X52474703Y-32937926D01*
X52471553Y-32916691D01*
X52470500Y-32895250D01*
X52470500Y-32382750D01*
X52471553Y-32361309D01*
X52474703Y-32340074D01*
X52479919Y-32319250D01*
X52487151Y-32299038D01*
X52496330Y-32279632D01*
X52507366Y-32261219D01*
X52520154Y-32243976D01*
X52534570Y-32228070D01*
X52550476Y-32213654D01*
X52567719Y-32200866D01*
X52586132Y-32189830D01*
X52605538Y-32180651D01*
X52625750Y-32173419D01*
X52646574Y-32168203D01*
X52667809Y-32165053D01*
X52689250Y-32164000D01*
X53126750Y-32164000D01*
X53148191Y-32165053D01*
X53148191Y-32165053D01*
G37*
D11*
X52908000Y-32639000D03*
D10*
G36*
X54723191Y-32165053D02*
X54744426Y-32168203D01*
X54765250Y-32173419D01*
X54785462Y-32180651D01*
X54804868Y-32189830D01*
X54823281Y-32200866D01*
X54840524Y-32213654D01*
X54856430Y-32228070D01*
X54870846Y-32243976D01*
X54883634Y-32261219D01*
X54894670Y-32279632D01*
X54903849Y-32299038D01*
X54911081Y-32319250D01*
X54916297Y-32340074D01*
X54919447Y-32361309D01*
X54920500Y-32382750D01*
X54920500Y-32895250D01*
X54919447Y-32916691D01*
X54916297Y-32937926D01*
X54911081Y-32958750D01*
X54903849Y-32978962D01*
X54894670Y-32998368D01*
X54883634Y-33016781D01*
X54870846Y-33034024D01*
X54856430Y-33049930D01*
X54840524Y-33064346D01*
X54823281Y-33077134D01*
X54804868Y-33088170D01*
X54785462Y-33097349D01*
X54765250Y-33104581D01*
X54744426Y-33109797D01*
X54723191Y-33112947D01*
X54701750Y-33114000D01*
X54264250Y-33114000D01*
X54242809Y-33112947D01*
X54221574Y-33109797D01*
X54200750Y-33104581D01*
X54180538Y-33097349D01*
X54161132Y-33088170D01*
X54142719Y-33077134D01*
X54125476Y-33064346D01*
X54109570Y-33049930D01*
X54095154Y-33034024D01*
X54082366Y-33016781D01*
X54071330Y-32998368D01*
X54062151Y-32978962D01*
X54054919Y-32958750D01*
X54049703Y-32937926D01*
X54046553Y-32916691D01*
X54045500Y-32895250D01*
X54045500Y-32382750D01*
X54046553Y-32361309D01*
X54049703Y-32340074D01*
X54054919Y-32319250D01*
X54062151Y-32299038D01*
X54071330Y-32279632D01*
X54082366Y-32261219D01*
X54095154Y-32243976D01*
X54109570Y-32228070D01*
X54125476Y-32213654D01*
X54142719Y-32200866D01*
X54161132Y-32189830D01*
X54180538Y-32180651D01*
X54200750Y-32173419D01*
X54221574Y-32168203D01*
X54242809Y-32165053D01*
X54264250Y-32164000D01*
X54701750Y-32164000D01*
X54723191Y-32165053D01*
X54723191Y-32165053D01*
G37*
D11*
X54483000Y-32639000D03*
G04 #@! TD*
M02*
