G04 #@! TF.GenerationSoftware,KiCad,Pcbnew,(5.0.0)*
G04 #@! TF.CreationDate,2020-06-29T13:58:06-06:00*
G04 #@! TF.ProjectId,bmp,626D702E6B696361645F706362000000,rev?*
G04 #@! TF.SameCoordinates,Original*
G04 #@! TF.FileFunction,Legend,Bot*
G04 #@! TF.FilePolarity,Positive*
%FSLAX46Y46*%
G04 Gerber Fmt 4.6, Leading zero omitted, Abs format (unit mm)*
G04 Created by KiCad (PCBNEW (5.0.0)) date 06/29/20 13:58:06*
%MOMM*%
%LPD*%
G01*
G04 APERTURE LIST*
%ADD10C,0.100000*%
%ADD11C,0.200000*%
%ADD12C,0.150000*%
%ADD13C,0.300000*%
%ADD14C,0.120000*%
%ADD15C,0.010000*%
G04 APERTURE END LIST*
D10*
X67117714Y-28795285D02*
X67117714Y-29402428D01*
X67153428Y-29473857D01*
X67189142Y-29509571D01*
X67260571Y-29545285D01*
X67367714Y-29545285D01*
X67439142Y-29509571D01*
X67117714Y-29259571D02*
X67189142Y-29295285D01*
X67332000Y-29295285D01*
X67403428Y-29259571D01*
X67439142Y-29223857D01*
X67474857Y-29152428D01*
X67474857Y-28938142D01*
X67439142Y-28866714D01*
X67403428Y-28831000D01*
X67332000Y-28795285D01*
X67189142Y-28795285D01*
X67117714Y-28831000D01*
X66760571Y-29295285D02*
X66760571Y-28795285D01*
X66760571Y-28545285D02*
X66796285Y-28581000D01*
X66760571Y-28616714D01*
X66724857Y-28581000D01*
X66760571Y-28545285D01*
X66760571Y-28616714D01*
X66510571Y-28795285D02*
X66224857Y-28795285D01*
X66403428Y-28545285D02*
X66403428Y-29188142D01*
X66367714Y-29259571D01*
X66296285Y-29295285D01*
X66224857Y-29295285D01*
X65974857Y-29295285D02*
X65974857Y-28545285D01*
X65653428Y-29295285D02*
X65653428Y-28902428D01*
X65689142Y-28831000D01*
X65760571Y-28795285D01*
X65867714Y-28795285D01*
X65939142Y-28831000D01*
X65974857Y-28866714D01*
X64974857Y-28795285D02*
X64974857Y-29295285D01*
X65296285Y-28795285D02*
X65296285Y-29188142D01*
X65260571Y-29259571D01*
X65189142Y-29295285D01*
X65082000Y-29295285D01*
X65010571Y-29259571D01*
X64974857Y-29223857D01*
X64617714Y-29295285D02*
X64617714Y-28545285D01*
X64617714Y-28831000D02*
X64546285Y-28795285D01*
X64403428Y-28795285D01*
X64332000Y-28831000D01*
X64296285Y-28866714D01*
X64260571Y-28938142D01*
X64260571Y-29152428D01*
X64296285Y-29223857D01*
X64332000Y-29259571D01*
X64403428Y-29295285D01*
X64546285Y-29295285D01*
X64617714Y-29259571D01*
X63939142Y-29223857D02*
X63903428Y-29259571D01*
X63939142Y-29295285D01*
X63974857Y-29259571D01*
X63939142Y-29223857D01*
X63939142Y-29295285D01*
X63260571Y-29259571D02*
X63332000Y-29295285D01*
X63474857Y-29295285D01*
X63546285Y-29259571D01*
X63582000Y-29223857D01*
X63617714Y-29152428D01*
X63617714Y-28938142D01*
X63582000Y-28866714D01*
X63546285Y-28831000D01*
X63474857Y-28795285D01*
X63332000Y-28795285D01*
X63260571Y-28831000D01*
X62832000Y-29295285D02*
X62903428Y-29259571D01*
X62939142Y-29223857D01*
X62974857Y-29152428D01*
X62974857Y-28938142D01*
X62939142Y-28866714D01*
X62903428Y-28831000D01*
X62832000Y-28795285D01*
X62724857Y-28795285D01*
X62653428Y-28831000D01*
X62617714Y-28866714D01*
X62582000Y-28938142D01*
X62582000Y-29152428D01*
X62617714Y-29223857D01*
X62653428Y-29259571D01*
X62724857Y-29295285D01*
X62832000Y-29295285D01*
X62260571Y-29295285D02*
X62260571Y-28795285D01*
X62260571Y-28866714D02*
X62224857Y-28831000D01*
X62153428Y-28795285D01*
X62046285Y-28795285D01*
X61974857Y-28831000D01*
X61939142Y-28902428D01*
X61939142Y-29295285D01*
X61939142Y-28902428D02*
X61903428Y-28831000D01*
X61832000Y-28795285D01*
X61724857Y-28795285D01*
X61653428Y-28831000D01*
X61617714Y-28902428D01*
X61617714Y-29295285D01*
X60724857Y-28509571D02*
X61367714Y-29473857D01*
X60474857Y-28795285D02*
X60474857Y-29438142D01*
X60510571Y-29509571D01*
X60582000Y-29545285D01*
X60617714Y-29545285D01*
X60474857Y-28545285D02*
X60510571Y-28581000D01*
X60474857Y-28616714D01*
X60439142Y-28581000D01*
X60474857Y-28545285D01*
X60474857Y-28616714D01*
X60117714Y-28795285D02*
X60117714Y-29545285D01*
X60117714Y-28831000D02*
X60046285Y-28795285D01*
X59903428Y-28795285D01*
X59832000Y-28831000D01*
X59796285Y-28866714D01*
X59760571Y-28938142D01*
X59760571Y-29152428D01*
X59796285Y-29223857D01*
X59832000Y-29259571D01*
X59903428Y-29295285D01*
X60046285Y-29295285D01*
X60117714Y-29259571D01*
X59117714Y-29259571D02*
X59189142Y-29295285D01*
X59332000Y-29295285D01*
X59403428Y-29259571D01*
X59439142Y-29223857D01*
X59474857Y-29152428D01*
X59474857Y-28938142D01*
X59439142Y-28866714D01*
X59403428Y-28831000D01*
X59332000Y-28795285D01*
X59189142Y-28795285D01*
X59117714Y-28831000D01*
X58689142Y-29295285D02*
X58760571Y-29259571D01*
X58796285Y-29223857D01*
X58832000Y-29152428D01*
X58832000Y-28938142D01*
X58796285Y-28866714D01*
X58760571Y-28831000D01*
X58689142Y-28795285D01*
X58582000Y-28795285D01*
X58510571Y-28831000D01*
X58474857Y-28866714D01*
X58439142Y-28938142D01*
X58439142Y-29152428D01*
X58474857Y-29223857D01*
X58510571Y-29259571D01*
X58582000Y-29295285D01*
X58689142Y-29295285D01*
X58117714Y-28795285D02*
X58117714Y-29295285D01*
X58117714Y-28866714D02*
X58082000Y-28831000D01*
X58010571Y-28795285D01*
X57903428Y-28795285D01*
X57832000Y-28831000D01*
X57796285Y-28902428D01*
X57796285Y-29295285D01*
X57474857Y-29259571D02*
X57403428Y-29295285D01*
X57260571Y-29295285D01*
X57189142Y-29259571D01*
X57153428Y-29188142D01*
X57153428Y-29152428D01*
X57189142Y-29081000D01*
X57260571Y-29045285D01*
X57367714Y-29045285D01*
X57439142Y-29009571D01*
X57474857Y-28938142D01*
X57474857Y-28902428D01*
X57439142Y-28831000D01*
X57367714Y-28795285D01*
X57260571Y-28795285D01*
X57189142Y-28831000D01*
X56939142Y-28795285D02*
X56653428Y-28795285D01*
X56832000Y-28545285D02*
X56832000Y-29188142D01*
X56796285Y-29259571D01*
X56724857Y-29295285D01*
X56653428Y-29295285D01*
X56082000Y-29295285D02*
X56082000Y-28902428D01*
X56117714Y-28831000D01*
X56189142Y-28795285D01*
X56332000Y-28795285D01*
X56403428Y-28831000D01*
X56082000Y-29259571D02*
X56153428Y-29295285D01*
X56332000Y-29295285D01*
X56403428Y-29259571D01*
X56439142Y-29188142D01*
X56439142Y-29116714D01*
X56403428Y-29045285D01*
X56332000Y-29009571D01*
X56153428Y-29009571D01*
X56082000Y-28973857D01*
X55724857Y-28795285D02*
X55724857Y-29295285D01*
X55724857Y-28866714D02*
X55689142Y-28831000D01*
X55617714Y-28795285D01*
X55510571Y-28795285D01*
X55439142Y-28831000D01*
X55403428Y-28902428D01*
X55403428Y-29295285D01*
X55153428Y-28795285D02*
X54867714Y-28795285D01*
X55046285Y-28545285D02*
X55046285Y-29188142D01*
X55010571Y-29259571D01*
X54939142Y-29295285D01*
X54867714Y-29295285D01*
X54617714Y-29295285D02*
X54617714Y-28795285D01*
X54617714Y-28545285D02*
X54653428Y-28581000D01*
X54617714Y-28616714D01*
X54581999Y-28581000D01*
X54617714Y-28545285D01*
X54617714Y-28616714D01*
X54260571Y-28795285D02*
X54260571Y-29295285D01*
X54260571Y-28866714D02*
X54224857Y-28831000D01*
X54153428Y-28795285D01*
X54046285Y-28795285D01*
X53974857Y-28831000D01*
X53939142Y-28902428D01*
X53939142Y-29295285D01*
X53296285Y-29259571D02*
X53367714Y-29295285D01*
X53510571Y-29295285D01*
X53581999Y-29259571D01*
X53617714Y-29188142D01*
X53617714Y-28902428D01*
X53581999Y-28831000D01*
X53510571Y-28795285D01*
X53367714Y-28795285D01*
X53296285Y-28831000D01*
X53260571Y-28902428D01*
X53260571Y-28973857D01*
X53617714Y-29045285D01*
X52617714Y-29295285D02*
X52617714Y-28902428D01*
X52653428Y-28831000D01*
X52724857Y-28795285D01*
X52867714Y-28795285D01*
X52939142Y-28831000D01*
X52617714Y-29259571D02*
X52689142Y-29295285D01*
X52867714Y-29295285D01*
X52939142Y-29259571D01*
X52974857Y-29188142D01*
X52974857Y-29116714D01*
X52939142Y-29045285D01*
X52867714Y-29009571D01*
X52689142Y-29009571D01*
X52617714Y-28973857D01*
X51939142Y-28795285D02*
X51939142Y-29295285D01*
X52260571Y-28795285D02*
X52260571Y-29188142D01*
X52224857Y-29259571D01*
X52153428Y-29295285D01*
X52046285Y-29295285D01*
X51974857Y-29259571D01*
X51939142Y-29223857D01*
X51046285Y-28509571D02*
X51689142Y-29473857D01*
X50796285Y-29295285D02*
X50796285Y-28545285D01*
X50367714Y-29295285D01*
X50367714Y-28545285D01*
X49581999Y-29295285D02*
X49831999Y-28938142D01*
X50010571Y-29295285D02*
X50010571Y-28545285D01*
X49724857Y-28545285D01*
X49653428Y-28581000D01*
X49617714Y-28616714D01*
X49581999Y-28688142D01*
X49581999Y-28795285D01*
X49617714Y-28866714D01*
X49653428Y-28902428D01*
X49724857Y-28938142D01*
X50010571Y-28938142D01*
X49010571Y-28902428D02*
X49260571Y-28902428D01*
X49260571Y-29295285D02*
X49260571Y-28545285D01*
X48903428Y-28545285D01*
X48260571Y-28545285D02*
X48617714Y-28545285D01*
X48653428Y-28902428D01*
X48617714Y-28866714D01*
X48546285Y-28831000D01*
X48367714Y-28831000D01*
X48296285Y-28866714D01*
X48260571Y-28902428D01*
X48224857Y-28973857D01*
X48224857Y-29152428D01*
X48260571Y-29223857D01*
X48296285Y-29259571D01*
X48367714Y-29295285D01*
X48546285Y-29295285D01*
X48617714Y-29259571D01*
X48653428Y-29223857D01*
X47939142Y-28616714D02*
X47903428Y-28581000D01*
X47831999Y-28545285D01*
X47653428Y-28545285D01*
X47581999Y-28581000D01*
X47546285Y-28616714D01*
X47510571Y-28688142D01*
X47510571Y-28759571D01*
X47546285Y-28866714D01*
X47974857Y-29295285D01*
X47510571Y-29295285D01*
X47189142Y-29009571D02*
X46617714Y-29009571D01*
X45867714Y-28581000D02*
X45939142Y-28545285D01*
X46046285Y-28545285D01*
X46153428Y-28581000D01*
X46224857Y-28652428D01*
X46260571Y-28723857D01*
X46296285Y-28866714D01*
X46296285Y-28973857D01*
X46260571Y-29116714D01*
X46224857Y-29188142D01*
X46153428Y-29259571D01*
X46046285Y-29295285D01*
X45974857Y-29295285D01*
X45867714Y-29259571D01*
X45831999Y-29223857D01*
X45831999Y-28973857D01*
X45974857Y-28973857D01*
X45510571Y-29295285D02*
X45510571Y-28545285D01*
X45331999Y-28545285D01*
X45224857Y-28581000D01*
X45153428Y-28652428D01*
X45117714Y-28723857D01*
X45081999Y-28866714D01*
X45081999Y-28973857D01*
X45117714Y-29116714D01*
X45153428Y-29188142D01*
X45224857Y-29259571D01*
X45331999Y-29295285D01*
X45510571Y-29295285D01*
X44510571Y-28902428D02*
X44403428Y-28938142D01*
X44367714Y-28973857D01*
X44331999Y-29045285D01*
X44331999Y-29152428D01*
X44367714Y-29223857D01*
X44403428Y-29259571D01*
X44474857Y-29295285D01*
X44760571Y-29295285D01*
X44760571Y-28545285D01*
X44510571Y-28545285D01*
X44439142Y-28581000D01*
X44403428Y-28616714D01*
X44367714Y-28688142D01*
X44367714Y-28759571D01*
X44403428Y-28831000D01*
X44439142Y-28866714D01*
X44510571Y-28902428D01*
X44760571Y-28902428D01*
X44010571Y-29009571D02*
X43439142Y-29009571D01*
X43081999Y-29295285D02*
X43081999Y-28545285D01*
X42903428Y-28545285D01*
X42796285Y-28581000D01*
X42724857Y-28652428D01*
X42689142Y-28723857D01*
X42653428Y-28866714D01*
X42653428Y-28973857D01*
X42689142Y-29116714D01*
X42724857Y-29188142D01*
X42796285Y-29259571D01*
X42903428Y-29295285D01*
X43081999Y-29295285D01*
X42046285Y-29259571D02*
X42117714Y-29295285D01*
X42260571Y-29295285D01*
X42331999Y-29259571D01*
X42367714Y-29188142D01*
X42367714Y-28902428D01*
X42331999Y-28831000D01*
X42260571Y-28795285D01*
X42117714Y-28795285D01*
X42046285Y-28831000D01*
X42010571Y-28902428D01*
X42010571Y-28973857D01*
X42367714Y-29045285D01*
X41689142Y-29295285D02*
X41689142Y-28545285D01*
X41689142Y-28831000D02*
X41617714Y-28795285D01*
X41474857Y-28795285D01*
X41403428Y-28831000D01*
X41367714Y-28866714D01*
X41331999Y-28938142D01*
X41331999Y-29152428D01*
X41367714Y-29223857D01*
X41403428Y-29259571D01*
X41474857Y-29295285D01*
X41617714Y-29295285D01*
X41689142Y-29259571D01*
X40689142Y-28795285D02*
X40689142Y-29295285D01*
X41010571Y-28795285D02*
X41010571Y-29188142D01*
X40974857Y-29259571D01*
X40903428Y-29295285D01*
X40796285Y-29295285D01*
X40724857Y-29259571D01*
X40689142Y-29223857D01*
X40010571Y-28795285D02*
X40010571Y-29402428D01*
X40046285Y-29473857D01*
X40081999Y-29509571D01*
X40153428Y-29545285D01*
X40260571Y-29545285D01*
X40331999Y-29509571D01*
X40010571Y-29259571D02*
X40081999Y-29295285D01*
X40224857Y-29295285D01*
X40296285Y-29259571D01*
X40331999Y-29223857D01*
X40367714Y-29152428D01*
X40367714Y-28938142D01*
X40331999Y-28866714D01*
X40296285Y-28831000D01*
X40224857Y-28795285D01*
X40081999Y-28795285D01*
X40010571Y-28831000D01*
X39331999Y-28795285D02*
X39331999Y-29402428D01*
X39367714Y-29473857D01*
X39403428Y-29509571D01*
X39474857Y-29545285D01*
X39581999Y-29545285D01*
X39653428Y-29509571D01*
X39331999Y-29259571D02*
X39403428Y-29295285D01*
X39546285Y-29295285D01*
X39617714Y-29259571D01*
X39653428Y-29223857D01*
X39689142Y-29152428D01*
X39689142Y-28938142D01*
X39653428Y-28866714D01*
X39617714Y-28831000D01*
X39546285Y-28795285D01*
X39403428Y-28795285D01*
X39331999Y-28831000D01*
X38689142Y-29259571D02*
X38760571Y-29295285D01*
X38903428Y-29295285D01*
X38974857Y-29259571D01*
X39010571Y-29188142D01*
X39010571Y-28902428D01*
X38974857Y-28831000D01*
X38903428Y-28795285D01*
X38760571Y-28795285D01*
X38689142Y-28831000D01*
X38653428Y-28902428D01*
X38653428Y-28973857D01*
X39010571Y-29045285D01*
X38331999Y-29295285D02*
X38331999Y-28795285D01*
X38331999Y-28938142D02*
X38296285Y-28866714D01*
X38260571Y-28831000D01*
X38189142Y-28795285D01*
X38117714Y-28795285D01*
X70422857Y-44166285D02*
X69994285Y-44166285D01*
X70208571Y-44916285D02*
X70208571Y-44166285D01*
X69744285Y-44916285D02*
X69744285Y-44166285D01*
X69458571Y-44166285D01*
X69387142Y-44202000D01*
X69351428Y-44237714D01*
X69315714Y-44309142D01*
X69315714Y-44416285D01*
X69351428Y-44487714D01*
X69387142Y-44523428D01*
X69458571Y-44559142D01*
X69744285Y-44559142D01*
X69065714Y-44166285D02*
X68887142Y-44916285D01*
X68744285Y-44380571D01*
X68601428Y-44916285D01*
X68422857Y-44166285D01*
X67708571Y-44916285D02*
X67958571Y-44559142D01*
X68137142Y-44916285D02*
X68137142Y-44166285D01*
X67851428Y-44166285D01*
X67780000Y-44202000D01*
X67744285Y-44237714D01*
X67708571Y-44309142D01*
X67708571Y-44416285D01*
X67744285Y-44487714D01*
X67780000Y-44523428D01*
X67851428Y-44559142D01*
X68137142Y-44559142D01*
X66422857Y-44202000D02*
X66494285Y-44166285D01*
X66601428Y-44166285D01*
X66708571Y-44202000D01*
X66780000Y-44273428D01*
X66815714Y-44344857D01*
X66851428Y-44487714D01*
X66851428Y-44594857D01*
X66815714Y-44737714D01*
X66780000Y-44809142D01*
X66708571Y-44880571D01*
X66601428Y-44916285D01*
X66530000Y-44916285D01*
X66422857Y-44880571D01*
X66387142Y-44844857D01*
X66387142Y-44594857D01*
X66530000Y-44594857D01*
X66065714Y-44916285D02*
X66065714Y-44166285D01*
X65637142Y-44916285D01*
X65637142Y-44166285D01*
X65280000Y-44916285D02*
X65280000Y-44166285D01*
X65101428Y-44166285D01*
X64994285Y-44202000D01*
X64922857Y-44273428D01*
X64887142Y-44344857D01*
X64851428Y-44487714D01*
X64851428Y-44594857D01*
X64887142Y-44737714D01*
X64922857Y-44809142D01*
X64994285Y-44880571D01*
X65101428Y-44916285D01*
X65280000Y-44916285D01*
X63530000Y-44844857D02*
X63565714Y-44880571D01*
X63672857Y-44916285D01*
X63744285Y-44916285D01*
X63851428Y-44880571D01*
X63922857Y-44809142D01*
X63958571Y-44737714D01*
X63994285Y-44594857D01*
X63994285Y-44487714D01*
X63958571Y-44344857D01*
X63922857Y-44273428D01*
X63851428Y-44202000D01*
X63744285Y-44166285D01*
X63672857Y-44166285D01*
X63565714Y-44202000D01*
X63530000Y-44237714D01*
X62851428Y-44916285D02*
X63208571Y-44916285D01*
X63208571Y-44166285D01*
X62601428Y-44916285D02*
X62601428Y-44166285D01*
X62172857Y-44916285D02*
X62494285Y-44487714D01*
X62172857Y-44166285D02*
X62601428Y-44594857D01*
X61280000Y-44916285D02*
X61280000Y-44166285D01*
X60780000Y-44166285D02*
X60637142Y-44166285D01*
X60565714Y-44202000D01*
X60494285Y-44273428D01*
X60458571Y-44416285D01*
X60458571Y-44666285D01*
X60494285Y-44809142D01*
X60565714Y-44880571D01*
X60637142Y-44916285D01*
X60780000Y-44916285D01*
X60851428Y-44880571D01*
X60922857Y-44809142D01*
X60958571Y-44666285D01*
X60958571Y-44416285D01*
X60922857Y-44273428D01*
X60851428Y-44202000D01*
X60780000Y-44166285D01*
X37623142Y-26344619D02*
X37575523Y-26297000D01*
X37480285Y-26249380D01*
X37242190Y-26249380D01*
X37146952Y-26297000D01*
X37099333Y-26344619D01*
X37051714Y-26439857D01*
X37051714Y-26535095D01*
X37099333Y-26677952D01*
X37670761Y-27249380D01*
X37051714Y-27249380D01*
X36432666Y-26249380D02*
X36337428Y-26249380D01*
X36242190Y-26297000D01*
X36194571Y-26344619D01*
X36146952Y-26439857D01*
X36099333Y-26630333D01*
X36099333Y-26868428D01*
X36146952Y-27058904D01*
X36194571Y-27154142D01*
X36242190Y-27201761D01*
X36337428Y-27249380D01*
X36432666Y-27249380D01*
X36527904Y-27201761D01*
X36575523Y-27154142D01*
X36623142Y-27058904D01*
X36670761Y-26868428D01*
X36670761Y-26630333D01*
X36623142Y-26439857D01*
X36575523Y-26344619D01*
X36527904Y-26297000D01*
X36432666Y-26249380D01*
X35718380Y-26344619D02*
X35670761Y-26297000D01*
X35575523Y-26249380D01*
X35337428Y-26249380D01*
X35242190Y-26297000D01*
X35194571Y-26344619D01*
X35146952Y-26439857D01*
X35146952Y-26535095D01*
X35194571Y-26677952D01*
X35766000Y-27249380D01*
X35146952Y-27249380D01*
X34527904Y-26249380D02*
X34432666Y-26249380D01*
X34337428Y-26297000D01*
X34289809Y-26344619D01*
X34242190Y-26439857D01*
X34194571Y-26630333D01*
X34194571Y-26868428D01*
X34242190Y-27058904D01*
X34289809Y-27154142D01*
X34337428Y-27201761D01*
X34432666Y-27249380D01*
X34527904Y-27249380D01*
X34623142Y-27201761D01*
X34670761Y-27154142D01*
X34718380Y-27058904D01*
X34766000Y-26868428D01*
X34766000Y-26630333D01*
X34718380Y-26439857D01*
X34670761Y-26344619D01*
X34623142Y-26297000D01*
X34527904Y-26249380D01*
X33766000Y-26868428D02*
X33004095Y-26868428D01*
X32337428Y-26249380D02*
X32242190Y-26249380D01*
X32146952Y-26297000D01*
X32099333Y-26344619D01*
X32051714Y-26439857D01*
X32004095Y-26630333D01*
X32004095Y-26868428D01*
X32051714Y-27058904D01*
X32099333Y-27154142D01*
X32146952Y-27201761D01*
X32242190Y-27249380D01*
X32337428Y-27249380D01*
X32432666Y-27201761D01*
X32480285Y-27154142D01*
X32527904Y-27058904D01*
X32575523Y-26868428D01*
X32575523Y-26630333D01*
X32527904Y-26439857D01*
X32480285Y-26344619D01*
X32432666Y-26297000D01*
X32337428Y-26249380D01*
X31670761Y-26249380D02*
X31004095Y-26249380D01*
X31432666Y-27249380D01*
X30623142Y-26868428D02*
X29861238Y-26868428D01*
X29194571Y-26249380D02*
X29099333Y-26249380D01*
X29004095Y-26297000D01*
X28956476Y-26344619D01*
X28908857Y-26439857D01*
X28861238Y-26630333D01*
X28861238Y-26868428D01*
X28908857Y-27058904D01*
X28956476Y-27154142D01*
X29004095Y-27201761D01*
X29099333Y-27249380D01*
X29194571Y-27249380D01*
X29289809Y-27201761D01*
X29337428Y-27154142D01*
X29385047Y-27058904D01*
X29432666Y-26868428D01*
X29432666Y-26630333D01*
X29385047Y-26439857D01*
X29337428Y-26344619D01*
X29289809Y-26297000D01*
X29194571Y-26249380D01*
X27908857Y-27249380D02*
X28480285Y-27249380D01*
X28194571Y-27249380D02*
X28194571Y-26249380D01*
X28289809Y-26392238D01*
X28385047Y-26487476D01*
X28480285Y-26535095D01*
D11*
X35210238Y-29343571D02*
X35067380Y-29391190D01*
X35019761Y-29438809D01*
X34972142Y-29534047D01*
X34972142Y-29676904D01*
X35019761Y-29772142D01*
X35067380Y-29819761D01*
X35162619Y-29867380D01*
X35543571Y-29867380D01*
X35543571Y-28867380D01*
X35210238Y-28867380D01*
X35115000Y-28915000D01*
X35067380Y-28962619D01*
X35019761Y-29057857D01*
X35019761Y-29153095D01*
X35067380Y-29248333D01*
X35115000Y-29295952D01*
X35210238Y-29343571D01*
X35543571Y-29343571D01*
X34400714Y-29867380D02*
X34495952Y-29819761D01*
X34543571Y-29724523D01*
X34543571Y-28867380D01*
X33591190Y-29867380D02*
X33591190Y-29343571D01*
X33638809Y-29248333D01*
X33734047Y-29200714D01*
X33924523Y-29200714D01*
X34019761Y-29248333D01*
X33591190Y-29819761D02*
X33686428Y-29867380D01*
X33924523Y-29867380D01*
X34019761Y-29819761D01*
X34067380Y-29724523D01*
X34067380Y-29629285D01*
X34019761Y-29534047D01*
X33924523Y-29486428D01*
X33686428Y-29486428D01*
X33591190Y-29438809D01*
X32686428Y-29819761D02*
X32781666Y-29867380D01*
X32972142Y-29867380D01*
X33067380Y-29819761D01*
X33115000Y-29772142D01*
X33162619Y-29676904D01*
X33162619Y-29391190D01*
X33115000Y-29295952D01*
X33067380Y-29248333D01*
X32972142Y-29200714D01*
X32781666Y-29200714D01*
X32686428Y-29248333D01*
X32257857Y-29867380D02*
X32257857Y-28867380D01*
X32162619Y-29486428D02*
X31876904Y-29867380D01*
X31876904Y-29200714D02*
X32257857Y-29581666D01*
X31448333Y-29867380D02*
X31448333Y-29200714D01*
X31448333Y-29295952D02*
X31400714Y-29248333D01*
X31305476Y-29200714D01*
X31162619Y-29200714D01*
X31067380Y-29248333D01*
X31019761Y-29343571D01*
X31019761Y-29867380D01*
X31019761Y-29343571D02*
X30972142Y-29248333D01*
X30876904Y-29200714D01*
X30734047Y-29200714D01*
X30638809Y-29248333D01*
X30591190Y-29343571D01*
X30591190Y-29867380D01*
X29686428Y-29867380D02*
X29686428Y-29343571D01*
X29734047Y-29248333D01*
X29829285Y-29200714D01*
X30019761Y-29200714D01*
X30115000Y-29248333D01*
X29686428Y-29819761D02*
X29781666Y-29867380D01*
X30019761Y-29867380D01*
X30115000Y-29819761D01*
X30162619Y-29724523D01*
X30162619Y-29629285D01*
X30115000Y-29534047D01*
X30019761Y-29486428D01*
X29781666Y-29486428D01*
X29686428Y-29438809D01*
X28781666Y-29200714D02*
X28781666Y-30010238D01*
X28829285Y-30105476D01*
X28876904Y-30153095D01*
X28972142Y-30200714D01*
X29115000Y-30200714D01*
X29210238Y-30153095D01*
X28781666Y-29819761D02*
X28876904Y-29867380D01*
X29067380Y-29867380D01*
X29162619Y-29819761D01*
X29210238Y-29772142D01*
X29257857Y-29676904D01*
X29257857Y-29391190D01*
X29210238Y-29295952D01*
X29162619Y-29248333D01*
X29067380Y-29200714D01*
X28876904Y-29200714D01*
X28781666Y-29248333D01*
X28305476Y-29867380D02*
X28305476Y-29200714D01*
X28305476Y-28867380D02*
X28353095Y-28915000D01*
X28305476Y-28962619D01*
X28257857Y-28915000D01*
X28305476Y-28867380D01*
X28305476Y-28962619D01*
X27400714Y-29819761D02*
X27495952Y-29867380D01*
X27686428Y-29867380D01*
X27781666Y-29819761D01*
X27829285Y-29772142D01*
X27876904Y-29676904D01*
X27876904Y-29391190D01*
X27829285Y-29295952D01*
X27781666Y-29248333D01*
X27686428Y-29200714D01*
X27495952Y-29200714D01*
X27400714Y-29248333D01*
X34686428Y-31567380D02*
X34686428Y-30567380D01*
X34305476Y-30567380D01*
X34210238Y-30615000D01*
X34162619Y-30662619D01*
X34115000Y-30757857D01*
X34115000Y-30900714D01*
X34162619Y-30995952D01*
X34210238Y-31043571D01*
X34305476Y-31091190D01*
X34686428Y-31091190D01*
X33686428Y-31567380D02*
X33686428Y-30900714D01*
X33686428Y-31091190D02*
X33638809Y-30995952D01*
X33591190Y-30948333D01*
X33495952Y-30900714D01*
X33400714Y-30900714D01*
X32924523Y-31567380D02*
X33019761Y-31519761D01*
X33067380Y-31472142D01*
X33115000Y-31376904D01*
X33115000Y-31091190D01*
X33067380Y-30995952D01*
X33019761Y-30948333D01*
X32924523Y-30900714D01*
X32781666Y-30900714D01*
X32686428Y-30948333D01*
X32638809Y-30995952D01*
X32591190Y-31091190D01*
X32591190Y-31376904D01*
X32638809Y-31472142D01*
X32686428Y-31519761D01*
X32781666Y-31567380D01*
X32924523Y-31567380D01*
X32162619Y-31567380D02*
X32162619Y-30567380D01*
X32162619Y-30948333D02*
X32067380Y-30900714D01*
X31876904Y-30900714D01*
X31781666Y-30948333D01*
X31734047Y-30995952D01*
X31686428Y-31091190D01*
X31686428Y-31376904D01*
X31734047Y-31472142D01*
X31781666Y-31519761D01*
X31876904Y-31567380D01*
X32067380Y-31567380D01*
X32162619Y-31519761D01*
X30876904Y-31519761D02*
X30972142Y-31567380D01*
X31162619Y-31567380D01*
X31257857Y-31519761D01*
X31305476Y-31424523D01*
X31305476Y-31043571D01*
X31257857Y-30948333D01*
X31162619Y-30900714D01*
X30972142Y-30900714D01*
X30876904Y-30948333D01*
X30829285Y-31043571D01*
X30829285Y-31138809D01*
X31305476Y-31234047D01*
X29781666Y-30567380D02*
X29448333Y-31567380D01*
X29115000Y-30567380D01*
X28257857Y-31567380D02*
X28829285Y-31567380D01*
X28543571Y-31567380D02*
X28543571Y-30567380D01*
X28638809Y-30710238D01*
X28734047Y-30805476D01*
X28829285Y-30853095D01*
X34495952Y-33172142D02*
X34543571Y-33219761D01*
X34686428Y-33267380D01*
X34781666Y-33267380D01*
X34924523Y-33219761D01*
X35019761Y-33124523D01*
X35067380Y-33029285D01*
X35115000Y-32838809D01*
X35115000Y-32695952D01*
X35067380Y-32505476D01*
X35019761Y-32410238D01*
X34924523Y-32315000D01*
X34781666Y-32267380D01*
X34686428Y-32267380D01*
X34543571Y-32315000D01*
X34495952Y-32362619D01*
X33924523Y-33267380D02*
X34019761Y-33219761D01*
X34067380Y-33172142D01*
X34115000Y-33076904D01*
X34115000Y-32791190D01*
X34067380Y-32695952D01*
X34019761Y-32648333D01*
X33924523Y-32600714D01*
X33781666Y-32600714D01*
X33686428Y-32648333D01*
X33638809Y-32695952D01*
X33591190Y-32791190D01*
X33591190Y-33076904D01*
X33638809Y-33172142D01*
X33686428Y-33219761D01*
X33781666Y-33267380D01*
X33924523Y-33267380D01*
X33162619Y-33267380D02*
X33162619Y-32600714D01*
X33162619Y-32695952D02*
X33115000Y-32648333D01*
X33019761Y-32600714D01*
X32876904Y-32600714D01*
X32781666Y-32648333D01*
X32734047Y-32743571D01*
X32734047Y-33267380D01*
X32734047Y-32743571D02*
X32686428Y-32648333D01*
X32591190Y-32600714D01*
X32448333Y-32600714D01*
X32353095Y-32648333D01*
X32305476Y-32743571D01*
X32305476Y-33267380D01*
X31829285Y-32600714D02*
X31829285Y-33600714D01*
X31829285Y-32648333D02*
X31734047Y-32600714D01*
X31543571Y-32600714D01*
X31448333Y-32648333D01*
X31400714Y-32695952D01*
X31353095Y-32791190D01*
X31353095Y-33076904D01*
X31400714Y-33172142D01*
X31448333Y-33219761D01*
X31543571Y-33267380D01*
X31734047Y-33267380D01*
X31829285Y-33219761D01*
X30495952Y-33267380D02*
X30495952Y-32743571D01*
X30543571Y-32648333D01*
X30638809Y-32600714D01*
X30829285Y-32600714D01*
X30924523Y-32648333D01*
X30495952Y-33219761D02*
X30591190Y-33267380D01*
X30829285Y-33267380D01*
X30924523Y-33219761D01*
X30972142Y-33124523D01*
X30972142Y-33029285D01*
X30924523Y-32934047D01*
X30829285Y-32886428D01*
X30591190Y-32886428D01*
X30495952Y-32838809D01*
X30162619Y-32600714D02*
X29781666Y-32600714D01*
X30019761Y-32267380D02*
X30019761Y-33124523D01*
X29972142Y-33219761D01*
X29876904Y-33267380D01*
X29781666Y-33267380D01*
X29448333Y-33267380D02*
X29448333Y-32600714D01*
X29448333Y-32267380D02*
X29495952Y-32315000D01*
X29448333Y-32362619D01*
X29400714Y-32315000D01*
X29448333Y-32267380D01*
X29448333Y-32362619D01*
X28972142Y-33267380D02*
X28972142Y-32267380D01*
X28972142Y-32648333D02*
X28876904Y-32600714D01*
X28686428Y-32600714D01*
X28591190Y-32648333D01*
X28543571Y-32695952D01*
X28495952Y-32791190D01*
X28495952Y-33076904D01*
X28543571Y-33172142D01*
X28591190Y-33219761D01*
X28686428Y-33267380D01*
X28876904Y-33267380D01*
X28972142Y-33219761D01*
X27924523Y-33267380D02*
X28019761Y-33219761D01*
X28067380Y-33124523D01*
X28067380Y-32267380D01*
X27162619Y-33219761D02*
X27257857Y-33267380D01*
X27448333Y-33267380D01*
X27543571Y-33219761D01*
X27591190Y-33124523D01*
X27591190Y-32743571D01*
X27543571Y-32648333D01*
X27448333Y-32600714D01*
X27257857Y-32600714D01*
X27162619Y-32648333D01*
X27115000Y-32743571D01*
X27115000Y-32838809D01*
X27591190Y-32934047D01*
D12*
X36383261Y-37553380D02*
X35811833Y-37553380D01*
X36097547Y-38553380D02*
X36097547Y-37553380D01*
X35478500Y-38553380D02*
X35478500Y-37553380D01*
X35145166Y-38267666D01*
X34811833Y-37553380D01*
X34811833Y-38553380D01*
X34383261Y-38505761D02*
X34240404Y-38553380D01*
X34002309Y-38553380D01*
X33907071Y-38505761D01*
X33859452Y-38458142D01*
X33811833Y-38362904D01*
X33811833Y-38267666D01*
X33859452Y-38172428D01*
X33907071Y-38124809D01*
X34002309Y-38077190D01*
X34192785Y-38029571D01*
X34288023Y-37981952D01*
X34335642Y-37934333D01*
X34383261Y-37839095D01*
X34383261Y-37743857D01*
X34335642Y-37648619D01*
X34288023Y-37601000D01*
X34192785Y-37553380D01*
X33954690Y-37553380D01*
X33811833Y-37601000D01*
X32621357Y-38029571D02*
X31859452Y-38029571D01*
X31859452Y-38315285D02*
X32621357Y-38315285D01*
X30668976Y-38505761D02*
X30526119Y-38553380D01*
X30288023Y-38553380D01*
X30192785Y-38505761D01*
X30145166Y-38458142D01*
X30097547Y-38362904D01*
X30097547Y-38267666D01*
X30145166Y-38172428D01*
X30192785Y-38124809D01*
X30288023Y-38077190D01*
X30478500Y-38029571D01*
X30573738Y-37981952D01*
X30621357Y-37934333D01*
X30668976Y-37839095D01*
X30668976Y-37743857D01*
X30621357Y-37648619D01*
X30573738Y-37601000D01*
X30478500Y-37553380D01*
X30240404Y-37553380D01*
X30097547Y-37601000D01*
X29764214Y-37553380D02*
X29526119Y-38553380D01*
X29335642Y-37839095D01*
X29145166Y-38553380D01*
X28907071Y-37553380D01*
X28526119Y-38553380D02*
X28526119Y-37553380D01*
X28288023Y-37553380D01*
X28145166Y-37601000D01*
X28049928Y-37696238D01*
X28002309Y-37791476D01*
X27954690Y-37981952D01*
X27954690Y-38124809D01*
X28002309Y-38315285D01*
X28049928Y-38410523D01*
X28145166Y-38505761D01*
X28288023Y-38553380D01*
X28526119Y-38553380D01*
X27526119Y-38553380D02*
X27526119Y-37553380D01*
X26859452Y-37553380D02*
X26668976Y-37553380D01*
X26573738Y-37601000D01*
X26478500Y-37696238D01*
X26430880Y-37886714D01*
X26430880Y-38220047D01*
X26478500Y-38410523D01*
X26573738Y-38505761D01*
X26668976Y-38553380D01*
X26859452Y-38553380D01*
X26954690Y-38505761D01*
X27049928Y-38410523D01*
X27097547Y-38220047D01*
X27097547Y-37886714D01*
X27049928Y-37696238D01*
X26954690Y-37601000D01*
X26859452Y-37553380D01*
X36383261Y-39203380D02*
X35811833Y-39203380D01*
X36097547Y-40203380D02*
X36097547Y-39203380D01*
X34907071Y-40108142D02*
X34954690Y-40155761D01*
X35097547Y-40203380D01*
X35192785Y-40203380D01*
X35335642Y-40155761D01*
X35430880Y-40060523D01*
X35478500Y-39965285D01*
X35526119Y-39774809D01*
X35526119Y-39631952D01*
X35478500Y-39441476D01*
X35430880Y-39346238D01*
X35335642Y-39251000D01*
X35192785Y-39203380D01*
X35097547Y-39203380D01*
X34954690Y-39251000D01*
X34907071Y-39298619D01*
X34478500Y-40203380D02*
X34478500Y-39203380D01*
X33907071Y-40203380D02*
X34335642Y-39631952D01*
X33907071Y-39203380D02*
X34478500Y-39774809D01*
X32716595Y-39679571D02*
X31954690Y-39679571D01*
X31954690Y-39965285D02*
X32716595Y-39965285D01*
X30764214Y-40155761D02*
X30621357Y-40203380D01*
X30383261Y-40203380D01*
X30288023Y-40155761D01*
X30240404Y-40108142D01*
X30192785Y-40012904D01*
X30192785Y-39917666D01*
X30240404Y-39822428D01*
X30288023Y-39774809D01*
X30383261Y-39727190D01*
X30573738Y-39679571D01*
X30668976Y-39631952D01*
X30716595Y-39584333D01*
X30764214Y-39489095D01*
X30764214Y-39393857D01*
X30716595Y-39298619D01*
X30668976Y-39251000D01*
X30573738Y-39203380D01*
X30335642Y-39203380D01*
X30192785Y-39251000D01*
X29859452Y-39203380D02*
X29621357Y-40203380D01*
X29430880Y-39489095D01*
X29240404Y-40203380D01*
X29002309Y-39203380D01*
X28621357Y-40203380D02*
X28621357Y-39203380D01*
X28383261Y-39203380D01*
X28240404Y-39251000D01*
X28145166Y-39346238D01*
X28097547Y-39441476D01*
X28049928Y-39631952D01*
X28049928Y-39774809D01*
X28097547Y-39965285D01*
X28145166Y-40060523D01*
X28240404Y-40155761D01*
X28383261Y-40203380D01*
X28621357Y-40203380D01*
X27049928Y-40108142D02*
X27097547Y-40155761D01*
X27240404Y-40203380D01*
X27335642Y-40203380D01*
X27478500Y-40155761D01*
X27573738Y-40060523D01*
X27621357Y-39965285D01*
X27668976Y-39774809D01*
X27668976Y-39631952D01*
X27621357Y-39441476D01*
X27573738Y-39346238D01*
X27478500Y-39251000D01*
X27335642Y-39203380D01*
X27240404Y-39203380D01*
X27097547Y-39251000D01*
X27049928Y-39298619D01*
X26621357Y-40203380D02*
X26621357Y-39203380D01*
X26049928Y-40203380D02*
X26478500Y-39631952D01*
X26049928Y-39203380D02*
X26621357Y-39774809D01*
X36383261Y-40853380D02*
X35811833Y-40853380D01*
X36097547Y-41853380D02*
X36097547Y-40853380D01*
X35478500Y-41853380D02*
X35478500Y-40853380D01*
X35240404Y-40853380D01*
X35097547Y-40901000D01*
X35002309Y-40996238D01*
X34954690Y-41091476D01*
X34907071Y-41281952D01*
X34907071Y-41424809D01*
X34954690Y-41615285D01*
X35002309Y-41710523D01*
X35097547Y-41805761D01*
X35240404Y-41853380D01*
X35478500Y-41853380D01*
X34288023Y-40853380D02*
X34097547Y-40853380D01*
X34002309Y-40901000D01*
X33907071Y-40996238D01*
X33859452Y-41186714D01*
X33859452Y-41520047D01*
X33907071Y-41710523D01*
X34002309Y-41805761D01*
X34097547Y-41853380D01*
X34288023Y-41853380D01*
X34383261Y-41805761D01*
X34478500Y-41710523D01*
X34526119Y-41520047D01*
X34526119Y-41186714D01*
X34478500Y-40996238D01*
X34383261Y-40901000D01*
X34288023Y-40853380D01*
X32668976Y-41329571D02*
X31907071Y-41329571D01*
X31907071Y-41615285D02*
X32668976Y-41615285D01*
X30716595Y-41805761D02*
X30573738Y-41853380D01*
X30335642Y-41853380D01*
X30240404Y-41805761D01*
X30192785Y-41758142D01*
X30145166Y-41662904D01*
X30145166Y-41567666D01*
X30192785Y-41472428D01*
X30240404Y-41424809D01*
X30335642Y-41377190D01*
X30526119Y-41329571D01*
X30621357Y-41281952D01*
X30668976Y-41234333D01*
X30716595Y-41139095D01*
X30716595Y-41043857D01*
X30668976Y-40948619D01*
X30621357Y-40901000D01*
X30526119Y-40853380D01*
X30288023Y-40853380D01*
X30145166Y-40901000D01*
X29811833Y-40853380D02*
X29573738Y-41853380D01*
X29383261Y-41139095D01*
X29192785Y-41853380D01*
X28954690Y-40853380D01*
X28383261Y-40853380D02*
X28192785Y-40853380D01*
X28097547Y-40901000D01*
X28002309Y-40996238D01*
X27954690Y-41186714D01*
X27954690Y-41520047D01*
X28002309Y-41710523D01*
X28097547Y-41805761D01*
X28192785Y-41853380D01*
X28383261Y-41853380D01*
X28478500Y-41805761D01*
X28573738Y-41710523D01*
X28621357Y-41520047D01*
X28621357Y-41186714D01*
X28573738Y-40996238D01*
X28478500Y-40901000D01*
X28383261Y-40853380D01*
X63275595Y-31506000D02*
X63370833Y-31458380D01*
X63513690Y-31458380D01*
X63656547Y-31506000D01*
X63751785Y-31601238D01*
X63799404Y-31696476D01*
X63847023Y-31886952D01*
X63847023Y-32029809D01*
X63799404Y-32220285D01*
X63751785Y-32315523D01*
X63656547Y-32410761D01*
X63513690Y-32458380D01*
X63418452Y-32458380D01*
X63275595Y-32410761D01*
X63227976Y-32363142D01*
X63227976Y-32029809D01*
X63418452Y-32029809D01*
X62799404Y-32458380D02*
X62799404Y-31458380D01*
X62227976Y-32458380D01*
X62227976Y-31458380D01*
X61751785Y-32458380D02*
X61751785Y-31458380D01*
X61513690Y-31458380D01*
X61370833Y-31506000D01*
X61275595Y-31601238D01*
X61227976Y-31696476D01*
X61180357Y-31886952D01*
X61180357Y-32029809D01*
X61227976Y-32220285D01*
X61275595Y-32315523D01*
X61370833Y-32410761D01*
X61513690Y-32458380D01*
X61751785Y-32458380D01*
X63799404Y-34108380D02*
X63799404Y-33108380D01*
X63227976Y-34108380D01*
X63227976Y-33108380D01*
X62180357Y-34013142D02*
X62227976Y-34060761D01*
X62370833Y-34108380D01*
X62466071Y-34108380D01*
X62608928Y-34060761D01*
X62704166Y-33965523D01*
X62751785Y-33870285D01*
X62799404Y-33679809D01*
X62799404Y-33536952D01*
X62751785Y-33346476D01*
X62704166Y-33251238D01*
X62608928Y-33156000D01*
X62466071Y-33108380D01*
X62370833Y-33108380D01*
X62227976Y-33156000D01*
X62180357Y-33203619D01*
X63275595Y-34806000D02*
X63370833Y-34758380D01*
X63513690Y-34758380D01*
X63656547Y-34806000D01*
X63751785Y-34901238D01*
X63799404Y-34996476D01*
X63847023Y-35186952D01*
X63847023Y-35329809D01*
X63799404Y-35520285D01*
X63751785Y-35615523D01*
X63656547Y-35710761D01*
X63513690Y-35758380D01*
X63418452Y-35758380D01*
X63275595Y-35710761D01*
X63227976Y-35663142D01*
X63227976Y-35329809D01*
X63418452Y-35329809D01*
X62799404Y-35758380D02*
X62799404Y-34758380D01*
X62227976Y-35758380D01*
X62227976Y-34758380D01*
X61751785Y-35758380D02*
X61751785Y-34758380D01*
X61513690Y-34758380D01*
X61370833Y-34806000D01*
X61275595Y-34901238D01*
X61227976Y-34996476D01*
X61180357Y-35186952D01*
X61180357Y-35329809D01*
X61227976Y-35520285D01*
X61275595Y-35615523D01*
X61370833Y-35710761D01*
X61513690Y-35758380D01*
X61751785Y-35758380D01*
X63275595Y-36456000D02*
X63370833Y-36408380D01*
X63513690Y-36408380D01*
X63656547Y-36456000D01*
X63751785Y-36551238D01*
X63799404Y-36646476D01*
X63847023Y-36836952D01*
X63847023Y-36979809D01*
X63799404Y-37170285D01*
X63751785Y-37265523D01*
X63656547Y-37360761D01*
X63513690Y-37408380D01*
X63418452Y-37408380D01*
X63275595Y-37360761D01*
X63227976Y-37313142D01*
X63227976Y-36979809D01*
X63418452Y-36979809D01*
X62799404Y-37408380D02*
X62799404Y-36408380D01*
X62227976Y-37408380D01*
X62227976Y-36408380D01*
X61751785Y-37408380D02*
X61751785Y-36408380D01*
X61513690Y-36408380D01*
X61370833Y-36456000D01*
X61275595Y-36551238D01*
X61227976Y-36646476D01*
X61180357Y-36836952D01*
X61180357Y-36979809D01*
X61227976Y-37170285D01*
X61275595Y-37265523D01*
X61370833Y-37360761D01*
X61513690Y-37408380D01*
X61751785Y-37408380D01*
X63942261Y-38058380D02*
X63370833Y-38058380D01*
X63656547Y-39058380D02*
X63656547Y-38058380D01*
X63037500Y-39058380D02*
X63037500Y-38058380D01*
X62656547Y-38058380D01*
X62561309Y-38106000D01*
X62513690Y-38153619D01*
X62466071Y-38248857D01*
X62466071Y-38391714D01*
X62513690Y-38486952D01*
X62561309Y-38534571D01*
X62656547Y-38582190D01*
X63037500Y-38582190D01*
X62132738Y-38058380D02*
X61894642Y-39058380D01*
X61704166Y-38344095D01*
X61513690Y-39058380D01*
X61275595Y-38058380D01*
X60323214Y-39058380D02*
X60656547Y-38582190D01*
X60894642Y-39058380D02*
X60894642Y-38058380D01*
X60513690Y-38058380D01*
X60418452Y-38106000D01*
X60370833Y-38153619D01*
X60323214Y-38248857D01*
X60323214Y-38391714D01*
X60370833Y-38486952D01*
X60418452Y-38534571D01*
X60513690Y-38582190D01*
X60894642Y-38582190D01*
X59163976Y-32458380D02*
X59497309Y-31982190D01*
X59735404Y-32458380D02*
X59735404Y-31458380D01*
X59354452Y-31458380D01*
X59259214Y-31506000D01*
X59211595Y-31553619D01*
X59163976Y-31648857D01*
X59163976Y-31791714D01*
X59211595Y-31886952D01*
X59259214Y-31934571D01*
X59354452Y-31982190D01*
X59735404Y-31982190D01*
X58783023Y-32410761D02*
X58640166Y-32458380D01*
X58402071Y-32458380D01*
X58306833Y-32410761D01*
X58259214Y-32363142D01*
X58211595Y-32267904D01*
X58211595Y-32172666D01*
X58259214Y-32077428D01*
X58306833Y-32029809D01*
X58402071Y-31982190D01*
X58592547Y-31934571D01*
X58687785Y-31886952D01*
X58735404Y-31839333D01*
X58783023Y-31744095D01*
X58783023Y-31648857D01*
X58735404Y-31553619D01*
X58687785Y-31506000D01*
X58592547Y-31458380D01*
X58354452Y-31458380D01*
X58211595Y-31506000D01*
X57925880Y-31458380D02*
X57354452Y-31458380D01*
X57640166Y-32458380D02*
X57640166Y-31458380D01*
X59878261Y-33108380D02*
X59306833Y-33108380D01*
X59592547Y-34108380D02*
X59592547Y-33108380D01*
X58973500Y-34108380D02*
X58973500Y-33108380D01*
X58735404Y-33108380D01*
X58592547Y-33156000D01*
X58497309Y-33251238D01*
X58449690Y-33346476D01*
X58402071Y-33536952D01*
X58402071Y-33679809D01*
X58449690Y-33870285D01*
X58497309Y-33965523D01*
X58592547Y-34060761D01*
X58735404Y-34108380D01*
X58973500Y-34108380D01*
X57973500Y-34108380D02*
X57973500Y-33108380D01*
X59878261Y-34758380D02*
X59306833Y-34758380D01*
X59592547Y-35758380D02*
X59592547Y-34758380D01*
X58973500Y-35758380D02*
X58973500Y-34758380D01*
X58735404Y-34758380D01*
X58592547Y-34806000D01*
X58497309Y-34901238D01*
X58449690Y-34996476D01*
X58402071Y-35186952D01*
X58402071Y-35329809D01*
X58449690Y-35520285D01*
X58497309Y-35615523D01*
X58592547Y-35710761D01*
X58735404Y-35758380D01*
X58973500Y-35758380D01*
X57783023Y-34758380D02*
X57592547Y-34758380D01*
X57497309Y-34806000D01*
X57402071Y-34901238D01*
X57354452Y-35091714D01*
X57354452Y-35425047D01*
X57402071Y-35615523D01*
X57497309Y-35710761D01*
X57592547Y-35758380D01*
X57783023Y-35758380D01*
X57878261Y-35710761D01*
X57973500Y-35615523D01*
X58021119Y-35425047D01*
X58021119Y-35091714D01*
X57973500Y-34901238D01*
X57878261Y-34806000D01*
X57783023Y-34758380D01*
X59878261Y-36408380D02*
X59306833Y-36408380D01*
X59592547Y-37408380D02*
X59592547Y-36408380D01*
X58402071Y-37313142D02*
X58449690Y-37360761D01*
X58592547Y-37408380D01*
X58687785Y-37408380D01*
X58830642Y-37360761D01*
X58925880Y-37265523D01*
X58973500Y-37170285D01*
X59021119Y-36979809D01*
X59021119Y-36836952D01*
X58973500Y-36646476D01*
X58925880Y-36551238D01*
X58830642Y-36456000D01*
X58687785Y-36408380D01*
X58592547Y-36408380D01*
X58449690Y-36456000D01*
X58402071Y-36503619D01*
X57973500Y-37408380D02*
X57973500Y-36408380D01*
X57402071Y-37408380D02*
X57830642Y-36836952D01*
X57402071Y-36408380D02*
X57973500Y-36979809D01*
X59878261Y-38058380D02*
X59306833Y-38058380D01*
X59592547Y-39058380D02*
X59592547Y-38058380D01*
X58973500Y-39058380D02*
X58973500Y-38058380D01*
X58640166Y-38772666D01*
X58306833Y-38058380D01*
X58306833Y-39058380D01*
X57878261Y-39010761D02*
X57735404Y-39058380D01*
X57497309Y-39058380D01*
X57402071Y-39010761D01*
X57354452Y-38963142D01*
X57306833Y-38867904D01*
X57306833Y-38772666D01*
X57354452Y-38677428D01*
X57402071Y-38629809D01*
X57497309Y-38582190D01*
X57687785Y-38534571D01*
X57783023Y-38486952D01*
X57830642Y-38439333D01*
X57878261Y-38344095D01*
X57878261Y-38248857D01*
X57830642Y-38153619D01*
X57783023Y-38106000D01*
X57687785Y-38058380D01*
X57449690Y-38058380D01*
X57306833Y-38106000D01*
D13*
X64836000Y-26856571D02*
X64836000Y-27856571D01*
X64836000Y-26999428D02*
X64764571Y-26928000D01*
X64621714Y-26856571D01*
X64407428Y-26856571D01*
X64264571Y-26928000D01*
X64193142Y-27070857D01*
X64193142Y-27856571D01*
X62621714Y-27856571D02*
X63121714Y-27142285D01*
X63478857Y-27856571D02*
X63478857Y-26356571D01*
X62907428Y-26356571D01*
X62764571Y-26428000D01*
X62693142Y-26499428D01*
X62621714Y-26642285D01*
X62621714Y-26856571D01*
X62693142Y-26999428D01*
X62764571Y-27070857D01*
X62907428Y-27142285D01*
X63478857Y-27142285D01*
X61478857Y-27070857D02*
X61978857Y-27070857D01*
X61978857Y-27856571D02*
X61978857Y-26356571D01*
X61264571Y-26356571D01*
X59978857Y-26356571D02*
X60693142Y-26356571D01*
X60764571Y-27070857D01*
X60693142Y-26999428D01*
X60550285Y-26928000D01*
X60193142Y-26928000D01*
X60050285Y-26999428D01*
X59978857Y-27070857D01*
X59907428Y-27213714D01*
X59907428Y-27570857D01*
X59978857Y-27713714D01*
X60050285Y-27785142D01*
X60193142Y-27856571D01*
X60550285Y-27856571D01*
X60693142Y-27785142D01*
X60764571Y-27713714D01*
X59336000Y-26499428D02*
X59264571Y-26428000D01*
X59121714Y-26356571D01*
X58764571Y-26356571D01*
X58621714Y-26428000D01*
X58550285Y-26499428D01*
X58478857Y-26642285D01*
X58478857Y-26785142D01*
X58550285Y-26999428D01*
X59407428Y-27856571D01*
X58478857Y-27856571D01*
X55907428Y-26428000D02*
X56050285Y-26356571D01*
X56264571Y-26356571D01*
X56478857Y-26428000D01*
X56621714Y-26570857D01*
X56693142Y-26713714D01*
X56764571Y-26999428D01*
X56764571Y-27213714D01*
X56693142Y-27499428D01*
X56621714Y-27642285D01*
X56478857Y-27785142D01*
X56264571Y-27856571D01*
X56121714Y-27856571D01*
X55907428Y-27785142D01*
X55836000Y-27713714D01*
X55836000Y-27213714D01*
X56121714Y-27213714D01*
X55193142Y-27856571D02*
X55193142Y-26356571D01*
X54836000Y-26356571D01*
X54621714Y-26428000D01*
X54478857Y-26570857D01*
X54407428Y-26713714D01*
X54336000Y-26999428D01*
X54336000Y-27213714D01*
X54407428Y-27499428D01*
X54478857Y-27642285D01*
X54621714Y-27785142D01*
X54836000Y-27856571D01*
X55193142Y-27856571D01*
X53193142Y-27070857D02*
X52978857Y-27142285D01*
X52907428Y-27213714D01*
X52836000Y-27356571D01*
X52836000Y-27570857D01*
X52907428Y-27713714D01*
X52978857Y-27785142D01*
X53121714Y-27856571D01*
X53693142Y-27856571D01*
X53693142Y-26356571D01*
X53193142Y-26356571D01*
X53050285Y-26428000D01*
X52978857Y-26499428D01*
X52907428Y-26642285D01*
X52907428Y-26785142D01*
X52978857Y-26928000D01*
X53050285Y-26999428D01*
X53193142Y-27070857D01*
X53693142Y-27070857D01*
X51050285Y-27856571D02*
X51050285Y-26356571D01*
X50693142Y-26356571D01*
X50478857Y-26428000D01*
X50336000Y-26570857D01*
X50264571Y-26713714D01*
X50193142Y-26999428D01*
X50193142Y-27213714D01*
X50264571Y-27499428D01*
X50336000Y-27642285D01*
X50478857Y-27785142D01*
X50693142Y-27856571D01*
X51050285Y-27856571D01*
X48978857Y-27785142D02*
X49121714Y-27856571D01*
X49407428Y-27856571D01*
X49550285Y-27785142D01*
X49621714Y-27642285D01*
X49621714Y-27070857D01*
X49550285Y-26928000D01*
X49407428Y-26856571D01*
X49121714Y-26856571D01*
X48978857Y-26928000D01*
X48907428Y-27070857D01*
X48907428Y-27213714D01*
X49621714Y-27356571D01*
X48264571Y-27856571D02*
X48264571Y-26356571D01*
X48264571Y-26928000D02*
X48121714Y-26856571D01*
X47836000Y-26856571D01*
X47693142Y-26928000D01*
X47621714Y-26999428D01*
X47550285Y-27142285D01*
X47550285Y-27570857D01*
X47621714Y-27713714D01*
X47693142Y-27785142D01*
X47836000Y-27856571D01*
X48121714Y-27856571D01*
X48264571Y-27785142D01*
X46264571Y-26856571D02*
X46264571Y-27856571D01*
X46907428Y-26856571D02*
X46907428Y-27642285D01*
X46836000Y-27785142D01*
X46693142Y-27856571D01*
X46478857Y-27856571D01*
X46336000Y-27785142D01*
X46264571Y-27713714D01*
X44907428Y-26856571D02*
X44907428Y-28070857D01*
X44978857Y-28213714D01*
X45050285Y-28285142D01*
X45193142Y-28356571D01*
X45407428Y-28356571D01*
X45550285Y-28285142D01*
X44907428Y-27785142D02*
X45050285Y-27856571D01*
X45336000Y-27856571D01*
X45478857Y-27785142D01*
X45550285Y-27713714D01*
X45621714Y-27570857D01*
X45621714Y-27142285D01*
X45550285Y-26999428D01*
X45478857Y-26928000D01*
X45336000Y-26856571D01*
X45050285Y-26856571D01*
X44907428Y-26928000D01*
X43550285Y-26856571D02*
X43550285Y-28070857D01*
X43621714Y-28213714D01*
X43693142Y-28285142D01*
X43836000Y-28356571D01*
X44050285Y-28356571D01*
X44193142Y-28285142D01*
X43550285Y-27785142D02*
X43693142Y-27856571D01*
X43978857Y-27856571D01*
X44121714Y-27785142D01*
X44193142Y-27713714D01*
X44264571Y-27570857D01*
X44264571Y-27142285D01*
X44193142Y-26999428D01*
X44121714Y-26928000D01*
X43978857Y-26856571D01*
X43693142Y-26856571D01*
X43550285Y-26928000D01*
X42264571Y-27785142D02*
X42407428Y-27856571D01*
X42693142Y-27856571D01*
X42836000Y-27785142D01*
X42907428Y-27642285D01*
X42907428Y-27070857D01*
X42836000Y-26928000D01*
X42693142Y-26856571D01*
X42407428Y-26856571D01*
X42264571Y-26928000D01*
X42193142Y-27070857D01*
X42193142Y-27213714D01*
X42907428Y-27356571D01*
X41550285Y-27856571D02*
X41550285Y-26856571D01*
X41550285Y-27142285D02*
X41478857Y-26999428D01*
X41407428Y-26928000D01*
X41264571Y-26856571D01*
X41121714Y-26856571D01*
D14*
G04 #@! TO.C,J2*
X43815000Y-44450000D02*
X43815000Y-45085000D01*
X44450000Y-44450000D02*
X43815000Y-44450000D01*
D15*
G04 #@! TO.C,TP1*
G36*
X46776188Y-33655155D02*
X46592432Y-33655230D01*
X46430688Y-33655393D01*
X46289262Y-33655674D01*
X46166460Y-33656103D01*
X46060587Y-33656713D01*
X45969950Y-33657533D01*
X45892855Y-33658593D01*
X45827608Y-33659926D01*
X45772514Y-33661561D01*
X45725880Y-33663529D01*
X45686012Y-33665861D01*
X45651215Y-33668588D01*
X45619796Y-33671740D01*
X45590060Y-33675348D01*
X45560314Y-33679442D01*
X45548550Y-33681147D01*
X45277841Y-33733183D01*
X45016189Y-33808407D01*
X44764784Y-33906118D01*
X44524811Y-34025614D01*
X44297460Y-34166192D01*
X44083916Y-34327150D01*
X43885367Y-34507786D01*
X43703001Y-34707397D01*
X43606485Y-34829750D01*
X43537455Y-34924125D01*
X43480388Y-35007334D01*
X43430413Y-35087232D01*
X43382663Y-35171674D01*
X43332267Y-35268517D01*
X43322544Y-35287864D01*
X43218923Y-35518164D01*
X43135648Y-35753218D01*
X43074717Y-35987351D01*
X43072149Y-35999624D01*
X43065159Y-36033511D01*
X43058761Y-36065328D01*
X43052931Y-36096281D01*
X43047642Y-36127573D01*
X43042868Y-36160410D01*
X43038582Y-36195997D01*
X43034758Y-36235538D01*
X43031369Y-36280239D01*
X43028391Y-36331304D01*
X43025795Y-36389937D01*
X43023556Y-36457345D01*
X43021648Y-36534731D01*
X43020044Y-36623300D01*
X43018718Y-36724258D01*
X43017643Y-36838809D01*
X43016794Y-36968158D01*
X43016145Y-37113510D01*
X43015667Y-37276069D01*
X43015337Y-37457041D01*
X43015126Y-37657630D01*
X43015010Y-37879042D01*
X43014961Y-38122480D01*
X43014953Y-38389150D01*
X43014959Y-38619892D01*
X43014974Y-38900426D01*
X43015014Y-39156747D01*
X43015089Y-39390046D01*
X43015213Y-39601510D01*
X43015396Y-39792327D01*
X43015653Y-39963686D01*
X43015993Y-40116775D01*
X43016431Y-40252782D01*
X43016977Y-40372896D01*
X43017645Y-40478305D01*
X43018446Y-40570198D01*
X43019392Y-40649763D01*
X43020495Y-40718188D01*
X43021769Y-40776661D01*
X43023224Y-40826372D01*
X43024873Y-40868507D01*
X43026728Y-40904257D01*
X43028802Y-40934808D01*
X43031105Y-40961349D01*
X43033652Y-40985070D01*
X43036453Y-41007157D01*
X43039521Y-41028799D01*
X43039600Y-41029334D01*
X43082733Y-41266572D01*
X43140778Y-41488509D01*
X43215768Y-41701734D01*
X43309731Y-41912839D01*
X43315285Y-41924104D01*
X43448723Y-42165644D01*
X43601294Y-42391067D01*
X43771859Y-42599560D01*
X43959278Y-42790309D01*
X44162410Y-42962497D01*
X44380115Y-43115312D01*
X44611254Y-43247939D01*
X44854686Y-43359563D01*
X45109271Y-43449369D01*
X45373869Y-43516543D01*
X45596826Y-43554078D01*
X45636505Y-43557505D01*
X45699258Y-43560615D01*
X45782848Y-43563406D01*
X45885040Y-43565879D01*
X46003597Y-43568034D01*
X46136285Y-43569872D01*
X46280867Y-43571392D01*
X46435107Y-43572595D01*
X46596770Y-43573481D01*
X46763620Y-43574050D01*
X46933420Y-43574303D01*
X47103936Y-43574238D01*
X47272932Y-43573858D01*
X47438171Y-43573161D01*
X47597417Y-43572148D01*
X47748436Y-43570819D01*
X47888990Y-43569175D01*
X48016845Y-43567215D01*
X48129765Y-43564940D01*
X48225513Y-43562349D01*
X48301854Y-43559444D01*
X48356553Y-43556224D01*
X48380232Y-43553856D01*
X48646617Y-43505314D01*
X48906268Y-43433594D01*
X49157395Y-43339665D01*
X49398210Y-43224500D01*
X49626923Y-43089069D01*
X49841746Y-42934342D01*
X50040889Y-42761291D01*
X50222563Y-42570886D01*
X50249261Y-42539624D01*
X50419526Y-42318212D01*
X50566635Y-42086365D01*
X50690617Y-41844024D01*
X50760554Y-41668700D01*
X46139100Y-41668700D01*
X45294550Y-41666922D01*
X44672250Y-40911735D01*
X44573014Y-40791258D01*
X44478214Y-40676071D01*
X44389129Y-40567735D01*
X44307039Y-40467809D01*
X44233225Y-40377857D01*
X44168966Y-40299438D01*
X44115543Y-40234112D01*
X44074234Y-40183442D01*
X44046320Y-40148988D01*
X44033081Y-40132311D01*
X44032400Y-40131383D01*
X44030088Y-40125964D01*
X44030672Y-40118632D01*
X44035266Y-40108202D01*
X44044984Y-40093488D01*
X44060941Y-40073306D01*
X44084252Y-40046471D01*
X44116031Y-40011798D01*
X44157394Y-39968102D01*
X44209454Y-39914198D01*
X44273327Y-39848901D01*
X44350127Y-39771026D01*
X44440969Y-39679388D01*
X44546968Y-39572802D01*
X44669238Y-39450084D01*
X44740934Y-39378183D01*
X45467018Y-38650148D01*
X44841034Y-38035331D01*
X44732874Y-37929116D01*
X44627555Y-37825721D01*
X44526880Y-37726915D01*
X44432649Y-37634463D01*
X44346666Y-37550133D01*
X44270732Y-37475692D01*
X44206649Y-37412908D01*
X44156220Y-37363547D01*
X44121245Y-37329377D01*
X44110519Y-37318931D01*
X44005988Y-37217350D01*
X45383450Y-35624178D01*
X46139100Y-35623500D01*
X46139100Y-41668700D01*
X50760554Y-41668700D01*
X50791498Y-41591129D01*
X50869304Y-41327619D01*
X50924064Y-41053434D01*
X50927701Y-41029334D01*
X50930776Y-41007687D01*
X50933583Y-40985625D01*
X50936136Y-40961959D01*
X50938446Y-40935501D01*
X50940525Y-40905062D01*
X50942385Y-40869455D01*
X50944039Y-40827490D01*
X50945499Y-40777979D01*
X50946777Y-40719735D01*
X50947884Y-40651568D01*
X50948834Y-40572290D01*
X50949638Y-40480714D01*
X50950309Y-40375650D01*
X50950858Y-40255910D01*
X50951298Y-40120306D01*
X50951641Y-39967650D01*
X50951899Y-39796753D01*
X50952085Y-39606427D01*
X50952209Y-39395483D01*
X50952286Y-39162734D01*
X50952326Y-38906990D01*
X50952342Y-38627064D01*
X50952342Y-38619892D01*
X50952348Y-38333780D01*
X50952335Y-38071863D01*
X50952284Y-37871400D01*
X49593500Y-37871400D01*
X49593500Y-41503600D01*
X49060100Y-41503600D01*
X49060100Y-40944800D01*
X49059891Y-40828445D01*
X49059293Y-40720322D01*
X49058349Y-40622989D01*
X49057104Y-40539005D01*
X49055600Y-40470931D01*
X49053882Y-40421325D01*
X49051993Y-40392747D01*
X49050575Y-40386625D01*
X49040106Y-40395427D01*
X49013160Y-40420597D01*
X48971297Y-40460617D01*
X48916077Y-40513971D01*
X48849059Y-40579140D01*
X48771803Y-40654608D01*
X48685869Y-40738857D01*
X48592816Y-40830370D01*
X48494203Y-40927631D01*
X48475900Y-40945713D01*
X47910750Y-41504174D01*
X47723763Y-41310212D01*
X47668568Y-41252540D01*
X47620098Y-41201094D01*
X47580885Y-41158627D01*
X47553459Y-41127893D01*
X47540353Y-41111646D01*
X47539613Y-41109900D01*
X47549006Y-41099885D01*
X47574563Y-41074058D01*
X47614307Y-41034382D01*
X47666259Y-40982821D01*
X47728440Y-40921337D01*
X47798872Y-40851893D01*
X47875574Y-40776452D01*
X47891700Y-40760614D01*
X47988646Y-40665398D01*
X48098242Y-40557718D01*
X48215037Y-40442933D01*
X48333581Y-40326398D01*
X48448426Y-40213472D01*
X48554120Y-40109512D01*
X48600838Y-40063546D01*
X48960725Y-39709414D01*
X48632640Y-39377782D01*
X48545141Y-39289346D01*
X48444458Y-39187600D01*
X48335279Y-39077282D01*
X48222294Y-38963130D01*
X48110192Y-38849880D01*
X48003661Y-38742270D01*
X47923503Y-38661311D01*
X47842663Y-38579660D01*
X47767408Y-38503634D01*
X47699605Y-38435124D01*
X47641126Y-38376018D01*
X47593838Y-38328205D01*
X47559612Y-38293576D01*
X47540316Y-38274020D01*
X47536709Y-38270335D01*
X47543548Y-38259966D01*
X47565924Y-38234447D01*
X47601302Y-38196482D01*
X47647149Y-38148771D01*
X47700931Y-38094017D01*
X47720753Y-38074096D01*
X47910540Y-37883992D01*
X48485320Y-38458669D01*
X49060100Y-39033345D01*
X49060100Y-37871400D01*
X49593500Y-37871400D01*
X50952284Y-37871400D01*
X50952274Y-37832936D01*
X50952141Y-37615795D01*
X50951908Y-37419234D01*
X50951551Y-37242049D01*
X50951041Y-37083036D01*
X50950353Y-36940988D01*
X50949461Y-36814702D01*
X50948338Y-36702972D01*
X50946959Y-36604594D01*
X50945296Y-36518362D01*
X50943324Y-36443073D01*
X50941015Y-36377521D01*
X50938345Y-36320501D01*
X50935286Y-36270808D01*
X50931813Y-36227238D01*
X50927898Y-36188586D01*
X50923516Y-36153647D01*
X50918641Y-36121216D01*
X50913245Y-36090088D01*
X50907304Y-36059059D01*
X50900790Y-36026923D01*
X50895152Y-35999624D01*
X50835460Y-35765698D01*
X50753319Y-35530550D01*
X50650726Y-35299856D01*
X50644757Y-35287864D01*
X50593369Y-35187956D01*
X50545502Y-35101862D01*
X50496287Y-35021726D01*
X50440855Y-34939693D01*
X50374337Y-34847906D01*
X50360816Y-34829750D01*
X50188233Y-34619607D01*
X49998789Y-34428038D01*
X49793671Y-34255746D01*
X49574067Y-34103433D01*
X49341163Y-33971800D01*
X49096148Y-33861551D01*
X48840207Y-33773387D01*
X48574530Y-33708011D01*
X48418750Y-33681147D01*
X48388551Y-33676858D01*
X48359012Y-33673067D01*
X48328438Y-33669744D01*
X48295136Y-33666858D01*
X48257412Y-33664378D01*
X48213572Y-33662274D01*
X48161922Y-33660515D01*
X48100768Y-33659070D01*
X48028415Y-33657909D01*
X47943170Y-33657001D01*
X47843338Y-33656314D01*
X47727226Y-33655819D01*
X47593140Y-33655485D01*
X47439385Y-33655281D01*
X47264268Y-33655176D01*
X47066094Y-33655139D01*
X46983650Y-33655137D01*
X46776188Y-33655155D01*
X46776188Y-33655155D01*
G37*
X46776188Y-33655155D02*
X46592432Y-33655230D01*
X46430688Y-33655393D01*
X46289262Y-33655674D01*
X46166460Y-33656103D01*
X46060587Y-33656713D01*
X45969950Y-33657533D01*
X45892855Y-33658593D01*
X45827608Y-33659926D01*
X45772514Y-33661561D01*
X45725880Y-33663529D01*
X45686012Y-33665861D01*
X45651215Y-33668588D01*
X45619796Y-33671740D01*
X45590060Y-33675348D01*
X45560314Y-33679442D01*
X45548550Y-33681147D01*
X45277841Y-33733183D01*
X45016189Y-33808407D01*
X44764784Y-33906118D01*
X44524811Y-34025614D01*
X44297460Y-34166192D01*
X44083916Y-34327150D01*
X43885367Y-34507786D01*
X43703001Y-34707397D01*
X43606485Y-34829750D01*
X43537455Y-34924125D01*
X43480388Y-35007334D01*
X43430413Y-35087232D01*
X43382663Y-35171674D01*
X43332267Y-35268517D01*
X43322544Y-35287864D01*
X43218923Y-35518164D01*
X43135648Y-35753218D01*
X43074717Y-35987351D01*
X43072149Y-35999624D01*
X43065159Y-36033511D01*
X43058761Y-36065328D01*
X43052931Y-36096281D01*
X43047642Y-36127573D01*
X43042868Y-36160410D01*
X43038582Y-36195997D01*
X43034758Y-36235538D01*
X43031369Y-36280239D01*
X43028391Y-36331304D01*
X43025795Y-36389937D01*
X43023556Y-36457345D01*
X43021648Y-36534731D01*
X43020044Y-36623300D01*
X43018718Y-36724258D01*
X43017643Y-36838809D01*
X43016794Y-36968158D01*
X43016145Y-37113510D01*
X43015667Y-37276069D01*
X43015337Y-37457041D01*
X43015126Y-37657630D01*
X43015010Y-37879042D01*
X43014961Y-38122480D01*
X43014953Y-38389150D01*
X43014959Y-38619892D01*
X43014974Y-38900426D01*
X43015014Y-39156747D01*
X43015089Y-39390046D01*
X43015213Y-39601510D01*
X43015396Y-39792327D01*
X43015653Y-39963686D01*
X43015993Y-40116775D01*
X43016431Y-40252782D01*
X43016977Y-40372896D01*
X43017645Y-40478305D01*
X43018446Y-40570198D01*
X43019392Y-40649763D01*
X43020495Y-40718188D01*
X43021769Y-40776661D01*
X43023224Y-40826372D01*
X43024873Y-40868507D01*
X43026728Y-40904257D01*
X43028802Y-40934808D01*
X43031105Y-40961349D01*
X43033652Y-40985070D01*
X43036453Y-41007157D01*
X43039521Y-41028799D01*
X43039600Y-41029334D01*
X43082733Y-41266572D01*
X43140778Y-41488509D01*
X43215768Y-41701734D01*
X43309731Y-41912839D01*
X43315285Y-41924104D01*
X43448723Y-42165644D01*
X43601294Y-42391067D01*
X43771859Y-42599560D01*
X43959278Y-42790309D01*
X44162410Y-42962497D01*
X44380115Y-43115312D01*
X44611254Y-43247939D01*
X44854686Y-43359563D01*
X45109271Y-43449369D01*
X45373869Y-43516543D01*
X45596826Y-43554078D01*
X45636505Y-43557505D01*
X45699258Y-43560615D01*
X45782848Y-43563406D01*
X45885040Y-43565879D01*
X46003597Y-43568034D01*
X46136285Y-43569872D01*
X46280867Y-43571392D01*
X46435107Y-43572595D01*
X46596770Y-43573481D01*
X46763620Y-43574050D01*
X46933420Y-43574303D01*
X47103936Y-43574238D01*
X47272932Y-43573858D01*
X47438171Y-43573161D01*
X47597417Y-43572148D01*
X47748436Y-43570819D01*
X47888990Y-43569175D01*
X48016845Y-43567215D01*
X48129765Y-43564940D01*
X48225513Y-43562349D01*
X48301854Y-43559444D01*
X48356553Y-43556224D01*
X48380232Y-43553856D01*
X48646617Y-43505314D01*
X48906268Y-43433594D01*
X49157395Y-43339665D01*
X49398210Y-43224500D01*
X49626923Y-43089069D01*
X49841746Y-42934342D01*
X50040889Y-42761291D01*
X50222563Y-42570886D01*
X50249261Y-42539624D01*
X50419526Y-42318212D01*
X50566635Y-42086365D01*
X50690617Y-41844024D01*
X50760554Y-41668700D01*
X46139100Y-41668700D01*
X45294550Y-41666922D01*
X44672250Y-40911735D01*
X44573014Y-40791258D01*
X44478214Y-40676071D01*
X44389129Y-40567735D01*
X44307039Y-40467809D01*
X44233225Y-40377857D01*
X44168966Y-40299438D01*
X44115543Y-40234112D01*
X44074234Y-40183442D01*
X44046320Y-40148988D01*
X44033081Y-40132311D01*
X44032400Y-40131383D01*
X44030088Y-40125964D01*
X44030672Y-40118632D01*
X44035266Y-40108202D01*
X44044984Y-40093488D01*
X44060941Y-40073306D01*
X44084252Y-40046471D01*
X44116031Y-40011798D01*
X44157394Y-39968102D01*
X44209454Y-39914198D01*
X44273327Y-39848901D01*
X44350127Y-39771026D01*
X44440969Y-39679388D01*
X44546968Y-39572802D01*
X44669238Y-39450084D01*
X44740934Y-39378183D01*
X45467018Y-38650148D01*
X44841034Y-38035331D01*
X44732874Y-37929116D01*
X44627555Y-37825721D01*
X44526880Y-37726915D01*
X44432649Y-37634463D01*
X44346666Y-37550133D01*
X44270732Y-37475692D01*
X44206649Y-37412908D01*
X44156220Y-37363547D01*
X44121245Y-37329377D01*
X44110519Y-37318931D01*
X44005988Y-37217350D01*
X45383450Y-35624178D01*
X46139100Y-35623500D01*
X46139100Y-41668700D01*
X50760554Y-41668700D01*
X50791498Y-41591129D01*
X50869304Y-41327619D01*
X50924064Y-41053434D01*
X50927701Y-41029334D01*
X50930776Y-41007687D01*
X50933583Y-40985625D01*
X50936136Y-40961959D01*
X50938446Y-40935501D01*
X50940525Y-40905062D01*
X50942385Y-40869455D01*
X50944039Y-40827490D01*
X50945499Y-40777979D01*
X50946777Y-40719735D01*
X50947884Y-40651568D01*
X50948834Y-40572290D01*
X50949638Y-40480714D01*
X50950309Y-40375650D01*
X50950858Y-40255910D01*
X50951298Y-40120306D01*
X50951641Y-39967650D01*
X50951899Y-39796753D01*
X50952085Y-39606427D01*
X50952209Y-39395483D01*
X50952286Y-39162734D01*
X50952326Y-38906990D01*
X50952342Y-38627064D01*
X50952342Y-38619892D01*
X50952348Y-38333780D01*
X50952335Y-38071863D01*
X50952284Y-37871400D01*
X49593500Y-37871400D01*
X49593500Y-41503600D01*
X49060100Y-41503600D01*
X49060100Y-40944800D01*
X49059891Y-40828445D01*
X49059293Y-40720322D01*
X49058349Y-40622989D01*
X49057104Y-40539005D01*
X49055600Y-40470931D01*
X49053882Y-40421325D01*
X49051993Y-40392747D01*
X49050575Y-40386625D01*
X49040106Y-40395427D01*
X49013160Y-40420597D01*
X48971297Y-40460617D01*
X48916077Y-40513971D01*
X48849059Y-40579140D01*
X48771803Y-40654608D01*
X48685869Y-40738857D01*
X48592816Y-40830370D01*
X48494203Y-40927631D01*
X48475900Y-40945713D01*
X47910750Y-41504174D01*
X47723763Y-41310212D01*
X47668568Y-41252540D01*
X47620098Y-41201094D01*
X47580885Y-41158627D01*
X47553459Y-41127893D01*
X47540353Y-41111646D01*
X47539613Y-41109900D01*
X47549006Y-41099885D01*
X47574563Y-41074058D01*
X47614307Y-41034382D01*
X47666259Y-40982821D01*
X47728440Y-40921337D01*
X47798872Y-40851893D01*
X47875574Y-40776452D01*
X47891700Y-40760614D01*
X47988646Y-40665398D01*
X48098242Y-40557718D01*
X48215037Y-40442933D01*
X48333581Y-40326398D01*
X48448426Y-40213472D01*
X48554120Y-40109512D01*
X48600838Y-40063546D01*
X48960725Y-39709414D01*
X48632640Y-39377782D01*
X48545141Y-39289346D01*
X48444458Y-39187600D01*
X48335279Y-39077282D01*
X48222294Y-38963130D01*
X48110192Y-38849880D01*
X48003661Y-38742270D01*
X47923503Y-38661311D01*
X47842663Y-38579660D01*
X47767408Y-38503634D01*
X47699605Y-38435124D01*
X47641126Y-38376018D01*
X47593838Y-38328205D01*
X47559612Y-38293576D01*
X47540316Y-38274020D01*
X47536709Y-38270335D01*
X47543548Y-38259966D01*
X47565924Y-38234447D01*
X47601302Y-38196482D01*
X47647149Y-38148771D01*
X47700931Y-38094017D01*
X47720753Y-38074096D01*
X47910540Y-37883992D01*
X48485320Y-38458669D01*
X49060100Y-39033345D01*
X49060100Y-37871400D01*
X49593500Y-37871400D01*
X50952284Y-37871400D01*
X50952274Y-37832936D01*
X50952141Y-37615795D01*
X50951908Y-37419234D01*
X50951551Y-37242049D01*
X50951041Y-37083036D01*
X50950353Y-36940988D01*
X50949461Y-36814702D01*
X50948338Y-36702972D01*
X50946959Y-36604594D01*
X50945296Y-36518362D01*
X50943324Y-36443073D01*
X50941015Y-36377521D01*
X50938345Y-36320501D01*
X50935286Y-36270808D01*
X50931813Y-36227238D01*
X50927898Y-36188586D01*
X50923516Y-36153647D01*
X50918641Y-36121216D01*
X50913245Y-36090088D01*
X50907304Y-36059059D01*
X50900790Y-36026923D01*
X50895152Y-35999624D01*
X50835460Y-35765698D01*
X50753319Y-35530550D01*
X50650726Y-35299856D01*
X50644757Y-35287864D01*
X50593369Y-35187956D01*
X50545502Y-35101862D01*
X50496287Y-35021726D01*
X50440855Y-34939693D01*
X50374337Y-34847906D01*
X50360816Y-34829750D01*
X50188233Y-34619607D01*
X49998789Y-34428038D01*
X49793671Y-34255746D01*
X49574067Y-34103433D01*
X49341163Y-33971800D01*
X49096148Y-33861551D01*
X48840207Y-33773387D01*
X48574530Y-33708011D01*
X48418750Y-33681147D01*
X48388551Y-33676858D01*
X48359012Y-33673067D01*
X48328438Y-33669744D01*
X48295136Y-33666858D01*
X48257412Y-33664378D01*
X48213572Y-33662274D01*
X48161922Y-33660515D01*
X48100768Y-33659070D01*
X48028415Y-33657909D01*
X47943170Y-33657001D01*
X47843338Y-33656314D01*
X47727226Y-33655819D01*
X47593140Y-33655485D01*
X47439385Y-33655281D01*
X47264268Y-33655176D01*
X47066094Y-33655139D01*
X46983650Y-33655137D01*
X46776188Y-33655155D01*
G36*
X45174735Y-39711172D02*
X44745139Y-40147595D01*
X45144963Y-40631922D01*
X45224853Y-40728589D01*
X45300648Y-40820094D01*
X45370654Y-40904406D01*
X45433174Y-40979491D01*
X45486513Y-41043316D01*
X45528975Y-41093850D01*
X45558865Y-41129059D01*
X45574486Y-41146911D01*
X45575244Y-41147711D01*
X45605700Y-41179172D01*
X45604332Y-39274750D01*
X45174735Y-39711172D01*
X45174735Y-39711172D01*
G37*
X45174735Y-39711172D02*
X44745139Y-40147595D01*
X45144963Y-40631922D01*
X45224853Y-40728589D01*
X45300648Y-40820094D01*
X45370654Y-40904406D01*
X45433174Y-40979491D01*
X45486513Y-41043316D01*
X45528975Y-41093850D01*
X45558865Y-41129059D01*
X45574486Y-41146911D01*
X45575244Y-41147711D01*
X45605700Y-41179172D01*
X45604332Y-39274750D01*
X45174735Y-39711172D01*
G36*
X45591682Y-36217017D02*
X45567712Y-36243726D01*
X45530434Y-36285964D01*
X45481478Y-36341865D01*
X45422470Y-36409566D01*
X45355039Y-36487203D01*
X45280813Y-36572911D01*
X45201420Y-36664826D01*
X45198618Y-36668075D01*
X45118146Y-36761345D01*
X45042067Y-36849480D01*
X44972127Y-36930460D01*
X44910073Y-37002266D01*
X44857652Y-37062878D01*
X44816608Y-37110276D01*
X44788688Y-37142439D01*
X44775731Y-37157246D01*
X44749956Y-37186043D01*
X45166903Y-37595396D01*
X45252284Y-37679085D01*
X45332250Y-37757202D01*
X45404955Y-37827963D01*
X45468552Y-37889583D01*
X45521193Y-37940275D01*
X45561033Y-37978256D01*
X45586224Y-38001739D01*
X45594775Y-38008983D01*
X45596589Y-37997330D01*
X45598305Y-37962254D01*
X45599902Y-37905730D01*
X45601355Y-37829735D01*
X45602639Y-37736244D01*
X45603730Y-37627234D01*
X45604605Y-37504681D01*
X45605240Y-37370561D01*
X45605611Y-37226850D01*
X45605700Y-37110458D01*
X45605632Y-36961560D01*
X45605435Y-36820323D01*
X45605119Y-36688764D01*
X45604697Y-36568899D01*
X45604179Y-36462746D01*
X45603577Y-36372320D01*
X45602901Y-36299639D01*
X45602163Y-36246720D01*
X45601373Y-36215578D01*
X45600716Y-36207700D01*
X45591682Y-36217017D01*
X45591682Y-36217017D01*
G37*
X45591682Y-36217017D02*
X45567712Y-36243726D01*
X45530434Y-36285964D01*
X45481478Y-36341865D01*
X45422470Y-36409566D01*
X45355039Y-36487203D01*
X45280813Y-36572911D01*
X45201420Y-36664826D01*
X45198618Y-36668075D01*
X45118146Y-36761345D01*
X45042067Y-36849480D01*
X44972127Y-36930460D01*
X44910073Y-37002266D01*
X44857652Y-37062878D01*
X44816608Y-37110276D01*
X44788688Y-37142439D01*
X44775731Y-37157246D01*
X44749956Y-37186043D01*
X45166903Y-37595396D01*
X45252284Y-37679085D01*
X45332250Y-37757202D01*
X45404955Y-37827963D01*
X45468552Y-37889583D01*
X45521193Y-37940275D01*
X45561033Y-37978256D01*
X45586224Y-38001739D01*
X45594775Y-38008983D01*
X45596589Y-37997330D01*
X45598305Y-37962254D01*
X45599902Y-37905730D01*
X45601355Y-37829735D01*
X45602639Y-37736244D01*
X45603730Y-37627234D01*
X45604605Y-37504681D01*
X45605240Y-37370561D01*
X45605611Y-37226850D01*
X45605700Y-37110458D01*
X45605632Y-36961560D01*
X45605435Y-36820323D01*
X45605119Y-36688764D01*
X45604697Y-36568899D01*
X45604179Y-36462746D01*
X45603577Y-36372320D01*
X45602901Y-36299639D01*
X45602163Y-36246720D01*
X45601373Y-36215578D01*
X45600716Y-36207700D01*
X45591682Y-36217017D01*
G04 #@! TD*
M02*
