G04 #@! TF.GenerationSoftware,KiCad,Pcbnew,(5.0.0)*
G04 #@! TF.CreationDate,2020-06-17T11:23:20-06:00*
G04 #@! TF.ProjectId,pogoprogC,706F676F70726F67432E6B696361645F,rev?*
G04 #@! TF.SameCoordinates,Original*
G04 #@! TF.FileFunction,Soldermask,Top*
G04 #@! TF.FilePolarity,Negative*
%FSLAX46Y46*%
G04 Gerber Fmt 4.6, Leading zero omitted, Abs format (unit mm)*
G04 Created by KiCad (PCBNEW (5.0.0)) date 06/17/20 11:23:20*
%MOMM*%
%LPD*%
G01*
G04 APERTURE LIST*
%ADD10C,0.150000*%
G04 APERTURE END LIST*
D10*
G36*
X170372688Y-148235775D02*
X170434896Y-148254645D01*
X170492225Y-148285288D01*
X170533463Y-148319131D01*
X170542474Y-148326526D01*
X170583712Y-148376775D01*
X170597975Y-148403460D01*
X170614355Y-148434103D01*
X170633225Y-148496311D01*
X170638000Y-148544793D01*
X170638000Y-157017207D01*
X170633225Y-157065689D01*
X170614355Y-157127897D01*
X170597975Y-157158540D01*
X170583712Y-157185225D01*
X170542474Y-157235474D01*
X170492225Y-157276712D01*
X170465540Y-157290975D01*
X170434897Y-157307355D01*
X170372689Y-157326225D01*
X170308000Y-157332596D01*
X170243312Y-157326225D01*
X170181104Y-157307355D01*
X170150461Y-157290975D01*
X170123776Y-157276712D01*
X170073527Y-157235474D01*
X170032289Y-157185225D01*
X170018026Y-157158540D01*
X170001646Y-157127897D01*
X169982776Y-157065689D01*
X169978001Y-157017207D01*
X169978000Y-148544794D01*
X169982775Y-148496312D01*
X170001645Y-148434104D01*
X170032288Y-148376775D01*
X170073527Y-148326525D01*
X170123774Y-148285289D01*
X170123773Y-148285289D01*
X170123775Y-148285288D01*
X170150460Y-148271025D01*
X170181103Y-148254645D01*
X170243311Y-148235775D01*
X170308000Y-148229404D01*
X170372688Y-148235775D01*
X170372688Y-148235775D01*
G37*
G36*
X171642688Y-148235775D02*
X171704896Y-148254645D01*
X171762225Y-148285288D01*
X171803463Y-148319131D01*
X171812474Y-148326526D01*
X171853712Y-148376775D01*
X171867975Y-148403460D01*
X171884355Y-148434103D01*
X171903225Y-148496311D01*
X171908000Y-148544793D01*
X171908000Y-157017207D01*
X171903225Y-157065689D01*
X171884355Y-157127897D01*
X171867975Y-157158540D01*
X171853712Y-157185225D01*
X171812474Y-157235474D01*
X171762225Y-157276712D01*
X171735540Y-157290975D01*
X171704897Y-157307355D01*
X171642689Y-157326225D01*
X171578000Y-157332596D01*
X171513312Y-157326225D01*
X171451104Y-157307355D01*
X171420461Y-157290975D01*
X171393776Y-157276712D01*
X171343527Y-157235474D01*
X171302289Y-157185225D01*
X171288026Y-157158540D01*
X171271646Y-157127897D01*
X171252776Y-157065689D01*
X171248001Y-157017207D01*
X171248000Y-148544794D01*
X171252775Y-148496312D01*
X171271645Y-148434104D01*
X171302288Y-148376775D01*
X171343527Y-148326525D01*
X171393774Y-148285289D01*
X171393773Y-148285289D01*
X171393775Y-148285288D01*
X171420460Y-148271025D01*
X171451103Y-148254645D01*
X171513311Y-148235775D01*
X171578000Y-148229404D01*
X171642688Y-148235775D01*
X171642688Y-148235775D01*
G37*
G36*
X172912688Y-148235775D02*
X172974896Y-148254645D01*
X173032225Y-148285288D01*
X173073463Y-148319131D01*
X173082474Y-148326526D01*
X173123712Y-148376775D01*
X173137975Y-148403460D01*
X173154355Y-148434103D01*
X173173225Y-148496311D01*
X173178000Y-148544793D01*
X173178000Y-157017207D01*
X173173225Y-157065689D01*
X173154355Y-157127897D01*
X173137975Y-157158540D01*
X173123712Y-157185225D01*
X173082474Y-157235474D01*
X173032225Y-157276712D01*
X173005540Y-157290975D01*
X172974897Y-157307355D01*
X172912689Y-157326225D01*
X172848000Y-157332596D01*
X172783312Y-157326225D01*
X172721104Y-157307355D01*
X172690461Y-157290975D01*
X172663776Y-157276712D01*
X172613527Y-157235474D01*
X172572289Y-157185225D01*
X172558026Y-157158540D01*
X172541646Y-157127897D01*
X172522776Y-157065689D01*
X172518001Y-157017207D01*
X172518000Y-148544794D01*
X172522775Y-148496312D01*
X172541645Y-148434104D01*
X172572288Y-148376775D01*
X172613527Y-148326525D01*
X172663774Y-148285289D01*
X172663773Y-148285289D01*
X172663775Y-148285288D01*
X172690460Y-148271025D01*
X172721103Y-148254645D01*
X172783311Y-148235775D01*
X172848000Y-148229404D01*
X172912688Y-148235775D01*
X172912688Y-148235775D01*
G37*
G36*
X174182688Y-148235775D02*
X174244896Y-148254645D01*
X174302225Y-148285288D01*
X174343463Y-148319131D01*
X174352474Y-148326526D01*
X174393712Y-148376775D01*
X174407975Y-148403460D01*
X174424355Y-148434103D01*
X174443225Y-148496311D01*
X174448000Y-148544793D01*
X174448000Y-157017207D01*
X174443225Y-157065689D01*
X174424355Y-157127897D01*
X174407975Y-157158540D01*
X174393712Y-157185225D01*
X174352474Y-157235474D01*
X174302225Y-157276712D01*
X174275540Y-157290975D01*
X174244897Y-157307355D01*
X174182689Y-157326225D01*
X174118000Y-157332596D01*
X174053312Y-157326225D01*
X173991104Y-157307355D01*
X173960461Y-157290975D01*
X173933776Y-157276712D01*
X173883527Y-157235474D01*
X173842289Y-157185225D01*
X173828026Y-157158540D01*
X173811646Y-157127897D01*
X173792776Y-157065689D01*
X173788001Y-157017207D01*
X173788000Y-148544794D01*
X173792775Y-148496312D01*
X173811645Y-148434104D01*
X173842288Y-148376775D01*
X173883527Y-148326525D01*
X173933774Y-148285289D01*
X173933773Y-148285289D01*
X173933775Y-148285288D01*
X173960460Y-148271025D01*
X173991103Y-148254645D01*
X174053311Y-148235775D01*
X174118000Y-148229404D01*
X174182688Y-148235775D01*
X174182688Y-148235775D01*
G37*
G36*
X176152630Y-130861299D02*
X176312855Y-130909903D01*
X176460520Y-130988831D01*
X176589949Y-131095051D01*
X176696169Y-131224480D01*
X176775097Y-131372145D01*
X176823701Y-131532370D01*
X176840112Y-131699000D01*
X176823701Y-131865630D01*
X176775097Y-132025855D01*
X176696169Y-132173520D01*
X176589949Y-132302949D01*
X176460520Y-132409169D01*
X176312855Y-132488097D01*
X176152630Y-132536701D01*
X176027752Y-132549000D01*
X175944248Y-132549000D01*
X175819370Y-132536701D01*
X175659145Y-132488097D01*
X175511480Y-132409169D01*
X175382051Y-132302949D01*
X175275831Y-132173520D01*
X175196903Y-132025855D01*
X175148299Y-131865630D01*
X175131888Y-131699000D01*
X175148299Y-131532370D01*
X175196903Y-131372145D01*
X175275831Y-131224480D01*
X175382051Y-131095051D01*
X175511480Y-130988831D01*
X175659145Y-130909903D01*
X175819370Y-130861299D01*
X175944248Y-130849000D01*
X176027752Y-130849000D01*
X176152630Y-130861299D01*
X176152630Y-130861299D01*
G37*
G36*
X173612630Y-130861299D02*
X173772855Y-130909903D01*
X173920520Y-130988831D01*
X174049949Y-131095051D01*
X174156169Y-131224480D01*
X174235097Y-131372145D01*
X174283701Y-131532370D01*
X174300112Y-131699000D01*
X174283701Y-131865630D01*
X174235097Y-132025855D01*
X174156169Y-132173520D01*
X174049949Y-132302949D01*
X173920520Y-132409169D01*
X173772855Y-132488097D01*
X173612630Y-132536701D01*
X173487752Y-132549000D01*
X173404248Y-132549000D01*
X173279370Y-132536701D01*
X173119145Y-132488097D01*
X172971480Y-132409169D01*
X172842051Y-132302949D01*
X172735831Y-132173520D01*
X172656903Y-132025855D01*
X172608299Y-131865630D01*
X172591888Y-131699000D01*
X172608299Y-131532370D01*
X172656903Y-131372145D01*
X172735831Y-131224480D01*
X172842051Y-131095051D01*
X172971480Y-130988831D01*
X173119145Y-130909903D01*
X173279370Y-130861299D01*
X173404248Y-130849000D01*
X173487752Y-130849000D01*
X173612630Y-130861299D01*
X173612630Y-130861299D01*
G37*
G36*
X171072630Y-130861299D02*
X171232855Y-130909903D01*
X171380520Y-130988831D01*
X171509949Y-131095051D01*
X171616169Y-131224480D01*
X171695097Y-131372145D01*
X171743701Y-131532370D01*
X171760112Y-131699000D01*
X171743701Y-131865630D01*
X171695097Y-132025855D01*
X171616169Y-132173520D01*
X171509949Y-132302949D01*
X171380520Y-132409169D01*
X171232855Y-132488097D01*
X171072630Y-132536701D01*
X170947752Y-132549000D01*
X170864248Y-132549000D01*
X170739370Y-132536701D01*
X170579145Y-132488097D01*
X170431480Y-132409169D01*
X170302051Y-132302949D01*
X170195831Y-132173520D01*
X170116903Y-132025855D01*
X170068299Y-131865630D01*
X170051888Y-131699000D01*
X170068299Y-131532370D01*
X170116903Y-131372145D01*
X170195831Y-131224480D01*
X170302051Y-131095051D01*
X170431480Y-130988831D01*
X170579145Y-130909903D01*
X170739370Y-130861299D01*
X170864248Y-130849000D01*
X170947752Y-130849000D01*
X171072630Y-130861299D01*
X171072630Y-130861299D01*
G37*
G36*
X169216000Y-132549000D02*
X167516000Y-132549000D01*
X167516000Y-130849000D01*
X169216000Y-130849000D01*
X169216000Y-132549000D01*
X169216000Y-132549000D01*
G37*
M02*
