G04 #@! TF.GenerationSoftware,KiCad,Pcbnew,(5.0.0)*
G04 #@! TF.CreationDate,2020-06-17T11:23:20-06:00*
G04 #@! TF.ProjectId,pogoprogC,706F676F70726F67432E6B696361645F,rev?*
G04 #@! TF.SameCoordinates,Original*
G04 #@! TF.FileFunction,Legend,Bot*
G04 #@! TF.FilePolarity,Positive*
%FSLAX46Y46*%
G04 Gerber Fmt 4.6, Leading zero omitted, Abs format (unit mm)*
G04 Created by KiCad (PCBNEW (5.0.0)) date 06/17/20 11:23:20*
%MOMM*%
%LPD*%
G01*
G04 APERTURE LIST*
%ADD10C,0.150000*%
%ADD11C,0.250000*%
%ADD12C,0.010000*%
G04 APERTURE END LIST*
D10*
X174916752Y-148482104D02*
X174840561Y-148482104D01*
X174764371Y-148520200D01*
X174726276Y-148558295D01*
X174688180Y-148634485D01*
X174650085Y-148786866D01*
X174650085Y-148977342D01*
X174688180Y-149129723D01*
X174726276Y-149205914D01*
X174764371Y-149244009D01*
X174840561Y-149282104D01*
X174916752Y-149282104D01*
X174992942Y-149244009D01*
X175031038Y-149205914D01*
X175069133Y-149129723D01*
X175107228Y-148977342D01*
X175107228Y-148786866D01*
X175069133Y-148634485D01*
X175031038Y-148558295D01*
X174992942Y-148520200D01*
X174916752Y-148482104D01*
X174307228Y-149205914D02*
X174269133Y-149244009D01*
X174307228Y-149282104D01*
X174345323Y-149244009D01*
X174307228Y-149205914D01*
X174307228Y-149282104D01*
X173773895Y-148482104D02*
X173697704Y-148482104D01*
X173621514Y-148520200D01*
X173583419Y-148558295D01*
X173545323Y-148634485D01*
X173507228Y-148786866D01*
X173507228Y-148977342D01*
X173545323Y-149129723D01*
X173583419Y-149205914D01*
X173621514Y-149244009D01*
X173697704Y-149282104D01*
X173773895Y-149282104D01*
X173850085Y-149244009D01*
X173888180Y-149205914D01*
X173926276Y-149129723D01*
X173964371Y-148977342D01*
X173964371Y-148786866D01*
X173926276Y-148634485D01*
X173888180Y-148558295D01*
X173850085Y-148520200D01*
X173773895Y-148482104D01*
X172783419Y-148482104D02*
X173164371Y-148482104D01*
X173202466Y-148863057D01*
X173164371Y-148824961D01*
X173088180Y-148786866D01*
X172897704Y-148786866D01*
X172821514Y-148824961D01*
X172783419Y-148863057D01*
X172745323Y-148939247D01*
X172745323Y-149129723D01*
X172783419Y-149205914D01*
X172821514Y-149244009D01*
X172897704Y-149282104D01*
X173088180Y-149282104D01*
X173164371Y-149244009D01*
X173202466Y-149205914D01*
X171792942Y-148748771D02*
X171792942Y-149548771D01*
X171792942Y-148786866D02*
X171716752Y-148748771D01*
X171564371Y-148748771D01*
X171488180Y-148786866D01*
X171450085Y-148824961D01*
X171411990Y-148901152D01*
X171411990Y-149129723D01*
X171450085Y-149205914D01*
X171488180Y-149244009D01*
X171564371Y-149282104D01*
X171716752Y-149282104D01*
X171792942Y-149244009D01*
X171069133Y-149282104D02*
X171069133Y-148748771D01*
X171069133Y-148482104D02*
X171107228Y-148520200D01*
X171069133Y-148558295D01*
X171031038Y-148520200D01*
X171069133Y-148482104D01*
X171069133Y-148558295D01*
X170802466Y-148748771D02*
X170497704Y-148748771D01*
X170688180Y-148482104D02*
X170688180Y-149167819D01*
X170650085Y-149244009D01*
X170573895Y-149282104D01*
X170497704Y-149282104D01*
X169888180Y-149244009D02*
X169964371Y-149282104D01*
X170116752Y-149282104D01*
X170192942Y-149244009D01*
X170231038Y-149205914D01*
X170269133Y-149129723D01*
X170269133Y-148901152D01*
X170231038Y-148824961D01*
X170192942Y-148786866D01*
X170116752Y-148748771D01*
X169964371Y-148748771D01*
X169888180Y-148786866D01*
X169545323Y-149282104D02*
X169545323Y-148482104D01*
X169202466Y-149282104D02*
X169202466Y-148863057D01*
X169240561Y-148786866D01*
X169316752Y-148748771D01*
X169431038Y-148748771D01*
X169507228Y-148786866D01*
X169545323Y-148824961D01*
D11*
X176430266Y-145723695D02*
X176430266Y-144423695D01*
X175935028Y-144423695D01*
X175811219Y-144485600D01*
X175749314Y-144547504D01*
X175687409Y-144671314D01*
X175687409Y-144857028D01*
X175749314Y-144980838D01*
X175811219Y-145042742D01*
X175935028Y-145104647D01*
X176430266Y-145104647D01*
X174944552Y-145723695D02*
X175068361Y-145661790D01*
X175130266Y-145599885D01*
X175192171Y-145476076D01*
X175192171Y-145104647D01*
X175130266Y-144980838D01*
X175068361Y-144918933D01*
X174944552Y-144857028D01*
X174758838Y-144857028D01*
X174635028Y-144918933D01*
X174573123Y-144980838D01*
X174511219Y-145104647D01*
X174511219Y-145476076D01*
X174573123Y-145599885D01*
X174635028Y-145661790D01*
X174758838Y-145723695D01*
X174944552Y-145723695D01*
X173396933Y-144857028D02*
X173396933Y-145909409D01*
X173458838Y-146033219D01*
X173520742Y-146095123D01*
X173644552Y-146157028D01*
X173830266Y-146157028D01*
X173954076Y-146095123D01*
X173396933Y-145661790D02*
X173520742Y-145723695D01*
X173768361Y-145723695D01*
X173892171Y-145661790D01*
X173954076Y-145599885D01*
X174015980Y-145476076D01*
X174015980Y-145104647D01*
X173954076Y-144980838D01*
X173892171Y-144918933D01*
X173768361Y-144857028D01*
X173520742Y-144857028D01*
X173396933Y-144918933D01*
X172592171Y-145723695D02*
X172715980Y-145661790D01*
X172777885Y-145599885D01*
X172839790Y-145476076D01*
X172839790Y-145104647D01*
X172777885Y-144980838D01*
X172715980Y-144918933D01*
X172592171Y-144857028D01*
X172406457Y-144857028D01*
X172282647Y-144918933D01*
X172220742Y-144980838D01*
X172158838Y-145104647D01*
X172158838Y-145476076D01*
X172220742Y-145599885D01*
X172282647Y-145661790D01*
X172406457Y-145723695D01*
X172592171Y-145723695D01*
X171663600Y-145661790D02*
X171477885Y-145723695D01*
X171168361Y-145723695D01*
X171044552Y-145661790D01*
X170982647Y-145599885D01*
X170920742Y-145476076D01*
X170920742Y-145352266D01*
X170982647Y-145228457D01*
X171044552Y-145166552D01*
X171168361Y-145104647D01*
X171415980Y-145042742D01*
X171539790Y-144980838D01*
X171601695Y-144918933D01*
X171663600Y-144795123D01*
X171663600Y-144671314D01*
X171601695Y-144547504D01*
X171539790Y-144485600D01*
X171415980Y-144423695D01*
X171106457Y-144423695D01*
X170920742Y-144485600D01*
X170487409Y-144423695D02*
X170177885Y-145723695D01*
X169930266Y-144795123D01*
X169682647Y-145723695D01*
X169373123Y-144423695D01*
X168877885Y-145723695D02*
X168877885Y-144423695D01*
X168568361Y-144423695D01*
X168382647Y-144485600D01*
X168258838Y-144609409D01*
X168196933Y-144733219D01*
X168135028Y-144980838D01*
X168135028Y-145166552D01*
X168196933Y-145414171D01*
X168258838Y-145537980D01*
X168382647Y-145661790D01*
X168568361Y-145723695D01*
X168877885Y-145723695D01*
D12*
G04 #@! TO.C,G\002A\002A\002A*
G36*
X170839082Y-135708817D02*
X170815112Y-135735526D01*
X170777834Y-135777764D01*
X170728878Y-135833665D01*
X170669870Y-135901366D01*
X170602439Y-135979003D01*
X170528213Y-136064711D01*
X170448820Y-136156626D01*
X170446018Y-136159875D01*
X170365546Y-136253145D01*
X170289467Y-136341280D01*
X170219527Y-136422260D01*
X170157473Y-136494066D01*
X170105052Y-136554678D01*
X170064008Y-136602076D01*
X170036088Y-136634239D01*
X170023131Y-136649046D01*
X169997356Y-136677843D01*
X170414303Y-137087196D01*
X170499684Y-137170885D01*
X170579650Y-137249002D01*
X170652355Y-137319763D01*
X170715952Y-137381383D01*
X170768593Y-137432075D01*
X170808433Y-137470056D01*
X170833624Y-137493539D01*
X170842175Y-137500783D01*
X170843989Y-137489130D01*
X170845705Y-137454054D01*
X170847302Y-137397530D01*
X170848755Y-137321535D01*
X170850039Y-137228044D01*
X170851130Y-137119034D01*
X170852005Y-136996481D01*
X170852640Y-136862361D01*
X170853011Y-136718650D01*
X170853100Y-136602258D01*
X170853032Y-136453360D01*
X170852835Y-136312123D01*
X170852519Y-136180564D01*
X170852097Y-136060699D01*
X170851579Y-135954546D01*
X170850977Y-135864120D01*
X170850301Y-135791439D01*
X170849563Y-135738520D01*
X170848773Y-135707378D01*
X170848116Y-135699500D01*
X170839082Y-135708817D01*
X170839082Y-135708817D01*
G37*
X170839082Y-135708817D02*
X170815112Y-135735526D01*
X170777834Y-135777764D01*
X170728878Y-135833665D01*
X170669870Y-135901366D01*
X170602439Y-135979003D01*
X170528213Y-136064711D01*
X170448820Y-136156626D01*
X170446018Y-136159875D01*
X170365546Y-136253145D01*
X170289467Y-136341280D01*
X170219527Y-136422260D01*
X170157473Y-136494066D01*
X170105052Y-136554678D01*
X170064008Y-136602076D01*
X170036088Y-136634239D01*
X170023131Y-136649046D01*
X169997356Y-136677843D01*
X170414303Y-137087196D01*
X170499684Y-137170885D01*
X170579650Y-137249002D01*
X170652355Y-137319763D01*
X170715952Y-137381383D01*
X170768593Y-137432075D01*
X170808433Y-137470056D01*
X170833624Y-137493539D01*
X170842175Y-137500783D01*
X170843989Y-137489130D01*
X170845705Y-137454054D01*
X170847302Y-137397530D01*
X170848755Y-137321535D01*
X170850039Y-137228044D01*
X170851130Y-137119034D01*
X170852005Y-136996481D01*
X170852640Y-136862361D01*
X170853011Y-136718650D01*
X170853100Y-136602258D01*
X170853032Y-136453360D01*
X170852835Y-136312123D01*
X170852519Y-136180564D01*
X170852097Y-136060699D01*
X170851579Y-135954546D01*
X170850977Y-135864120D01*
X170850301Y-135791439D01*
X170849563Y-135738520D01*
X170848773Y-135707378D01*
X170848116Y-135699500D01*
X170839082Y-135708817D01*
G36*
X170422135Y-139202972D02*
X169992539Y-139639395D01*
X170392363Y-140123722D01*
X170472253Y-140220389D01*
X170548048Y-140311894D01*
X170618054Y-140396206D01*
X170680574Y-140471291D01*
X170733913Y-140535116D01*
X170776375Y-140585650D01*
X170806265Y-140620859D01*
X170821886Y-140638711D01*
X170822644Y-140639511D01*
X170853100Y-140670972D01*
X170851732Y-138766550D01*
X170422135Y-139202972D01*
X170422135Y-139202972D01*
G37*
X170422135Y-139202972D02*
X169992539Y-139639395D01*
X170392363Y-140123722D01*
X170472253Y-140220389D01*
X170548048Y-140311894D01*
X170618054Y-140396206D01*
X170680574Y-140471291D01*
X170733913Y-140535116D01*
X170776375Y-140585650D01*
X170806265Y-140620859D01*
X170821886Y-140638711D01*
X170822644Y-140639511D01*
X170853100Y-140670972D01*
X170851732Y-138766550D01*
X170422135Y-139202972D01*
G36*
X172023588Y-133146955D02*
X171839832Y-133147030D01*
X171678088Y-133147193D01*
X171536662Y-133147474D01*
X171413860Y-133147903D01*
X171307987Y-133148513D01*
X171217350Y-133149333D01*
X171140255Y-133150393D01*
X171075008Y-133151726D01*
X171019914Y-133153361D01*
X170973280Y-133155329D01*
X170933412Y-133157661D01*
X170898615Y-133160388D01*
X170867196Y-133163540D01*
X170837460Y-133167148D01*
X170807714Y-133171242D01*
X170795950Y-133172947D01*
X170525241Y-133224983D01*
X170263589Y-133300207D01*
X170012184Y-133397918D01*
X169772211Y-133517414D01*
X169544860Y-133657992D01*
X169331316Y-133818950D01*
X169132767Y-133999586D01*
X168950401Y-134199197D01*
X168853885Y-134321550D01*
X168784855Y-134415925D01*
X168727788Y-134499134D01*
X168677813Y-134579032D01*
X168630063Y-134663474D01*
X168579667Y-134760317D01*
X168569944Y-134779664D01*
X168466323Y-135009964D01*
X168383048Y-135245018D01*
X168322117Y-135479151D01*
X168319549Y-135491424D01*
X168312559Y-135525311D01*
X168306161Y-135557128D01*
X168300331Y-135588081D01*
X168295042Y-135619373D01*
X168290268Y-135652210D01*
X168285982Y-135687797D01*
X168282158Y-135727338D01*
X168278769Y-135772039D01*
X168275791Y-135823104D01*
X168273195Y-135881737D01*
X168270956Y-135949145D01*
X168269048Y-136026531D01*
X168267444Y-136115100D01*
X168266118Y-136216058D01*
X168265043Y-136330609D01*
X168264194Y-136459958D01*
X168263545Y-136605310D01*
X168263067Y-136767869D01*
X168262737Y-136948841D01*
X168262526Y-137149430D01*
X168262410Y-137370842D01*
X168262361Y-137614280D01*
X168262353Y-137880950D01*
X168262359Y-138111692D01*
X168262374Y-138392226D01*
X168262414Y-138648547D01*
X168262489Y-138881846D01*
X168262613Y-139093310D01*
X168262796Y-139284127D01*
X168263053Y-139455486D01*
X168263393Y-139608575D01*
X168263831Y-139744582D01*
X168264377Y-139864696D01*
X168265045Y-139970105D01*
X168265846Y-140061998D01*
X168266792Y-140141563D01*
X168267895Y-140209988D01*
X168269169Y-140268461D01*
X168270624Y-140318172D01*
X168272273Y-140360307D01*
X168274128Y-140396057D01*
X168276202Y-140426608D01*
X168278505Y-140453149D01*
X168281052Y-140476870D01*
X168283853Y-140498957D01*
X168286921Y-140520599D01*
X168287000Y-140521134D01*
X168330133Y-140758372D01*
X168388178Y-140980309D01*
X168463168Y-141193534D01*
X168557131Y-141404639D01*
X168562685Y-141415904D01*
X168696123Y-141657444D01*
X168848694Y-141882867D01*
X169019259Y-142091360D01*
X169206678Y-142282109D01*
X169409810Y-142454297D01*
X169627515Y-142607112D01*
X169858654Y-142739739D01*
X170102086Y-142851363D01*
X170356671Y-142941169D01*
X170621269Y-143008343D01*
X170844226Y-143045878D01*
X170883905Y-143049305D01*
X170946658Y-143052415D01*
X171030248Y-143055206D01*
X171132440Y-143057679D01*
X171250997Y-143059834D01*
X171383685Y-143061672D01*
X171528267Y-143063192D01*
X171682507Y-143064395D01*
X171844170Y-143065281D01*
X172011020Y-143065850D01*
X172180820Y-143066103D01*
X172351336Y-143066038D01*
X172520332Y-143065658D01*
X172685571Y-143064961D01*
X172844817Y-143063948D01*
X172995836Y-143062619D01*
X173136390Y-143060975D01*
X173264245Y-143059015D01*
X173377165Y-143056740D01*
X173472913Y-143054149D01*
X173549254Y-143051244D01*
X173603953Y-143048024D01*
X173627632Y-143045656D01*
X173894017Y-142997114D01*
X174153668Y-142925394D01*
X174404795Y-142831465D01*
X174645610Y-142716300D01*
X174874323Y-142580869D01*
X175089146Y-142426142D01*
X175288289Y-142253091D01*
X175469963Y-142062686D01*
X175496661Y-142031424D01*
X175666926Y-141810012D01*
X175814035Y-141578165D01*
X175938017Y-141335824D01*
X176007954Y-141160500D01*
X171386500Y-141160500D01*
X170541950Y-141158722D01*
X169919650Y-140403535D01*
X169820414Y-140283058D01*
X169725614Y-140167871D01*
X169636529Y-140059535D01*
X169554439Y-139959609D01*
X169480625Y-139869657D01*
X169416366Y-139791238D01*
X169362943Y-139725912D01*
X169321634Y-139675242D01*
X169293720Y-139640788D01*
X169280481Y-139624111D01*
X169279800Y-139623183D01*
X169277488Y-139617764D01*
X169278072Y-139610432D01*
X169282666Y-139600002D01*
X169292384Y-139585288D01*
X169308341Y-139565106D01*
X169331652Y-139538271D01*
X169363431Y-139503598D01*
X169404794Y-139459902D01*
X169456854Y-139405998D01*
X169520727Y-139340701D01*
X169597527Y-139262826D01*
X169688369Y-139171188D01*
X169794368Y-139064602D01*
X169916638Y-138941884D01*
X169988334Y-138869983D01*
X170714418Y-138141948D01*
X170088434Y-137527131D01*
X169980274Y-137420916D01*
X169874955Y-137317521D01*
X169774280Y-137218715D01*
X169680049Y-137126263D01*
X169594066Y-137041933D01*
X169518132Y-136967492D01*
X169454049Y-136904708D01*
X169403620Y-136855347D01*
X169368645Y-136821177D01*
X169357919Y-136810731D01*
X169253388Y-136709150D01*
X170630850Y-135115978D01*
X171386500Y-135115300D01*
X171386500Y-141160500D01*
X176007954Y-141160500D01*
X176038898Y-141082929D01*
X176116704Y-140819419D01*
X176171464Y-140545234D01*
X176175101Y-140521134D01*
X176178176Y-140499487D01*
X176180983Y-140477425D01*
X176183536Y-140453759D01*
X176185846Y-140427301D01*
X176187925Y-140396862D01*
X176189785Y-140361255D01*
X176191439Y-140319290D01*
X176192899Y-140269779D01*
X176194177Y-140211535D01*
X176195284Y-140143368D01*
X176196234Y-140064090D01*
X176197038Y-139972514D01*
X176197709Y-139867450D01*
X176198258Y-139747710D01*
X176198698Y-139612106D01*
X176199041Y-139459450D01*
X176199299Y-139288553D01*
X176199485Y-139098227D01*
X176199609Y-138887283D01*
X176199686Y-138654534D01*
X176199726Y-138398790D01*
X176199742Y-138118864D01*
X176199742Y-138111692D01*
X176199748Y-137825580D01*
X176199735Y-137563663D01*
X176199684Y-137363200D01*
X174840900Y-137363200D01*
X174840900Y-140995400D01*
X174307500Y-140995400D01*
X174307500Y-140436600D01*
X174307291Y-140320245D01*
X174306693Y-140212122D01*
X174305749Y-140114789D01*
X174304504Y-140030805D01*
X174303000Y-139962731D01*
X174301282Y-139913125D01*
X174299393Y-139884547D01*
X174297975Y-139878425D01*
X174287506Y-139887227D01*
X174260560Y-139912397D01*
X174218697Y-139952417D01*
X174163477Y-140005771D01*
X174096459Y-140070940D01*
X174019203Y-140146408D01*
X173933269Y-140230657D01*
X173840216Y-140322170D01*
X173741603Y-140419431D01*
X173723300Y-140437513D01*
X173158150Y-140995974D01*
X172971163Y-140802012D01*
X172915968Y-140744340D01*
X172867498Y-140692894D01*
X172828285Y-140650427D01*
X172800859Y-140619693D01*
X172787753Y-140603446D01*
X172787013Y-140601700D01*
X172796406Y-140591685D01*
X172821963Y-140565858D01*
X172861707Y-140526182D01*
X172913659Y-140474621D01*
X172975840Y-140413137D01*
X173046272Y-140343693D01*
X173122974Y-140268252D01*
X173139100Y-140252414D01*
X173236046Y-140157198D01*
X173345642Y-140049518D01*
X173462437Y-139934733D01*
X173580981Y-139818198D01*
X173695826Y-139705272D01*
X173801520Y-139601312D01*
X173848238Y-139555346D01*
X174208125Y-139201214D01*
X173880040Y-138869582D01*
X173792541Y-138781146D01*
X173691858Y-138679400D01*
X173582679Y-138569082D01*
X173469694Y-138454930D01*
X173357592Y-138341680D01*
X173251061Y-138234070D01*
X173170903Y-138153111D01*
X173090063Y-138071460D01*
X173014808Y-137995434D01*
X172947005Y-137926924D01*
X172888526Y-137867818D01*
X172841238Y-137820005D01*
X172807012Y-137785376D01*
X172787716Y-137765820D01*
X172784109Y-137762135D01*
X172790948Y-137751766D01*
X172813324Y-137726247D01*
X172848702Y-137688282D01*
X172894549Y-137640571D01*
X172948331Y-137585817D01*
X172968153Y-137565896D01*
X173157940Y-137375792D01*
X173732720Y-137950469D01*
X174307500Y-138525145D01*
X174307500Y-137363200D01*
X174840900Y-137363200D01*
X176199684Y-137363200D01*
X176199674Y-137324736D01*
X176199541Y-137107595D01*
X176199308Y-136911034D01*
X176198951Y-136733849D01*
X176198441Y-136574836D01*
X176197753Y-136432788D01*
X176196861Y-136306502D01*
X176195738Y-136194772D01*
X176194359Y-136096394D01*
X176192696Y-136010162D01*
X176190724Y-135934873D01*
X176188415Y-135869321D01*
X176185745Y-135812301D01*
X176182686Y-135762608D01*
X176179213Y-135719038D01*
X176175298Y-135680386D01*
X176170916Y-135645447D01*
X176166041Y-135613016D01*
X176160645Y-135581888D01*
X176154704Y-135550859D01*
X176148190Y-135518723D01*
X176142552Y-135491424D01*
X176082860Y-135257498D01*
X176000719Y-135022350D01*
X175898126Y-134791656D01*
X175892157Y-134779664D01*
X175840769Y-134679756D01*
X175792902Y-134593662D01*
X175743687Y-134513526D01*
X175688255Y-134431493D01*
X175621737Y-134339706D01*
X175608216Y-134321550D01*
X175435633Y-134111407D01*
X175246189Y-133919838D01*
X175041071Y-133747546D01*
X174821467Y-133595233D01*
X174588563Y-133463600D01*
X174343548Y-133353351D01*
X174087607Y-133265187D01*
X173821930Y-133199811D01*
X173666150Y-133172947D01*
X173635951Y-133168658D01*
X173606412Y-133164867D01*
X173575838Y-133161544D01*
X173542536Y-133158658D01*
X173504812Y-133156178D01*
X173460972Y-133154074D01*
X173409322Y-133152315D01*
X173348168Y-133150870D01*
X173275815Y-133149709D01*
X173190570Y-133148801D01*
X173090738Y-133148114D01*
X172974626Y-133147619D01*
X172840540Y-133147285D01*
X172686785Y-133147081D01*
X172511668Y-133146976D01*
X172313494Y-133146939D01*
X172231050Y-133146937D01*
X172023588Y-133146955D01*
X172023588Y-133146955D01*
G37*
X172023588Y-133146955D02*
X171839832Y-133147030D01*
X171678088Y-133147193D01*
X171536662Y-133147474D01*
X171413860Y-133147903D01*
X171307987Y-133148513D01*
X171217350Y-133149333D01*
X171140255Y-133150393D01*
X171075008Y-133151726D01*
X171019914Y-133153361D01*
X170973280Y-133155329D01*
X170933412Y-133157661D01*
X170898615Y-133160388D01*
X170867196Y-133163540D01*
X170837460Y-133167148D01*
X170807714Y-133171242D01*
X170795950Y-133172947D01*
X170525241Y-133224983D01*
X170263589Y-133300207D01*
X170012184Y-133397918D01*
X169772211Y-133517414D01*
X169544860Y-133657992D01*
X169331316Y-133818950D01*
X169132767Y-133999586D01*
X168950401Y-134199197D01*
X168853885Y-134321550D01*
X168784855Y-134415925D01*
X168727788Y-134499134D01*
X168677813Y-134579032D01*
X168630063Y-134663474D01*
X168579667Y-134760317D01*
X168569944Y-134779664D01*
X168466323Y-135009964D01*
X168383048Y-135245018D01*
X168322117Y-135479151D01*
X168319549Y-135491424D01*
X168312559Y-135525311D01*
X168306161Y-135557128D01*
X168300331Y-135588081D01*
X168295042Y-135619373D01*
X168290268Y-135652210D01*
X168285982Y-135687797D01*
X168282158Y-135727338D01*
X168278769Y-135772039D01*
X168275791Y-135823104D01*
X168273195Y-135881737D01*
X168270956Y-135949145D01*
X168269048Y-136026531D01*
X168267444Y-136115100D01*
X168266118Y-136216058D01*
X168265043Y-136330609D01*
X168264194Y-136459958D01*
X168263545Y-136605310D01*
X168263067Y-136767869D01*
X168262737Y-136948841D01*
X168262526Y-137149430D01*
X168262410Y-137370842D01*
X168262361Y-137614280D01*
X168262353Y-137880950D01*
X168262359Y-138111692D01*
X168262374Y-138392226D01*
X168262414Y-138648547D01*
X168262489Y-138881846D01*
X168262613Y-139093310D01*
X168262796Y-139284127D01*
X168263053Y-139455486D01*
X168263393Y-139608575D01*
X168263831Y-139744582D01*
X168264377Y-139864696D01*
X168265045Y-139970105D01*
X168265846Y-140061998D01*
X168266792Y-140141563D01*
X168267895Y-140209988D01*
X168269169Y-140268461D01*
X168270624Y-140318172D01*
X168272273Y-140360307D01*
X168274128Y-140396057D01*
X168276202Y-140426608D01*
X168278505Y-140453149D01*
X168281052Y-140476870D01*
X168283853Y-140498957D01*
X168286921Y-140520599D01*
X168287000Y-140521134D01*
X168330133Y-140758372D01*
X168388178Y-140980309D01*
X168463168Y-141193534D01*
X168557131Y-141404639D01*
X168562685Y-141415904D01*
X168696123Y-141657444D01*
X168848694Y-141882867D01*
X169019259Y-142091360D01*
X169206678Y-142282109D01*
X169409810Y-142454297D01*
X169627515Y-142607112D01*
X169858654Y-142739739D01*
X170102086Y-142851363D01*
X170356671Y-142941169D01*
X170621269Y-143008343D01*
X170844226Y-143045878D01*
X170883905Y-143049305D01*
X170946658Y-143052415D01*
X171030248Y-143055206D01*
X171132440Y-143057679D01*
X171250997Y-143059834D01*
X171383685Y-143061672D01*
X171528267Y-143063192D01*
X171682507Y-143064395D01*
X171844170Y-143065281D01*
X172011020Y-143065850D01*
X172180820Y-143066103D01*
X172351336Y-143066038D01*
X172520332Y-143065658D01*
X172685571Y-143064961D01*
X172844817Y-143063948D01*
X172995836Y-143062619D01*
X173136390Y-143060975D01*
X173264245Y-143059015D01*
X173377165Y-143056740D01*
X173472913Y-143054149D01*
X173549254Y-143051244D01*
X173603953Y-143048024D01*
X173627632Y-143045656D01*
X173894017Y-142997114D01*
X174153668Y-142925394D01*
X174404795Y-142831465D01*
X174645610Y-142716300D01*
X174874323Y-142580869D01*
X175089146Y-142426142D01*
X175288289Y-142253091D01*
X175469963Y-142062686D01*
X175496661Y-142031424D01*
X175666926Y-141810012D01*
X175814035Y-141578165D01*
X175938017Y-141335824D01*
X176007954Y-141160500D01*
X171386500Y-141160500D01*
X170541950Y-141158722D01*
X169919650Y-140403535D01*
X169820414Y-140283058D01*
X169725614Y-140167871D01*
X169636529Y-140059535D01*
X169554439Y-139959609D01*
X169480625Y-139869657D01*
X169416366Y-139791238D01*
X169362943Y-139725912D01*
X169321634Y-139675242D01*
X169293720Y-139640788D01*
X169280481Y-139624111D01*
X169279800Y-139623183D01*
X169277488Y-139617764D01*
X169278072Y-139610432D01*
X169282666Y-139600002D01*
X169292384Y-139585288D01*
X169308341Y-139565106D01*
X169331652Y-139538271D01*
X169363431Y-139503598D01*
X169404794Y-139459902D01*
X169456854Y-139405998D01*
X169520727Y-139340701D01*
X169597527Y-139262826D01*
X169688369Y-139171188D01*
X169794368Y-139064602D01*
X169916638Y-138941884D01*
X169988334Y-138869983D01*
X170714418Y-138141948D01*
X170088434Y-137527131D01*
X169980274Y-137420916D01*
X169874955Y-137317521D01*
X169774280Y-137218715D01*
X169680049Y-137126263D01*
X169594066Y-137041933D01*
X169518132Y-136967492D01*
X169454049Y-136904708D01*
X169403620Y-136855347D01*
X169368645Y-136821177D01*
X169357919Y-136810731D01*
X169253388Y-136709150D01*
X170630850Y-135115978D01*
X171386500Y-135115300D01*
X171386500Y-141160500D01*
X176007954Y-141160500D01*
X176038898Y-141082929D01*
X176116704Y-140819419D01*
X176171464Y-140545234D01*
X176175101Y-140521134D01*
X176178176Y-140499487D01*
X176180983Y-140477425D01*
X176183536Y-140453759D01*
X176185846Y-140427301D01*
X176187925Y-140396862D01*
X176189785Y-140361255D01*
X176191439Y-140319290D01*
X176192899Y-140269779D01*
X176194177Y-140211535D01*
X176195284Y-140143368D01*
X176196234Y-140064090D01*
X176197038Y-139972514D01*
X176197709Y-139867450D01*
X176198258Y-139747710D01*
X176198698Y-139612106D01*
X176199041Y-139459450D01*
X176199299Y-139288553D01*
X176199485Y-139098227D01*
X176199609Y-138887283D01*
X176199686Y-138654534D01*
X176199726Y-138398790D01*
X176199742Y-138118864D01*
X176199742Y-138111692D01*
X176199748Y-137825580D01*
X176199735Y-137563663D01*
X176199684Y-137363200D01*
X174840900Y-137363200D01*
X174840900Y-140995400D01*
X174307500Y-140995400D01*
X174307500Y-140436600D01*
X174307291Y-140320245D01*
X174306693Y-140212122D01*
X174305749Y-140114789D01*
X174304504Y-140030805D01*
X174303000Y-139962731D01*
X174301282Y-139913125D01*
X174299393Y-139884547D01*
X174297975Y-139878425D01*
X174287506Y-139887227D01*
X174260560Y-139912397D01*
X174218697Y-139952417D01*
X174163477Y-140005771D01*
X174096459Y-140070940D01*
X174019203Y-140146408D01*
X173933269Y-140230657D01*
X173840216Y-140322170D01*
X173741603Y-140419431D01*
X173723300Y-140437513D01*
X173158150Y-140995974D01*
X172971163Y-140802012D01*
X172915968Y-140744340D01*
X172867498Y-140692894D01*
X172828285Y-140650427D01*
X172800859Y-140619693D01*
X172787753Y-140603446D01*
X172787013Y-140601700D01*
X172796406Y-140591685D01*
X172821963Y-140565858D01*
X172861707Y-140526182D01*
X172913659Y-140474621D01*
X172975840Y-140413137D01*
X173046272Y-140343693D01*
X173122974Y-140268252D01*
X173139100Y-140252414D01*
X173236046Y-140157198D01*
X173345642Y-140049518D01*
X173462437Y-139934733D01*
X173580981Y-139818198D01*
X173695826Y-139705272D01*
X173801520Y-139601312D01*
X173848238Y-139555346D01*
X174208125Y-139201214D01*
X173880040Y-138869582D01*
X173792541Y-138781146D01*
X173691858Y-138679400D01*
X173582679Y-138569082D01*
X173469694Y-138454930D01*
X173357592Y-138341680D01*
X173251061Y-138234070D01*
X173170903Y-138153111D01*
X173090063Y-138071460D01*
X173014808Y-137995434D01*
X172947005Y-137926924D01*
X172888526Y-137867818D01*
X172841238Y-137820005D01*
X172807012Y-137785376D01*
X172787716Y-137765820D01*
X172784109Y-137762135D01*
X172790948Y-137751766D01*
X172813324Y-137726247D01*
X172848702Y-137688282D01*
X172894549Y-137640571D01*
X172948331Y-137585817D01*
X172968153Y-137565896D01*
X173157940Y-137375792D01*
X173732720Y-137950469D01*
X174307500Y-138525145D01*
X174307500Y-137363200D01*
X174840900Y-137363200D01*
X176199684Y-137363200D01*
X176199674Y-137324736D01*
X176199541Y-137107595D01*
X176199308Y-136911034D01*
X176198951Y-136733849D01*
X176198441Y-136574836D01*
X176197753Y-136432788D01*
X176196861Y-136306502D01*
X176195738Y-136194772D01*
X176194359Y-136096394D01*
X176192696Y-136010162D01*
X176190724Y-135934873D01*
X176188415Y-135869321D01*
X176185745Y-135812301D01*
X176182686Y-135762608D01*
X176179213Y-135719038D01*
X176175298Y-135680386D01*
X176170916Y-135645447D01*
X176166041Y-135613016D01*
X176160645Y-135581888D01*
X176154704Y-135550859D01*
X176148190Y-135518723D01*
X176142552Y-135491424D01*
X176082860Y-135257498D01*
X176000719Y-135022350D01*
X175898126Y-134791656D01*
X175892157Y-134779664D01*
X175840769Y-134679756D01*
X175792902Y-134593662D01*
X175743687Y-134513526D01*
X175688255Y-134431493D01*
X175621737Y-134339706D01*
X175608216Y-134321550D01*
X175435633Y-134111407D01*
X175246189Y-133919838D01*
X175041071Y-133747546D01*
X174821467Y-133595233D01*
X174588563Y-133463600D01*
X174343548Y-133353351D01*
X174087607Y-133265187D01*
X173821930Y-133199811D01*
X173666150Y-133172947D01*
X173635951Y-133168658D01*
X173606412Y-133164867D01*
X173575838Y-133161544D01*
X173542536Y-133158658D01*
X173504812Y-133156178D01*
X173460972Y-133154074D01*
X173409322Y-133152315D01*
X173348168Y-133150870D01*
X173275815Y-133149709D01*
X173190570Y-133148801D01*
X173090738Y-133148114D01*
X172974626Y-133147619D01*
X172840540Y-133147285D01*
X172686785Y-133147081D01*
X172511668Y-133146976D01*
X172313494Y-133146939D01*
X172231050Y-133146937D01*
X172023588Y-133146955D01*
G04 #@! TD*
M02*
