G04 #@! TF.GenerationSoftware,KiCad,Pcbnew,(5.0.0)*
G04 #@! TF.CreationDate,2020-06-17T11:17:21-06:00*
G04 #@! TF.ProjectId,pogoprogB,706F676F70726F67422E6B696361645F,rev?*
G04 #@! TF.SameCoordinates,Original*
G04 #@! TF.FileFunction,Soldermask,Bot*
G04 #@! TF.FilePolarity,Negative*
%FSLAX46Y46*%
G04 Gerber Fmt 4.6, Leading zero omitted, Abs format (unit mm)*
G04 Created by KiCad (PCBNEW (5.0.0)) date 06/17/20 11:17:21*
%MOMM*%
%LPD*%
G01*
G04 APERTURE LIST*
%ADD10C,0.150000*%
G04 APERTURE END LIST*
D10*
G36*
X165582630Y-121590299D02*
X165742855Y-121638903D01*
X165890520Y-121717831D01*
X166019949Y-121824051D01*
X166126169Y-121953480D01*
X166205097Y-122101145D01*
X166253701Y-122261370D01*
X166270112Y-122428000D01*
X166253701Y-122594630D01*
X166205097Y-122754855D01*
X166126169Y-122902520D01*
X166019949Y-123031949D01*
X165890520Y-123138169D01*
X165742855Y-123217097D01*
X165582630Y-123265701D01*
X165457752Y-123278000D01*
X165374248Y-123278000D01*
X165249370Y-123265701D01*
X165089145Y-123217097D01*
X164941480Y-123138169D01*
X164812051Y-123031949D01*
X164705831Y-122902520D01*
X164626903Y-122754855D01*
X164578299Y-122594630D01*
X164561888Y-122428000D01*
X164578299Y-122261370D01*
X164626903Y-122101145D01*
X164705831Y-121953480D01*
X164812051Y-121824051D01*
X164941480Y-121717831D01*
X165089145Y-121638903D01*
X165249370Y-121590299D01*
X165374248Y-121578000D01*
X165457752Y-121578000D01*
X165582630Y-121590299D01*
X165582630Y-121590299D01*
G37*
G36*
X163042630Y-121590299D02*
X163202855Y-121638903D01*
X163350520Y-121717831D01*
X163479949Y-121824051D01*
X163586169Y-121953480D01*
X163665097Y-122101145D01*
X163713701Y-122261370D01*
X163730112Y-122428000D01*
X163713701Y-122594630D01*
X163665097Y-122754855D01*
X163586169Y-122902520D01*
X163479949Y-123031949D01*
X163350520Y-123138169D01*
X163202855Y-123217097D01*
X163042630Y-123265701D01*
X162917752Y-123278000D01*
X162834248Y-123278000D01*
X162709370Y-123265701D01*
X162549145Y-123217097D01*
X162401480Y-123138169D01*
X162272051Y-123031949D01*
X162165831Y-122902520D01*
X162086903Y-122754855D01*
X162038299Y-122594630D01*
X162021888Y-122428000D01*
X162038299Y-122261370D01*
X162086903Y-122101145D01*
X162165831Y-121953480D01*
X162272051Y-121824051D01*
X162401480Y-121717831D01*
X162549145Y-121638903D01*
X162709370Y-121590299D01*
X162834248Y-121578000D01*
X162917752Y-121578000D01*
X163042630Y-121590299D01*
X163042630Y-121590299D01*
G37*
G36*
X160502630Y-121590299D02*
X160662855Y-121638903D01*
X160810520Y-121717831D01*
X160939949Y-121824051D01*
X161046169Y-121953480D01*
X161125097Y-122101145D01*
X161173701Y-122261370D01*
X161190112Y-122428000D01*
X161173701Y-122594630D01*
X161125097Y-122754855D01*
X161046169Y-122902520D01*
X160939949Y-123031949D01*
X160810520Y-123138169D01*
X160662855Y-123217097D01*
X160502630Y-123265701D01*
X160377752Y-123278000D01*
X160294248Y-123278000D01*
X160169370Y-123265701D01*
X160009145Y-123217097D01*
X159861480Y-123138169D01*
X159732051Y-123031949D01*
X159625831Y-122902520D01*
X159546903Y-122754855D01*
X159498299Y-122594630D01*
X159481888Y-122428000D01*
X159498299Y-122261370D01*
X159546903Y-122101145D01*
X159625831Y-121953480D01*
X159732051Y-121824051D01*
X159861480Y-121717831D01*
X160009145Y-121638903D01*
X160169370Y-121590299D01*
X160294248Y-121578000D01*
X160377752Y-121578000D01*
X160502630Y-121590299D01*
X160502630Y-121590299D01*
G37*
G36*
X158646000Y-123278000D02*
X156946000Y-123278000D01*
X156946000Y-121578000D01*
X158646000Y-121578000D01*
X158646000Y-123278000D01*
X158646000Y-123278000D01*
G37*
M02*
