G04 #@! TF.GenerationSoftware,KiCad,Pcbnew,(5.0.0)*
G04 #@! TF.CreationDate,2020-06-17T11:17:21-06:00*
G04 #@! TF.ProjectId,pogoprogB,706F676F70726F67422E6B696361645F,rev?*
G04 #@! TF.SameCoordinates,Original*
G04 #@! TF.FileFunction,Profile,NP*
%FSLAX46Y46*%
G04 Gerber Fmt 4.6, Leading zero omitted, Abs format (unit mm)*
G04 Created by KiCad (PCBNEW (5.0.0)) date 06/17/20 11:17:21*
%MOMM*%
%LPD*%
G01*
G04 APERTURE LIST*
%ADD10C,0.010000*%
G04 APERTURE END LIST*
D10*
X153836428Y-156063017D02*
X153846194Y-156398343D01*
X153846194Y-156398343D02*
X153886075Y-156640125D01*
X153886075Y-156640125D02*
X153999333Y-156929789D01*
X153999333Y-156929789D02*
X154162719Y-157141373D01*
X154162719Y-157141373D02*
X154373620Y-157291927D01*
X154373620Y-157291927D02*
X154672031Y-157406495D01*
X154672031Y-157406495D02*
X154922047Y-157453306D01*
X154922047Y-157453306D02*
X155247539Y-157474128D01*
X155247539Y-157474128D02*
X167947539Y-157474128D01*
X169358650Y-156063017D02*
X169359738Y-156220122D01*
X169359738Y-156220122D02*
X169353730Y-156353601D01*
X169353730Y-156353601D02*
X169336326Y-156509002D01*
X169336326Y-156509002D02*
X169310348Y-156640589D01*
X169310348Y-156640589D02*
X169197275Y-156930295D01*
X169197275Y-156930295D02*
X169033498Y-157142051D01*
X169033498Y-157142051D02*
X168822454Y-157292273D01*
X168822454Y-157292273D02*
X168523477Y-157406679D01*
X168523477Y-157406679D02*
X168273268Y-157453360D01*
X168273268Y-157453360D02*
X167947539Y-157474128D01*
X155247539Y-157474128D02*
X155247539Y-157474128D01*
X153836428Y-140540795D02*
X153836428Y-156063017D01*
X172388213Y-138091191D02*
X171672169Y-138099783D01*
X171672169Y-138099783D02*
X171215235Y-138128941D01*
X171215235Y-138128941D02*
X170501678Y-138258265D01*
X170501678Y-138258265D02*
X170092273Y-138431646D01*
X170092273Y-138431646D02*
X169857164Y-138611247D01*
X169857164Y-138611247D02*
X169674208Y-138834436D01*
X169674208Y-138834436D02*
X169554524Y-139066400D01*
X169554524Y-139066400D02*
X169456030Y-139375413D01*
X169456030Y-139375413D02*
X169384320Y-139823977D01*
X169384320Y-139823977D02*
X169358650Y-140541899D01*
X147011321Y-120111505D02*
X146801185Y-119406583D01*
X146801185Y-119406583D02*
X146741046Y-118670914D01*
X146741046Y-118670914D02*
X146767707Y-118305435D01*
X146767707Y-118305435D02*
X146831681Y-117939659D01*
X146831681Y-117939659D02*
X146930089Y-117586235D01*
X146930089Y-117586235D02*
X147063553Y-117240311D01*
X147063553Y-117240311D02*
X147905961Y-116025647D01*
X147905961Y-116025647D02*
X149121739Y-115227116D01*
X149121739Y-115227116D02*
X149725665Y-115036001D01*
X149725665Y-115036001D02*
X150378599Y-114939420D01*
X150378599Y-114939420D02*
X151005113Y-114940057D01*
X151005113Y-114940057D02*
X151666153Y-115030626D01*
X151666153Y-115030626D02*
X151977200Y-115103968D01*
X151977200Y-115103968D02*
X152290961Y-115197856D01*
X152290961Y-115197856D02*
X152592853Y-115307396D01*
X152592853Y-115307396D02*
X152892545Y-115435461D01*
X152892545Y-115435461D02*
X153467325Y-115739087D01*
X153467325Y-115739087D02*
X154000000Y-116100000D01*
X176054635Y-120111505D02*
X176178687Y-119762941D01*
X176178687Y-119762941D02*
X176265283Y-119405265D01*
X176265283Y-119405265D02*
X176314043Y-119041127D01*
X176314043Y-119041127D02*
X176324911Y-118670914D01*
X176324911Y-118670914D02*
X176236320Y-117948520D01*
X176236320Y-117948520D02*
X176002404Y-117240311D01*
X176002404Y-117240311D02*
X175159997Y-116025647D01*
X175159997Y-116025647D02*
X173944219Y-115227116D01*
X173944219Y-115227116D02*
X172781494Y-114946769D01*
X172781494Y-114946769D02*
X171433745Y-115012579D01*
X171433745Y-115012579D02*
X170224473Y-115375482D01*
X170224473Y-115375482D02*
X169100000Y-116000000D01*
X147011321Y-132912543D02*
X146742219Y-134327915D01*
X146742219Y-134327915D02*
X147063558Y-135783735D01*
X147063558Y-135783735D02*
X147905967Y-136998397D01*
X147905967Y-136998397D02*
X149121745Y-137796926D01*
X149121745Y-137796926D02*
X149948008Y-138033848D01*
X149948008Y-138033848D02*
X150813159Y-138088233D01*
X176054643Y-132912560D02*
X176264775Y-133617483D01*
X176264775Y-133617483D02*
X176324910Y-134353153D01*
X176324910Y-134353153D02*
X176236313Y-135075546D01*
X176236313Y-135075546D02*
X176002392Y-135783753D01*
X176002392Y-135783753D02*
X175159976Y-136998412D01*
X175159976Y-136998412D02*
X173944194Y-137796935D01*
X173944194Y-137796935D02*
X173184044Y-138021639D01*
X173184044Y-138021639D02*
X172388213Y-138091191D01*
X147011321Y-120111505D02*
X147777006Y-121665260D01*
X147777006Y-121665260D02*
X148320827Y-123205167D01*
X148320827Y-123205167D02*
X148679633Y-124871051D01*
X148679633Y-124871051D02*
X148808123Y-126524871D01*
X148808123Y-126524871D02*
X148356858Y-129912226D01*
X148356858Y-129912226D02*
X147011321Y-132912543D01*
X150813159Y-138088233D02*
X151513079Y-138078938D01*
X151513079Y-138078938D02*
X151983130Y-138104183D01*
X151983130Y-138104183D02*
X152674125Y-138236320D01*
X152674125Y-138236320D02*
X153095106Y-138429018D01*
X153095106Y-138429018D02*
X153321373Y-138612746D01*
X153321373Y-138612746D02*
X153503455Y-138840904D01*
X153503455Y-138840904D02*
X153625651Y-139075679D01*
X153625651Y-139075679D02*
X153726887Y-139378691D01*
X153726887Y-139378691D02*
X153807631Y-139841982D01*
X153807631Y-139841982D02*
X153836428Y-140540795D01*
X176054635Y-120111505D02*
X174831869Y-123259382D01*
X174831869Y-123259382D02*
X174434377Y-126512021D01*
X174434377Y-126512021D02*
X174853097Y-129808773D01*
X174853097Y-129808773D02*
X176054643Y-132912560D01*
X154000000Y-116100000D02*
X155866474Y-117030379D01*
X155866474Y-117030379D02*
X157649271Y-117677491D01*
X157649271Y-117677491D02*
X159642764Y-118120146D01*
X159642764Y-118120146D02*
X161574755Y-118265359D01*
X161574755Y-118265359D02*
X163537304Y-118118358D01*
X163537304Y-118118358D02*
X165496441Y-117668979D01*
X165496441Y-117668979D02*
X167278016Y-116984350D01*
X167278016Y-116984350D02*
X169100000Y-116000000D01*
X169358650Y-156063017D02*
X169358650Y-140541899D01*
M02*
