G04 #@! TF.GenerationSoftware,KiCad,Pcbnew,(5.0.0)*
G04 #@! TF.CreationDate,2020-06-17T11:17:21-06:00*
G04 #@! TF.ProjectId,pogoprogB,706F676F70726F67422E6B696361645F,rev?*
G04 #@! TF.SameCoordinates,Original*
G04 #@! TF.FileFunction,Legend,Bot*
G04 #@! TF.FilePolarity,Positive*
%FSLAX46Y46*%
G04 Gerber Fmt 4.6, Leading zero omitted, Abs format (unit mm)*
G04 Created by KiCad (PCBNEW (5.0.0)) date 06/17/20 11:17:21*
%MOMM*%
%LPD*%
G01*
G04 APERTURE LIST*
%ADD10C,0.150000*%
%ADD11C,0.300000*%
%ADD12C,0.010000*%
G04 APERTURE END LIST*
D10*
X164400000Y-143252380D02*
X164304761Y-143252380D01*
X164209523Y-143300000D01*
X164161904Y-143347619D01*
X164114285Y-143442857D01*
X164066666Y-143633333D01*
X164066666Y-143871428D01*
X164114285Y-144061904D01*
X164161904Y-144157142D01*
X164209523Y-144204761D01*
X164304761Y-144252380D01*
X164400000Y-144252380D01*
X164495238Y-144204761D01*
X164542857Y-144157142D01*
X164590476Y-144061904D01*
X164638095Y-143871428D01*
X164638095Y-143633333D01*
X164590476Y-143442857D01*
X164542857Y-143347619D01*
X164495238Y-143300000D01*
X164400000Y-143252380D01*
X163638095Y-144157142D02*
X163590476Y-144204761D01*
X163638095Y-144252380D01*
X163685714Y-144204761D01*
X163638095Y-144157142D01*
X163638095Y-144252380D01*
X162638095Y-144252380D02*
X163209523Y-144252380D01*
X162923809Y-144252380D02*
X162923809Y-143252380D01*
X163019047Y-143395238D01*
X163114285Y-143490476D01*
X163209523Y-143538095D01*
X161447619Y-143585714D02*
X161447619Y-144585714D01*
X161447619Y-143633333D02*
X161352380Y-143585714D01*
X161161904Y-143585714D01*
X161066666Y-143633333D01*
X161019047Y-143680952D01*
X160971428Y-143776190D01*
X160971428Y-144061904D01*
X161019047Y-144157142D01*
X161066666Y-144204761D01*
X161161904Y-144252380D01*
X161352380Y-144252380D01*
X161447619Y-144204761D01*
X160542857Y-144252380D02*
X160542857Y-143585714D01*
X160542857Y-143252380D02*
X160590476Y-143300000D01*
X160542857Y-143347619D01*
X160495238Y-143300000D01*
X160542857Y-143252380D01*
X160542857Y-143347619D01*
X160209523Y-143585714D02*
X159828571Y-143585714D01*
X160066666Y-143252380D02*
X160066666Y-144109523D01*
X160019047Y-144204761D01*
X159923809Y-144252380D01*
X159828571Y-144252380D01*
X159066666Y-144204761D02*
X159161904Y-144252380D01*
X159352380Y-144252380D01*
X159447619Y-144204761D01*
X159495238Y-144157142D01*
X159542857Y-144061904D01*
X159542857Y-143776190D01*
X159495238Y-143680952D01*
X159447619Y-143633333D01*
X159352380Y-143585714D01*
X159161904Y-143585714D01*
X159066666Y-143633333D01*
X158638095Y-144252380D02*
X158638095Y-143252380D01*
X158209523Y-144252380D02*
X158209523Y-143728571D01*
X158257142Y-143633333D01*
X158352380Y-143585714D01*
X158495238Y-143585714D01*
X158590476Y-143633333D01*
X158638095Y-143680952D01*
D11*
X167812333Y-137683761D02*
X167812333Y-135683761D01*
X167050428Y-135683761D01*
X166859952Y-135779000D01*
X166764714Y-135874238D01*
X166669476Y-136064714D01*
X166669476Y-136350428D01*
X166764714Y-136540904D01*
X166859952Y-136636142D01*
X167050428Y-136731380D01*
X167812333Y-136731380D01*
X165526619Y-137683761D02*
X165717095Y-137588523D01*
X165812333Y-137493285D01*
X165907571Y-137302809D01*
X165907571Y-136731380D01*
X165812333Y-136540904D01*
X165717095Y-136445666D01*
X165526619Y-136350428D01*
X165240904Y-136350428D01*
X165050428Y-136445666D01*
X164955190Y-136540904D01*
X164859952Y-136731380D01*
X164859952Y-137302809D01*
X164955190Y-137493285D01*
X165050428Y-137588523D01*
X165240904Y-137683761D01*
X165526619Y-137683761D01*
X163145666Y-136350428D02*
X163145666Y-137969476D01*
X163240904Y-138159952D01*
X163336142Y-138255190D01*
X163526619Y-138350428D01*
X163812333Y-138350428D01*
X164002809Y-138255190D01*
X163145666Y-137588523D02*
X163336142Y-137683761D01*
X163717095Y-137683761D01*
X163907571Y-137588523D01*
X164002809Y-137493285D01*
X164098047Y-137302809D01*
X164098047Y-136731380D01*
X164002809Y-136540904D01*
X163907571Y-136445666D01*
X163717095Y-136350428D01*
X163336142Y-136350428D01*
X163145666Y-136445666D01*
X161907571Y-137683761D02*
X162098047Y-137588523D01*
X162193285Y-137493285D01*
X162288523Y-137302809D01*
X162288523Y-136731380D01*
X162193285Y-136540904D01*
X162098047Y-136445666D01*
X161907571Y-136350428D01*
X161621857Y-136350428D01*
X161431380Y-136445666D01*
X161336142Y-136540904D01*
X161240904Y-136731380D01*
X161240904Y-137302809D01*
X161336142Y-137493285D01*
X161431380Y-137588523D01*
X161621857Y-137683761D01*
X161907571Y-137683761D01*
X160479000Y-137588523D02*
X160193285Y-137683761D01*
X159717095Y-137683761D01*
X159526619Y-137588523D01*
X159431380Y-137493285D01*
X159336142Y-137302809D01*
X159336142Y-137112333D01*
X159431380Y-136921857D01*
X159526619Y-136826619D01*
X159717095Y-136731380D01*
X160098047Y-136636142D01*
X160288523Y-136540904D01*
X160383761Y-136445666D01*
X160479000Y-136255190D01*
X160479000Y-136064714D01*
X160383761Y-135874238D01*
X160288523Y-135779000D01*
X160098047Y-135683761D01*
X159621857Y-135683761D01*
X159336142Y-135779000D01*
X158669476Y-135683761D02*
X158193285Y-137683761D01*
X157812333Y-136255190D01*
X157431380Y-137683761D01*
X156955190Y-135683761D01*
X156193285Y-137683761D02*
X156193285Y-135683761D01*
X155717095Y-135683761D01*
X155431380Y-135779000D01*
X155240904Y-135969476D01*
X155145666Y-136159952D01*
X155050428Y-136540904D01*
X155050428Y-136826619D01*
X155145666Y-137207571D01*
X155240904Y-137398047D01*
X155431380Y-137588523D01*
X155717095Y-137683761D01*
X156193285Y-137683761D01*
D12*
G04 #@! TO.C,G\002A\002A\002A*
G36*
X160069482Y-127123617D02*
X160045512Y-127150326D01*
X160008234Y-127192564D01*
X159959278Y-127248465D01*
X159900270Y-127316166D01*
X159832839Y-127393803D01*
X159758613Y-127479511D01*
X159679220Y-127571426D01*
X159676418Y-127574675D01*
X159595946Y-127667945D01*
X159519867Y-127756080D01*
X159449927Y-127837060D01*
X159387873Y-127908866D01*
X159335452Y-127969478D01*
X159294408Y-128016876D01*
X159266488Y-128049039D01*
X159253531Y-128063846D01*
X159227756Y-128092643D01*
X159644703Y-128501996D01*
X159730084Y-128585685D01*
X159810050Y-128663802D01*
X159882755Y-128734563D01*
X159946352Y-128796183D01*
X159998993Y-128846875D01*
X160038833Y-128884856D01*
X160064024Y-128908339D01*
X160072575Y-128915583D01*
X160074389Y-128903930D01*
X160076105Y-128868854D01*
X160077702Y-128812330D01*
X160079155Y-128736335D01*
X160080439Y-128642844D01*
X160081530Y-128533834D01*
X160082405Y-128411281D01*
X160083040Y-128277161D01*
X160083411Y-128133450D01*
X160083500Y-128017058D01*
X160083432Y-127868160D01*
X160083235Y-127726923D01*
X160082919Y-127595364D01*
X160082497Y-127475499D01*
X160081979Y-127369346D01*
X160081377Y-127278920D01*
X160080701Y-127206239D01*
X160079963Y-127153320D01*
X160079173Y-127122178D01*
X160078516Y-127114300D01*
X160069482Y-127123617D01*
X160069482Y-127123617D01*
G37*
X160069482Y-127123617D02*
X160045512Y-127150326D01*
X160008234Y-127192564D01*
X159959278Y-127248465D01*
X159900270Y-127316166D01*
X159832839Y-127393803D01*
X159758613Y-127479511D01*
X159679220Y-127571426D01*
X159676418Y-127574675D01*
X159595946Y-127667945D01*
X159519867Y-127756080D01*
X159449927Y-127837060D01*
X159387873Y-127908866D01*
X159335452Y-127969478D01*
X159294408Y-128016876D01*
X159266488Y-128049039D01*
X159253531Y-128063846D01*
X159227756Y-128092643D01*
X159644703Y-128501996D01*
X159730084Y-128585685D01*
X159810050Y-128663802D01*
X159882755Y-128734563D01*
X159946352Y-128796183D01*
X159998993Y-128846875D01*
X160038833Y-128884856D01*
X160064024Y-128908339D01*
X160072575Y-128915583D01*
X160074389Y-128903930D01*
X160076105Y-128868854D01*
X160077702Y-128812330D01*
X160079155Y-128736335D01*
X160080439Y-128642844D01*
X160081530Y-128533834D01*
X160082405Y-128411281D01*
X160083040Y-128277161D01*
X160083411Y-128133450D01*
X160083500Y-128017058D01*
X160083432Y-127868160D01*
X160083235Y-127726923D01*
X160082919Y-127595364D01*
X160082497Y-127475499D01*
X160081979Y-127369346D01*
X160081377Y-127278920D01*
X160080701Y-127206239D01*
X160079963Y-127153320D01*
X160079173Y-127122178D01*
X160078516Y-127114300D01*
X160069482Y-127123617D01*
G36*
X159652535Y-130617772D02*
X159222939Y-131054195D01*
X159622763Y-131538522D01*
X159702653Y-131635189D01*
X159778448Y-131726694D01*
X159848454Y-131811006D01*
X159910974Y-131886091D01*
X159964313Y-131949916D01*
X160006775Y-132000450D01*
X160036665Y-132035659D01*
X160052286Y-132053511D01*
X160053044Y-132054311D01*
X160083500Y-132085772D01*
X160082132Y-130181350D01*
X159652535Y-130617772D01*
X159652535Y-130617772D01*
G37*
X159652535Y-130617772D02*
X159222939Y-131054195D01*
X159622763Y-131538522D01*
X159702653Y-131635189D01*
X159778448Y-131726694D01*
X159848454Y-131811006D01*
X159910974Y-131886091D01*
X159964313Y-131949916D01*
X160006775Y-132000450D01*
X160036665Y-132035659D01*
X160052286Y-132053511D01*
X160053044Y-132054311D01*
X160083500Y-132085772D01*
X160082132Y-130181350D01*
X159652535Y-130617772D01*
G36*
X161253988Y-124561755D02*
X161070232Y-124561830D01*
X160908488Y-124561993D01*
X160767062Y-124562274D01*
X160644260Y-124562703D01*
X160538387Y-124563313D01*
X160447750Y-124564133D01*
X160370655Y-124565193D01*
X160305408Y-124566526D01*
X160250314Y-124568161D01*
X160203680Y-124570129D01*
X160163812Y-124572461D01*
X160129015Y-124575188D01*
X160097596Y-124578340D01*
X160067860Y-124581948D01*
X160038114Y-124586042D01*
X160026350Y-124587747D01*
X159755641Y-124639783D01*
X159493989Y-124715007D01*
X159242584Y-124812718D01*
X159002611Y-124932214D01*
X158775260Y-125072792D01*
X158561716Y-125233750D01*
X158363167Y-125414386D01*
X158180801Y-125613997D01*
X158084285Y-125736350D01*
X158015255Y-125830725D01*
X157958188Y-125913934D01*
X157908213Y-125993832D01*
X157860463Y-126078274D01*
X157810067Y-126175117D01*
X157800344Y-126194464D01*
X157696723Y-126424764D01*
X157613448Y-126659818D01*
X157552517Y-126893951D01*
X157549949Y-126906224D01*
X157542959Y-126940111D01*
X157536561Y-126971928D01*
X157530731Y-127002881D01*
X157525442Y-127034173D01*
X157520668Y-127067010D01*
X157516382Y-127102597D01*
X157512558Y-127142138D01*
X157509169Y-127186839D01*
X157506191Y-127237904D01*
X157503595Y-127296537D01*
X157501356Y-127363945D01*
X157499448Y-127441331D01*
X157497844Y-127529900D01*
X157496518Y-127630858D01*
X157495443Y-127745409D01*
X157494594Y-127874758D01*
X157493945Y-128020110D01*
X157493467Y-128182669D01*
X157493137Y-128363641D01*
X157492926Y-128564230D01*
X157492810Y-128785642D01*
X157492761Y-129029080D01*
X157492753Y-129295750D01*
X157492759Y-129526492D01*
X157492774Y-129807026D01*
X157492814Y-130063347D01*
X157492889Y-130296646D01*
X157493013Y-130508110D01*
X157493196Y-130698927D01*
X157493453Y-130870286D01*
X157493793Y-131023375D01*
X157494231Y-131159382D01*
X157494777Y-131279496D01*
X157495445Y-131384905D01*
X157496246Y-131476798D01*
X157497192Y-131556363D01*
X157498295Y-131624788D01*
X157499569Y-131683261D01*
X157501024Y-131732972D01*
X157502673Y-131775107D01*
X157504528Y-131810857D01*
X157506602Y-131841408D01*
X157508905Y-131867949D01*
X157511452Y-131891670D01*
X157514253Y-131913757D01*
X157517321Y-131935399D01*
X157517400Y-131935934D01*
X157560533Y-132173172D01*
X157618578Y-132395109D01*
X157693568Y-132608334D01*
X157787531Y-132819439D01*
X157793085Y-132830704D01*
X157926523Y-133072244D01*
X158079094Y-133297667D01*
X158249659Y-133506160D01*
X158437078Y-133696909D01*
X158640210Y-133869097D01*
X158857915Y-134021912D01*
X159089054Y-134154539D01*
X159332486Y-134266163D01*
X159587071Y-134355969D01*
X159851669Y-134423143D01*
X160074626Y-134460678D01*
X160114305Y-134464105D01*
X160177058Y-134467215D01*
X160260648Y-134470006D01*
X160362840Y-134472479D01*
X160481397Y-134474634D01*
X160614085Y-134476472D01*
X160758667Y-134477992D01*
X160912907Y-134479195D01*
X161074570Y-134480081D01*
X161241420Y-134480650D01*
X161411220Y-134480903D01*
X161581736Y-134480838D01*
X161750732Y-134480458D01*
X161915971Y-134479761D01*
X162075217Y-134478748D01*
X162226236Y-134477419D01*
X162366790Y-134475775D01*
X162494645Y-134473815D01*
X162607565Y-134471540D01*
X162703313Y-134468949D01*
X162779654Y-134466044D01*
X162834353Y-134462824D01*
X162858032Y-134460456D01*
X163124417Y-134411914D01*
X163384068Y-134340194D01*
X163635195Y-134246265D01*
X163876010Y-134131100D01*
X164104723Y-133995669D01*
X164319546Y-133840942D01*
X164518689Y-133667891D01*
X164700363Y-133477486D01*
X164727061Y-133446224D01*
X164897326Y-133224812D01*
X165044435Y-132992965D01*
X165168417Y-132750624D01*
X165238354Y-132575300D01*
X160616900Y-132575300D01*
X159772350Y-132573522D01*
X159150050Y-131818335D01*
X159050814Y-131697858D01*
X158956014Y-131582671D01*
X158866929Y-131474335D01*
X158784839Y-131374409D01*
X158711025Y-131284457D01*
X158646766Y-131206038D01*
X158593343Y-131140712D01*
X158552034Y-131090042D01*
X158524120Y-131055588D01*
X158510881Y-131038911D01*
X158510200Y-131037983D01*
X158507888Y-131032564D01*
X158508472Y-131025232D01*
X158513066Y-131014802D01*
X158522784Y-131000088D01*
X158538741Y-130979906D01*
X158562052Y-130953071D01*
X158593831Y-130918398D01*
X158635194Y-130874702D01*
X158687254Y-130820798D01*
X158751127Y-130755501D01*
X158827927Y-130677626D01*
X158918769Y-130585988D01*
X159024768Y-130479402D01*
X159147038Y-130356684D01*
X159218734Y-130284783D01*
X159944818Y-129556748D01*
X159318834Y-128941931D01*
X159210674Y-128835716D01*
X159105355Y-128732321D01*
X159004680Y-128633515D01*
X158910449Y-128541063D01*
X158824466Y-128456733D01*
X158748532Y-128382292D01*
X158684449Y-128319508D01*
X158634020Y-128270147D01*
X158599045Y-128235977D01*
X158588319Y-128225531D01*
X158483788Y-128123950D01*
X159861250Y-126530778D01*
X160616900Y-126530100D01*
X160616900Y-132575300D01*
X165238354Y-132575300D01*
X165269298Y-132497729D01*
X165347104Y-132234219D01*
X165401864Y-131960034D01*
X165405501Y-131935934D01*
X165408576Y-131914287D01*
X165411383Y-131892225D01*
X165413936Y-131868559D01*
X165416246Y-131842101D01*
X165418325Y-131811662D01*
X165420185Y-131776055D01*
X165421839Y-131734090D01*
X165423299Y-131684579D01*
X165424577Y-131626335D01*
X165425684Y-131558168D01*
X165426634Y-131478890D01*
X165427438Y-131387314D01*
X165428109Y-131282250D01*
X165428658Y-131162510D01*
X165429098Y-131026906D01*
X165429441Y-130874250D01*
X165429699Y-130703353D01*
X165429885Y-130513027D01*
X165430009Y-130302083D01*
X165430086Y-130069334D01*
X165430126Y-129813590D01*
X165430142Y-129533664D01*
X165430142Y-129526492D01*
X165430148Y-129240380D01*
X165430135Y-128978463D01*
X165430084Y-128778000D01*
X164071300Y-128778000D01*
X164071300Y-132410200D01*
X163537900Y-132410200D01*
X163537900Y-131851400D01*
X163537691Y-131735045D01*
X163537093Y-131626922D01*
X163536149Y-131529589D01*
X163534904Y-131445605D01*
X163533400Y-131377531D01*
X163531682Y-131327925D01*
X163529793Y-131299347D01*
X163528375Y-131293225D01*
X163517906Y-131302027D01*
X163490960Y-131327197D01*
X163449097Y-131367217D01*
X163393877Y-131420571D01*
X163326859Y-131485740D01*
X163249603Y-131561208D01*
X163163669Y-131645457D01*
X163070616Y-131736970D01*
X162972003Y-131834231D01*
X162953700Y-131852313D01*
X162388550Y-132410774D01*
X162201563Y-132216812D01*
X162146368Y-132159140D01*
X162097898Y-132107694D01*
X162058685Y-132065227D01*
X162031259Y-132034493D01*
X162018153Y-132018246D01*
X162017413Y-132016500D01*
X162026806Y-132006485D01*
X162052363Y-131980658D01*
X162092107Y-131940982D01*
X162144059Y-131889421D01*
X162206240Y-131827937D01*
X162276672Y-131758493D01*
X162353374Y-131683052D01*
X162369500Y-131667214D01*
X162466446Y-131571998D01*
X162576042Y-131464318D01*
X162692837Y-131349533D01*
X162811381Y-131232998D01*
X162926226Y-131120072D01*
X163031920Y-131016112D01*
X163078638Y-130970146D01*
X163438525Y-130616014D01*
X163110440Y-130284382D01*
X163022941Y-130195946D01*
X162922258Y-130094200D01*
X162813079Y-129983882D01*
X162700094Y-129869730D01*
X162587992Y-129756480D01*
X162481461Y-129648870D01*
X162401303Y-129567911D01*
X162320463Y-129486260D01*
X162245208Y-129410234D01*
X162177405Y-129341724D01*
X162118926Y-129282618D01*
X162071638Y-129234805D01*
X162037412Y-129200176D01*
X162018116Y-129180620D01*
X162014509Y-129176935D01*
X162021348Y-129166566D01*
X162043724Y-129141047D01*
X162079102Y-129103082D01*
X162124949Y-129055371D01*
X162178731Y-129000617D01*
X162198553Y-128980696D01*
X162388340Y-128790592D01*
X162963120Y-129365269D01*
X163537900Y-129939945D01*
X163537900Y-128778000D01*
X164071300Y-128778000D01*
X165430084Y-128778000D01*
X165430074Y-128739536D01*
X165429941Y-128522395D01*
X165429708Y-128325834D01*
X165429351Y-128148649D01*
X165428841Y-127989636D01*
X165428153Y-127847588D01*
X165427261Y-127721302D01*
X165426138Y-127609572D01*
X165424759Y-127511194D01*
X165423096Y-127424962D01*
X165421124Y-127349673D01*
X165418815Y-127284121D01*
X165416145Y-127227101D01*
X165413086Y-127177408D01*
X165409613Y-127133838D01*
X165405698Y-127095186D01*
X165401316Y-127060247D01*
X165396441Y-127027816D01*
X165391045Y-126996688D01*
X165385104Y-126965659D01*
X165378590Y-126933523D01*
X165372952Y-126906224D01*
X165313260Y-126672298D01*
X165231119Y-126437150D01*
X165128526Y-126206456D01*
X165122557Y-126194464D01*
X165071169Y-126094556D01*
X165023302Y-126008462D01*
X164974087Y-125928326D01*
X164918655Y-125846293D01*
X164852137Y-125754506D01*
X164838616Y-125736350D01*
X164666033Y-125526207D01*
X164476589Y-125334638D01*
X164271471Y-125162346D01*
X164051867Y-125010033D01*
X163818963Y-124878400D01*
X163573948Y-124768151D01*
X163318007Y-124679987D01*
X163052330Y-124614611D01*
X162896550Y-124587747D01*
X162866351Y-124583458D01*
X162836812Y-124579667D01*
X162806238Y-124576344D01*
X162772936Y-124573458D01*
X162735212Y-124570978D01*
X162691372Y-124568874D01*
X162639722Y-124567115D01*
X162578568Y-124565670D01*
X162506215Y-124564509D01*
X162420970Y-124563601D01*
X162321138Y-124562914D01*
X162205026Y-124562419D01*
X162070940Y-124562085D01*
X161917185Y-124561881D01*
X161742068Y-124561776D01*
X161543894Y-124561739D01*
X161461450Y-124561737D01*
X161253988Y-124561755D01*
X161253988Y-124561755D01*
G37*
X161253988Y-124561755D02*
X161070232Y-124561830D01*
X160908488Y-124561993D01*
X160767062Y-124562274D01*
X160644260Y-124562703D01*
X160538387Y-124563313D01*
X160447750Y-124564133D01*
X160370655Y-124565193D01*
X160305408Y-124566526D01*
X160250314Y-124568161D01*
X160203680Y-124570129D01*
X160163812Y-124572461D01*
X160129015Y-124575188D01*
X160097596Y-124578340D01*
X160067860Y-124581948D01*
X160038114Y-124586042D01*
X160026350Y-124587747D01*
X159755641Y-124639783D01*
X159493989Y-124715007D01*
X159242584Y-124812718D01*
X159002611Y-124932214D01*
X158775260Y-125072792D01*
X158561716Y-125233750D01*
X158363167Y-125414386D01*
X158180801Y-125613997D01*
X158084285Y-125736350D01*
X158015255Y-125830725D01*
X157958188Y-125913934D01*
X157908213Y-125993832D01*
X157860463Y-126078274D01*
X157810067Y-126175117D01*
X157800344Y-126194464D01*
X157696723Y-126424764D01*
X157613448Y-126659818D01*
X157552517Y-126893951D01*
X157549949Y-126906224D01*
X157542959Y-126940111D01*
X157536561Y-126971928D01*
X157530731Y-127002881D01*
X157525442Y-127034173D01*
X157520668Y-127067010D01*
X157516382Y-127102597D01*
X157512558Y-127142138D01*
X157509169Y-127186839D01*
X157506191Y-127237904D01*
X157503595Y-127296537D01*
X157501356Y-127363945D01*
X157499448Y-127441331D01*
X157497844Y-127529900D01*
X157496518Y-127630858D01*
X157495443Y-127745409D01*
X157494594Y-127874758D01*
X157493945Y-128020110D01*
X157493467Y-128182669D01*
X157493137Y-128363641D01*
X157492926Y-128564230D01*
X157492810Y-128785642D01*
X157492761Y-129029080D01*
X157492753Y-129295750D01*
X157492759Y-129526492D01*
X157492774Y-129807026D01*
X157492814Y-130063347D01*
X157492889Y-130296646D01*
X157493013Y-130508110D01*
X157493196Y-130698927D01*
X157493453Y-130870286D01*
X157493793Y-131023375D01*
X157494231Y-131159382D01*
X157494777Y-131279496D01*
X157495445Y-131384905D01*
X157496246Y-131476798D01*
X157497192Y-131556363D01*
X157498295Y-131624788D01*
X157499569Y-131683261D01*
X157501024Y-131732972D01*
X157502673Y-131775107D01*
X157504528Y-131810857D01*
X157506602Y-131841408D01*
X157508905Y-131867949D01*
X157511452Y-131891670D01*
X157514253Y-131913757D01*
X157517321Y-131935399D01*
X157517400Y-131935934D01*
X157560533Y-132173172D01*
X157618578Y-132395109D01*
X157693568Y-132608334D01*
X157787531Y-132819439D01*
X157793085Y-132830704D01*
X157926523Y-133072244D01*
X158079094Y-133297667D01*
X158249659Y-133506160D01*
X158437078Y-133696909D01*
X158640210Y-133869097D01*
X158857915Y-134021912D01*
X159089054Y-134154539D01*
X159332486Y-134266163D01*
X159587071Y-134355969D01*
X159851669Y-134423143D01*
X160074626Y-134460678D01*
X160114305Y-134464105D01*
X160177058Y-134467215D01*
X160260648Y-134470006D01*
X160362840Y-134472479D01*
X160481397Y-134474634D01*
X160614085Y-134476472D01*
X160758667Y-134477992D01*
X160912907Y-134479195D01*
X161074570Y-134480081D01*
X161241420Y-134480650D01*
X161411220Y-134480903D01*
X161581736Y-134480838D01*
X161750732Y-134480458D01*
X161915971Y-134479761D01*
X162075217Y-134478748D01*
X162226236Y-134477419D01*
X162366790Y-134475775D01*
X162494645Y-134473815D01*
X162607565Y-134471540D01*
X162703313Y-134468949D01*
X162779654Y-134466044D01*
X162834353Y-134462824D01*
X162858032Y-134460456D01*
X163124417Y-134411914D01*
X163384068Y-134340194D01*
X163635195Y-134246265D01*
X163876010Y-134131100D01*
X164104723Y-133995669D01*
X164319546Y-133840942D01*
X164518689Y-133667891D01*
X164700363Y-133477486D01*
X164727061Y-133446224D01*
X164897326Y-133224812D01*
X165044435Y-132992965D01*
X165168417Y-132750624D01*
X165238354Y-132575300D01*
X160616900Y-132575300D01*
X159772350Y-132573522D01*
X159150050Y-131818335D01*
X159050814Y-131697858D01*
X158956014Y-131582671D01*
X158866929Y-131474335D01*
X158784839Y-131374409D01*
X158711025Y-131284457D01*
X158646766Y-131206038D01*
X158593343Y-131140712D01*
X158552034Y-131090042D01*
X158524120Y-131055588D01*
X158510881Y-131038911D01*
X158510200Y-131037983D01*
X158507888Y-131032564D01*
X158508472Y-131025232D01*
X158513066Y-131014802D01*
X158522784Y-131000088D01*
X158538741Y-130979906D01*
X158562052Y-130953071D01*
X158593831Y-130918398D01*
X158635194Y-130874702D01*
X158687254Y-130820798D01*
X158751127Y-130755501D01*
X158827927Y-130677626D01*
X158918769Y-130585988D01*
X159024768Y-130479402D01*
X159147038Y-130356684D01*
X159218734Y-130284783D01*
X159944818Y-129556748D01*
X159318834Y-128941931D01*
X159210674Y-128835716D01*
X159105355Y-128732321D01*
X159004680Y-128633515D01*
X158910449Y-128541063D01*
X158824466Y-128456733D01*
X158748532Y-128382292D01*
X158684449Y-128319508D01*
X158634020Y-128270147D01*
X158599045Y-128235977D01*
X158588319Y-128225531D01*
X158483788Y-128123950D01*
X159861250Y-126530778D01*
X160616900Y-126530100D01*
X160616900Y-132575300D01*
X165238354Y-132575300D01*
X165269298Y-132497729D01*
X165347104Y-132234219D01*
X165401864Y-131960034D01*
X165405501Y-131935934D01*
X165408576Y-131914287D01*
X165411383Y-131892225D01*
X165413936Y-131868559D01*
X165416246Y-131842101D01*
X165418325Y-131811662D01*
X165420185Y-131776055D01*
X165421839Y-131734090D01*
X165423299Y-131684579D01*
X165424577Y-131626335D01*
X165425684Y-131558168D01*
X165426634Y-131478890D01*
X165427438Y-131387314D01*
X165428109Y-131282250D01*
X165428658Y-131162510D01*
X165429098Y-131026906D01*
X165429441Y-130874250D01*
X165429699Y-130703353D01*
X165429885Y-130513027D01*
X165430009Y-130302083D01*
X165430086Y-130069334D01*
X165430126Y-129813590D01*
X165430142Y-129533664D01*
X165430142Y-129526492D01*
X165430148Y-129240380D01*
X165430135Y-128978463D01*
X165430084Y-128778000D01*
X164071300Y-128778000D01*
X164071300Y-132410200D01*
X163537900Y-132410200D01*
X163537900Y-131851400D01*
X163537691Y-131735045D01*
X163537093Y-131626922D01*
X163536149Y-131529589D01*
X163534904Y-131445605D01*
X163533400Y-131377531D01*
X163531682Y-131327925D01*
X163529793Y-131299347D01*
X163528375Y-131293225D01*
X163517906Y-131302027D01*
X163490960Y-131327197D01*
X163449097Y-131367217D01*
X163393877Y-131420571D01*
X163326859Y-131485740D01*
X163249603Y-131561208D01*
X163163669Y-131645457D01*
X163070616Y-131736970D01*
X162972003Y-131834231D01*
X162953700Y-131852313D01*
X162388550Y-132410774D01*
X162201563Y-132216812D01*
X162146368Y-132159140D01*
X162097898Y-132107694D01*
X162058685Y-132065227D01*
X162031259Y-132034493D01*
X162018153Y-132018246D01*
X162017413Y-132016500D01*
X162026806Y-132006485D01*
X162052363Y-131980658D01*
X162092107Y-131940982D01*
X162144059Y-131889421D01*
X162206240Y-131827937D01*
X162276672Y-131758493D01*
X162353374Y-131683052D01*
X162369500Y-131667214D01*
X162466446Y-131571998D01*
X162576042Y-131464318D01*
X162692837Y-131349533D01*
X162811381Y-131232998D01*
X162926226Y-131120072D01*
X163031920Y-131016112D01*
X163078638Y-130970146D01*
X163438525Y-130616014D01*
X163110440Y-130284382D01*
X163022941Y-130195946D01*
X162922258Y-130094200D01*
X162813079Y-129983882D01*
X162700094Y-129869730D01*
X162587992Y-129756480D01*
X162481461Y-129648870D01*
X162401303Y-129567911D01*
X162320463Y-129486260D01*
X162245208Y-129410234D01*
X162177405Y-129341724D01*
X162118926Y-129282618D01*
X162071638Y-129234805D01*
X162037412Y-129200176D01*
X162018116Y-129180620D01*
X162014509Y-129176935D01*
X162021348Y-129166566D01*
X162043724Y-129141047D01*
X162079102Y-129103082D01*
X162124949Y-129055371D01*
X162178731Y-129000617D01*
X162198553Y-128980696D01*
X162388340Y-128790592D01*
X162963120Y-129365269D01*
X163537900Y-129939945D01*
X163537900Y-128778000D01*
X164071300Y-128778000D01*
X165430084Y-128778000D01*
X165430074Y-128739536D01*
X165429941Y-128522395D01*
X165429708Y-128325834D01*
X165429351Y-128148649D01*
X165428841Y-127989636D01*
X165428153Y-127847588D01*
X165427261Y-127721302D01*
X165426138Y-127609572D01*
X165424759Y-127511194D01*
X165423096Y-127424962D01*
X165421124Y-127349673D01*
X165418815Y-127284121D01*
X165416145Y-127227101D01*
X165413086Y-127177408D01*
X165409613Y-127133838D01*
X165405698Y-127095186D01*
X165401316Y-127060247D01*
X165396441Y-127027816D01*
X165391045Y-126996688D01*
X165385104Y-126965659D01*
X165378590Y-126933523D01*
X165372952Y-126906224D01*
X165313260Y-126672298D01*
X165231119Y-126437150D01*
X165128526Y-126206456D01*
X165122557Y-126194464D01*
X165071169Y-126094556D01*
X165023302Y-126008462D01*
X164974087Y-125928326D01*
X164918655Y-125846293D01*
X164852137Y-125754506D01*
X164838616Y-125736350D01*
X164666033Y-125526207D01*
X164476589Y-125334638D01*
X164271471Y-125162346D01*
X164051867Y-125010033D01*
X163818963Y-124878400D01*
X163573948Y-124768151D01*
X163318007Y-124679987D01*
X163052330Y-124614611D01*
X162896550Y-124587747D01*
X162866351Y-124583458D01*
X162836812Y-124579667D01*
X162806238Y-124576344D01*
X162772936Y-124573458D01*
X162735212Y-124570978D01*
X162691372Y-124568874D01*
X162639722Y-124567115D01*
X162578568Y-124565670D01*
X162506215Y-124564509D01*
X162420970Y-124563601D01*
X162321138Y-124562914D01*
X162205026Y-124562419D01*
X162070940Y-124562085D01*
X161917185Y-124561881D01*
X161742068Y-124561776D01*
X161543894Y-124561739D01*
X161461450Y-124561737D01*
X161253988Y-124561755D01*
G04 #@! TD*
M02*
