M48
;DRILL file {KiCad (5.0.0)} date 06/03/20 16:47:04
;FORMAT={-:-/ absolute / inch / decimal}
FMAT,2
INCH,TZ
T1C0.0157
T2C0.0256
T3C0.0394
%
G90
G05
M72
T1
X1.942Y-1.367
T2
X1.9Y-1.45
X1.9Y-1.5
X1.9Y-1.55
X1.9Y-1.6
X1.9Y-1.65
X1.95Y-1.45
X1.95Y-1.5
X1.95Y-1.55
X1.95Y-1.6
X1.95Y-1.65
T3
X1.2Y-1.3419
X1.2Y-1.4419
X1.2Y-1.5419
X1.2Y-1.6419
X1.497Y-1.3419
X1.497Y-1.4419
X1.497Y-1.5419
X1.497Y-1.6419
X1.497Y-1.7419
X1.597Y-1.3419
X1.597Y-1.4419
X1.597Y-1.5419
X1.597Y-1.6419
X1.597Y-1.7419
T0
M30
