G04 #@! TF.GenerationSoftware,KiCad,Pcbnew,(5.0.0)*
G04 #@! TF.CreationDate,2020-06-03T16:47:07-06:00*
G04 #@! TF.ProjectId,JlinkMini2TC2050,4A6C696E6B4D696E6932544332303530,rev?*
G04 #@! TF.SameCoordinates,Original*
G04 #@! TF.FileFunction,Legend,Top*
G04 #@! TF.FilePolarity,Positive*
%FSLAX46Y46*%
G04 Gerber Fmt 4.6, Leading zero omitted, Abs format (unit mm)*
G04 Created by KiCad (PCBNEW (5.0.0)) date 06/03/20 16:47:07*
%MOMM*%
%LPD*%
G01*
G04 APERTURE LIST*
%ADD10C,0.300000*%
%ADD11C,0.150000*%
%ADD12C,0.120000*%
G04 APERTURE END LIST*
D10*
X32069971Y-26889971D02*
X32069971Y-27961400D01*
X31998542Y-28175685D01*
X31855685Y-28318542D01*
X31641400Y-28389971D01*
X31498542Y-28389971D01*
X33498542Y-28389971D02*
X32784257Y-28389971D01*
X32784257Y-26889971D01*
X33998542Y-28389971D02*
X33998542Y-26889971D01*
X34712828Y-28389971D02*
X34712828Y-26889971D01*
X35569971Y-28389971D01*
X35569971Y-26889971D01*
X36284257Y-28389971D02*
X36284257Y-26889971D01*
X37141400Y-28389971D02*
X36498542Y-27532828D01*
X37141400Y-26889971D02*
X36284257Y-27747114D01*
X38855685Y-27961400D02*
X39569971Y-27961400D01*
X38712828Y-28389971D02*
X39212828Y-26889971D01*
X39712828Y-28389971D01*
X40855685Y-28389971D02*
X40855685Y-26889971D01*
X40855685Y-28318542D02*
X40712828Y-28389971D01*
X40427114Y-28389971D01*
X40284257Y-28318542D01*
X40212828Y-28247114D01*
X40141400Y-28104257D01*
X40141400Y-27675685D01*
X40212828Y-27532828D01*
X40284257Y-27461400D01*
X40427114Y-27389971D01*
X40712828Y-27389971D01*
X40855685Y-27461400D01*
X42212828Y-28389971D02*
X42212828Y-27604257D01*
X42141400Y-27461400D01*
X41998542Y-27389971D01*
X41712828Y-27389971D01*
X41569971Y-27461400D01*
X42212828Y-28318542D02*
X42069971Y-28389971D01*
X41712828Y-28389971D01*
X41569971Y-28318542D01*
X41498542Y-28175685D01*
X41498542Y-28032828D01*
X41569971Y-27889971D01*
X41712828Y-27818542D01*
X42069971Y-27818542D01*
X42212828Y-27747114D01*
X42927114Y-27389971D02*
X42927114Y-28889971D01*
X42927114Y-27461400D02*
X43069971Y-27389971D01*
X43355685Y-27389971D01*
X43498542Y-27461400D01*
X43569971Y-27532828D01*
X43641400Y-27675685D01*
X43641400Y-28104257D01*
X43569971Y-28247114D01*
X43498542Y-28318542D01*
X43355685Y-28389971D01*
X43069971Y-28389971D01*
X42927114Y-28318542D01*
X44069971Y-27389971D02*
X44641400Y-27389971D01*
X44284257Y-26889971D02*
X44284257Y-28175685D01*
X44355685Y-28318542D01*
X44498542Y-28389971D01*
X44641400Y-28389971D01*
X45712828Y-28318542D02*
X45569971Y-28389971D01*
X45284257Y-28389971D01*
X45141399Y-28318542D01*
X45069971Y-28175685D01*
X45069971Y-27604257D01*
X45141399Y-27461400D01*
X45284257Y-27389971D01*
X45569971Y-27389971D01*
X45712828Y-27461400D01*
X45784257Y-27604257D01*
X45784257Y-27747114D01*
X45069971Y-27889971D01*
X46427114Y-28389971D02*
X46427114Y-27389971D01*
X46427114Y-27675685D02*
X46498542Y-27532828D01*
X46569971Y-27461400D01*
X46712828Y-27389971D01*
X46855685Y-27389971D01*
D11*
X43646790Y-35709580D02*
X43646790Y-34709580D01*
X44313457Y-34709580D02*
X44503933Y-34709580D01*
X44599171Y-34757200D01*
X44694409Y-34852438D01*
X44742028Y-35042914D01*
X44742028Y-35376247D01*
X44694409Y-35566723D01*
X44599171Y-35661961D01*
X44503933Y-35709580D01*
X44313457Y-35709580D01*
X44218219Y-35661961D01*
X44122980Y-35566723D01*
X44075361Y-35376247D01*
X44075361Y-35042914D01*
X44122980Y-34852438D01*
X44218219Y-34757200D01*
X44313457Y-34709580D01*
X43575361Y-37264342D02*
X43527742Y-37311961D01*
X43384885Y-37359580D01*
X43289647Y-37359580D01*
X43146790Y-37311961D01*
X43051552Y-37216723D01*
X43003933Y-37121485D01*
X42956314Y-36931009D01*
X42956314Y-36788152D01*
X43003933Y-36597676D01*
X43051552Y-36502438D01*
X43146790Y-36407200D01*
X43289647Y-36359580D01*
X43384885Y-36359580D01*
X43527742Y-36407200D01*
X43575361Y-36454819D01*
X44480123Y-37359580D02*
X44003933Y-37359580D01*
X44003933Y-36359580D01*
X44813457Y-37359580D02*
X44813457Y-36359580D01*
X45384885Y-37359580D02*
X44956314Y-36788152D01*
X45384885Y-36359580D02*
X44813457Y-36931009D01*
X42789647Y-38961961D02*
X42932504Y-39009580D01*
X43170600Y-39009580D01*
X43265838Y-38961961D01*
X43313457Y-38914342D01*
X43361076Y-38819104D01*
X43361076Y-38723866D01*
X43313457Y-38628628D01*
X43265838Y-38581009D01*
X43170600Y-38533390D01*
X42980123Y-38485771D01*
X42884885Y-38438152D01*
X42837266Y-38390533D01*
X42789647Y-38295295D01*
X42789647Y-38200057D01*
X42837266Y-38104819D01*
X42884885Y-38057200D01*
X42980123Y-38009580D01*
X43218219Y-38009580D01*
X43361076Y-38057200D01*
X43694409Y-38009580D02*
X43932504Y-39009580D01*
X44122980Y-38295295D01*
X44313457Y-39009580D01*
X44551552Y-38009580D01*
X45122980Y-38009580D02*
X45313457Y-38009580D01*
X45408695Y-38057200D01*
X45503933Y-38152438D01*
X45551552Y-38342914D01*
X45551552Y-38676247D01*
X45503933Y-38866723D01*
X45408695Y-38961961D01*
X45313457Y-39009580D01*
X45122980Y-39009580D01*
X45027742Y-38961961D01*
X44932504Y-38866723D01*
X44884885Y-38676247D01*
X44884885Y-38342914D01*
X44932504Y-38152438D01*
X45027742Y-38057200D01*
X45122980Y-38009580D01*
X43146790Y-39659580D02*
X43718219Y-39659580D01*
X43432504Y-40659580D02*
X43432504Y-39659580D01*
X44051552Y-40659580D02*
X44051552Y-39659580D01*
X44289647Y-39659580D01*
X44432504Y-39707200D01*
X44527742Y-39802438D01*
X44575361Y-39897676D01*
X44622980Y-40088152D01*
X44622980Y-40231009D01*
X44575361Y-40421485D01*
X44527742Y-40516723D01*
X44432504Y-40611961D01*
X44289647Y-40659580D01*
X44051552Y-40659580D01*
X45051552Y-40659580D02*
X45051552Y-39659580D01*
X42718219Y-42309580D02*
X42384885Y-41833390D01*
X42146790Y-42309580D02*
X42146790Y-41309580D01*
X42527742Y-41309580D01*
X42622980Y-41357200D01*
X42670600Y-41404819D01*
X42718219Y-41500057D01*
X42718219Y-41642914D01*
X42670600Y-41738152D01*
X42622980Y-41785771D01*
X42527742Y-41833390D01*
X42146790Y-41833390D01*
X43146790Y-41785771D02*
X43480123Y-41785771D01*
X43622980Y-42309580D02*
X43146790Y-42309580D01*
X43146790Y-41309580D01*
X43622980Y-41309580D01*
X44003933Y-42261961D02*
X44146790Y-42309580D01*
X44384885Y-42309580D01*
X44480123Y-42261961D01*
X44527742Y-42214342D01*
X44575361Y-42119104D01*
X44575361Y-42023866D01*
X44527742Y-41928628D01*
X44480123Y-41881009D01*
X44384885Y-41833390D01*
X44194409Y-41785771D01*
X44099171Y-41738152D01*
X44051552Y-41690533D01*
X44003933Y-41595295D01*
X44003933Y-41500057D01*
X44051552Y-41404819D01*
X44099171Y-41357200D01*
X44194409Y-41309580D01*
X44432504Y-41309580D01*
X44575361Y-41357200D01*
X45003933Y-41785771D02*
X45337266Y-41785771D01*
X45480123Y-42309580D02*
X45003933Y-42309580D01*
X45003933Y-41309580D01*
X45480123Y-41309580D01*
X45765838Y-41309580D02*
X46337266Y-41309580D01*
X46051552Y-42309580D02*
X46051552Y-41309580D01*
X32767828Y-34836580D02*
X33101161Y-35836580D01*
X33434495Y-34836580D01*
X33624971Y-34836580D02*
X34196400Y-34836580D01*
X33910685Y-35836580D02*
X33910685Y-34836580D01*
X35101161Y-35836580D02*
X34767828Y-35360390D01*
X34529733Y-35836580D02*
X34529733Y-34836580D01*
X34910685Y-34836580D01*
X35005923Y-34884200D01*
X35053542Y-34931819D01*
X35101161Y-35027057D01*
X35101161Y-35169914D01*
X35053542Y-35265152D01*
X35005923Y-35312771D01*
X34910685Y-35360390D01*
X34529733Y-35360390D01*
X35910685Y-35788961D02*
X35815447Y-35836580D01*
X35624971Y-35836580D01*
X35529733Y-35788961D01*
X35482114Y-35693723D01*
X35482114Y-35312771D01*
X35529733Y-35217533D01*
X35624971Y-35169914D01*
X35815447Y-35169914D01*
X35910685Y-35217533D01*
X35958304Y-35312771D01*
X35958304Y-35408009D01*
X35482114Y-35503247D01*
X36244019Y-35169914D02*
X36624971Y-35169914D01*
X36386876Y-35836580D02*
X36386876Y-34979438D01*
X36434495Y-34884200D01*
X36529733Y-34836580D01*
X36624971Y-34836580D01*
X33934495Y-36534200D02*
X33839257Y-36486580D01*
X33696400Y-36486580D01*
X33553542Y-36534200D01*
X33458304Y-36629438D01*
X33410685Y-36724676D01*
X33363066Y-36915152D01*
X33363066Y-37058009D01*
X33410685Y-37248485D01*
X33458304Y-37343723D01*
X33553542Y-37438961D01*
X33696400Y-37486580D01*
X33791638Y-37486580D01*
X33934495Y-37438961D01*
X33982114Y-37391342D01*
X33982114Y-37058009D01*
X33791638Y-37058009D01*
X34410685Y-37486580D02*
X34410685Y-36486580D01*
X34982114Y-37486580D01*
X34982114Y-36486580D01*
X35458304Y-37486580D02*
X35458304Y-36486580D01*
X35696400Y-36486580D01*
X35839257Y-36534200D01*
X35934495Y-36629438D01*
X35982114Y-36724676D01*
X36029733Y-36915152D01*
X36029733Y-37058009D01*
X35982114Y-37248485D01*
X35934495Y-37343723D01*
X35839257Y-37438961D01*
X35696400Y-37486580D01*
X35458304Y-37486580D01*
X33934495Y-38184200D02*
X33839257Y-38136580D01*
X33696400Y-38136580D01*
X33553542Y-38184200D01*
X33458304Y-38279438D01*
X33410685Y-38374676D01*
X33363066Y-38565152D01*
X33363066Y-38708009D01*
X33410685Y-38898485D01*
X33458304Y-38993723D01*
X33553542Y-39088961D01*
X33696400Y-39136580D01*
X33791638Y-39136580D01*
X33934495Y-39088961D01*
X33982114Y-39041342D01*
X33982114Y-38708009D01*
X33791638Y-38708009D01*
X34410685Y-39136580D02*
X34410685Y-38136580D01*
X34982114Y-39136580D01*
X34982114Y-38136580D01*
X35458304Y-39136580D02*
X35458304Y-38136580D01*
X35696400Y-38136580D01*
X35839257Y-38184200D01*
X35934495Y-38279438D01*
X35982114Y-38374676D01*
X36029733Y-38565152D01*
X36029733Y-38708009D01*
X35982114Y-38898485D01*
X35934495Y-38993723D01*
X35839257Y-39088961D01*
X35696400Y-39136580D01*
X35458304Y-39136580D01*
X33077352Y-40405628D02*
X33839257Y-40405628D01*
X34315447Y-40405628D02*
X35077352Y-40405628D01*
X35553542Y-40405628D02*
X36315447Y-40405628D01*
X33910685Y-42436580D02*
X33910685Y-41436580D01*
X34482114Y-42436580D01*
X34482114Y-41436580D01*
X35529733Y-42341342D02*
X35482114Y-42388961D01*
X35339257Y-42436580D01*
X35244019Y-42436580D01*
X35101161Y-42388961D01*
X35005923Y-42293723D01*
X34958304Y-42198485D01*
X34910685Y-42008009D01*
X34910685Y-41865152D01*
X34958304Y-41674676D01*
X35005923Y-41579438D01*
X35101161Y-41484200D01*
X35244019Y-41436580D01*
X35339257Y-41436580D01*
X35482114Y-41484200D01*
X35529733Y-41531819D01*
X26806590Y-36001180D02*
X26806590Y-35001180D01*
X27473257Y-35001180D02*
X27663733Y-35001180D01*
X27758971Y-35048800D01*
X27854209Y-35144038D01*
X27901828Y-35334514D01*
X27901828Y-35667847D01*
X27854209Y-35858323D01*
X27758971Y-35953561D01*
X27663733Y-36001180D01*
X27473257Y-36001180D01*
X27378019Y-35953561D01*
X27282780Y-35858323D01*
X27235161Y-35667847D01*
X27235161Y-35334514D01*
X27282780Y-35144038D01*
X27378019Y-35048800D01*
X27473257Y-35001180D01*
X26735161Y-37555942D02*
X26687542Y-37603561D01*
X26544685Y-37651180D01*
X26449447Y-37651180D01*
X26306590Y-37603561D01*
X26211352Y-37508323D01*
X26163733Y-37413085D01*
X26116114Y-37222609D01*
X26116114Y-37079752D01*
X26163733Y-36889276D01*
X26211352Y-36794038D01*
X26306590Y-36698800D01*
X26449447Y-36651180D01*
X26544685Y-36651180D01*
X26687542Y-36698800D01*
X26735161Y-36746419D01*
X27639923Y-37651180D02*
X27163733Y-37651180D01*
X27163733Y-36651180D01*
X27973257Y-37651180D02*
X27973257Y-36651180D01*
X28544685Y-37651180D02*
X28116114Y-37079752D01*
X28544685Y-36651180D02*
X27973257Y-37222609D01*
X26568495Y-38348800D02*
X26473257Y-38301180D01*
X26330400Y-38301180D01*
X26187542Y-38348800D01*
X26092304Y-38444038D01*
X26044685Y-38539276D01*
X25997066Y-38729752D01*
X25997066Y-38872609D01*
X26044685Y-39063085D01*
X26092304Y-39158323D01*
X26187542Y-39253561D01*
X26330400Y-39301180D01*
X26425638Y-39301180D01*
X26568495Y-39253561D01*
X26616114Y-39205942D01*
X26616114Y-38872609D01*
X26425638Y-38872609D01*
X27044685Y-39301180D02*
X27044685Y-38301180D01*
X27616114Y-39301180D01*
X27616114Y-38301180D01*
X28092304Y-39301180D02*
X28092304Y-38301180D01*
X28330400Y-38301180D01*
X28473257Y-38348800D01*
X28568495Y-38444038D01*
X28616114Y-38539276D01*
X28663733Y-38729752D01*
X28663733Y-38872609D01*
X28616114Y-39063085D01*
X28568495Y-39158323D01*
X28473257Y-39253561D01*
X28330400Y-39301180D01*
X28092304Y-39301180D01*
X25997066Y-39951180D02*
X26330400Y-40951180D01*
X26663733Y-39951180D01*
X27568495Y-40855942D02*
X27520876Y-40903561D01*
X27378019Y-40951180D01*
X27282780Y-40951180D01*
X27139923Y-40903561D01*
X27044685Y-40808323D01*
X26997066Y-40713085D01*
X26949447Y-40522609D01*
X26949447Y-40379752D01*
X26997066Y-40189276D01*
X27044685Y-40094038D01*
X27139923Y-39998800D01*
X27282780Y-39951180D01*
X27378019Y-39951180D01*
X27520876Y-39998800D01*
X27568495Y-40046419D01*
X28568495Y-40855942D02*
X28520876Y-40903561D01*
X28378019Y-40951180D01*
X28282780Y-40951180D01*
X28139923Y-40903561D01*
X28044685Y-40808323D01*
X27997066Y-40713085D01*
X27949447Y-40522609D01*
X27949447Y-40379752D01*
X27997066Y-40189276D01*
X28044685Y-40094038D01*
X28139923Y-39998800D01*
X28282780Y-39951180D01*
X28378019Y-39951180D01*
X28520876Y-39998800D01*
X28568495Y-40046419D01*
D12*
G04 #@! TO.C,J1*
X47130000Y-42605000D02*
X47952470Y-42605000D01*
X49837530Y-42605000D02*
X50660000Y-42605000D01*
X48567530Y-42605000D02*
X49222470Y-42605000D01*
X47130000Y-37590000D02*
X47130000Y-42605000D01*
X50660000Y-36135000D02*
X50660000Y-42605000D01*
X47130000Y-37590000D02*
X47696529Y-37590000D01*
X48823471Y-37590000D02*
X48966529Y-37590000D01*
X49020000Y-37536529D02*
X49020000Y-37393471D01*
X49020000Y-36266529D02*
X49020000Y-36135000D01*
X49020000Y-36135000D02*
X49222470Y-36135000D01*
X49837530Y-36135000D02*
X50660000Y-36135000D01*
X47130000Y-36830000D02*
X47130000Y-36070000D01*
X47130000Y-36070000D02*
X48260000Y-36070000D01*
G04 #@! TO.C,J2*
X36695001Y-45575001D02*
X41895001Y-45575001D01*
X36695001Y-35355001D02*
X36695001Y-45575001D01*
X41895001Y-32755001D02*
X41895001Y-45575001D01*
X36695001Y-35355001D02*
X39295001Y-35355001D01*
X39295001Y-35355001D02*
X39295001Y-32755001D01*
X39295001Y-32755001D02*
X41895001Y-32755001D01*
X36695001Y-34085001D02*
X36695001Y-32755001D01*
X36695001Y-32755001D02*
X38025001Y-32755001D01*
G04 #@! TO.C,J3*
X29150000Y-43035001D02*
X31810000Y-43035001D01*
X29150000Y-35355001D02*
X29150000Y-43035001D01*
X31810000Y-35355001D02*
X31810000Y-43035001D01*
X29150000Y-35355001D02*
X31810000Y-35355001D01*
X29150000Y-34085001D02*
X29150000Y-32755001D01*
X29150000Y-32755001D02*
X30480000Y-32755001D01*
G04 #@! TD*
M02*
