G04 #@! TF.GenerationSoftware,KiCad,Pcbnew,(5.0.0)*
G04 #@! TF.CreationDate,2020-06-03T16:47:07-06:00*
G04 #@! TF.ProjectId,JlinkMini2TC2050,4A6C696E6B4D696E6932544332303530,rev?*
G04 #@! TF.SameCoordinates,Original*
G04 #@! TF.FileFunction,Copper,L1,Top,Signal*
G04 #@! TF.FilePolarity,Positive*
%FSLAX46Y46*%
G04 Gerber Fmt 4.6, Leading zero omitted, Abs format (unit mm)*
G04 Created by KiCad (PCBNEW (5.0.0)) date 06/03/20 16:47:07*
%MOMM*%
%LPD*%
G01*
G04 APERTURE LIST*
G04 #@! TA.AperFunction,ComponentPad*
%ADD10R,1.000000X1.000000*%
G04 #@! TD*
G04 #@! TA.AperFunction,ComponentPad*
%ADD11O,1.000000X1.000000*%
G04 #@! TD*
G04 #@! TA.AperFunction,ComponentPad*
%ADD12R,1.700000X1.700000*%
G04 #@! TD*
G04 #@! TA.AperFunction,ComponentPad*
%ADD13O,1.700000X1.700000*%
G04 #@! TD*
G04 #@! TA.AperFunction,ViaPad*
%ADD14C,0.800000*%
G04 #@! TD*
G04 #@! TA.AperFunction,Conductor*
%ADD15C,0.250000*%
G04 #@! TD*
G04 APERTURE END LIST*
D10*
G04 #@! TO.P,J1,1*
G04 #@! TO.N,VTRef*
X48260000Y-36830000D03*
D11*
G04 #@! TO.P,J1,2*
G04 #@! TO.N,SWDIO*
X49530000Y-36830000D03*
G04 #@! TO.P,J1,3*
G04 #@! TO.N,GND*
X48260000Y-38100000D03*
G04 #@! TO.P,J1,4*
G04 #@! TO.N,SWDCLK*
X49530000Y-38100000D03*
G04 #@! TO.P,J1,5*
G04 #@! TO.N,GND*
X48260000Y-39370000D03*
G04 #@! TO.P,J1,6*
G04 #@! TO.N,SWO*
X49530000Y-39370000D03*
G04 #@! TO.P,J1,7*
G04 #@! TO.N,N/C*
X48260000Y-40640000D03*
G04 #@! TO.P,J1,8*
G04 #@! TO.N,TDI*
X49530000Y-40640000D03*
G04 #@! TO.P,J1,9*
G04 #@! TO.N,NC*
X48260000Y-41910000D03*
G04 #@! TO.P,J1,10*
G04 #@! TO.N,nRESET*
X49530000Y-41910000D03*
G04 #@! TD*
D12*
G04 #@! TO.P,J2,1*
G04 #@! TO.N,VTRef*
X38025001Y-34085001D03*
D13*
G04 #@! TO.P,J2,2*
G04 #@! TO.N,SWDIO*
X40565001Y-34085001D03*
G04 #@! TO.P,J2,3*
G04 #@! TO.N,GND*
X38025001Y-36625001D03*
G04 #@! TO.P,J2,4*
G04 #@! TO.N,SWDCLK*
X40565001Y-36625001D03*
G04 #@! TO.P,J2,5*
G04 #@! TO.N,GND*
X38025001Y-39165001D03*
G04 #@! TO.P,J2,6*
G04 #@! TO.N,SWO*
X40565001Y-39165001D03*
G04 #@! TO.P,J2,7*
G04 #@! TO.N,N/C*
X38025001Y-41705001D03*
G04 #@! TO.P,J2,8*
G04 #@! TO.N,TDI*
X40565001Y-41705001D03*
G04 #@! TO.P,J2,9*
G04 #@! TO.N,NC*
X38025001Y-44245001D03*
G04 #@! TO.P,J2,10*
G04 #@! TO.N,nRESET*
X40565001Y-44245001D03*
G04 #@! TD*
D12*
G04 #@! TO.P,J3,1*
G04 #@! TO.N,SWDIO*
X30480000Y-34085001D03*
D13*
G04 #@! TO.P,J3,2*
G04 #@! TO.N,SWDCLK*
X30480000Y-36625001D03*
G04 #@! TO.P,J3,3*
G04 #@! TO.N,GND*
X30480000Y-39165001D03*
G04 #@! TO.P,J3,4*
G04 #@! TO.N,VTRef*
X30480000Y-41705001D03*
G04 #@! TD*
D14*
G04 #@! TO.N,SWDCLK*
X49326800Y-34721800D03*
G04 #@! TD*
D15*
G04 #@! TO.N,SWDIO*
X31580000Y-34085001D02*
X33356201Y-32308800D01*
X30480000Y-34085001D02*
X31580000Y-34085001D01*
X38788800Y-32308800D02*
X40565001Y-34085001D01*
X33356201Y-32308800D02*
X38788800Y-32308800D01*
G04 #@! TO.N,GND*
X30480000Y-39165001D02*
X38025001Y-39165001D01*
X38025001Y-39165001D02*
X38025001Y-36625001D01*
G04 #@! TO.N,SWDCLK*
X39390000Y-35450000D02*
X40565001Y-36625001D01*
X36889200Y-35450000D02*
X39390000Y-35450000D01*
X30480000Y-36625001D02*
X35714199Y-36625001D01*
X35714199Y-36625001D02*
X36889200Y-35450000D01*
X48761115Y-34721800D02*
X49326800Y-34721800D01*
X42468202Y-34721800D02*
X48761115Y-34721800D01*
X40565001Y-36625001D02*
X42468202Y-34721800D01*
G04 #@! TO.N,SWO*
X40565001Y-39165001D02*
X44144602Y-35585400D01*
X49711800Y-35585400D02*
X50862398Y-36735998D01*
X50862398Y-38037602D02*
X50029999Y-38870001D01*
X50862398Y-36735998D02*
X50862398Y-38037602D01*
X44144602Y-35585400D02*
X49711800Y-35585400D01*
X50029999Y-38870001D02*
X49530000Y-39370000D01*
G04 #@! TO.N,TDI*
X40565001Y-41705001D02*
X41913000Y-43053000D01*
X50029999Y-41139999D02*
X49530000Y-40640000D01*
X50355001Y-41465001D02*
X50029999Y-41139999D01*
X50355001Y-42306001D02*
X50355001Y-41465001D01*
X49608002Y-43053000D02*
X50355001Y-42306001D01*
X41913000Y-43053000D02*
X49608002Y-43053000D01*
G04 #@! TD*
M02*
